<svg width="216" height="145" viewBox="0 0 216 145" fill="none" xmlns="http://www.w3.org/2000/svg">
<path d="M17 15.586L13.458 12.044C14.421 10.782 15 9.21 15 7.5C15 3.358 11.643 0 7.5 0C3.358 0 0 3.358 0 7.5C0 11.643 3.358 15 7.5 15C9.21 15 10.782 14.421 12.044 13.458L15.586 17L17 15.586ZM2 7.5C2 4.467 4.467 2 7.5 2C10.532 2 13 4.467 13 7.5C13 10.532 10.532 13 7.5 13C4.467 13 2 10.532 2 7.5Z" fill="white"/>
<path d="M17 15.586L13.458 12.044C14.421 10.782 15 9.21 15 7.5C15 3.358 11.643 0 7.5 0C3.358 0 0 3.358 0 7.5C0 11.643 3.358 15 7.5 15C9.21 15 10.782 14.421 12.044 13.458L15.586 17L17 15.586ZM2 7.5C2 4.467 4.467 2 7.5 2C10.532 2 13 4.467 13 7.5C13 10.532 10.532 13 7.5 13C4.467 13 2 10.532 2 7.5Z" fill="white"/>
<path d="M38 15.586L34.458 12.044C35.421 10.782 36 9.21 36 7.5C36 3.358 32.643 0 28.5 0C24.358 0 21 3.358 21 7.5C21 11.643 24.358 15 28.5 15C30.21 15 31.782 14.421 33.044 13.458L36.586 17L38 15.586ZM23 7.5C23 4.467 25.467 2 28.5 2C31.532 2 34 4.467 34 7.5C34 10.532 31.532 13 28.5 13C25.467 13 23 10.532 23 7.5Z" fill="#EE3643"/>
<path d="M64.5 15C65.3284 15 66 14.3284 66 13.5C66 12.6716 65.3284 12 64.5 12C63.6716 12 63 12.6716 63 13.5C63 14.3284 63.6716 15 64.5 15Z" fill="white"/>
<path d="M72.5 15C73.3284 15 74 14.3284 74 13.5C74 12.6716 73.3284 12 72.5 12C71.6716 12 71 12.6716 71 13.5C71 14.3284 71.6716 15 72.5 15Z" fill="white"/>
<path d="M75 2H64.07L63.648 0H60V2H62.031L64.016 11H75V9H69.441L75 6.951V2Z" fill="white"/>
<path d="M56 15C56 15.55 55.632 15.741 55.182 15.426L49.819 11.661C49.369 11.346 48.632 11.346 48.182 11.661L42.818 15.426C42.368 15.741 42 15.55 42 15V1C42 0.45 42.45 0 43 0H55C55.55 0 56 0.45 56 1V15Z" fill="white"/>
<g clip-path="url(#clip0)">
<path d="M115.875 8.5L107 0V6H101V11H107V17L115.875 8.5Z" fill="#32425C"/>
<path d="M117.986 15.01H112.959V17H117.986C120.164 17 120.99 15.19 121.015 13.974V3.028C120.99 1.811 120.164 0 117.986 0H112.959V1.99H117.986C118.825 1.99 118.978 2.671 118.996 3.047V13.951C118.979 14.327 118.825 15.01 117.986 15.01Z" fill="#32425C"/>
</g>
<g clip-path="url(#clip1)">
<path d="M141.138 11.51C142.094 11.201 143.318 13.55 144.621 14.449C145.599 15.13 146.348 14.983 146.348 14.983L149.821 14.933C149.821 14.933 151.636 14.821 150.778 13.379C150.707 13.259 150.275 12.31 148.193 10.357C146.016 8.31401 146.311 8.64501 148.932 5.11301C150.529 2.96001 151.168 1.64501 150.968 1.08501C150.776 0.546007 149.603 0.686007 149.603 0.686007L145.69 0.713007C145.309 0.714007 144.986 0.832007 144.839 1.22801C144.836 1.23201 144.218 2.89401 143.394 4.30701C141.653 7.29601 140.958 7.45501 140.67 7.26801C140.009 6.83501 140.176 5.53101 140.176 4.60401C140.176 1.70701 140.608 0.499007 139.33 0.187007C138.903 0.0830069 138.591 0.0150069 137.502 0.0050069C136.11 -0.0159931 134.928 0.00500688 134.258 0.334007C133.813 0.557007 133.472 1.04601 133.679 1.07401C133.939 1.10901 134.522 1.23401 134.834 1.66001C135.235 2.21201 135.223 3.44901 135.223 3.44901C135.223 3.44901 135.452 6.86001 134.683 7.28301C134.155 7.57301 133.433 6.98101 131.88 4.26701C131.087 2.87901 130.488 1.34501 130.488 1.34501C130.488 1.34501 130.372 1.06001 130.162 0.904007C129.912 0.719007 129.562 0.660007 129.562 0.660007L125.848 0.684007C125.848 0.684007 125.29 0.700007 125.085 0.946007C124.903 1.16401 125.07 1.61401 125.07 1.61401C125.07 1.61401 127.979 8.49501 131.273 11.961C134.293 15.143 137.725 14.932 137.725 14.932H139.28C139.28 14.932 139.749 14.878 139.989 14.62C140.213 14.38 140.203 13.929 140.203 13.929C140.203 13.929 140.172 11.82 141.138 11.51Z" fill="white"/>
</g>
<path d="M94.572 18.985C94.26 18.985 93.943 18.985 93.631 18.985C89.502 18.497 86.474 16.577 84.272 14.121C82.062 11.66 80.318 8.49199 79.978 4.22799C79.978 3.84599 79.978 3.46599 79.978 3.08399C80.056 2.30999 80.437 1.77999 80.876 1.32699C81.425 0.765989 82.25 0.0439893 83.002 0.0189893C83.556 0.000989256 84.502 0.398989 84.881 0.917989C85.21 1.36399 85.385 2.25699 85.537 2.92099C85.691 3.59199 86.042 4.56399 85.945 5.20999C85.797 6.21699 84.458 6.64399 84.066 7.37599C85.373 10.511 87.509 12.815 90.359 14.407C91.074 14.015 91.705 12.835 92.691 12.812C93.05 12.803 93.509 12.99 93.875 13.098C94.277 13.219 94.625 13.373 94.979 13.506C95.575 13.73 96.627 14.027 96.983 14.527C97.348 15.04 97.553 15.883 97.473 16.406C97.309 17.447 95.594 18.603 94.572 18.985Z" fill="#B7BFC8"/>
<path d="M167 4V0H163C160.791 0 159 1.791 159 4V8H155V12H159V22H163V12H167V8H163V4H167Z" fill="white"/>
<path d="M189 0H174C172.35 0 171 1.35 171 3V18C171 19.65 172.35 21 174 21H189C190.65 21 192 19.65 192 18V3C192 1.35 190.65 0 189 0ZM181.5 7C183.43 7 185 8.57 185 10.5C185 12.43 183.43 14 181.5 14C179.57 14 178 12.43 178 10.5C178 8.57 179.57 7 181.5 7ZM189 18H174V9H175.181C175.067 9.482 175 9.983 175 10.5C175 14.09 177.91 17 181.5 17C185.09 17 188 14.09 188 10.5C188 9.983 187.934 9.482 187.819 9H189V18ZM189 7H185V3H189V7Z" fill="white"/>
<g clip-path="url(#clip2)">
<path d="M199 7.99999V12H203V7.99999H205V12H209V7.99999L204 3.51599L199 7.99999Z" fill="#C1C6CE"/>
<path d="M210.831 6.365L209 4.751V0H207V2.987L204.332 0.635C204.312 0.618 204.289 0.612 204.268 0.598C204.242 0.58 204.216 0.563 204.188 0.551C204.156 0.539 204.125 0.533 204.093 0.527C204.062 0.521 204.032 0.515 204 0.515C203.969 0.515 203.939 0.521 203.908 0.527C203.875 0.533 203.845 0.539 203.813 0.552C203.785 0.563 203.76 0.581 203.733 0.598C203.712 0.612 203.688 0.618 203.669 0.635L197.171 6.365C196.964 6.548 196.944 6.864 197.126 7.071C197.225 7.183 197.363 7.24 197.501 7.24C197.619 7.24 197.737 7.199 197.832 7.115L204 1.677L210.169 7.115C210.265 7.199 210.383 7.24 210.5 7.24C210.639 7.24 210.776 7.182 210.875 7.071C211.058 6.864 211.038 6.548 210.831 6.365Z" fill="#C1C6CE"/>
</g>
<g clip-path="url(#clip3)">
<path d="M7.23703 31.642L1.72903 26.133C1.53103 25.935 1.21003 25.935 1.01303 26.133C0.816025 26.331 0.815025 26.652 1.01303 26.849L6.16303 32L1.01203 37.15C0.814025 37.348 0.814025 37.669 1.01203 37.867C1.11103 37.966 1.24103 38.015 1.37003 38.015C1.49903 38.015 1.62903 37.965 1.72803 37.867L7.23703 32.358C7.43603 32.16 7.43603 31.84 7.23703 31.642Z" fill="#C1C6CE"/>
</g>
<path d="M17.5 26L12 36H23L17.5 26Z" fill="#C5C5C5"/>
<path d="M47.5 26L42 36H53L47.5 26Z" fill="#EE3643"/>
<path d="M32.5 36L27 26H38" fill="#C5C5C5"/>
<path d="M62.5 36L57 26H68" fill="#EE3643"/>
<defs>
<clipPath id="clip0">
<rect width="20" height="17" fill="white" transform="translate(101)"/>
</clipPath>
<clipPath id="clip1">
<rect width="26" height="15" fill="white" transform="translate(125)"/>
</clipPath>
<clipPath id="clip2">
<rect width="15" height="12" fill="white" transform="translate(196)"/>
</clipPath>
<clipPath id="clip3">
<rect width="8" height="12" fill="white" transform="translate(0 26)"/>
</clipPath>
</defs>
</svg>
