<?xml version="1.0" encoding="UTF-8"?><!DOCTYPE svg PUBLIC "-//W3C//DTD SVG 1.1//EN" "http://www.w3.org/Graphics/SVG/1.1/DTD/svg11.dtd"><svg xmlns="http://www.w3.org/2000/svg" xmlns:xlink="http://www.w3.org/1999/xlink"><symbol id="about__item--ball" viewBox="0 0 34.37 34.37"><path d="M.29 14.07c-.38 2.07-.38 4.21.01 6.3l4.12-3.21-4.13-3.09zM24.4 1.59c-4.78-2.21-10.44-2.15-15.25.4l7.51 5.63 7.74-6.03zm9.5 11.58l-4.81 3.75 4.94 3.69a17.3 17.3 0 00-.13-7.44zM9.21 32.41c4.84 2.53 10.72 2.65 15.73.11l-8.1-6.06-7.63 5.95zm-1.3-17.98L1.68 9.77c-.32.67-.6 1.36-.82 2.06l5.31 3.97 1.74-1.37zM18.59 25.1l8.34 6.24c.28-.19.55-.39.82-.6.32-.25.63-.5.92-.77l-8.33-6.23-1.75 1.36zm-7.18-13.39L4 6.16c-.46.55-.88 1.13-1.27 1.72l6.93 5.19 1.75-1.36zm10.68 10.67l8.09 6.06c.47-.54.9-1.11 1.3-1.7l-7.64-5.72-1.75 1.36zm-7.18-13.4L7.2 3.2c-.2.14-.39.28-.58.43-.39.31-.77.63-1.13.97l7.68 5.75 1.74-1.37zm10.68 10.67l6.97 5.22c.33-.66.62-1.34.86-2.03l-6.08-4.55-1.75 1.36zm.86-16.94L.88 22.63c.23.7.51 1.39.84 2.06L28.24 4.02c-.57-.48-1.17-.92-1.79-1.31zm4.29 3.91c-.3-.39-.61-.75-.94-1.11L2.79 26.57c.26.4.54.8.84 1.18.14.18.29.36.44.53l27.09-21.1c-.14-.19-.27-.37-.42-.56zM32.3 9L5.55 29.84c.54.5 1.11.96 1.71 1.38l25.96-20.23c-.26-.68-.57-1.34-.92-1.99z"/></symbol><symbol id="about__item--flower" viewBox="8.01 4.35 31.97 37.3"><path d="M24 41.65c8.83 0 15.99-7.16 15.99-15.99-8.83 0-15.99 7.16-15.99 15.99zM12.64 20.78c0 2.45 1.99 4.44 4.44 4.44.93 0 1.8-.29 2.51-.78l-.04.34c0 2.45 1.99 4.44 4.44 4.44s4.44-1.99 4.44-4.44l-.04-.34c.72.5 1.58.78 2.51.78 2.45 0 4.44-1.99 4.44-4.44 0-1.77-1.04-3.29-2.54-4a4.44 4.44 0 002.54-4c0-2.45-1.99-4.44-4.44-4.44-.93 0-1.8.29-2.51.78l.04-.34c0-2.45-1.99-4.44-4.44-4.44s-4.44 1.99-4.44 4.44l.04.34c-.72-.5-1.58-.78-2.51-.78-2.45 0-4.44 1.99-4.44 4.44 0 1.77 1.04 3.29 2.54 4-1.5.71-2.54 2.23-2.54 4zM24 12.34c2.45 0 4.44 1.99 4.44 4.44s-1.99 4.44-4.44 4.44-4.44-1.99-4.44-4.44 1.99-4.44 4.44-4.44zM8.01 25.66c0 8.83 7.16 15.99 15.99 15.99 0-8.83-7.16-15.99-15.99-15.99z"/></symbol><symbol id="about__item--gift" viewBox="239.67 239.76 32.67 32.49"><path d="M242.56 272.24h12.5v-13.91h-12.5v13.91zm28.18-23.62h-7.33c.52-.27.98-.55 1.4-.84 1.59-1.13 2.42-2.57 2.42-4 0-1.17-.56-2.2-1.36-2.9a4.59 4.59 0 00-3.02-1.12c-1.22 0-2.35.42-3.32 1.07-1.46.98-2.61 2.45-3.42 4.07l-.12.24c-.3-.62-.65-1.23-1.04-1.79-.69-.99-1.52-1.86-2.5-2.51-.97-.65-2.1-1.07-3.32-1.07-1.21 0-2.32.51-3.16 1.29-.83.78-1.41 1.88-1.41 3.13 0 .73.21 1.49.65 2.19.55.87 1.42 1.63 2.63 2.25h-6.59c-.88 0-1.59.71-1.59 1.59v5.9h15.4v-7.49h1.87v7.49h15.4v-5.9c0-.89-.71-1.6-1.59-1.6m-22.36-2.34c-.62-.39-1-.79-1.22-1.13a1.84 1.84 0 01-.3-.96c0-.5.25-1.04.69-1.46.44-.42 1.03-.67 1.56-.67h.01c.68 0 1.37.23 2.05.68 1.02.67 1.97 1.85 2.64 3.19.34.68.61 1.39.79 2.09-3.07-.33-5.07-1.01-6.22-1.74m10.54-1.62c.56-.8 1.21-1.47 1.89-1.92.68-.45 1.36-.68 2.05-.68h.01c.57 0 1.12.22 1.49.55.38.34.57.74.57 1.17 0 .51-.27 1.26-1.47 2.13-1.14.83-3.1 1.67-6.13 2.26.29-1.2.85-2.47 1.59-3.51m-1.98 27.58h12.51v-13.91h-12.51v13.91z"/></symbol><symbol id="about__item--heart" viewBox="47.48 50.07 33.05 27.86"><path d="M80.53 58.81c0-4.83-3.91-8.74-8.74-8.74-3.41 0-6.35 1.95-7.79 4.79a8.723 8.723 0 00-7.79-4.79c-4.82 0-8.74 3.91-8.74 8.74 0 9.13 14.66 19.12 16.52 19.12 1.88 0 16.54-9.95 16.54-19.12z"/></symbol><symbol id="about__item--money" viewBox="46.21 56.83 46.58 27.33"><path d="M88.88 56.83H50.12c-2.16 0-3.9 1.75-3.9 3.9v19.52c0 2.16 1.75 3.91 3.9 3.91h38.77a3.91 3.91 0 003.91-3.91V60.74a3.924 3.924 0 00-3.92-3.91zM49.24 81.78V59.55h40.2v22.23h-40.2z"/><path d="M53.14 77.88h32.39V63.46H53.14v14.42zM69.5 65.35a5.31 5.31 0 110 10.62c-2.94 0-5.31-2.38-5.31-5.31 0-2.93 2.37-5.31 5.31-5.31z"/></symbol><symbol id="about__item--ro&#x441;ket" viewBox="612.53 500.39 54.16 23.18"><path d="M652.84 506.1c-3.65-.97-7.84-1.67-12.36-1.67-2.89 0-5.46.24-7.71.62l-6.78-4.67-13.46.01 5.81 6.18h8.45c-4.58 1.6-6.76 3.51-6.76 3.51v3.78s2.31 1.91 6.93 3.52h-8.62l-5.81 6.19h13.46l6.82-4.69c2.26.4 4.82.65 7.68.65 4.52 0 8.71-.7 12.36-1.67-1.18-1.78-1.91-3.74-1.92-5.88 0-2.14.74-4.11 1.91-5.88zm3.43 1.03c-1.28 1.6-1.97 3.25-1.96 4.84-.01 1.6.68 3.24 1.97 4.85 6.4-2.16 10.42-4.84 10.42-4.84s-4.03-2.68-10.43-4.85z"/></symbol><symbol id="arrow--left" viewBox="0 0 50 26"><path d="M50 11H7.66l8.17-8.17L13 0 0 13l13 13 2.83-2.82L7.66 15H50z"/></symbol><symbol id="arrow--right" viewBox="0 0 50 26"><path d="M0 11h42.34l-8.17-8.17L37 0l13 13-13 13-2.83-2.82L42.34 15H0z"/></symbol><symbol id="cam" viewBox="0 0 32 32"><path d="M26 15l6-4v16l-6-4v-8zm-2 0v8a4 4 0 01-4 4H4a4 4 0 01-4-4v-8a4 4 0 014-4h10c0-1.1.9-2 2-2V7H5a1 1 0 01-1-1 1 1 0 011-1h12a1 1 0 011 1v3a2 2 0 012 2 4 4 0 014 4zm-12 0H4v8h8v-8zm8 1a1 1 0 00-1-1h-4a1 1 0 00-1 1 1 1 0 001 1h4a1 1 0 001-1z"/></symbol><symbol id="cart" viewBox="0 0 20.29 18.85"><path d="M19.54 7.23h-3.15L13 .41a.75.75 0 00-1-.33.76.76 0 00-.34 1l3.08 6.14H5.58l3.07-6.13a.75.75 0 00-.34-1 .74.74 0 00-1 .33L3.9 7.23H.75a.75.75 0 000 1.5h.16l.85 3a.76.76 0 00-.31.59.74.74 0 00.69.74l1.66 5.8h12.7l1.65-5.8a.73.73 0 00.38-1.33l.86-3h.15a.75.75 0 000-1.5zm-4.18 10.12H4.93l-1.22-4.29h12.88zM17 11.56H3.28l-.81-2.83h15.36z"/></symbol><symbol id="contacts__flag" viewBox="-11.34 -28.35 46.68 81.69"><path fill="#63D1BB" d="M-3.56-24.46v38.9l38.9-19.45-38.9-19.45zm-7.78 77.81v-81.69h3.8v81.69h-3.8z"/><path fill="#231F20" d="M-11.34-28.35h3.8v81.69h-3.8z"/></symbol><symbol id="dev-logo" viewBox="0 0 154.38 195.33"><path d="M77.99.62l-.8-.08-76.69 8v140.57l76.69 45.63 76.69-45.63V8.54zm65.86 142.82l-66.66 39.63-66.66-39.67V85.79l66.37 39.5.12 7.16-45.54-27.1-.07 6.95 45.72 27.48.11 7.35-45.7-27.19-.06 6.95 45.71 27.48 46.15-27.62v-7h-.06v-22.7l20.57-12.28zm0-66.06l-18.24 10.75-8.42 5-40.2-23.97-.06 7 34.31 20.4-.3.18-.74.44-4.88 2.87-28.33-16.89-.06 6.95 22.36 13.29-5.28 3.53-.13.08-16.89-9.95-.06 6.95 11.08 6.53-11.29 6.78-66-39.26L76.86 38.3zm0-7l-67-39.51-66.28 39.47V17.62l66.62-7 66.66 7z"/></symbol><symbol id="hero__interior" viewBox="0 0 40.22 62.41"><path d="M15.18 38a8 8 0 000 3.64c.5 2.63 1.69 6 2.36 9.67h5.07c.69-3.64 1.94-7.05 2.47-9.69a7.72 7.72 0 000-3.61 4.13 4.13 0 00-2-2.31h-6a4 4 0 00-1.9 2.3zM27 58H13.21a2.24 2.24 0 00-2.3 2.23v2.23h18.4v-2.28A2.24 2.24 0 0027 58zm7.14-55.77H22.41a2.3 2.3 0 00-4.6 0H6.07L0 27.75a5.09 5.09 0 012.63-1 4.53 4.53 0 012.93 1.38A3.14 3.14 0 007 29a3.15 3.15 0 001.45-.84 4.54 4.54 0 012.92-1.36 4.54 4.54 0 012.92 1.36 3.15 3.15 0 001.45.84 1.28 1.28 0 00.58-.22 7.87 7.87 0 00.87-.62 5.82 5.82 0 012-1.22 3 3 0 01.93-.14A4.54 4.54 0 0123 28.14a3.15 3.15 0 001.45.84 3.3 3.3 0 001.45-.85 4.5 4.5 0 012.92-1.37 4.52 4.52 0 012.92 1.37 7 7 0 00.87.63 1.17 1.17 0 00.58.22 3.19 3.19 0 001.44-.86 4.51 4.51 0 012.93-1.38 5.09 5.09 0 012.63 1zM23.52 53.5h-6.86a1.11 1.11 0 100 2.22h6.9a1.11 1.11 0 100-2.22zM20.11 29a1.37 1.37 0 00-.58.21c-.16.1-.37.27-.57.41v3.74h2.3v-3.73a2.76 2.76 0 00-1.15-.63z"/></symbol><symbol id="hero__toys" viewBox="0 0 60 59.62"><path d="M0 43.68l27.44 15.93V36.27L0 20.33zm51.35-31.24v2.45c0 1.82-3.46 3.29-7.73 3.29s-7.73-1.47-7.73-3.29v-4.06c.26 1.72 3.61 3.07 7.71 3.07 4.27 0 7.73-1.47 7.73-3.28s-3.46-3.29-7.73-3.29h-1l-5-2.89v3.12c0 1.82-3.46 3.29-7.72 3.29a12.61 12.61 0 01-6.44-1.47 4.16 4.16 0 00-.73-.59 1.79 1.79 0 01-.56-1.23v-3l-4.77 2.8h-1.05c-4.27 0-7.73 1.47-7.73 3.29s3.46 3.28 7.73 3.28c4.09 0 7.44-1.35 7.7-3.07v4.06c0 1.82-3.45 3.29-7.72 3.29s-7.71-1.5-7.71-3.32v-2.42l-5.95 3.45 27.53 16L57.53 16zM37.7 22.6c0 1.82-3.46 3.29-7.72 3.29s-7.73-1.47-7.73-3.29v-4.06c.26 1.72 3.6 3.08 7.71 3.08s7.44-1.36 7.7-3.08v4.06zm-5.14 13.88v23.14L60 43.68V20.54zM29.92 6.57c4.26 0 7.72-1.47 7.72-3.28S34.18 0 29.92 0s-7.73 1.47-7.73 3.29 3.46 3.28 7.73 3.28"/></symbol><symbol id="logo--desktop" viewBox="0 0 148.05 72.71"><path d="M143.16 31.4a39 39 0 01-4.65 2.77 17.6 17.6 0 00-.59-5.12c.05-.34.1-.67.14-1 .38-3 .66-7.12-2-9.22-.34-.26-1.25 0-1.92.27a6.4 6.4 0 00-.5-.41c-.08-.24-.16-.49-.23-.74s-.17-.18-.36-.21c.29-.38.26-.82-.42-1.09-.38-.15-.76-.29-1.14-.41-.07-.08-.13-.1-.17-.06a23.42 23.42 0 00-2.86-.71 5.68 5.68 0 01.55-1 5.81 5.81 0 01.43-.43l.19-.17.07-.06.09-.06c.37-.29.84-.87.22-1.2a2.1 2.1 0 00-2 .23 6.57 6.57 0 00-2.09 2.36 51.35 51.35 0 00-6.08-.07.89.89 0 00.14-.25c.18-.59-.91-.53-1.19-.49-1.56.2-3.12.41-4.69.6 1.37-3.77 3.09-8.58 1-12.26C113.89.55 111.18.08 109 0a13.78 13.78 0 00-7 1.63c-4.76 2.62-7.11 7.71-8.21 13.14a1.83 1.83 0 00-2.64.47c-.13.32-.23.64-.33 1a1.53 1.53 0 00-.35.64.94.94 0 010 .16h-.19l.06-.31a.66.66 0 00.28-.36c.57-2.3 1.16-4.59 2-6.82.27-.76-2.51-.4-2.81.42-.42 1.19-.78 2.41-1.12 3.62a.94.94 0 00-.42.33v.1a.87.87 0 00-.46-.17v-1c0-.44-2.83 0-2.83.75v1.6a2.48 2.48 0 00-.47.27l-.19.17a.39.39 0 00-.12.24v.15a.31.31 0 000 .47 1.19 1.19 0 00.74.16h.14v.47h-.67l-.41-.05c0-.39-.68-.46-1.35-.33v-.15c-.11-.6-.18-1.19-.23-1.79a3.47 3.47 0 00.68-.31c.15-.11.32-.23.32-.43v-.2c0-.18-.41-.2-.5-.21a2.83 2.83 0 00-.58 0C82 12.38 82 11.07 82 9.76c0-.84-2.82-.32-2.82.76a52.84 52.84 0 00.19 5.34h-.27v-1.52c0-1.05-1.29-1.22-2.14-.81a1 1 0 00.37-1 29.94 29.94 0 01-1-4.29c-.18-1.39-3-.68-2.82.76a31.66 31.66 0 001 4.29c.24.82 1.34.88 2.11.5a1 1 0 00-.37.77v.62a1.77 1.77 0 00-.77-.16c-1.06 0-1.68.89-1.4 1.48l-.49-.08a13.87 13.87 0 01-.72-3.83c0-.94-1.27-1.05-2.11-.67a.37.37 0 000-.17 14 14 0 01-.78-2.53c-.33-1.35-3.15-.6-2.82.75.16.64.3 1.28.52 1.9h-.06a2.63 2.63 0 00-.85.39c-.83.08-1.83.57-1.75 1.21.06.48.13 1 .21 1.43l-1.64.26a12.06 12.06 0 01-.62-2.45c-.13-.92-1.56-.85-2.33-.26a22.92 22.92 0 00-3.12-5.76c-2.63-3.44-7.1-4.61-11.25-3.79a8.94 8.94 0 00-5 2.64A6 6 0 0040 10.32a19.25 19.25 0 001.58 6 2.62 2.62 0 00-.94.14c-.29.12-.56.25-.84.39-1.94 0-3.87 0-5.8-.07-4.18-.19-8.3-.86-12.5-.74-.92 0-1.53.72-1.46 1.26a4.36 4.36 0 00-2.15 2.29 52.3 52.3 0 00-5.33-3.21c-.69-.35-3.3.71-2.29 1.22a50.6 50.6 0 015.28 3.22 2.2 2.2 0 001.84-.07l.17-.08a9.62 9.62 0 00.24 4.49.55.55 0 00.17.27 8.68 8.68 0 000 1 .86.86 0 000 .16 1.21 1.21 0 00-.76.84 40.09 40.09 0 00-.3 4.23 1.13 1.13 0 00-.49.8 50.15 50.15 0 00.47 9.95 74.86 74.86 0 001.17 8c.06.41.12.83.17 1.25a9.59 9.59 0 00-.24 3.48c-.88.17-1.73.87-1.23 1.62a9 9 0 002.61 2.65 2.32 2.32 0 00-1.88.55c-.81.81-1.71 1.53-2.53 2.34a.59.59 0 00.29 1.08 2.31 2.31 0 002-.54c.82-.8 1.71-1.53 2.53-2.34a.64.64 0 00.21-.73c3.2 1.74 7.23 1.27 11.11 1a34.67 34.67 0 00-2.17 5c-.26.72 2.51.38 2.8-.43a33.77 33.77 0 012.1-4.9c3.74.12 7.48.12 11.22.05a1 1 0 00.74.34 34.64 34.64 0 009.69-.7c4.79-.23 9.58-.52 14.37-.81 7.53-.19 15-.35 22.58-.32l.32.32a1.35 1.35 0 001 .33h.2c.71 0 1.42.09 2.14.14a1.88 1.88 0 00.56 0L99 60a1.15 1.15 0 00.79.36c3.8.25 7.61.52 11.42.7a1 1 0 00.82.34c7.07.06 15.28 2.81 21.56-1.73.5-.36.27-.88-.26-1a1.84 1.84 0 00-.33 0 60.09 60.09 0 003-8.56 1.06 1.06 0 00.64-.86 33.32 33.32 0 01.38-3.64c.16-.88.31-1.77.44-2.66.38-2.17.8-4.36 1-6.54a49.1 49.1 0 006.54-3.88c1.56-1.11-.79-1.88-1.84-1.13zm-55.33-15l-.13.12c.07-.31.15-.62.23-.93H88z"/><path d="M63.26 12.63c.13.19.56.21.75.21a3 3 0 001.11-.22c.4-.17 1.1-.56.77-1.07s-.61-1.19-1-1.76c-.12-.19-.56-.21-.75-.21a3 3 0 00-1.1.22c-.41.17-1.1.56-.77 1.07s.63 1.19.99 1.76zm-42.58-1.72c.22.64 1.11.64 1.65.5s1.39-.62 1.18-1.26a4.76 4.76 0 00-.9-1.78 1.69 1.69 0 00-1.9-.15c-.41.19-1.18.84-.69 1.35a3.07 3.07 0 01.66 1.34zm9.98 2.98c.84 0 3.07-1.27 1.19-1.27-.85 0-3.08 1.27-1.19 1.27zm91.9-1.62a2.12 2.12 0 001.06-.06 2.09 2.09 0 00.94-.47 5.17 5.17 0 001-1.18c.1-.2.17-.4 0-.59a1.17 1.17 0 00-.77-.25 2.77 2.77 0 00-1.1.22 1.58 1.58 0 00-.76.56 3.54 3.54 0 01-.35.51l-.2.2a.67.67 0 00-.28.61.67.67 0 00.46.45zm13.3 5.42a3.53 3.53 0 001.89-.66 21.19 21.19 0 003.63-3.64c.29-.39-1-.25-1.12-.23a2.73 2.73 0 00-1.66.74 19.72 19.72 0 01-3.39 3.38c-.5.41.44.43.65.41zm10.88 27.08h-4.87a1.61 1.61 0 00-1.56 1.14c-.09.74.76.92 1.31.92h4.87a1.61 1.61 0 001.51-1.14c.13-.69-.71-.92-1.26-.92zM57 60.78c-.5.08-1.41.3-1.64.84A33.82 33.82 0 0054 65.51c-.21.74 2.57.33 2.8-.45a34 34 0 011.36-3.9c.24-.52-.95-.41-1.16-.38zm4.6 2.59a4 4 0 00-1 .16 3.84 3.84 0 00-1 .38c-.14.08-.33.2-.33.39v.35a.72.72 0 01-.13.28c-.06.08-.11.18 0 .25a1.23 1.23 0 00.71.06A4.09 4.09 0 0061 65a2 2 0 00.8-.41.9.9 0 00.28-.5 2.32 2.32 0 00.05-.53c-.04-.18-.46-.18-.53-.19zm55.05 3.68c-.35-.68-3 .33-2.82.76.84 1.64 1.94 3.12 2.92 4.67.44.69 3-.41 2.83-.75-.99-1.56-2.08-3.04-2.93-4.68zm4.09-2.34c-.29-.59-1.06-.56-1.62-.41-.35.09-1.49.6-1.2 1.17l1.17 2.34c.29.59 1.07.56 1.62.41.35-.09 1.49-.6 1.2-1.17zM5.67 43.11c-1.49.35-3 .57-4.48 1-.54.15-1.34.64-1.16 1.32s1.12.71 1.66.56c1.48-.4 3-.62 4.48-1 .54-.12 1.34-.65 1.16-1.31s-1.12-.68-1.66-.57z"/><path d="M43.75 40.11c-.08-2.71-.51-5.4-.48-8.11 0-2.2.4-4.45-.36-6.56.05-.23.1-.47.14-.71.2-1.06-3.3-.5-3.85.46-.34.29-.52.63-.37 1a2.77 2.77 0 00.1.26 78.24 78.24 0 01-2.65 9.5c-.4 1.2-.89 2.37-1.31 3.57a37 37 0 01-1.66-3.41c-1.38-3.47-2.63-7-4.32-10.3.19-1.54-3.23-1.38-3.91 0a8.76 8.76 0 00-.44 5.26 45.43 45.43 0 01.36 6.17c.05 4 .36 8 .42 12a1 1 0 00-.09 1.39 3.3 3.3 0 00.57.55c.92.73 3.54.11 3.53-1.28 0-4.16-.31-8.32-.42-12.47V36.2l.18.44a34.05 34.05 0 002.2 4.7 21.14 21.14 0 011.82 4.72.76.76 0 00-.23.71c0 .18.07.29.25.36.65.56 1.86.28 2.53 0a6.65 6.65 0 00.84-.43c.35-.21.89-.69.73-1.17l-.09-.28a24 24 0 001-4 24.59 24.59 0 011.31-4.17l.12 1.92c.21 2.57 0 5.11 0 7.69a11.59 11.59 0 00.22 2.49 11.18 11.18 0 01.29 1.9c-.62.57-.44 1.27.38 1.45a3.38 3.38 0 002.8-.75c1.21-1.12.64-2.87.36-4.28-.45-2.34.11-4.99.03-7.39zm8.44.68c-.07-2-.77-3.9-.78-5.93a48.89 48.89 0 00-.16-6.95c-.1-.73-4.09.11-4 1.06a39.21 39.21 0 01.16 6.41 41 41 0 00.74 6c.27 2.08-.08 4.2.15 6.27.11 1 .76 2.77.09 3.62-.42.53 1.48.34 1.57.33a4 4 0 002.32-1.05c.66-.84.2-2.45.06-3.39a55.71 55.71 0 01-.15-6.37zm16.48-3.35c-2.08-2.81-5.94-.79-8.64-1.56-1.39-.39-1.41-2.29-1.4-3.42a36.7 36.7 0 00-.28-4.19 3.46 3.46 0 01.75-2.93 4.79 4.79 0 01.82-.34 7.37 7.37 0 011.08-.09c1.56-.07 4.65.23 4.06 2.5-.27 1 3.62.44 3.91-.64 1.22-4.64-7.35-3.75-9.78-3.11-2.23.59-4.69 1.86-4.82 4.44-.06 1.23.28 2.4.33 3.62.06 1.4-.2 2.8.29 4.16 1.1 3 5.57 1.59 7.85 1.76 3.88.29 2.72 5.52 2.78 8 0 1.3 1.19 3.46.21 4.55-.6.67-2 .71-2.82.77s-2.22.32-2.77-.46c-1-1.43.1-3.83-.12-5.47C60 44 56 44.88 56.17 46c.35 2.65-1.41 6.19 2.42 6.65a18.18 18.18 0 007.57-.94 8.83 8.83 0 003.27-1.81c1-.94.7-2.36.42-3.57-.68-2.91.74-6.33-1.18-8.89zm17.48-.19c-.12-3.81-.69-7.58-.71-11.4 0-2-4-1.32-4 .34 0 3.64.5 7.24.69 10.87v.22c-2 0-3.93.18-5.9.25.2-4.68-.62-9.31-.44-14 0-.58-3.91-.09-4 1.06-.17 4.52.6 9 .46 13.52-.06 2.15-.25 4.3-.26 6.46a21.45 21.45 0 00.33 3.29 8.26 8.26 0 01.18 3.35c-.23.78 3.6.29 3.9-.7.55-1.8-.22-4.08-.41-5.89a31.33 31.33 0 01.09-5.3 29.9 29.9 0 016.13 0q.14 2.09.33 4.17c.1 1.17.18 2.33.2 3.51a10.71 10.71 0 01-.23 3.49c-.78 2.07 3.18 1.9 3.76.37.71-1.89.51-4.24.39-6.22-.1-2.47-.43-4.92-.51-7.39zm17.09 4.51a74.74 74.74 0 00-3.65-7.87c1-2 2-3.93 3-5.94.84-1.82 1.46-3.85 3.11-5.14.58-.45.55-.9-.26-1a4.51 4.51 0 00-2.79.75 10.84 10.84 0 00-3.23 4.31C98.44 29 97.46 31 96.44 33l-.23.45a1.15 1.15 0 00-.64 1.27c-.8 1.58-1.62 3.15-2.53 4.66-.3-5.59-1-11.17-1.16-16.75 0-1.29-4-.49-3.95 1.06.25 6.93 1.23 13.84 1.3 20.77-.3.31-.19.5 0 .61 0 1.76-.06 3.53-.21 5.3-.47.75.47 1.15 1.1 1.15h.09c.75 0 2.65-.35 2.75-1.38.19-2.12.25-4.23.23-6.35a31.11 31.11 0 004.09-5.68 29.2 29.2 0 012 4.62c.87 2.77 2.32 5.31 3.16 8.09.55 1.82 4.5.74 4-1.06-.88-2.69-2.26-5.26-3.2-8zM127 37.08c-.21-.83-1.38-.85-2.29-.77v-1c-.13-2.68-.17-5.43-.39-8.1-.21-2.48-1.6-3.37-4-3.28a24.21 24.21 0 00-7.55 1.42 7 7 0 00-4.6 5.73c-.56 3 .24 6.27.37 9.33.16 3.54.07 7.08.07 10.61 0 .58 4 0 4-1v-8.41c0-.82 0-1.64-.1-2.46 1.38-.6 3.72 0 5.09.14a15.49 15.49 0 003.27-.29c0 2.33.11 4.68.21 7 0 1.19.48 3.56-.36 4.55-.44.52 1.5.34 1.57.33a4 4 0 002.32-1c1-1.13.47-3.82.41-5.17-.08-1.93-.1-3.86-.14-5.79 1.02-.26 2.3-.98 2.12-1.84zm-14.75-.15c-.11-1.25-.22-2.51-.31-3.77-.16-2.36.12-5.64 2.31-7.07a7.44 7.44 0 012.38-.44 3.74 3.74 0 012.85.19c1.22.81.92 3.69.92 4.92 0 2 .21 4 .31 6.05a11.82 11.82 0 01-1.69.08c-2.35-.05-4.63-.42-6.81.04zM48.77 25.18a3.26 3.26 0 001.49-.53l.26-.22c.52-.34 1-.84.73-1.37a8.07 8.07 0 01-.42-3.45c0-1-1-1.26-1.79-1.19s-2.19.58-2.2 1.58a16.92 16.92 0 00.16 3 2.12 2.12 0 00-.1.36.7.7 0 00.14.59v.48a.91.91 0 00.43.53 2.19 2.19 0 001.3.22z" fill="#fff"/></symbol><symbol id="logo--footer" viewBox="0 0 101.61 34.06"><path d="M19.13 21.5c-.08-2.68-.51-5.35-.48-8.03.03-2.17.39-4.41-.36-6.49l.14-.71c.19-1.04-3.27-.49-3.81.46-.34.27-.51.6-.37.95l.1.26a79.09 79.09 0 01-2.62 9.41c-.4 1.19-.89 2.35-1.3 3.53-.58-1.1-1.17-2.19-1.64-3.38-1.37-3.43-2.61-6.9-4.29-10.2.19-1.53-3.2-1.37-3.87.03-.81 1.69-.7 3.4-.44 5.21.3 2.04.35 4.05.38 6.11.05 3.98.36 7.94.42 11.92-.35.39-.46.88-.09 1.38.16.22.36.38.57.55.9.72 3.5.11 3.5-1.27-.01-4.12-.31-8.24-.42-12.36l-.02-1.21.17.43a33.4 33.4 0 002.19 4.65c.87 1.48 1.3 3.06 1.8 4.68-.19.22-.3.46-.23.71-.04.18.07.29.25.36.64.55 1.84.27 2.51-.01.29-.12.56-.26.83-.42.35-.21.88-.68.73-1.16l-.09-.28c.47-1.27.71-2.59.97-3.93.27-1.43.78-2.78 1.29-4.13l.16 1.86c.2 2.55.03 5.07.01 7.63-.01.85.05 1.63.22 2.46.07.34.37 1.81.28 1.89-.61.56-.43 1.26.39 1.44.91.2 2.08-.11 2.77-.74 1.2-1.11.63-2.84.36-4.24-.48-2.36.07-4.98-.01-7.36zm8.37.67c-.07-1.99-.77-3.86-.77-5.87-.01-2.31.18-4.59-.15-6.89-.11-.73-4.06.1-3.92 1.05.31 2.11.2 4.23.16 6.35-.04 2.04.47 3.9.73 5.9.27 2.05-.08 4.16.15 6.21.11.96.75 2.74.09 3.58-.42.53 1.47.34 1.55.33.77-.14 1.79-.39 2.3-1.04.65-.83.2-2.43.05-3.36-.32-2.05-.11-4.18-.19-6.26zm16.33-3.32c-2.06-2.78-5.89-.78-8.56-1.54-1.38-.39-1.39-2.27-1.39-3.4a36 36 0 00-.27-4.15c-.12-1.05-.02-2.12.75-2.9.14-.14.86-.34.81-.34.35-.06.68-.08 1.07-.09 1.55-.07 4.61.23 4.02 2.48-.27 1.01 3.6.43 3.88-.64 1.21-4.6-7.28-3.71-9.69-3.08-2.21.59-4.65 1.84-4.78 4.4-.06 1.22.27 2.38.33 3.59.06 1.39-.2 2.78.29 4.12 1.08 2.98 5.52 1.58 7.78 1.75 3.85.29 2.7 5.47 2.75 7.88.03 1.29 1.18 3.43.21 4.51-.6.66-1.98.7-2.79.77-.81.07-2.2.31-2.74-.46-.99-1.42.09-3.8-.12-5.42-.12-.92-4.07-.1-3.92 1.05.34 2.63-1.4 6.14 2.4 6.6 2.44.29 5.19-.16 7.5-.93a8.8 8.8 0 003.24-1.79c1.03-.94.69-2.35.42-3.55-.7-2.93.71-6.29-1.19-8.86zm17.33-.19c-.12-3.78-.69-7.51-.71-11.3-.01-1.97-3.96-1.31-3.96.34.02 3.61.5 7.17.68 10.76l.01.22c-1.95-.02-3.9.18-5.85.25.2-4.63-.61-9.23-.43-13.86.02-.58-3.87-.09-3.92 1.05-.17 4.47.59 8.91.45 13.39-.06 2.14-.24 4.26-.26 6.4-.01 1.09.17 2.18.33 3.26.15 1 .48 2.33.18 3.32-.24.77 3.56.29 3.86-.69.54-1.78-.22-4.04-.41-5.84-.17-1.72-.04-3.5.08-5.25 2.03-.13 4.06-.3 6.08-.01.09 1.38.2 2.75.32 4.13.11 1.16.18 2.31.2 3.48.02 1.02.14 2.5-.22 3.46-.77 2.06 3.15 1.89 3.72.36.7-1.87.5-4.2.38-6.16-.13-2.43-.46-4.86-.53-7.31zm16.93 4.48c-.94-2.76-2.37-5.18-3.62-7.8 1-1.95 2.02-3.9 2.93-5.89.83-1.81 1.45-3.82 3.08-5.09.57-.45.55-.9-.25-.95a4.45 4.45 0 00-2.77.74 10.65 10.65 0 00-3.2 4.27c-.93 2.05-1.9 4.06-2.91 6.08l-.22.44c-.49.31-.79.76-.64 1.27a70.5 70.5 0 01-2.5 4.61c-.3-5.53-.95-11.06-1.15-16.6-.04-1.27-3.97-.48-3.92 1.05.24 6.87 1.22 13.72 1.29 20.59l-.05.05c-.3.31-.19.49.05.6 0 1.75-.06 3.5-.21 5.25-.47.75.46 1.14 1.08 1.14h.1c.74 0 2.63-.35 2.72-1.36.19-2.1.25-4.2.23-6.29a31.93 31.93 0 004.06-5.63 29.62 29.62 0 011.99 4.58c.86 2.74 2.3 5.26 3.13 8.01.54 1.81 4.46.74 3.92-1.05-.84-2.76-2.22-5.31-3.14-8.02zm23.5-4.64c-.21-.83-1.37-.85-2.27-.77l-.04-1.01c-.13-2.66-.17-5.38-.39-8.03-.21-2.46-1.58-3.34-3.97-3.25-2.42.09-5.23.53-7.48 1.4-2.61 1.01-4.06 2.93-4.56 5.68-.55 3.01.24 6.22.37 9.25.15 3.5.07 7.01.06 10.52 0 .57 3.92.03 3.92-1.05 0-2.78.04-5.55 0-8.33-.01-.82-.05-1.63-.1-2.44 1.37-.59 3.69.01 5.05.14 1.11.1 2.17-.17 3.24-.29.02 2.31.11 4.63.2 6.94.05 1.18.48 3.53-.35 4.51-.44.52 1.48.34 1.55.33.79-.15 1.76-.4 2.3-1.04.95-1.12.46-3.79.4-5.13-.08-1.91-.1-3.82-.14-5.74 1.16-.13 2.43-.84 2.21-1.69zm-14.62-.15c-.1-1.25-.22-2.49-.3-3.74-.16-2.33.12-5.58 2.29-7 .58-.38 1.67-.31 2.35-.44.97-.18 1.96-.39 2.83.19 1.21.8.91 3.66.91 4.87 0 2.01.21 4 .31 6-.55.06-1.11.09-1.68.08-2.29-.05-4.54-.41-6.71.04zM24.11 6.7a3.29 3.29 0 001.48-.52l.26-.22c.52-.34.97-.83.73-1.36-.5-1.1-.42-2.23-.42-3.41.01-.96-.96-1.25-1.78-1.17-.72.06-2.17.58-2.17 1.52-.01.99-.07 2.02.11 2.99-.05.11-.07.24-.1.36-.06.21.02.42.14.59v.13l.01.33a.9.9 0 00.43.53c.38.23.87.27 1.31.23z"/></symbol><symbol id="logo--mobile" viewBox="0 0 85.59 35.03"><path d="M4.18 26.3c0-3.47-.26-6.94-.36-10.41v-1l.15.37a28.55 28.55 0 001.84 3.92 18.06 18.06 0 011.52 3.93.66.66 0 00-.2.6c0 .15.06.25.21.31.54.46 1.55.23 2.12 0a4.52 4.52 0 00.69-.36c.29-.18.75-.57.62-1a2.17 2.17 0 01-.07-.24 21.61 21.61 0 00.81-3.31 21.27 21.27 0 011.09-3.48c0 .52.09 1 .13 1.56.17 2.15 0 4.27 0 6.43a9.6 9.6 0 00.18 2.07 8.91 8.91 0 01.24 1.59.65.65 0 00.32 1.21 2.83 2.83 0 002.34-.62c1-.94.53-2.4.3-3.58-.39-2 .08-4.18 0-6.19-.07-2.26-.43-4.5-.4-6.77 0-1.83.32-3.71-.31-5.47 0-.2.08-.39.12-.6.16-.87-2.75-.41-3.21.4-.29.23-.44.51-.31.8 0 .07.05.15.08.22a64.79 64.79 0 01-2.21 7.93c-.34 1-.75 2-1.09 3a30.06 30.06 0 01-1.38-2.87c-1.15-2.89-2.2-5.81-3.61-8.59C4 4.86 1.1 5 .53 6.17a7.32 7.32 0 00-.37 4.39 37.1 37.1 0 01.32 5.15c0 3.35.3 6.69.35 10a.86.86 0 00-.07 1.16 2.33 2.33 0 00.48.46c.76.67 2.94.13 2.94-1.03zM22.38 7.93c-.09-.61-3.42.08-3.3.88a33.05 33.05 0 01.13 5.36 33.26 33.26 0 00.62 5c.22 1.73-.07 3.5.12 5.23.09.81.64 2.31.08 3-.36.45 1.24.28 1.31.27a3.3 3.3 0 001.94-.87c.55-.7.16-2 0-2.83a44.29 44.29 0 01-.16-5.28c-.06-1.68-.64-3.26-.65-4.95a41.58 41.58 0 00-.09-5.81zM25.5 14.57c.91 2.52 4.65 1.33 6.55 1.47 3.24.24 2.27 4.61 2.31 6.65 0 1.08 1 2.88.18 3.79-.5.56-1.67.59-2.35.65s-1.85.26-2.31-.39c-.84-1.19.08-3.2-.1-4.57-.1-.78-3.43-.08-3.3.89.29 2.21-1.18 5.17 2 5.55a15.08 15.08 0 006.32-.78 7.47 7.47 0 002.73-1.51c.87-.79.59-2 .35-3-.57-2.46.62-5.29-1-7.45-1.73-2.35-5-.66-7.21-1.3-1.16-.33-1.17-1.91-1.17-2.86a31.3 31.3 0 00-.23-3.49 2.87 2.87 0 01.63-2.45 3.47 3.47 0 01.68-.28 6.41 6.41 0 01.9-.08c1.3-.06 3.88.2 3.39 2.09-.23.85 3 .36 3.26-.54C38.18 3.1 31 3.84 29 4.38c-1.86.5-3.91 1.56-4 3.71-.05 1 .23 2 .27 3a11.44 11.44 0 00.23 3.48zM40 16.44c-.05 1.8-.2 3.6-.22 5.4a19.56 19.56 0 00.22 2.75 6.94 6.94 0 01.16 2.79c-.2.65 3 .24 3.25-.58.46-1.5-.19-3.41-.34-4.92a26.14 26.14 0 01.07-4.42 25 25 0 015.12 0c.08 1.16.16 2.32.27 3.48.09 1 .15 1.95.17 2.93a8.87 8.87 0 01-.19 2.91c-.65 1.73 2.66 1.59 3.14.31a13.14 13.14 0 00.35-5.2c-.13-2.06-.4-4.11-.47-6.17-.1-3.18-.58-6.33-.59-9.52 0-1.66-3.34-1.09-3.33.29 0 3 .41 6 .57 9.07v.19c-1.64 0-3.28.14-4.93.2.17-3.9-.52-7.77-.37-11.67 0-.49-3.26-.08-3.3.88-.15 3.77.49 7.51.42 11.28zM54 21.82c-.25.25-.15.41 0 .5 0 1.47 0 2.95-.18 4.43-.39.62.39 1 .91 1h.09c.62 0 2.2-.3 2.28-1.15a49.52 49.52 0 00.2-5.3 27 27 0 003.42-4.75 25 25 0 011.67 3.86c.73 2.31 1.94 4.43 2.64 6.75.46 1.52 3.75.62 3.3-.88-.7-2.32-1.86-4.47-2.64-6.75a60.24 60.24 0 00-3-6.57c.85-1.64 1.7-3.29 2.47-5s1.22-3.22 2.6-4.29c.48-.38.46-.76-.22-.8a3.68 3.68 0 00-2.33.62 9.16 9.16 0 00-2.7 3.6c-.78 1.72-1.59 3.42-2.45 5.12-.06.12-.13.24-.19.37a1 1 0 00-.54 1.06C58.7 15 58 16.27 57.26 17.53c-.25-4.66-.81-9.32-1-14 0-1.06-3.35-.4-3.3.89.21 5.78 1 11.56 1.08 17.34zM85.57 15.58c-.18-.7-1.16-.71-1.92-.64v-.85c-.11-2.24-.14-4.53-.33-6.77C83.12 5.25 82 4.51 80 4.59a20.48 20.48 0 00-6.3 1.18 5.88 5.88 0 00-3.84 4.78c-.47 2.54.2 5.24.31 7.79.13 2.95.06 5.91.06 8.86 0 .49 3.29 0 3.29-.88v-7c0-.69 0-1.38-.08-2.06 1.15-.5 3.1 0 4.25.12a12.45 12.45 0 002.73-.25c0 1.95.09 3.91.17 5.85 0 1 .41 3-.29 3.8-.37.44 1.25.29 1.31.28a3.36 3.36 0 001.94-.87c.8-.95.38-3.2.33-4.32-.06-1.61-.08-3.22-.12-4.83.93-.15 1.99-.74 1.81-1.46zm-6.66-.16a24.78 24.78 0 00-5.65 0c-.09-1.05-.19-2.1-.26-3.16-.13-2 .1-4.7 1.93-5.89a5.9 5.9 0 012-.37 3.09 3.09 0 012.39.16c1 .68.76 3.08.76 4.1 0 1.69.18 3.37.26 5.06a10.93 10.93 0 01-1.43.1zM18.7 4.11a.55.55 0 00.12.49v.12a2.53 2.53 0 010 .28.86.86 0 00.37.45 1.83 1.83 0 001.11.19 2.65 2.65 0 001.24-.44l.23-.2c.43-.28.81-.7.61-1.15A6.36 6.36 0 0122 1c0-.81-.81-1-1.5-1s-1.8.5-1.8 1.29a13.26 13.26 0 00.09 2.52 1.49 1.49 0 00-.09.3zM80.28 33.29a19.49 19.49 0 00-4.85-.79c-1.61-.17-3.25-.41-4.89-.56-1.63 0-3.31 0-5 .13l-4.88.27c-6.49.28-13 .25-19.51.1S28.13 32 21.55 32c-3.29 0-6.57.1-9.87.25-1.63.28-3.24.5-4.9.91A31 31 0 012 34.2a23.76 23.76 0 005 .3c1.58 0 3.24.14 4.87.23 3.23-.17 6.49-.25 9.73-.26 6.49 0 13 .33 19.57.45s13.11.19 19.68-.11l4.91-.27c1.6-.07 3.2-.12 4.83-.06 1.62-.15 3.25-.33 4.91-.54a23.12 23.12 0 014.86-.5h.07a3.45 3.45 0 000-.48c-.12.04-.12.21-.15.33z"/></symbol><symbol id="logo--tablet" viewBox="0 0 112.39 46.09"><path d="M110.23 41.88c4.39.87.84-35.86.14-38.31C108.42-3 83.7 1.43 78.2 1.85c-12.73 1-25.19-1-37.62-.37-6.2.29-34.85-1.82-37.52 2C-2 10.67.41 29.26 1.79 38.54c-4 .78 2.31 4.15 3.13 4.9 6.32 2.19 16.36-.22 23 .39 15.44 1.47 31.8-2.19 47.28-.95 4.49 1.14 9.6 1 14.22 1.24 3.42 5.57 19.67-2.47 20.8-2.24z"/><path d="M26.06 24.41c-.08-2.55-.49-5.07-.45-7.62 0-2.07.37-4.19-.34-6.17 0-.22.09-.45.13-.67.18-1-3.1-.47-3.62.44a.77.77 0 00-.35.91l.09.24A73 73 0 0119 20.47c-.38 1.13-.84 2.23-1.23 3.36a35.25 35.25 0 01-1.56-3.21c-1.3-3.26-2.48-6.55-4.07-9.68.18-1.45-3-1.3-3.67 0a8.21 8.21 0 00-.42 4.95 41.54 41.54 0 01.36 5.8c.05 3.77.34 7.53.4 11.31a.94.94 0 00-.09 1.3 3.78 3.78 0 00.54.52c.86.69 3.33.1 3.32-1.21 0-3.91-.29-7.81-.4-11.72v-1.15c.06.14.11.27.16.41a33 33 0 002.08 4.42A20.72 20.72 0 0116.14 30a.73.73 0 00-.22.68c0 .17.06.27.24.34.6.52 1.74.26 2.38 0a5.74 5.74 0 00.78-.4c.33-.2.84-.65.69-1.1 0-.09-.05-.18-.08-.27a23.24 23.24 0 00.92-3.72 22.66 22.66 0 011.23-3.93c0 .59.1 1.18.14 1.77.2 2.42 0 4.81 0 7.23a10.84 10.84 0 00.22 2.4 9.48 9.48 0 01.26 1.79.73.73 0 00.37 1.36 3.17 3.17 0 002.63-.7c1.14-1 .6-2.7.34-4-.43-2.29.09-4.78.02-7.04zM34 25.05c-.07-1.89-.73-3.66-.74-5.57a46.05 46.05 0 00-.15-6.54c-.1-.68-3.84.1-3.71 1a37.91 37.91 0 01.15 6 36.31 36.31 0 00.69 5.6c.26 1.95-.08 3.95.14 5.9.11.91.72 2.6.09 3.4-.4.5 1.39.32 1.47.31a3.69 3.69 0 002.19-1c.62-.78.18-2.3 0-3.18a51.53 51.53 0 01-.13-5.92zM49.49 21.9c-2-2.64-5.59-.74-8.12-1.46-1.31-.37-1.33-2.16-1.32-3.22a34.45 34.45 0 00-.26-3.94 3.23 3.23 0 01.71-2.75 4.64 4.64 0 01.76-.33 8.27 8.27 0 011-.08c1.47-.07 4.37.22 3.81 2.35-.25 1 3.41.41 3.68-.6C50.92 7.5 42.86 8.34 40.58 9c-2.1.55-4.41 1.75-4.53 4.17-.06 1.16.26 2.26.31 3.4a12.49 12.49 0 00.27 3.91c1 2.83 5.24 1.5 7.38 1.66 3.65.27 2.56 5.19 2.61 7.48 0 1.22 1.12 3.25.2 4.28-.57.62-1.88.66-2.65.73s-2.09.29-2.6-.44c-1-1.35.08-3.61-.12-5.15-.11-.88-3.86-.09-3.71 1 .32 2.49-1.33 5.83 2.27 6.25a17 17 0 007.12-.88 8.25 8.25 0 003.08-1.7c1-.89.66-2.23.39-3.36-.6-2.82.7-6.01-1.11-8.45zM65.93 21.72c-.11-3.58-.65-7.13-.67-10.72 0-1.87-3.76-1.24-3.75.33 0 3.42.47 6.8.65 10.21v.21c-1.85 0-3.7.17-5.55.23.19-4.39-.58-8.75-.42-13.14 0-.56-3.67-.09-3.71 1-.17 4.25.55 8.46.43 12.71-.06 2-.24 4.05-.25 6.07a20.1 20.1 0 00.31 3.1 7.82 7.82 0 01.17 3.15c-.22.73 3.38.28 3.67-.66.51-1.68-.21-3.83-.38-5.54a29.61 29.61 0 01.07-5 28.53 28.53 0 015.77 0c.09 1.31.19 2.61.31 3.92.1 1.1.17 2.2.19 3.3a10.26 10.26 0 01-.21 3.28c-.74 2 3 1.8 3.53.35.67-1.78.48-4 .36-5.85-.13-2.32-.45-4.67-.52-6.95zM82 26a68.93 68.93 0 00-3.43-7.4c1-1.85 1.92-3.7 2.78-5.59.79-1.71 1.38-3.62 2.93-4.83.54-.43.52-.85-.25-.9A4.22 4.22 0 0081.4 8a10.22 10.22 0 00-3 4.05c-.89 1.95-1.8 3.86-2.77 5.76l-.21.43a1.1 1.1 0 00-.61 1.2c-.75 1.48-1.51 3-2.37 4.37-.28-5.25-.9-10.49-1.09-15.75 0-1.21-3.77-.46-3.71 1 .23 6.51 1.15 13 1.22 19.53v.05c-.29.29-.18.47 0 .57 0 1.66-.06 3.32-.2 5-.45.7.44 1.08 1 1.08h.09c.7 0 2.49-.33 2.58-1.3a59.56 59.56 0 00.22-6 29.4 29.4 0 003.85-5.35A28.46 28.46 0 0178.29 27c.81 2.61 2.18 5 3 7.61.52 1.71 4.23.7 3.71-1-.82-2.61-2.12-5.06-3-7.61zM104.31 21.57c-.2-.79-1.31-.81-2.16-.73v-1c-.12-2.52-.16-5.1-.37-7.62-.2-2.33-1.51-3.17-3.77-3.08a23.07 23.07 0 00-7.1 1.33 6.63 6.63 0 00-4.33 5.39c-.52 2.86.23 5.9.35 8.78.15 3.32.07 6.65.06 10 0 .54 3.72 0 3.72-1v-7.9c0-.78-.05-1.55-.1-2.32 1.3-.56 3.5 0 4.79.14a14.36 14.36 0 003.08-.28c0 2.19.1 4.4.19 6.59 0 1.12.46 3.35-.33 4.28-.41.49 1.4.33 1.47.32a3.78 3.78 0 002.19-1c.9-1.06.43-3.6.38-4.87-.07-1.81-.1-3.63-.13-5.44 1.06-.11 2.26-.78 2.06-1.59zm-13.88-.14c-.09-1.19-.2-2.37-.28-3.56-.15-2.21.11-5.29 2.17-6.64a6.84 6.84 0 012.23-.41 3.48 3.48 0 012.69.18c1.15.76.86 3.47.86 4.62 0 1.9.2 3.79.3 5.7a14.17 14.17 0 01-1.6.07c-2.17-.05-4.31-.39-6.37.04zM30.78 10.37a3.07 3.07 0 001.4-.5l.24-.2c.5-.32.92-.79.69-1.29a7.41 7.41 0 01-.39-3.24C32.73 4.23 31.81 4 31 4s-2 .57-2 1.46a14.91 14.91 0 00.1 2.84 2.19 2.19 0 00-.1.34.67.67 0 00.14.56v.44a.87.87 0 00.41.51 2.08 2.08 0 001.23.22z" fill="#fff"/></symbol><symbol id="search" viewBox="0 0 17.6 17.6"><path d="M17.27 15.73l-3.42-3.42A7.62 7.62 0 0015.4 7.7a7.74 7.74 0 10-3.09 6.15l3.42 3.42a1 1 0 00.77.33 1.1 1.1 0 001.1-1.1 1 1 0 00-.33-.77zM2.2 7.7a5.5 5.5 0 115.5 5.5 5.5 5.5 0 01-5.5-5.5z"/></symbol><symbol id="social__facebook" viewBox="0 0 14.96 27.72"><path d="M11.66 5.19a6.63 6.63 0 002.68-.3 8 8 0 00.62-3c-.19 0-.06-.33-.21-.4s-.27-.19-.3-.39c-.28-.17-.46-.43-.73-.6L11.56 0A13.35 13.35 0 009 .11 6.62 6.62 0 003.72 2.5c0 .08 0 .2-.1.2-.62 1.59-.13 3.62-.21 5.58.1.44.11 1 .21 1.4a20.24 20.24 0 01-3.41.5C-.1 10.5 0 11.26 0 11.87a14.76 14.76 0 00.41 1.59 3.28 3.28 0 00.83.5c.06 0 .07.08.1.1.5.27 1.45 0 2.27.1-.14 2 .25 3.92 0 5.68 0 .33.29.38.2.8A8.4 8.4 0 004 23.33a2.55 2.55 0 00-.41 1.79c.12 0 .11.16.1.3-.07.47.64.18.52.7.16.46-.43.18-.42.5v.89a5.74 5.74 0 002.27.2c.91-.42 2.19-.48 2.79-1.19a1.29 1.29 0 001.23-.2c0-.32.28-.34.21-.7s-.17-.5-.1-.9v-2.89c-.21-2.29-.05-4.93-.31-7.17a9.38 9.38 0 002.58-.4 5 5 0 00.54-1.89 1.59 1.59 0 00.21-1c.19-.21.07-.73.1-1.1-.14-.59-.17-1.3-.82-1.39-.89-.24-2.05.59-3 .3 0-1.14-.3-2.34 0-3.39.75-.18 1.45-.4 2.17-.6zM7.84 10a4 4 0 00.42.69c.08 0 .2 0 .2.1a10.2 10.2 0 003.1-.3A7.44 7.44 0 0111 13a9.64 9.64 0 01-2 .19c-.27.17-.37.51-.62.7-.05.44.15.5 0 .8-.2.14-.05.61-.2.8V17c.08.28-.15.26-.1.5v3.49c-.09.28.14.25.1.5v3c.06.27-.13.8.1.9-.07.37-.41 0-.82.1a7.8 7.8 0 01-1.55.4 2.74 2.74 0 00.31-1.1c0-.38-.37-.31-.52-.49.2-.65.57-1.12.73-1.8.19-.51.71-1.29.31-1.79-.53-.11-.53.29-.83.4 0 .07 0 .19-.1.2s0 .19-.11.2-.15.06 0 0 0-.2.11-.2 0-.2.1-.2v-.3a5.85 5.85 0 00.83-2 5 5 0 00.41-1 1.3 1.3 0 00.1-1.2 1 1 0 00-.93.7c-.32-.19.16-.43.11-.7.13-.23.17-.56.31-.79.2-.42.56-1.31 0-1.6a.67.67 0 00-.73.5 1.41 1.41 0 00-.51.7c-.38-.07-.15-.73-.21-1.1s.12-.9 0-1.2c-.56-.79-2-.1-3.2-.29a2.32 2.32 0 01-.1-1.2c1.05-.09 2.48.2 3.2-.2 0-.08 0-.2.1-.2.09-.72-.27-1-.51-1.39a17 17 0 00.1-3c.23-.14.33-.42.51-.6.12-1 .68-1.48.73-2.49-.28 0-.61-.06-.62.2-.3-.12-.38.48-.52.2-.11-.54.25-.63.31-1 .6-.42 1.21-.82 1.86-1.2 1.74-.24 4.65-.44 6.08.2 0 .62-.28.86-.2 1.5h-1.47a29.11 29.11 0 00-3 1c-.24.06-.28.33-.52.39a5.08 5.08 0 01-.31 1c-.07 1.39.14 2.55.11 3.96z" fill="#231f20"/></symbol><symbol id="social__instagram" viewBox="0 0 21.77 21.33"><path d="M21.77 12.15c0-2.4-.35-4.79-.31-7.14 0-.79-.08-1.53-.15-2.28a5.64 5.64 0 01-.15-1.06c-.26-.17-.22-.67-.46-.84A7.66 7.66 0 0019 .61c-.66 0-1.26-.12-1.9-.16-1.94-.1-4-.07-6-.07A43.92 43.92 0 015.37 0h-2.2c-.1 0-.11.1-.23.08a8.57 8.57 0 00-1.6.3 2.8 2.8 0 01-.68.3c-.14.2-.51.15-.61.38s.19.45 0 .61v.91c.18.13 0 .58.08.84v1c0 1.28.13 2.4.08 3.72a39 39 0 01.07 9.42 14.73 14.73 0 01.46 1.74 7 7 0 00.68 1.52 6.47 6.47 0 001.9.23 4.13 4.13 0 001.14.3c2.84-.21 5.49-.15 8.42-.22a35 35 0 008.28-.23c.19-.14.13-.53.23-.76-.06-.39.2-.45.22-.76.14-2.38.17-4.81.16-7.23zm-13-6.23a9.45 9.45 0 012.43-.3 10.57 10.57 0 011.9.45c.12.19-.24.55.15.69v.07c.06 0 .15 0 .16.08a1.9 1.9 0 011.06.38c.45 0 .53.47 1.14.38a2.13 2.13 0 00-.08.83 11.56 11.56 0 01.3 4.25 2.06 2.06 0 00-.3.69c-.31.32-.48.78-.83 1.06a1 1 0 01-.46.53c-.12.22-.21.45-.46.53s-.57 0-.83-.07a3.43 3.43 0 00-1.21.6c-.82-.09-1.65-.17-2.43-.3a2 2 0 00-.84-.3 2 2 0 00-.83-.49c-.1-.13-.33-.12-.45-.23s-.23-.22-.46-.23c-.11-.41-.44-.61-.53-1.06a5.42 5.42 0 01-.45-1.21 13.09 13.09 0 01.38-3.8c.34-.59.78-1.09 1.13-1.67.25 0 .37-.09.38-.3.31 0 .44-.07.69-.08s.26-.36.45-.5zM7.11 3.19A3.54 3.54 0 017 2.13c0-.29.28-.28.3-.54 0-.07-.09-.05-.15-.07.13-.15.7-.1.83 0 .14.53-.35.45-.53.68 0 .17.33 0 .46.08 0 .85-.06 1.49 0 2.2h-.42c0 .23.23.23.46.23-.06.28.09.36.07.6-.22.16-.71.05-1.06.08-.1-.59.24-1.39.15-2.2zm-.68-1.6c.09 0 .13 0 .15.08.18.25 0 .68-.07.91-.18-.18-.03-.68-.08-.99zm.15 1.83c-.13-.07-.17-.24-.15-.46.13.04.17.24.15.46zm0 1.36c-.06.14-.08 0-.07-.15s.08.05.07.15zM6.43 5c.18 0 .08.22.23.23 0 .19-.29.18-.38.07s.11-.18.15-.3zM4.08 3.79c0-.1 0-.21-.08-.22-.07-.74.13-1.42 0-2 .25-.15.77 0 1.14-.07v1.16a.49.49 0 01-.38.07c0 .28.32.13.38.31a9.25 9.25 0 00.15 2.42c-.56 0-.9.11-1.44.08.1-.61 0-1.43.53-1.59-.01-.14-.26-.05-.3-.16zm-.53 0c-.21 0-.22-.53-.08-.6.33 0 .25.5.08.6zm-.16 1a3.25 3.25 0 00.08-.68c.23 0 .26.76-.08.67zm.23-2.05c-.26.06-.27-.26-.15-.38s.27.26.15.37zm0-1.14c0 .16-.05.2-.07.31-.18 0-.09-.22-.23-.23.02-.11.19-.07.3-.09zm-.23 3.71c.15 0 .11.35-.07.23a.32.32 0 00.07-.23zm-.68-3.72c0 .26-.44.32-.38 0zm-1 .08c0 .22-.32.18-.38.38-.2-.17.1-.47.39-.38zm-.45.76c.22-.21.45-.41.68-.61 0-.12.07-.13.08-.23h.23c.1.38-.26.3-.31.53s-.07.14-.07.23a4.44 4.44 0 01.07 1c-.27 0-.27.28-.61.23.04-.44-.12-.69-.06-1.15zm.07 3.26V4.1c.2-.18.4-.36.61-.53.3.49.18 1.39.46 1.89a7 7 0 01-1.06.23zm18.23 11.09a20.1 20.1 0 01-.37 2.81c-2.89.12-6 0-8.89.15-.2 0-.27 0-.23-.23-.25 0-.25.25-.53.23.2-.34.44-.9.15-1.29-.79 0-.79.82-1.13 1.29-.69 0-1.14.13-1.83.07.18-.7.75-1 .91-1.74-.39-.55-1 .14-1.21.45-.2.48-.56.81-.76 1.29h-1c.24-.46.49-.92.76-1.36s.63-.74.69-1.37c-.16-.28-.42 0-.69 0-.12.18-.27.34-.38.53a9.27 9.27 0 00-.68 1.14c-.18.21-.34 0-.53.23-.39.27-.58.73-1 1-.17-.06 0-.36.15-.38.05-.18-.09-.55.08-.61a2.28 2.28 0 01.38-.91c.12-.74.52-1.2.68-1.9-.56.1-.67.64-1 1a6.61 6.61 0 00-.69 1.29c-.17-.13 0-.58-.07-.84.12-.58.29-1.12.38-1.74A2.59 2.59 0 003 15a.71.71 0 00-.07-.76.53.53 0 00-.46.31c-.19 0-.19.5-.3.3-.05-2.59-.45-4.81-.46-7.44 0-.33-.18-.42-.22-.68 1.62 0 3.12.09 4.78.22a2.85 2.85 0 01-.27.41 2 2 0 00-.37.31A12.56 12.56 0 005 13.82a4.48 4.48 0 001 1.44c.91.48 1.64 1.15 2.51 1.67a14.15 14.15 0 005.54 0 4.55 4.55 0 00.69-.38c1.36-1.24 2.75-2.46 3-4.86v-1.37a5 5 0 00-1.75-3.64c.33-.22 1.1 0 1.67.08h.68a7.78 7.78 0 011.45 0c.14.18.11.54.22.76-.06 1.68-.19 3.3-.15 5.08.1.46.13 1 .23 1.44a16 16 0 01-.53 2.74zm.38-11.16c-.64-.12-1.23-.29-1.89-.38.07-.34.79 0 1-.23.39-.22.3-.92.31-1.52a5.06 5.06 0 00.07-1.06C19 1.48 17.63 2 16.53 2a6 6 0 00-.31 2.66c.17.49 1 .29 1.52.46-.14.33-.69 0-1 .07s-.7 0-1-.15c-2.29.08-4.29 0-6.53.15a17 17 0 00-.08-3.64h3.12c-.35.36-.92.5-1.29.83a3.13 3.13 0 00-1.14.91c.25.14.53-.24.76-.38s.47-.38.83-.45a5.72 5.72 0 011.67-.91 3.81 3.81 0 011 .07c1.28 0 2.45.13 3.79.08a13.05 13.05 0 012 .3 8.08 8.08 0 01.3.91 25.93 25.93 0 01-.23 2.71zM14.1 1.9c.11 0 0-.09 0 0zm0 0a3.27 3.27 0 00-1.37.68 3.39 3.39 0 001.37-.68zm1.06.6c.11 0 0-.09 0 0zm-1.74.92a6 6 0 001.74-.92c-.44 0-.59.32-1 .38-.16.22-.59.26-.74.54zm-.69-.84c-.11 0 0 .09 0 0zm-.68.61c.11 0 0-.09 0 0zm-.05.07c.07 0 .07 0 .08-.07s-.08.03-.08.07zm-.07.08c.06 0 .07 0 .07-.08s-.1.03-.1.08zm-.87.66a2.1 2.1 0 00.84-.61 2 2 0 00-.84.61zm2.28 1c.53 0 .75-.41 1.21-.53.29-.3.79-.38 1-.76-.56 0-.76.4-1.21.53-.34.23-.77.35-1 .69zm-2.28-1c-.31-.08 0 .22 0 0zm-.53.38s.11 0 .08-.08-.12-.01-.08.03zm2.81.6c-.11.05 0 .1 0 0zM12.2 6.76c-.22-.24-.68-.24-1-.38a5.13 5.13 0 00-1.74.23l-.91.45c-.27.16-.45.42-.76.53s-.35.51-.69.61c0 .22-.17.28-.3.38s-.09.31-.23.38 0 .29-.07.3a18.63 18.63 0 00.68 4.18c.29.62 1 .84 1.44 1.29a6.59 6.59 0 002.13.53 3.21 3.21 0 01.91-.08 5.05 5.05 0 002.81-1.44 1.56 1.56 0 01.45-.68c-.25-.67.3-1.1.46-1.6a8.45 8.45 0 00-.61-3.41c-.25-.58-.92-.75-1.36-1.14-.06 0-.16 0-.16-.08a1.33 1.33 0 00-1.05-.07zm-3.42 4.32c-.11-.06-.11-.24-.15-.38.26-.07.12.24.15.38zm.08.31c0-.12.08 0 .08.07s-.08.01-.08-.07zm.46-2.05c0-.09.07-.05.07 0s-.07.04-.07 0zM11 7.21c-.21.26 0 .58.07.84-.31-.05-.58-.89-.07-.84zm.38 4s.05-.1.07-.08-.06.05-.08.03zm.74 2.79c0-.11.07 0 .16 0a.08.08 0 01-.16 0zm2.21-2.58c-.24-.05-.15.21-.38.16a1.63 1.63 0 01.22-.46c.14.06.18.17.16.34zm-1.14-3.75a2.45 2.45 0 01.6.38 2.31 2.31 0 00.38.53 21.7 21.7 0 01.16 2.35c-.26.1-.44.27-.69.38a4.35 4.35 0 01-1.89-.45l-.54-.76V9a4.54 4.54 0 00.46-.6c.23-.13.51-.2.45-.61a.32.32 0 01-.07-.23c.16 0 .24.16.38.23.32.05.41-.17.76-.12z" fill="#231f20"/></symbol><symbol id="social__twitter" viewBox="0 0 23.49 20.17"><path d="M23.45 4.08c-.22-.36-.91-.27-1.4-.37h-1.12c.15-.35.35-.64.52-1a5.23 5.23 0 00.23-1.26c.12-.17.17-.42.29-.59s.24-.48.08-.67-.3-.25-.6-.22a.48.48 0 00-.22.15c-.45.43-.78 1-1.26 1.4h-.07c-.01 0 0 .05-.08.08s-.26.15-.37.22a2.74 2.74 0 01-.89.52A6 6 0 0016.71 2a6.37 6.37 0 00-3 .74 7.41 7.41 0 00-2.15 1.63c0 .32-.34.4-.37.74 0 0 0 .09-.07.08a1.12 1.12 0 01-.08.51c0 .14.2.43 0 .52a7.18 7.18 0 01-2.14-1 10.1 10.1 0 01-2.12-1.06A6.09 6.09 0 015 2.82c-.21-.31-.54-.49-.66-.89-.34-.16-.18-.93-.75-.88-.31-.05-.34.2-.44.37s-.36.23-.37.51c0 .05 0 .09-.07.08a17.64 17.64 0 00-.52 3.26 3.2 3.2 0 00.59 1 1.1 1.1 0 00-.89.52 3.73 3.73 0 00.74 2.29 3 3 0 00.59 1c0 .23.21.28.3.44s.12.13.15.22.29.18.07.22c-.41.14-1 .07-1.26.38a1.91 1.91 0 000 1.11c0 .23.29.26.3.52.5.41 1.08.74 1.63 1.11a16.36 16.36 0 001.85.37 1.46 1.46 0 01-.59.74 19.92 19.92 0 01-2.74.74 15 15 0 01-1.56.22c-.33.13-.85.08-1.11.22s-.1.1-.22.23a.71.71 0 00.44.89c0 .25.22.27.37.37a.83.83 0 00.45.37 10.58 10.58 0 001.92 1.11c.83.18 1.65.37 2.52.52s1.9.12 2.82.22h1a10 10 0 001.85.07c.1-.1.33-.07.52-.07a9.37 9.37 0 001.63-.74c.58-.24 1-.64 1.56-.89a10.16 10.16 0 002.52-2.37 1.67 1.67 0 00.44-.74c.27-.16.39-.46.6-.67a9.82 9.82 0 001-1.41c.32-.49.58-1 .89-1.55 0-.41.31-.49.3-.89.19-.23.18-.67.37-.89a1.37 1.37 0 01.08-.6 12.33 12.33 0 00-.3-3.4 5.93 5.93 0 001.63-.6c.52-.17.99-.57.8-1.25zM20 8.16a4.7 4.7 0 01-1 2c.06.38-.11.54-.08.89a4.88 4.88 0 00-.37 1c-.2.26-.33.6-.52.89-.36.54-.77 1-1.18 1.55A18.83 18.83 0 0115.52 16c-.42.5-.94.89-1.4 1.34a4.85 4.85 0 00-1.26.66 4.11 4.11 0 00-.67.3c-.18.15-.5.15-.67.3a25.2 25.2 0 01-3.52.16 25.49 25.49 0 01-3-.38 11.73 11.73 0 01-2.3-1c.15-.24.64-.16 1-.22 0-.17.4 0 .45-.15.26.06.28-.11.52-.08a9.44 9.44 0 001.7-.59c.28-.14.41-.43.67-.59a.74.74 0 01.22-.45 2 2 0 00.15-.81c.11-.21.3-.34.3-.67-.08-.15-.13-.32-.3-.37s-.38-.07-.45-.22a1.34 1.34 0 01-.59-.08c-.15 0-.48.09-.52-.07A3.57 3.57 0 014 12.34c.43-.26 1-.35 1.33-.74.52-.08 1.06-.13 1.12-.67 0-.72-.77-.66-1.34-.81a12.69 12.69 0 01-1.89-2.55c.24-.16.57-.23.74-.45.46.06.54-.25.67-.52 0-.49-.33-.6-.59-.81a3.38 3.38 0 01-.67-.74 18.08 18.08 0 01.08-2.37c.06 0 .07 0 .07.07.23.44.56.77.82 1.18a8.76 8.76 0 001.55 1.12c.45.41 1.11.62 1.56 1a17 17 0 011.7.95c.67.2 1.06.68 2 .6l.6-.3c.25-.46-.06-1.08.14-1.63a4.42 4.42 0 011.26-1.48 9.54 9.54 0 00.85-.55 5.18 5.18 0 001-.37 6.34 6.34 0 001-.15h1.26a7.43 7.43 0 00.74.15 1.82 1.82 0 00.67.37 4.45 4.45 0 011.4 3A12.13 12.13 0 0020 8.16zm.3-5.63c-.13.34-.23.7-.59.81 0-.1-.12-.12-.15-.22s.21-.19.3-.3.24-.24.44-.29c.03-.09.15-.05.04 0zm-5.48 3a1.44 1.44 0 00.52.37.72.72 0 00.59.37c0-.15.35 0 .37-.23.17 0 .17-.22.3-.29a2.42 2.42 0 00-.37-1.34.94.94 0 00-1.37 1.16z" fill="#231f20"/></symbol><symbol id="wave--filled" viewBox="0 0 1150 34" preserveAspectRatio="none"><path fill="#FFF" d="M1121.25 0c-14.38 0-14.38 14-28.75 14s-14.37-14-28.75-14-14.37 14-28.75 14-14.38-14-28.75-14-14.37 14-28.75 14c-14.37 0-14.37-14-28.75-14-14.37 0-14.37 14-28.75 14S905.64 0 891.26 0c-14.37 0-14.37 14-28.75 14S848.14 0 833.76 0c-14.37 0-14.37 14-28.74 14-14.38 0-14.38-14-28.75-14s-14.37 14-28.74 14-14.37-14-28.75-14-14.37 14-28.75 14c-14.37 0-14.37-14-28.75-14-14.37 0-14.37 14-28.75 14S618.15 0 603.78 0s-14.37 14-28.75 14c-14.37 0-14.37-14-28.75-14-14.37 0-14.37 14-28.75 14-14.37 0-14.37-14-28.75-14s-14.38 14-28.75 14c-14.38 0-14.38-14-28.75-14-14.38 0-14.38 14-28.75 14-14.38 0-14.38-14-28.75-14-14.38 0-14.38 14-28.75 14-14.38 0-14.38-14-28.75-14s-14.38 14-28.75 14c-14.38 0-14.38-14-28.75-14s-14.37 14-28.75 14-14.38-14-28.75-14c-14.38 0-14.38 14-28.75 14-14.38 0-14.38-14-28.75-14-14.38 0-14.38 14-28.75 14-14.38 0-14.38-14-28.76-14C71.9 0 71.9 14 57.52 14S43.14 0 28.76 0 14.38 14 0 14v20h1150V14c-14.37 0-14.37-14-28.75-14z"/></symbol><symbol id="wave--stripe" viewBox="0 0 1150 23" preserveAspectRatio="none"><path d="M1150 23c-9 0-13.73-4.59-17.51-8.28-3.42-3.32-5.88-5.72-11.24-5.72s-7.82 2.4-11.23 5.72c-3.79 3.69-8.5 8.28-17.52 8.28s-13.72-4.59-17.51-8.28c-3.41-3.32-5.88-5.72-11.24-5.72s-7.82 2.4-11.23 5.72C1048.73 18.41 1044 23 1035 23s-13.73-4.59-17.52-8.28c-3.41-3.32-5.87-5.72-11.23-5.72s-7.83 2.4-11.24 5.72c-3.78 3.69-8.49 8.28-17.51 8.28s-13.72-4.59-17.5-8.28C956.58 11.4 954.12 9 948.76 9s-7.82 2.4-11.23 5.72C933.74 18.41 929 23 920 23s-13.73-4.59-17.51-8.28C899.08 11.4 896.62 9 891.26 9s-7.82 2.4-11.23 5.72c-3.79 3.69-8.5 8.28-17.52 8.28s-13.72-4.59-17.51-8.28C841.59 11.4 839.12 9 833.76 9s-7.82 2.4-11.23 5.72C818.75 18.41 814 23 805 23s-13.73-4.59-17.51-8.28C784.09 11.4 781.63 9 776.27 9s-7.82 2.4-11.23 5.72c-3.79 3.69-8.5 8.28-17.51 8.28S733.8 18.41 730 14.72C726.6 11.4 724.14 9 718.78 9s-7.82 2.4-11.23 5.72C703.76 18.41 699.05 23 690 23s-13.72-4.59-17.51-8.28C669.11 11.4 666.64 9 661.29 9s-7.83 2.4-11.24 5.72c-3.78 3.69-8.49 8.28-17.51 8.28s-13.73-4.59-17.54-8.28C611.61 11.4 609.15 9 603.79 9s-7.82 2.4-11.24 5.72C588.77 18.41 584.06 23 575 23s-13.73-4.59-17.51-8.28C554.11 11.4 551.65 9 546.29 9s-7.82 2.4-11.23 5.72c-3.79 3.69-8.5 8.28-17.52 8.28s-13.72-4.59-17.54-8.28C496.62 11.4 494.15 9 488.8 9s-7.83 2.4-11.24 5.72c-3.79 3.69-8.5 8.28-17.51 8.28s-13.73-4.59-17.52-8.28C439.12 11.4 436.65 9 431.29 9s-7.82 2.4-11.23 5.72c-3.79 3.69-8.5 8.28-17.52 8.28s-13.73-4.59-17.54-8.28C381.62 11.4 379.15 9 373.79 9s-7.82 2.4-11.23 5.72C358.77 18.41 354.06 23 345 23s-13.73-4.59-17.51-8.28C324.11 11.4 321.65 9 316.29 9s-7.82 2.4-11.24 5.72c-3.78 3.69-8.49 8.28-17.51 8.28s-13.73-4.59-17.54-8.28C266.61 11.4 264.15 9 258.79 9s-7.83 2.4-11.24 5.72C243.77 18.41 239.06 23 230 23s-13.73-4.59-17.52-8.28C209.11 11.4 206.65 9 201.29 9s-7.82 2.4-11.24 5.72c-3.78 3.69-8.49 8.28-17.51 8.28s-13.73-4.59-17.54-8.28C151.61 11.4 149.14 9 143.78 9s-7.82 2.4-11.23 5.72C128.76 18.41 124.05 23 115 23s-13.73-4.59-17.52-8.28C94.1 11.4 91.63 9 86.27 9S78.45 11.4 75 14.72C71.25 18.41 66.54 23 57.52 23S43.79 18.41 40 14.72C36.59 11.4 34.12 9 28.76 9s-7.83 2.4-11.24 5.72C13.73 18.41 9 23 0 23v-9c5.36 0 7.83-2.4 11.24-5.72C15 4.59 19.74 0 28.76 0s13.73 4.59 17.52 8.28C49.69 11.6 52.16 14 57.52 14s7.82-2.4 11.24-5.72C72.54 4.59 77.26 0 86.27 0S100 4.59 103.79 8.28C107.2 11.6 109.67 14 115 14s7.82-2.4 11.24-5.72C130.05 4.59 134.77 0 143.78 0s13.73 4.59 17.52 8.28c3.41 3.32 5.88 5.72 11.24 5.72s7.82-2.4 11.23-5.72c3.79-3.69 8.5-8.28 17.52-8.28S215 4.59 218.8 8.28C222.22 11.6 224.68 14 230 14s7.82-2.4 11.23-5.72C245.06 4.59 249.77 0 258.79 0s13.73 4.59 17.51 8.28c3.41 3.32 5.88 5.72 11.24 5.72s7.82-2.4 11.24-5.72C302.56 4.59 307.27 0 316.29 0S330 4.59 333.81 8.28C337.22 11.6 339.68 14 345 14s7.83-2.4 11.24-5.72C360.06 4.59 364.78 0 373.79 0s13.73 4.59 17.52 8.28c3.41 3.32 5.88 5.72 11.23 5.72s7.83-2.4 11.24-5.72c3.78-3.69 8.5-8.28 17.51-8.28S445 4.59 448.81 8.28c3.41 3.32 5.88 5.72 11.24 5.72s7.82-2.4 11.23-5.72C475.07 4.59 479.78 0 488.8 0s13.72 4.59 17.51 8.28c3.41 3.32 5.88 5.72 11.23 5.72s7.83-2.4 11.24-5.72c3.78-3.69 8.5-8.28 17.51-8.28S560 4.59 563.81 8.28C567.22 11.6 569.68 14 575 14s7.82-2.4 11.23-5.72C590.06 4.59 594.77 0 603.79 0s13.73 4.59 17.51 8.28c3.42 3.32 5.88 5.72 11.24 5.72s7.82-2.4 11.23-5.72c3.79-3.69 8.5-8.28 17.52-8.28S675 4.59 678.8 8.28C682.21 11.6 684.68 14 690 14s7.82-2.4 11.24-5.72C705.05 4.59 709.76 0 718.78 0s13.73 4.59 17.51 8.28c3.41 3.32 5.88 5.72 11.24 5.72s7.82-2.4 11.23-5.72C762.54 4.59 767.25 0 776.27 0S790 4.59 793.79 8.28C797.2 11.6 799.66 14 805 14s7.82-2.4 11.23-5.72C820 4.59 824.75 0 833.76 0s13.73 4.59 17.52 8.28c3.41 3.32 5.88 5.72 11.23 5.72s7.83-2.4 11.24-5.72c3.79-3.69 8.5-8.28 17.51-8.28S905 4.59 908.78 8.28C912.19 11.6 914.65 14 920 14s7.82-2.4 11.24-5.72C935 4.59 939.74 0 948.76 0s13.73 4.59 17.51 8.28c3.42 3.32 5.88 5.72 11.24 5.72s7.82-2.4 11.23-5.72c3.79-3.69 8.5-8.28 17.52-8.28s13.73 4.59 17.51 8.28c3.41 3.32 5.88 5.72 11.24 5.72s7.82-2.4 11.23-5.72c3.76-3.69 8.5-8.28 17.51-8.28s13.73 4.59 17.52 8.28c3.41 3.32 5.88 5.72 11.23 5.72s7.83-2.4 11.24-5.72c3.78-3.69 8.5-8.28 17.51-8.28s13.73 4.59 17.52 8.28c3.41 3.32 5.87 5.72 11.23 5.72z" fill="#e6e7e8"/></symbol></svg>