<?xml version="1.0" encoding="UTF-8"?><!DOCTYPE svg PUBLIC "-//W3C//DTD SVG 1.1//EN" "http://www.w3.org/Graphics/SVG/1.1/DTD/svg11.dtd"><svg xmlns="http://www.w3.org/2000/svg" xmlns:xlink="http://www.w3.org/1999/xlink"><symbol id="quote" viewBox="0 0 53 44"><path data-name="Composite Path" d="M20.3 0a213.301 213.301 0 00-6.01 4 38.851 38.851 0 00-6.794 5.93 33.847 33.847 0 00-5.309 7.777A21.013 21.013 0 000 27.328c0 4.984.956 9.024 2.888 12.074q2.9 4.61 9.619 4.6a8.312 8.312 0 006.773-2.986 9.91 9.91 0 002.464-6.424c0-3.223-.892-5.651-2.676-7.326a10.216 10.216 0 00-7.3-2.514h-3.61a24.286 24.286 0 011.571-6.875 19.465 19.465 0 013.228-5.092 27.91 27.91 0 014.438-4.168c1.443-1.031 3.355-2.3 5.712-3.76L20.3 0zm29.9 0a211.995 211.995 0 00-6.009 4 38.82 38.82 0 00-6.795 5.93 33.812 33.812 0 00-5.308 7.777 21 21 0 00-2.188 9.625c0 4.984.956 9.024 2.888 12.074q2.9 4.61 9.619 4.6a8.313 8.313 0 006.774-2.986 9.909 9.909 0 002.463-6.424c0-3.223-.892-5.651-2.676-7.326a10.214 10.214 0 00-7.3-2.514h-3.61a25.448 25.448 0 011.529-6.832 19.29 19.29 0 013.27-5.135 27.953 27.953 0 014.438-4.168c1.444-1.031 3.355-2.3 5.712-3.76L50.2 0z" fill-rule="evenodd"/></symbol><symbol id="slide-btn-next" viewBox="0 0 15 27"><path data-name="Right Arrow" d="M14.566 12.457L2.524.433A1.478 1.478 0 000 1.476L6.318 13.5 0 25.524a1.479 1.479 0 002.524 1.044l12.042-12.024a1.471 1.471 0 000-2.087z" fill-rule="evenodd"/></symbol><symbol id="slide-btn-prev" viewBox="0 0 15 27"><path data-name="Left Arrow" d="M.434 12.457L12.476.433A1.478 1.478 0 0115 1.476L8.682 13.5 15 25.524a1.479 1.479 0 01-2.524 1.044L.434 14.544a1.472 1.472 0 010-2.087z" fill-rule="evenodd"/></symbol><symbol id="social-linkedin" viewBox="0 0 15 14"><path d="M3.225 4.43H.183V14h3.042V4.43zm.214-2.96A1.588 1.588 0 001.723 0a1.651 1.651 0 10-.036 3.3h.018a1.621 1.621 0 001.734-1.65v-.18zM15 8.44c0-2.82-1.5-4.05-3.548-4.05a2.966 2.966 0 00-3.045 1.43l.021.02V4.58h-3.35s.041.81 0 9.35h3.35V8.59a2.245 2.245 0 01.112-.78 1.829 1.829 0 011.72-1.16c1.212 0 1.7.88 1.7 2.16v5.12H15V8.44z" fill="#fff" fill-rule="evenodd"/></symbol><symbol id="social-pinterest" viewBox="0 0 15 15"><path d="M15 7.88C15 3.63 11.486 0 7.612 0A7.776 7.776 0 000 7.88a6.6 6.6 0 004.557 6.62 4.136 4.136 0 01.127-1.37s.147-.48.974-4.13a3.4 3.4 0 01-.249-1.26c0-1.17.658-2.05 1.475-2.05a1.058 1.058 0 011.036 1.2 17.438 17.438 0 01-.677 2.8 1.2 1.2 0 001.086 1.53c1.127 0 1.884-1.93 1.884-4.21 0-1.67-.881-2.74-2.521-2.74a3.432 3.432 0 00-3.743 3.49 2.382 2.382 0 00.5 1.56.4.4 0 01.108.44c-.04.15-.118.5-.157.63a.259.259 0 01-.373.21 3.035 3.035 0 01-1.733-3.03 5.494 5.494 0 015.607-5.16 5.415 5.415 0 014.805 4.75c0 3.11-2.227 5.43-4.246 5.43a2.1 2.1 0 01-1.7-.99c-.449 1.62-.538 1.88-.538 1.88a4.588 4.588 0 01-.778 1.27 9.654 9.654 0 002.173.25 7.107 7.107 0 007.388-7.12z" fill="#fff" fill-rule="evenodd"/></symbol><symbol id="social-rss" viewBox="0 0 13 14"><path d="M3.543 12.09A1.777 1.777 0 101.772 14a1.848 1.848 0 001.771-1.91zm4.724 1.22A9.241 9.241 0 005.85 7.7 8.016 8.016 0 00.637 5.09H.59a.542.542 0 00-.4.17.633.633 0 00-.194.47v1.34a.614.614 0 00.535.63 6.136 6.136 0 015.315 5.72.6.6 0 00.581.58h1.246a.541.541 0 00.433-.21.676.676 0 00.157-.48zm4.732.02a14.538 14.538 0 00-3.827-9.21A12.577 12.577 0 00.618 0H.59a.552.552 0 00-.406.18A.641.641 0 000 .64v1.42a.605.605 0 00.554.62c5.36.34 9.633 4.95 9.937 10.72a.611.611 0 00.591.6H12.4a.544.544 0 00.424-.2.646.646 0 00.174-.47z" fill="#fff" fill-rule="evenodd"/></symbol><symbol id="social-twitter" viewBox="0 0 15 13"><path d="M15 1.54a5.64 5.64 0 01-1.769.51A3.2 3.2 0 0014.583.24a5.914 5.914 0 01-1.951.8A2.985 2.985 0 0010.385 0a3.179 3.179 0 00-3.074 3.28 3.894 3.894 0 00.076.75A8.565 8.565 0 011.047.6a3.432 3.432 0 00-.419 1.65 3.354 3.354 0 001.371 2.74 3 3 0 01-1.39-.42v.04a3.228 3.228 0 002.466 3.22 3.1 3.1 0 01-.809.11 3.692 3.692 0 01-.581-.05 3.116 3.116 0 002.875 2.28 5.937 5.937 0 01-3.818 1.4A6.041 6.041 0 010 11.53 8.326 8.326 0 004.721 13c5.655 0 8.748-5 8.748-9.33 0-.15 0-.29-.009-.43A6.886 6.886 0 0015 1.54z" fill="#fff" fill-rule="evenodd"/></symbol></svg>