<svg viewBox="0 0 30 30" fill="none" xmlns="http://www.w3.org/2000/svg"><g clip-path="url(#a)" fill="#F90"><path d="M8.812 18.53h-5.18a3.38 3.38 0 0 1 1.765-2.16l1.721-.86a3.047 3.047 0 0 0 1.694-2.74 3.067 3.067 0 0 0-3.064-3.064h-.931a3.067 3.067 0 0 0-3.064 3.064v.465h1.765v-.465a1.3 1.3 0 0 1 1.299-1.3h.931a1.3 1.3 0 0 1 .581 2.461l-1.72.86a5.137 5.137 0 0 0-2.856 4.62v.883h7.059V18.53zM14.988 14.118h-1.216a1.433 1.433 0 0 1-1.43-1.431V9.706h-1.766v2.98a3.2 3.2 0 0 0 3.196 3.196h1.216v4.412h1.765V9.706h-1.765v4.412zM24.948 20.263l3.3-10.557h-6.79v1.765h4.389l-2.583 8.266 1.684.526zM18.518 14.118h2.647v1.764h-2.647v-1.764zM14.106 0h1.765v3.53h-1.765V0zM10.102 1.934l1.705-.457.61 2.273-1.705.457-.61-2.273zM6.43 3.706l1.528-.882L9.135 4.86l-1.529.883L6.43 3.706zM3.34 6.366l1.248-1.248 1.664 1.664-1.248 1.247-1.663-1.663zM17.565 3.751l.61-2.273 1.704.457-.61 2.273-1.704-.457zM20.842 4.862l1.176-2.038 1.528.883-1.176 2.037-1.528-.882zM23.72 6.784l1.664-1.664 1.247 1.248-1.663 1.664-1.248-1.248zM14.106 26.47h1.765V30h-1.765v-3.53zM10.105 28.069l.61-2.273 1.704.457-.61 2.273-1.704-.457zM6.43 26.294l1.176-2.038 1.528.883-1.176 2.037-1.529-.882zM3.34 23.632l1.663-1.664 1.247 1.248-1.663 1.663-1.248-1.247zM17.568 26.247l1.705-.458.609 2.273-1.705.457-.61-2.272zM20.841 25.138l1.528-.883 1.177 2.038-1.528.882-1.177-2.037zM23.718 23.218l1.248-1.247 1.663 1.663-1.248 1.248-1.663-1.664z"/></g><defs><clipPath id="a"><path fill="#fff" d="M0 0h30v30H0z"/></clipPath></defs></svg>