<svg width="80" height="80" fill="none" xmlns="http://www.w3.org/2000/svg"><path d="M76.129 18.721H3.871A3.875 3.875 0 0 0 0 22.591v42.582a3.875 3.875 0 0 0 3.871 3.87h72.258A3.875 3.875 0 0 0 80 65.174V22.592a3.875 3.875 0 0 0-3.871-3.871z" fill="#FF4F19"/><path d="M43.871 62.592h-7.742v6.451h7.742v-6.451z" fill="#E3001E"/><path d="M74.874 58.72v3.872a1.29 1.29 0 0 1-1.29 1.29H6.487a1.29 1.29 0 0 1-1.29-1.29V58.72l7.706-3.871 30.968 1.29 25.806-1.29 5.197 3.87z" fill="#E6BE8A"/><path d="M7.007 60.502a40.913 40.913 0 0 1 33.028.8V14.85a40.912 40.912 0 0 0-34.072-.351 1.307 1.307 0 0 0-.766 1.192v43.632c0 .932.949 1.535 1.81 1.18z" fill="#FFEBB7"/><path d="M40.035 61.302a40.912 40.912 0 0 1 33.029-.8c.861.356 1.81-.247 1.81-1.18v-43.63c0-.512-.3-.985-.766-1.193a40.912 40.912 0 0 0-34.073.351v46.452z" fill="#FFD788"/><path d="M45.197 52.875a1.29 1.29 0 0 1-.387-2.522c1.305-.41 2.648-.76 3.993-1.042a1.29 1.29 0 1 1 .53 2.525 39.813 39.813 0 0 0-3.75.98c-.128.04-.26.059-.386.059zM69.713 52.875c-.127 0-.259-.02-.387-.06a39.393 39.393 0 0 0-14.995-1.697 1.291 1.291 0 0 1-.204-2.573c5.42-.426 10.789.18 15.973 1.808a1.291 1.291 0 0 1-.387 2.522zM69.713 47.698c-.128 0-.259-.02-.387-.06a39.427 39.427 0 0 0-23.742 0 1.291 1.291 0 0 1-.774-2.462 42.001 42.001 0 0 1 25.29 0 1.291 1.291 0 0 1-.387 2.522zM45.197 42.552a1.29 1.29 0 0 1-.387-2.522 42.147 42.147 0 0 1 14.642-1.892 1.29 1.29 0 0 1-.124 2.578 39.536 39.536 0 0 0-13.745 1.776c-.128.04-.26.06-.386.06zM69.713 42.552c-.127 0-.259-.02-.387-.06a39.76 39.76 0 0 0-5-1.22 1.29 1.29 0 0 1 .449-2.542c1.797.317 3.587.755 5.325 1.3a1.291 1.291 0 0 1-.387 2.522zM69.713 37.376c-.128 0-.259-.02-.387-.06a39.427 39.427 0 0 0-23.742 0 1.29 1.29 0 1 1-.774-2.462 42.001 42.001 0 0 1 25.29 0 1.291 1.291 0 0 1-.387 2.522zM45.197 32.215a1.29 1.29 0 0 1-.387-2.522 42.257 42.257 0 0 1 7.987-1.681 1.28 1.28 0 0 1 1.425 1.14 1.29 1.29 0 0 1-1.14 1.424 39.706 39.706 0 0 0-7.499 1.579c-.128.04-.26.06-.386.06zM69.713 32.215c-.128 0-.259-.02-.387-.06a39.55 39.55 0 0 0-11.245-1.816 1.29 1.29 0 0 1-1.27-1.31c.011-.712.634-1.312 1.31-1.27 4.068.064 8.099.715 11.979 1.934a1.291 1.291 0 0 1-.387 2.522zM45.197 27.068a1.29 1.29 0 0 1-.387-2.522 41.917 41.917 0 0 1 17.303-1.68 1.29 1.29 0 0 1 1.14 1.424 1.274 1.274 0 0 1-1.425 1.14 39.384 39.384 0 0 0-16.245 1.579c-.128.04-.26.06-.386.06zM69.713 27.068c-.127 0-.259-.02-.387-.06a39.45 39.45 0 0 0-2.5-.696 1.29 1.29 0 0 1 .613-2.507c.893.218 1.788.467 2.66.741a1.291 1.291 0 0 1-.386 2.522zM45.197 21.892a1.29 1.29 0 0 1-.386-2.522 42.188 42.188 0 0 1 2.66-.74 1.29 1.29 0 1 1 .61 2.508c-.824.199-1.665.433-2.499.694a1.29 1.29 0 0 1-.385.06zM69.713 21.892c-.127 0-.258-.02-.387-.06a39.394 39.394 0 0 0-16.245-1.579 1.282 1.282 0 0 1-1.425-1.14 1.29 1.29 0 0 1 1.14-1.424A41.921 41.921 0 0 1 70.1 19.37a1.291 1.291 0 0 1-.387 2.522z" fill="#868491"/><path d="M10.358 52.875a1.29 1.29 0 0 1-.387-2.522c1.305-.41 2.649-.76 3.993-1.042a1.29 1.29 0 1 1 .53 2.525 39.823 39.823 0 0 0-3.75.98c-.128.04-.259.059-.386.059zM34.874 52.875c-.127 0-.259-.02-.387-.06a39.39 39.39 0 0 0-14.995-1.697 1.282 1.282 0 0 1-1.388-1.185 1.291 1.291 0 0 1 1.184-1.388c5.42-.426 10.788.18 15.973 1.808a1.292 1.292 0 0 1-.387 2.522zM34.874 47.698c-.127 0-.258-.02-.387-.06a39.427 39.427 0 0 0-23.742 0 1.291 1.291 0 0 1-.774-2.462 42.001 42.001 0 0 1 25.29 0 1.291 1.291 0 0 1-.387 2.522zM10.358 42.552a1.29 1.29 0 0 1-.387-2.522 42.159 42.159 0 0 1 14.642-1.892 1.29 1.29 0 0 1-.123 2.578c-4.66-.22-9.287.377-13.745 1.776-.129.04-.26.06-.387.06zM34.874 42.552c-.127 0-.258-.02-.387-.06a39.755 39.755 0 0 0-5-1.22 1.29 1.29 0 1 1 .449-2.542 42.45 42.45 0 0 1 5.325 1.3 1.291 1.291 0 0 1-.387 2.522zM10.358 37.376a1.29 1.29 0 0 1-.387-2.522 42.21 42.21 0 0 1 22.627-.741 1.29 1.29 0 0 1-.61 2.507 39.602 39.602 0 0 0-21.243.696c-.129.04-.26.06-.387.06zM10.358 32.215a1.29 1.29 0 0 1-.387-2.522 42.256 42.256 0 0 1 7.988-1.681 1.284 1.284 0 0 1 1.425 1.14 1.29 1.29 0 0 1-1.14 1.424c-2.54.282-5.064.813-7.5 1.579-.128.04-.259.06-.386.06zM32.294 31.496c-.1 0-.204-.012-.306-.037a39.634 39.634 0 0 0-8.746-1.12 1.29 1.29 0 0 1-1.27-1.31c.011-.713.568-1.312 1.31-1.27 3.136.049 6.27.45 9.316 1.192a1.29 1.29 0 0 1-.303 2.545zM10.358 27.068a1.29 1.29 0 0 1-.387-2.522 41.921 41.921 0 0 1 17.303-1.68 1.29 1.29 0 0 1 1.14 1.424 1.276 1.276 0 0 1-1.425 1.14 39.384 39.384 0 0 0-16.244 1.579c-.129.04-.26.06-.387.06zM10.358 21.892a1.291 1.291 0 0 1-.386-2.522 42.205 42.205 0 0 1 2.66-.74 1.29 1.29 0 1 1 .61 2.508c-.824.199-1.665.433-2.499.694a1.29 1.29 0 0 1-.385.06zM32.295 21.172c-.101 0-.204-.011-.306-.036a39.527 39.527 0 0 0-13.747-.883 1.284 1.284 0 0 1-1.425-1.14 1.29 1.29 0 0 1 1.14-1.424c4.911-.547 9.84-.23 14.641.94a1.29 1.29 0 0 1-.303 2.543z" fill="#B4B6BC"/><path d="M32.293 34.849c0 .515.575.823 1.003.537l2.868-1.912 2.868 1.912a.645.645 0 0 0 1.003-.537V14.957a1.3 1.3 0 0 0-.763-1.187 40.841 40.841 0 0 0-6.171-2.164.651.651 0 0 0-.811.631l.003 22.612z" fill="#5D647F"/></svg>