<svg viewBox="0 0 30 30" fill="none" xmlns="http://www.w3.org/2000/svg" viewBox="0 0 30 30"><path d="M22.735 22.292a3.5 3.5 0 0 0-3.503 3.503 3.5 3.5 0 0 0 3.503 3.503 3.5 3.5 0 0 0 3.503-3.503c-.033-1.92-1.583-3.503-3.503-3.503z" fill="#fff"/><path d="M19.732 25.795a3 3 0 0 1 3.003-3.003c1.635 0 2.972 1.35 3.003 3.007a3 3 0 0 1-3.003 2.999 3 3 0 0 1-3.003-3.003z" stroke-opacity=".5"/><path d="M28.9 6.084c-.068 0-.17-.034-.27-.034H7.41l-.337-2.256A3.016 3.016 0 0 0 4.076 1.2H1.347C.607 1.2 0 1.806 0 2.547s.606 1.348 1.347 1.348h2.729c.168 0 .303.134.336.303L6.501 18.41a3.693 3.693 0 0 0 3.637 3.133H24.15c1.752 0 3.267-1.246 3.638-2.964l2.189-10.947a1.331 1.331 0 0 0-1.078-1.55z" fill="#fff"/><path d="m6.916 6.124.063.426H28.63l.012.001a.903.903 0 0 1 .046.008l.01.002.069.012a.993.993 0 0 0 .07.008.83.83 0 0 1 .65.957l-.001.002-2.188 10.938c-.323 1.49-1.638 2.566-3.148 2.566H10.138a3.193 3.193 0 0 1-3.143-2.707L4.907 4.125l-.002-.013-.002-.012c-.07-.348-.37-.705-.827-.705H1.347A.851.851 0 0 1 .5 2.547c0-.465.382-.847.847-.847h2.729c1.269 0 2.334.93 2.502 2.161v.006l.338 2.257z" stroke-opacity=".5"/><path d="M14.146 25.627c-.067-1.853-1.616-3.335-3.469-3.335-1.954.101-3.436 1.718-3.368 3.638.067 1.852 1.583 3.334 3.435 3.334h.068c1.92-.1 3.435-1.717 3.334-3.637z" fill="#fff"/><path d="M13.647 25.645v.008c.086 1.628-1.199 3.018-2.849 3.111h-.054c-1.579 0-2.878-1.265-2.935-2.852-.058-1.64 1.203-3.026 2.88-3.12 1.58.007 2.9 1.276 2.958 2.853z" stroke-opacity=".5"/></svg>