<svg width="30" height="30" viewBox="0 0 30 30" fill="none" xmlns="http://www.w3.org/2000/svg"><g clip-path="url(#a)" ><path d="M20.294 13.236a.883.883 0 0 0 .883-.883v-3.53h-5.295v7.06a.883.883 0 0 0 1.765 0v-5.294h1.765v1.764c0 .487.396.883.882.883z"/><path d="M22.942 8.823v3.53c0 1.829-1.817 3.104-3.53 2.497v1.033a2.65 2.65 0 0 1-2.647 2.647 2.65 2.65 0 0 1-2.647-2.647v-7.06c-2.347 0-10.454.001-10.615 0a13.008 13.008 0 0 0-1.613 6.343c.022 7.268 5.924 13.19 13.325 13.069 7.073-.114 12.895-5.87 12.895-13.108 0-2.23-.554-4.38-1.613-6.304h-3.555zM25.686 25.473a14.854 14.854 0 0 1-4.363 3.124l.63.629a2.65 2.65 0 0 0 3.743 0 2.65 2.65 0 0 0 0-3.744l-.01-.01zM3.88 25.024l-.458.458a2.65 2.65 0 0 0 0 3.744 2.65 2.65 0 0 0 3.744 0l.915-.915a14.882 14.882 0 0 1-4.201-3.287zM10.588 0h1.765v1.765h-1.765V0zM14.118 0h1.764v1.765h-1.764V0zM3.529 7.06h10.589V3.53H3.528a1.765 1.765 0 0 0 0 3.53zM15.882 3.53v3.53h5.295V3.915l3.967-2.267-.876-1.533-5.973 3.414h-2.413z"/><path d="M22.942 7.06h3.53a1.765 1.765 0 0 0 0-3.53h-3.53v3.53z"/></g><defs><clipPath id="a"><path fill="#fff" d="M0 0h30v30H0z"/></clipPath></defs></svg>