<svg width="35" height="35" viewBox="0 0 35 35" fill="none" xmlns="http://www.w3.org/2000/svg"><path d="M28.363 26.77c1.961-1.928 3.137-4.369 3.137-7.022 0-3.259-1.82-6.371-4.922-8.498 1.248-.766 1.541-1.57 1.541-2.155 0-1.672-2.356-3.042-6.312-3.692a2.147 2.147 0 0 0-.711-.764 2.227 2.227 0 0 0-2.042-.196c-.33.134-.622.346-.85.615-.31-.012-.623-.02-.937-.022h-.061c-.195 0-.389 0-.582.003a2.422 2.422 0 0 0-.838-1.629 2.538 2.538 0 0 0-1.76-.608 2.529 2.529 0 0 0-1.702.752 2.411 2.411 0 0 0-.675 1.974c-3.57.698-5.606 1.983-5.606 3.566 0 .598.307 1.421 1.613 2.198-3.1 2.14-4.856 5.171-4.856 8.456 0 2.653 1.177 5.094 3.137 7.021l-.834 3.337a1.65 1.65 0 0 0 .2 1.28c.119.19.274.356.458.487a1.75 1.75 0 0 0 1.289.307c.225-.034.44-.111.635-.227.194-.116.363-.268.497-.447.134-.18.23-.384.284-.6l.48-1.92a17.077 17.077 0 0 0 8.204 2.031c2.867.02 5.691-.68 8.202-2.03l.48 1.92c.108.435.39.81.782 1.043.392.233.863.304 1.31.198.445-.106.83-.38 1.068-.764.238-.383.311-.842.203-1.278l-.832-3.337zM12.168 6.755a2.49 2.49 0 0 0 1.002.745 2.551 2.551 0 0 0 2.422-.272 2.45 2.45 0 0 0 .803-.948c.437-.01.875-.01 1.317 0-.003.043-.007.086-.007.13a2.1 2.1 0 0 0 .576 1.44 2.217 2.217 0 0 0 2.94.241c.432-.326.722-.8.814-1.325 1.855.43 2.46.985 2.46 1.158 0 .48-2.599 1.657-7.415 1.657-4.815 0-7.414-1.176-7.414-1.657 0-.127.459-.704 2.502-1.17zm7.718-1.242c.182 0 .36.053.51.151a.901.901 0 0 1 .34.403.878.878 0 0 1-.2.978.94.94 0 0 1-1.002.195.915.915 0 0 1-.412-.33.883.883 0 0 1 .115-1.134.932.932 0 0 1 .65-.263zm-5.754-1.478c.245 0 .485.07.69.204.203.133.362.322.456.543a1.184 1.184 0 0 1-.27 1.32 1.268 1.268 0 0 1-1.352.262 1.234 1.234 0 0 1-.555-.446 1.19 1.19 0 0 1 .154-1.528c.233-.227.548-.355.877-.355zm-6.89 26.579a.459.459 0 0 1-.211.282.479.479 0 0 1-.645-.153.448.448 0 0 1-.055-.346l.672-2.69c.262.206.536.401.818.591l-.579 2.316zm-3.18-10.867c0-3.158 1.886-6.07 5.175-7.99a.622.622 0 0 0 .235-.244.604.604 0 0 0-.044-.642.63.63 0 0 0-.266-.21c-1.164-.487-1.859-1.073-1.859-1.567 0-.362.376-.788 1.104-1.2l-.003.03c0 1.985 4.497 2.889 8.676 2.889 4.178 0 8.676-.904 8.676-2.889 0-.013-.003-.025-.003-.038.73.411 1.104.84 1.104 1.209 0 .482-.667 1.056-1.783 1.536a.629.629 0 0 0-.264.212.606.606 0 0 0 .197.882c3.324 1.919 5.231 4.843 5.231 8.022 0 5.534-5.872 10.037-13.088 10.037-7.216 0-13.088-4.503-13.088-10.037zM27.624 30.95a.48.48 0 0 1-.49-.174.451.451 0 0 1-.077-.162l-.577-2.316c.281-.19.556-.385.817-.59l.672 2.689a.447.447 0 0 1-.179.477.474.474 0 0 1-.165.076h-.001z" fill="#000"/><path d="M8.863 14.144a7.173 7.173 0 0 0-1.892 2.492 7.366 7.366 0 0 0-.67 3.084c0 .154.058.302.164.41a.556.556 0 0 0 .798 0 .588.588 0 0 0 .165-.41 6.184 6.184 0 0 1 .563-2.59 6.022 6.022 0 0 1 1.589-2.09.575.575 0 0 0 .216-.395.595.595 0 0 0-.125-.434.567.567 0 0 0-.39-.21.55.55 0 0 0-.418.144v-.001z" fill="#000"/></svg>