<svg width="30" height="30" viewBox="0 0 30 30" fill="none" xmlns="http://www.w3.org/2000/svg"><g clip-path="url(#a)" fill="#000"><path d="M28.855 5.549 10.48 1.66A1.449 1.449 0 0 0 8.77 2.775l-.35 2.243 21.2 4.486.35-2.243a1.449 1.449 0 0 0-1.114-1.712zM21.128 9.98a1.463 1.463 0 0 0-1.795-1.015l-3.488.968-8.222-1.74-.905 4.273-5.65 1.568a1.462 1.462 0 0 0-1.015 1.794l3.184 11.475a1.463 1.463 0 0 0 1.795 1.015l18.265-5.069a1.463 1.463 0 0 0 1.015-1.795l-.546-1.97 2.048.434a1.448 1.448 0 0 0 1.712-1.114l1.297-6.125-7.38-1.561-.315-1.138zm2.11 5.832.451-2.135a.596.596 0 0 1 .705-.458l2.135.452c.32.068.526.384.458.704l-.452 2.135a.596.596 0 0 1-.704.458l-2.135-.451a.596.596 0 0 1-.459-.705zm-21.852-.633 5.054-1.402 11.927-3.31 1.283-.357a.276.276 0 0 1 .332.188l.15.543.473 1.7L1.82 17.755l-.623-2.243a.273.273 0 0 1 .188-.332zm21.78 6.593a.265.265 0 0 1-.026.204.263.263 0 0 1-.16.128L4.713 27.173a.276.276 0 0 1-.332-.188l-1.857-6.693L21.31 15.08l1.146 4.128.712 2.565z"/><path d="M7.666 22.23a.596.596 0 0 0-.732-.414l-2.133.592a.596.596 0 0 0-.414.732l.592 2.133a.596.596 0 0 0 .732.413l2.133-.592a.596.596 0 0 0 .414-.732l-.592-2.132z"/></g><defs><clipPath id="a"><path fill="#fff" d="M0 0h30v30H0z"/></clipPath></defs></svg>