<svg width="80" height="80" fill="none" xmlns="http://www.w3.org/2000/svg"><g clip-path="url(#a)"><path d="m76.323 40.003 3.51-9.155a2.503 2.503 0 0 0-.76-2.84l-7.61-6.169-1.54-9.684a2.499 2.499 0 0 0-2.08-2.075L58.16 8.54 51.994.925a2.504 2.504 0 0 0-2.834-.76L40 3.68 30.846.17a2.494 2.494 0 0 0-2.835.76l-6.17 7.615-9.684 1.54a2.505 2.505 0 0 0-2.075 2.075l-1.54 9.684-7.614 6.17a2.501 2.501 0 0 0-.76 2.834l3.51 9.155-3.51 9.154a2.494 2.494 0 0 0 .76 2.835l7.614 6.165 1.54 9.684a2.5 2.5 0 0 0 2.075 2.08l9.684 1.54 6.17 7.61c.685.85 1.83 1.15 2.84.76L40 76.324l9.154 3.51a2.492 2.492 0 0 0 2.84-.765l6.164-7.61 9.684-1.54a2.505 2.505 0 0 0 2.08-2.08l1.54-9.683 7.61-6.165a2.496 2.496 0 0 0 .76-2.835l-3.51-9.154z" fill="#F44336"/><path d="M32.501 35.004c-4.134 0-7.5-3.365-7.5-7.5s3.366-7.5 7.5-7.5c4.135 0 7.5 3.365 7.5 7.5s-3.365 7.5-7.5 7.5zm0-10a2.5 2.5 0 1 0 .002 5.002 2.5 2.5 0 0 0-.002-5.002zM47.5 60.001c-4.135 0-7.5-3.364-7.5-7.5 0-4.134 3.365-7.499 7.5-7.499s7.5 3.365 7.5 7.5-3.365 7.5-7.5 7.5zm0-9.999a2.507 2.507 0 0 0-2.5 2.5c0 1.375 1.125 2.5 2.5 2.5s2.5-1.125 2.5-2.5-1.125-2.5-2.5-2.5zM27.502 60.001a2.5 2.5 0 0 1-2.03-3.955L50.471 21.05a2.5 2.5 0 0 1 3.49-.58c1.125.8 1.38 2.365.58 3.485L29.542 58.952a2.51 2.51 0 0 1-2.04 1.05z" fill="#FAFAFA"/></g><defs><clipPath id="a"><path fill="#fff" d="M0 0h80v80H0z"/></clipPath></defs></svg>