<svg width="30" height="30" viewBox="0 0 30 30" fill="none" xmlns="http://www.w3.org/2000/svg"><path d="M9.082 0H.879A.879.879 0 0 0 0 .879v2.05h9.96V.88A.879.879 0 0 0 9.083 0zM29.558 8.378a.879.879 0 0 0-.88.004l-8.698 5.086V9.14a.879.879 0 0 0-1.322-.76L9.96 13.469v-8.78H0V29.12c0 .486.394.879.879.879H29.12a.879.879 0 0 0 .879-.879V9.141a.879.879 0 0 0-.442-.763zm-16.081 15.44a.879.879 0 0 1-.88.88H9.083a.879.879 0 0 1-.879-.88v-3.515c0-.486.394-.88.879-.88h3.516c.485 0 .879.394.879.88v3.515zm10.02 0a.879.879 0 0 1-.88.88h-3.515a.879.879 0 0 1-.88-.88v-3.515c0-.486.394-.88.88-.88h3.515c.486 0 .88.394.88.88v3.515z" fill="#000"/></svg>