<svg width="30" height="30" viewBox="0 0 30 30" fill="none" xmlns="http://www.w3.org/2000/svg"><g clip-path="url(#a)" fill="#000"><path d="M7.315 8.81V7.97a.44.44 0 0 0-.88 0v.839a.44.44 0 0 0 .88 0zM11.321 9.25a.44.44 0 0 0 .44-.44V7.97a.44.44 0 0 0-.88 0v.839c0 .243.197.44.44.44zM23.61 7.49h-.35a.44.44 0 0 0-.439.44v.812a.44.44 0 0 0 .88 0V8.36a.44.44 0 0 0-.091-.87zM18.954 9.181a.44.44 0 0 0 .44-.439V7.93a.44.44 0 0 0-.44-.44h-.349a.44.44 0 0 0-.09.87v.382c0 .243.197.44.44.44zM6.375 23.148c.746 0 1.352-.606 1.352-1.351a.44.44 0 0 0-.879 0 .473.473 0 0 1-.945 0 .44.44 0 0 0-.88 0c0 .745.607 1.351 1.352 1.351zM4.279 19.223a.44.44 0 0 0-.44.44v.791a.44.44 0 0 0 .88 0v-.791a.44.44 0 0 0-.44-.44zM8.472 20.893a.44.44 0 0 0 .44-.439v-.791a.44.44 0 0 0-.879 0v.791c0 .243.197.44.44.44zM24.336 21.343a.44.44 0 0 0-.44.439.511.511 0 0 1-1.021 0 .44.44 0 0 0-.88 0c0 .766.624 1.39 1.39 1.39.767 0 1.39-.624 1.39-1.39a.44.44 0 0 0-.44-.44zM25.924 19.12h-.355a.44.44 0 0 0-.44.44v.823a.44.44 0 0 0 .88 0v-.392a.44.44 0 0 0-.085-.871zM21.201 19.12h-.354a.44.44 0 0 0-.085.87v.393a.44.44 0 0 0 .879 0v-.824a.44.44 0 0 0-.44-.44zM14.999 26.02c.711 0 1.29-.58 1.29-1.29a.44.44 0 0 0-.88 0 .411.411 0 0 1-.821 0 .44.44 0 0 0-.88 0c0 .71.58 1.29 1.29 1.29zM13.044 23.917a.44.44 0 0 0 .44-.44v-.737a.44.44 0 0 0-.88 0v.738c0 .242.197.44.44.44zM16.954 23.917a.44.44 0 0 0 .44-.44v-.737a.44.44 0 1 0-.88 0v.738c0 .242.197.44.44.44z"/><path d="M29.435 20.809c.24-.325.383-.728.383-1.162 0-.695-.358-1.305-.903-1.653V16.3a4.151 4.151 0 0 0-2.614-3.851c.167-.211.31-.444.423-.692a3.476 3.476 0 0 0 .271-1.949l-.07-.461a1.939 1.939 0 0 0-.46-3.02l-.205-1.371v-.001l-.076-.503c-.146-.97-.745-1.813-1.58-2.24a3.06 3.06 0 0 0-1.121-1.16.44.44 0 1 0-.45.755c.37.22.665.542.852.93a.44.44 0 0 0 .22.211c.636.279 1.1.905 1.21 1.635l.052.349c-.258-.473-.523-.769-.57-.827l-.01-.012a.44.44 0 0 0-.76.178c-.075.3-.206.575-.377.814l-.003.004c-.44.609-1.156.992-1.944.992h-5.354V4.715A3.218 3.218 0 0 1 19.562 1.5h1.711a.44.44 0 0 0 0-.879h-1.71a4.098 4.098 0 0 0-4.093 4.093v1.8c-.105.084-.2.18-.284.285A2.008 2.008 0 0 0 15 6.604a.438.438 0 0 0 .008-.089v-3.32A3.198 3.198 0 0 0 11.816 0H8.286a3.483 3.483 0 0 0-3.433 2.926 1.673 1.673 0 0 0-1.666 1.67v2.016a1.98 1.98 0 0 0-.629 1.448c0 .993.733 1.818 1.686 1.963.174.722.507 1.39.97 1.963H4.94a2.6 2.6 0 0 0-2.32 1.451 2.232 2.232 0 0 0-1.465 2.283l.2 2.272a1.9 1.9 0 0 0-1.173 1.754c0 .944.691 1.729 1.594 1.874a4.71 4.71 0 0 0 2.387 3.06v.102c0 .122.01.242.03.359h-.851a2.13 2.13 0 0 0-2.127 2.127v2.288c0 .243.197.44.44.44h1.1a.44.44 0 0 0 0-.879h-.661v-1.85c0-.688.56-1.247 1.248-1.247H4.54c.32.48.81.81 1.368.93.874.19 1.8-.159 2.316-.93H9.41c.688 0 1.248.56 1.248 1.248v.32a1.554 1.554 0 0 0-.76.944v.003c-.067.235-.059.405-.059.582H4.806a.44.44 0 1 0 0 .879h5.415a.446.446 0 0 0 .057.004h9.442c.02 0 .038-.002.057-.004h8.33a.44.44 0 0 0 .439-.44v-2.288c0-.4-.111-.775-.305-1.096a3.01 3.01 0 0 0 .64-.569c.617-.729.904-1.722.79-2.725l-.236-2.069zm-1.626-.084a.44.44 0 0 0-.445.367 4.03 4.03 0 0 1-2.3 2.998h-.001c-.613.281-1.258.392-1.882.36-.02 0-.04-.002-.059-.003a4.007 4.007 0 0 1-2.427-1.021 1.805 1.805 0 0 0-.57-2.02c0-1.824.12-2.706-.541-3.884.03-.085.063-.167.087-.226h.5a3.314 3.314 0 0 0 2.614 1.272h5.127c.577.028 1.027.5 1.027 1.079 0 .601-.481 1.092-1.13 1.078zm-4.417 5.564a1.418 1.418 0 0 1-1.39-1.151c.453.131.925.197 1.383.197.446 0 .934-.064 1.398-.202a1.417 1.417 0 0 1-1.39 1.156zm-4.244-.775a2.009 2.009 0 0 1-.14-.086c.128-.266.23-.547.303-.842a1.8 1.8 0 0 0 .887-.426c.28.24.581.443.9.612 0 .114 0 .224.016.369h-.762c-.438 0-.86.136-1.204.373zM15.223 9.272l.081.089c-.07.462-.105.646-.105.963 0 .493.107.988.31 1.432a3.24 3.24 0 0 0 1.425 1.522 3.1 3.1 0 0 0-1.342 2.073h-.403c-.324 0-.645.04-.957.115a3.125 3.125 0 0 0-2.194-2.581 4.988 4.988 0 0 0 1.914-2.862 1.987 1.987 0 0 0 1.271-.75zm1.172.657a4.838 4.838 0 0 0 1.936 2.824c-1.273-.006-2.467-1.2-2.213-2.888.089.027.196.052.277.064zm1.41 9.782c-.505 0-.958.261-1.211.7a1.38 1.38 0 0 0-.178.868c-.305-.14-.612-.411-.843-.652-.29-.303-.805-.062-.754.357a2.232 2.232 0 0 0 .065.326c-.339-.133-.666-.42-.918-.683a.44.44 0 0 0-.753.358c.012.097.03.188.05.271-.542-.274-1.12-.949-1.385-1.348a.44.44 0 0 0-.382-.197c-.244.009-.398.145-.665.864-.022.06-.048.133-.068.195 0-1.153-.06-1.61.271-2.287a2.672 2.672 0 0 1 1.704-1.403l.015-.004c.336-.088.221.01.517-.21.211-.158.45-.296.714-.402l.016-.008a3.201 3.201 0 0 1 1.189-.226h.692l.094.003h.002a3.367 3.367 0 0 1 2.78 1.615c0 .003.003.006.005.01.581.96.485 1.73.485 2.952a1.481 1.481 0 0 0-1.442-1.1zm-5.844-5.133-.001-.006a3.336 3.336 0 0 0-.346-.89 2.243 2.243 0 0 1 1.764 2.09c-.222.11-.475.268-.664.411a3.556 3.556 0 0 0-.668.207c0-1.121.022-1.346-.085-1.812zm6.705-.946h1.257c-.062.102-.12.209-.17.32-.799.413-1.398 1.155-1.715 1.989a4.26 4.26 0 0 0-1.56-.547 2.225 2.225 0 0 1 2.188-1.762zm-8.572 9.372a.921.921 0 0 1 .938-1.11.438.438 0 0 0 .45-.367c.03-.18.074-.354.13-.525.552.636 1.507 1.487 2.492 1.197a.44.44 0 0 0 .238-.172c.432.224.898.31 1.37.171a.44.44 0 0 0 .237-.172c.443.229.87.289 1.264.172a.44.44 0 0 0 .255-.644c-.108-.183-.287-.403-.113-.704.242-.42.878-.304 1.029.148.114.362.121.5.14.569.099.377.519.326.442.326.58 0 .958.415.958.92 0 .479-.368.873-.835.916-.125.011-.173-.012-.286.027a.44.44 0 0 0-.288.343c-.072.43-.222.84-.445 1.218-.006.01-.01.02-.015.031a3.548 3.548 0 0 1-1.545 1.39l-.029.01c-.47.216-.976.323-1.482.323-.495 0-.997-.102-1.472-.317l-.024-.01a3.548 3.548 0 0 1-2.02-2.646.44.44 0 0 0-.452-.366h-.037a.922.922 0 0 1-.9-.728zm3.713 4.785a4.488 4.488 0 0 0 2.396-.004 1.22 1.22 0 0 1-2.396.004zm4.649-1.484c-.148.29-.231.617-.231.963v.137h-1.086a4.428 4.428 0 0 0 1.317-1.1zm9.58-10.006v1.39h-5.251c-.825 0-1.57-.41-2.013-1.06l-.01-.018a2.418 2.418 0 0 1-.342-.763.44.44 0 0 0-.76-.18 4.972 4.972 0 0 0-.68 1.028 5.054 5.054 0 0 0-.202-.201c.246-.833.792-1.503 1.494-1.819a.44.44 0 0 0 .229-.24c.18-.455.502-.842.97-1.116h.001c.016-.01.033-.018.055-.03.546-.273.853-.258 1.247-.258h2.016a3.27 3.27 0 0 1 3.246 3.267zm-3.445-4.146a4.83 4.83 0 0 0 1.22-2.185l.01-.039c.1-.015.198-.04.293-.07.152 1.008-.202 1.821-.777 2.334-.326-.045-.58-.04-.746-.04zm.884-3.08a.44.44 0 0 0-.45.367 3.985 3.985 0 0 1-1.306 2.33l-.008.008a4.005 4.005 0 0 1-.509.375c-.66 0-.783-.007-1.039.026l-.008.001h-.002c-.514.068-.992.26-1.4.554a3.988 3.988 0 0 1-3.562-3.295.44.44 0 0 0-.433-.367c-.251 0-.445-.038-.656-.181a1.058 1.058 0 0 1 .543-1.932h5.057a3.273 3.273 0 0 0 2.858-1.67 3.956 3.956 0 0 1 .464 1.303.448.448 0 0 0 .021.08.44.44 0 0 0 .43.286 1.059 1.059 0 1 1 0 2.114zM8.286.879h3.53a2.318 2.318 0 0 1 2.314 2.315v2.882c-6.213 0-5.922.007-6.135-.017l-.03-.004A2.601 2.601 0 0 1 5.69 3.388V3.379a2.601 2.601 0 0 1 2.596-2.5zm-4.22 3.718c0-.426.337-.774.758-.792.02.206.067.459.133.677a5.096 5.096 0 0 0-.713 1.614c-.06.01-.12.021-.178.036V4.597zm.975 4.935a.44.44 0 0 0-.451-.366h-.046a1.108 1.108 0 0 1-.628-2.016c.205-.142.442-.205.673-.196a.439.439 0 0 0 .452-.366c.063-.38.186-.772.374-1.15A3.485 3.485 0 0 0 7.884 6.93c.299.034-.058.024 5.705.024h.095a1.107 1.107 0 0 1-.032 2.212l-.045-.001a.44.44 0 0 0-.451.366 4.111 4.111 0 0 1-2.462 3.109 3.35 3.35 0 0 0-1.984-.655H6.437a4.101 4.101 0 0 1-1.396-2.454zm-1.996 4.694a.44.44 0 0 0 .306-.27 1.714 1.714 0 0 1 1.59-1.091H8.71a2.46 2.46 0 0 1 2.456 2.426v1.631a3.527 3.527 0 0 0-.79.928H5.73a2.503 2.503 0 0 1-2.339-1.628.44.44 0 0 0-.76-.117c-.19.247-.365.53-.49.781l-.11-1.244a1.345 1.345 0 0 1 1.014-1.416zm-.472 6.905a.44.44 0 0 0-.452-.366H2.08a1.02 1.02 0 0 1-1.02-1.019c0-.508.375-.93.862-1.005.22-.034.324.028.494-.11a.438.438 0 0 0 .157-.27c.064-.386.19-.761.368-1.11a3.388 3.388 0 0 0 2.789 1.478h4.276c-.157.584-.122.867-.122 2.667a1.803 1.803 0 0 0-.667 1.7 3.856 3.856 0 0 1-2.841 1.25 3.844 3.844 0 0 1-3.803-3.215zm3.803 4.094c.548 0 .959-.087 1.322-.187-.037.192-.116.37-.227.524l-.001.002a1.34 1.34 0 0 1-2.173.003l-.003-.003a1.335 1.335 0 0 1-.227-.522c.406.116.852.183 1.309.183zm3.033-.084h-.837c.02-.117.03-.237.03-.36v-.11a4.724 4.724 0 0 0 1.002-.718c.268.327.649.558 1.083.633a4.422 4.422 0 0 0 2.171 2.82h-1.322v-.138A2.13 2.13 0 0 0 9.41 25.14zm1.308 3.98v-.168c0-.299.203-.566.494-.644l.003-.001a.663.663 0 0 1 .172-.023h1.648c.118.326.314.61.563.836h-2.88zm6.26-.836h1.654l.012.002a.668.668 0 0 1 .637.666v.168h-2.867c.25-.225.445-.51.563-.836zm10.69.832h-7.508v-.164a1.55 1.55 0 0 0-1.055-1.467v-.218c0-.692.566-1.248 1.248-1.248h1.053a2.3 2.3 0 0 0 2.086 1.146c.017 0 .034-.002.05-.003h.01a2.295 2.295 0 0 0 1.828-1.143h1.04c.682 0 1.248.558 1.248 1.248v1.849zm.543-4.08a2.096 2.096 0 0 1-.582.481c-.645-.448-1.175-.377-1.958-.377l.002-.016c.016-.147.014-.241.014-.362a4.909 4.909 0 0 0 2.424-2.991l.002-.007c.018-.06.034-.122.049-.183a1.94 1.94 0 0 0 .462-.132l.174 1.527c.086.753-.133 1.522-.587 2.06z"/><path d="M22.683 9.79a.438.438 0 0 0-.086.614c.057.077.157.277.109.403a.44.44 0 0 0 .82.316c.236-.612-.178-1.184-.226-1.248a.441.441 0 0 0-.617-.085zM19.517 9.791a.44.44 0 0 0-.616.085c-.048.063-.462.635-.226 1.248a.44.44 0 1 0 .82-.316c-.049-.126.052-.326.108-.403a.44.44 0 0 0-.086-.614zM21.817 9.86a.44.44 0 0 0-.44.44.297.297 0 0 1-.594 0 .44.44 0 0 0-.879 0c0 .649.528 1.176 1.176 1.176.649 0 1.177-.527 1.177-1.176a.44.44 0 0 0-.44-.44zM10.704 10.789a.44.44 0 0 0 .82.316c.236-.613-.178-1.185-.226-1.248a.441.441 0 0 0-.617-.086.438.438 0 0 0-.086.614c.056.077.157.278.109.404zM7.515 9.773a.44.44 0 0 0-.616.084c-.048.063-.463.635-.226 1.248a.44.44 0 1 0 .82-.316c-.049-.126.051-.326.108-.403a.44.44 0 0 0-.086-.613zM10.254 10.281a.44.44 0 0 0-.879 0 .297.297 0 0 1-.594 0 .44.44 0 0 0-.88 0 1.177 1.177 0 0 0 2.352 0z"/></g><defs><clipPath id="a"><path fill="#fff" d="M0 0h30v30H0z"/></clipPath></defs></svg>