<svg width="30" height="30" fill="none" xmlns="http://www.w3.org/2000/svg"><g clip-path="url(#a)"><path d="M24.348 15.21 21.5 14.175a.822.822 0 0 0-.299-.053H2.955a.87.87 0 0 0-.879.879v12.363A2.633 2.633 0 0 0 4.713 30H22.29a2.633 2.633 0 0 0 2.637-2.637V16.037a.872.872 0 0 0-.58-.826z" fill="#FC1A40"/><path d="M24.928 16.037v11.326A2.633 2.633 0 0 1 22.29 30h-8.789V14.121h7.7c.105 0 .21.018.298.053l2.848 1.037c.351.123.58.457.58.826z" fill="#C60034"/><path d="M24.611 5.73c-.298-1.213-1.195-2.162-2.408-2.55-1.195-.368-2.478-.105-3.41.74l-2.04 1.792-.403-2.69A3.561 3.561 0 0 0 14.188.264a3.336 3.336 0 0 0-.686-.193 3.496 3.496 0 0 0-2.777.615A3.568 3.568 0 0 0 9.283 4.06c.194 1.3 1.073 2.408 2.32 2.847l1.899.686 2.338.861h.018l4.06 1.494c.404.141.826.211 1.23.211.862 0 1.706-.316 2.374-.914a3.57 3.57 0 0 0 1.09-3.515z" fill="#FE9923"/><path d="M23.521 9.245a3.554 3.554 0 0 1-2.373.915 3.77 3.77 0 0 1-1.23-.212l-4.06-1.494h-.018l-2.338-.86V.07c.228.035.457.105.685.193a3.56 3.56 0 0 1 2.163 2.76l.404 2.69 2.039-1.794c.931-.844 2.215-1.107 3.41-.738 1.213.387 2.11 1.336 2.408 2.549a3.57 3.57 0 0 1-1.09 3.515z" fill="#FE8821"/><path d="m27.934 13.717-1.196 3.304a.89.89 0 0 1-1.125.51l-9.087-3.304-.827-2.725-2.197.492-1.933.44L2.48 9.129a.895.895 0 0 1-.528-1.125l1.213-3.305A2.577 2.577 0 0 1 4.52 3.205a2.602 2.602 0 0 1 2.021-.088l6.961 2.531.475.176s1.898 3.445 1.951 3.445c.035 0 .791-.421 1.53-.826.737-.404 1.476-.826 1.476-.826l7.418 2.707a2.665 2.665 0 0 1 1.494 1.371c.299.633.334 1.354.088 2.022z" fill="#FF3E75"/><path d="m27.934 13.717-1.196 3.304a.89.89 0 0 1-1.125.51l-9.088-3.304-.826-2.725-2.197.492V5.648l.475.176s1.898 3.445 1.95 3.445c.036 0 .792-.421 1.53-.826.738-.404 1.477-.826 1.477-.826l7.418 2.707a2.664 2.664 0 0 1 1.494 1.371c.299.633.334 1.354.088 2.022z" fill="#FC1A40"/><path d="M10.865 14.121V30h5.274V14.121h-5.274zM13.977 5.824l-.475 1.3-1.934 5.31 1.934.703 2.197.79.826.3 2.409-6.61-4.957-1.793z" fill="#FCBF29"/><path d="M16.139 14.121h-2.637V30h2.637V14.121zM18.934 7.617l-2.409 6.61-.826-.3-2.197-.79V7.125l.475-1.3 4.957 1.792z" fill="#FE9923"/></g><defs><clipPath id="a"><path fill="#fff" d="M0 0h30v30H0z"/></clipPath></defs></svg>