<svg width="30" height="30" viewBox="0 0 30 30" fill="none" xmlns="http://www.w3.org/2000/svg"><g clip-path="url(#a)" fill="#000"><path d="M20.9 23.84a1.606 1.606 0 0 1-1.293-.633 1.575 1.575 0 0 1-.31.006v5.983l1.285-.964a.535.535 0 0 1 .643 0l1.286.964v-5.983a1.592 1.592 0 0 1-.322-.006 1.607 1.607 0 0 1-1.289.632zM0 24.91c0 .888.72 1.608 1.607 1.608h16.62v-2.143H0v.536zM23.202 19.564a.535.535 0 0 1-.304-.735.557.557 0 0 0-.74-.743.536.536 0 0 1-.736-.305.555.555 0 0 0-1.046 0 .536.536 0 0 1-.736.305.557.557 0 0 0-.739.744.536.536 0 0 1-.304.734.557.557 0 0 0 0 1.05.535.535 0 0 1 .304.735.556.556 0 0 0 .74.744.536.536 0 0 1 .735.304.555.555 0 0 0 1.046 0 .537.537 0 0 1 .736-.304.557.557 0 0 0 .74-.744.535.535 0 0 1 .304-.735.558.558 0 0 0 0-1.05z"/><path d="M4.286 2.41v20.894h13.941v-.595a1.61 1.61 0 0 1-.441-1.328 1.636 1.636 0 0 1 0-2.583 1.634 1.634 0 0 1 1.821-1.826 1.632 1.632 0 0 1 2.58 0 1.634 1.634 0 0 1 1.822 1.826 1.636 1.636 0 0 1 0 2.583c.062.48-.096.961-.429 1.312v3.726c.169.063.347.096.527.099.888 0 1.607-.72 1.607-1.607V2.41c.002-.167.018-.334.05-.498.01-.05.026-.098.038-.148.027-.11.06-.217.1-.322a2.611 2.611 0 0 1 .222-.439c.027-.045.053-.09.085-.133.015-.022.026-.046.042-.067H5.893c-.888 0-1.607.72-1.607 1.607zm18.75 11.25h-9.107v-1.07h9.107v1.07zm0-2.678H10.714V9.911h12.322v1.071zm-6.429-6.964h2.143v1.071h-2.143V4.018zm-5.357 0h4.286v1.071H11.25V4.018zM9.643 6.696h10.714v1.072H9.643V6.696zM6.964 9.911h2.679v1.071H6.964V9.911zm0 2.678h5.893v1.072H6.964v-1.072zm0 2.679H17.68v1.071H6.964v-1.071zm0 2.678h9.107v1.072H6.965v-1.072zM28.393.804c-.888 0-1.607.72-1.607 1.607v.535H30v-.535c0-.888-.72-1.607-1.607-1.607z"/></g><defs><clipPath id="a"><path fill="#fff" d="M0 0h30v30H0z"/></clipPath></defs></svg>