<svg width="35" height="35" viewBox="0 0 35 35" fill="none" xmlns="http://www.w3.org/2000/svg"><g clip-path="url(#a)" fill="#000"><path d="M11.795 26.79a.715.715 0 0 0-.101-.246.665.665 0 0 0-.307-.251.676.676 0 0 0-.744.148.654.654 0 0 0-.149.22.662.662 0 0 0-.052.262.672.672 0 0 0 .053.262.631.631 0 0 0 .147.222.649.649 0 0 0 .222.148.66.66 0 0 0 .261.052.673.673 0 0 0 .38-.115.653.653 0 0 0 .251-.307.69.69 0 0 0 .04-.395z"/><path d="M31.445 27a.717.717 0 0 0-.008-.02c-.63-1.472-2.105-2.016-3.852-1.42l-4.762 1.318c-.275-.834-.962-1.544-1.933-1.904a.554.554 0 0 0-.018-.007l-5.235-1.776c-.436-.564-1.801-2.005-4.357-2.005-1.785 0-3.365 1.225-4.27 2.56H.685A.684.684 0 0 0 0 24.43v8.619c0 .377.306.683.684.683h4.064a.684.684 0 0 0 .684-.683v-.59h1.906a.684.684 0 0 0 .683-.684v-.197c1.111.097 1.477.308 2.497.896.785.453 1.971 1.137 4.107 2.097l.03.013c.41.161 1.212.414 2.2.414.687 0 1.465-.122 2.264-.484l10.527-3.77a.68.68 0 0 0 .055-.022c1.006-.463 2.505-1.768 1.744-3.721zm-27.38 5.365H1.366v-7.251h2.697v7.251zm2.59-1.274H5.431v-5.977h1.222v5.977zm22.5-1.623-10.522 3.767a.816.816 0 0 0-.058.024c-1.466.674-2.859.27-3.405.058-2.063-.928-3.164-1.563-3.969-2.027-1.118-.645-1.657-.956-3.18-1.082v-5.506c.648-1.062 1.905-2.149 3.26-2.149 2.323 0 3.307 1.511 3.346 1.572a.684.684 0 0 0 .363.29l5.432 1.844c.868.325 1.327 1.068 1.116 1.81a1.323 1.323 0 0 1-.633.798 1.324 1.324 0 0 1-1.004.12l-6.124-1.94a.683.683 0 1 0-.413 1.303l6.135 1.944a2.713 2.713 0 0 0 .762.11c.454 0 .902-.115 1.31-.342a2.68 2.68 0 0 0 1.324-1.786l5.132-1.422c.742-.253 1.715-.344 2.148.654.448 1.171-.717 1.816-1.02 1.96zM24.545 8.992a.67.67 0 0 0-.102-.246.651.651 0 0 0-.19-.189.694.694 0 0 0-.512-.101.642.642 0 0 0-.246.101.656.656 0 0 0-.251.307.661.661 0 0 0-.053.261.672.672 0 0 0 .115.38.662.662 0 0 0 .307.251.69.69 0 0 0 .523 0 .694.694 0 0 0 .307-.251.65.65 0 0 0 .103-.513z"/><path d="M34.317 2.317h-4.065A.684.684 0 0 0 29.57 3v.59h-1.906a.684.684 0 0 0-.684.684v.197c-1.111-.097-1.477-.308-2.497-.896-.785-.453-1.971-1.137-4.107-2.097a.579.579 0 0 0-.03-.013c-.695-.273-2.518-.811-4.464.07l-2.75.986L10.81.2a.684.684 0 0 0-.966 0L2.233 7.815a.678.678 0 0 0 0 .967L15.24 21.789c.208.208.695.271.966 0l6.95-6.95c.18.016.368.024.563.024 1.786 0 3.365-1.225 4.27-2.56h6.327a.684.684 0 0 0 .683-.684V3a.684.684 0 0 0-.683-.683zm-23.989-.665 1.558 1.558c-.463.287-.998.44-1.558.44a2.95 2.95 0 0 1-1.558-.44l1.558-1.558zM5.241 9.856 3.683 8.298 5.24 6.74c.286.463.44.998.44 1.558a2.95 2.95 0 0 1-.44 1.558zm10.483 10.483-1.558-1.558a2.976 2.976 0 0 1 3.116 0l-1.558 1.558zm2.543-2.543a4.344 4.344 0 0 0-5.086 0l-6.955-6.955a4.304 4.304 0 0 0 .822-2.543c0-.927-.288-1.81-.822-2.543l1.56-1.56a4.303 4.303 0 0 0 2.542.822c.927 0 1.809-.288 2.543-.822l1.479 1.479c-.32.047-.63.152-.92.313a2.68 2.68 0 0 0-1.114 1.177 3.895 3.895 0 0 0-2.045 6.587c.76.76 1.757 1.14 2.755 1.14s1.996-.38 2.755-1.14a3.88 3.88 0 0 0 1.014-1.764l2.308.784a4.365 4.365 0 0 0 .725 3.464l-1.561 1.561zm-4.157-6.72a.963.963 0 0 0 .019.006l1.366.464a2.533 2.533 0 0 1-4.258 1.238 2.532 2.532 0 0 1 .825-4.127c.126 1.05.882 1.986 2.048 2.419zm6.703 4.174a2.99 2.99 0 0 1-.437-1.422c.327.237.727.47 1.205.653l-.768.769zm6.166-3.903c-.648 1.062-1.905 2.149-3.26 2.149a4.965 4.965 0 0 1-.715-.05c-1.477-.215-2.27-1.054-2.532-1.386l-.083-.112a.68.68 0 0 0-.376-.313L14.578 9.79c-.868-.325-1.326-1.068-1.116-1.809v-.003c.098-.34.323-.624.633-.796a1.323 1.323 0 0 1 1.004-.12l6.124 1.94a.683.683 0 1 0 .413-1.303l-4.87-1.544-.043-.042-.002-.001L14.2 3.59l2.167-.776a.732.732 0 0 0 .024-.01l.007-.002a.66.66 0 0 0 .027-.012c1.466-.674 2.859-.27 3.405-.058 2.063.928 3.164 1.563 3.969 2.027 1.119.645 1.657.956 3.18 1.082v5.506zm2.59-.412h-1.223V4.958h1.223v5.977zm4.064 0h-2.697v-7.25h2.697v7.25z"/></g><defs><clipPath id="a"><path fill="#fff" d="M0 0h35v35H0z"/></clipPath></defs></svg>