<svg width="30" height="30" viewBox="0 0 30 30" fill="none" xmlns="http://www.w3.org/2000/svg"><g clip-path="url(#a)"><path d="M28.005 15.389a.88.88 0 0 1 0-.778l1.119-2.289A2.604 2.604 0 0 0 28 8.864L25.75 7.67a.88.88 0 0 1-.457-.629l-.44-2.51a2.604 2.604 0 0 0-2.942-2.137l-2.523.357a.88.88 0 0 1-.739-.24L16.82.74a2.604 2.604 0 0 0-3.637 0L11.35 2.51a.88.88 0 0 1-.74.24L8.09 2.395a2.604 2.604 0 0 0-2.942 2.137l-.44 2.51a.88.88 0 0 1-.457.628L2 8.864a2.604 2.604 0 0 0-1.124 3.459l1.119 2.288a.88.88 0 0 1 0 .778l-1.12 2.289A2.604 2.604 0 0 0 2 21.136l2.25 1.194a.88.88 0 0 1 .457.629l.44 2.51a2.603 2.603 0 0 0 2.942 2.137l2.523-.357a.879.879 0 0 1 .739.24l1.83 1.771a2.607 2.607 0 0 0 3.637 0l1.831-1.771a.88.88 0 0 1 .74-.24l2.522.357a2.604 2.604 0 0 0 2.942-2.138l.44-2.51a.88.88 0 0 1 .457-.628L28 21.136a2.604 2.604 0 0 0 1.124-3.459l-1.119-2.288zM11.54 7.213a3.176 3.176 0 0 1 3.173 3.172 3.176 3.176 0 0 1-3.173 3.172 3.176 3.176 0 0 1-3.172-3.172 3.176 3.176 0 0 1 3.172-3.172zM9.902 21.32a.863.863 0 0 1-1.223 0 .865.865 0 0 1 0-1.223l11.419-11.42a.865.865 0 1 1 1.223 1.224L9.902 21.322zm8.559 1.465a3.176 3.176 0 0 1-3.173-3.172 3.176 3.176 0 0 1 3.172-3.172 3.176 3.176 0 0 1 3.173 3.172 3.176 3.176 0 0 1-3.172 3.172z"/><path d="M18.46 18.172c-.795 0-1.441.647-1.441 1.442 0 .795.646 1.442 1.442 1.442.795 0 1.441-.647 1.441-1.442 0-.795-.646-1.442-1.442-1.442zM11.54 8.944c-.795 0-1.442.647-1.442 1.442 0 .795.646 1.442 1.441 1.442.796 0 1.442-.647 1.442-1.442 0-.795-.646-1.442-1.441-1.442z"/></g><defs><clipPath id="a"><path fill="#fff" d="M0 0h30v30H0z"/></clipPath></defs></svg>