<svg width="18" height="18" viewBox="0 0 18 18" fill="none" xmlns="http://www.w3.org/2000/svg"><path d="M9.001 0a4.686 4.686 0 0 0-4.673 4.673A4.686 4.686 0 0 0 9 9.347a4.686 4.686 0 0 0 4.674-4.674A4.686 4.686 0 0 0 9 0zM17.022 13.082a4.353 4.353 0 0 0-.47-.858c-.938-1.387-2.387-2.306-4.02-2.53a.86.86 0 0 0-.592.143 4.916 4.916 0 0 1-2.939.959 4.916 4.916 0 0 1-2.938-.96.766.766 0 0 0-.592-.142 5.767 5.767 0 0 0-4.02 2.53 5.023 5.023 0 0 0-.47.857c-.061.123-.04.266.02.388.164.286.368.572.551.817.286.387.592.734.94 1.06.285.287.611.552.938.817A9.246 9.246 0 0 0 8.98 18c2 0 3.94-.633 5.552-1.837.326-.245.653-.53.939-.816.326-.327.653-.674.939-1.061.204-.266.387-.531.55-.817.102-.122.123-.265.062-.387z" fill="#000"/></svg>