<svg width="26" height="26" viewBox="0 0 26 26" fill="none" xmlns="http://www.w3.org/2000/svg"><path d="M14.25 3A8.75 8.75 0 0 1 23 11.75a1.25 1.25 0 0 0 2.5 0A11.25 11.25 0 0 0 14.25.5a1.25 1.25 0 1 0 0 2.5zm10.938 14.887a1.25 1.25 0 0 0-.9-.812l-7.5-1.712a1.25 1.25 0 0 0-1.15.325c-.175.162-.188.175-1 1.725A12.387 12.387 0 0 1 8.55 11.3c1.587-.8 1.6-.8 1.762-.988a1.25 1.25 0 0 0 .325-1.15L8.925 1.75a1.25 1.25 0 0 0-.813-.9 4.738 4.738 0 0 0-.9-.225A4.925 4.925 0 0 0 6.25.5 5.75 5.75 0 0 0 .5 6.25 19.275 19.275 0 0 0 19.75 25.5a5.75 5.75 0 0 0 5.75-5.75c0-.318-.025-.636-.075-.95a5.421 5.421 0 0 0-.238-.913z" fill="#F90"/></svg>