<svg width="35" height="35" viewBox="0 0 35 35" fill="none" xmlns="http://www.w3.org/2000/svg"><path d="M31.24 5.469h-1.025V3.076A3.08 3.08 0 0 0 27.139 0a3.08 3.08 0 0 0-3.076 3.076v.84a2.403 2.403 0 0 1-1.736 2.3l-.999.286v-.008c0-.566-.459-1.025-1.025-1.025H16.2c-.566 0-1.025.459-1.025 1.025v4.58h-12.1A3.08 3.08 0 0 0 0 14.15v19.825a1.026 1.026 0 0 0 1.594.853l3.843-2.562h19.514a3.08 3.08 0 0 0 3.076-3.076V18.456h3.213a3.764 3.764 0 0 0 3.76-3.76V9.23a3.764 3.764 0 0 0-3.76-3.76zm-14.013 2.05h2.05v8.887h-2.05V7.52zm8.75 21.67c0 .566-.46 1.026-1.026 1.026H5.127c-.202 0-.4.06-.569.172L2.051 32.06V14.15c0-.565.46-1.025 1.025-1.025h12.1v4.307c0 .566.459 1.025 1.025 1.025h4.102c.526 0 .96-.397 1.018-.909a5.775 5.775 0 0 0 3.105.909h1.55v10.732zm6.972-14.492a1.71 1.71 0 0 1-1.709 1.71h-6.814a3.732 3.732 0 0 1-3.098-1.658V8.635l1.563-.447a4.462 4.462 0 0 0 3.222-4.272v-.84a1.027 1.027 0 0 1 2.051 0v3.418c0 .566.46 1.026 1.025 1.026h2.051a1.71 1.71 0 0 1 1.71 1.709v5.468z" fill="#000"/><path d="M5.127 19.277h6.836a1.025 1.025 0 1 0 0-2.05H5.127a1.025 1.025 0 0 0 0 2.05zM22.9 21.328H5.127a1.025 1.025 0 0 0 0 2.05H22.9a1.025 1.025 0 0 0 0-2.05zM22.9 25.43H5.127a1.025 1.025 0 0 0 0 2.05H22.9a1.025 1.025 0 0 0 0-2.05z" fill="#000"/></svg>