<svg width="237" height="336" viewBox="0 0 237 336" fill="none" xmlns="http://www.w3.org/2000/svg">
<g clip-path="url(#clip0)">
<path d="M0.365014 24.165C0.153669 24.3485 0.023487 24.6082 0.00287909 24.8873C-0.0177289 25.1665 0.0729092 25.4424 0.255013 25.655C0.467579 25.8371 0.743543 25.9278 1.02269 25.9071C1.30183 25.8865 1.56149 25.7564 1.74501 25.545L25.545 1.74498C25.7564 1.56146 25.8865 1.3018 25.9071 1.02266C25.9278 0.743513 25.8371 0.467548 25.655 0.254982C25.4424 0.0728782 25.1665 -0.0177594 24.8873 0.00284858C24.6082 0.0234565 24.3485 0.153636 24.165 0.364982L0.365014 24.165Z" fill="white"/>
<path d="M0.255013 0.254982C0.0729092 0.467548 -0.0177289 0.743513 0.00287909 1.02266C0.023487 1.3018 0.153669 1.56146 0.365014 1.74498L24.165 25.545C24.2453 25.6716 24.353 25.7786 24.4801 25.8579C24.6073 25.9373 24.7506 25.9871 24.8996 26.0035C25.0486 26.02 25.1994 26.0028 25.3408 25.9532C25.4823 25.9035 25.6107 25.8227 25.7167 25.7167C25.8227 25.6107 25.9035 25.4823 25.9532 25.3408C26.0028 25.1994 26.02 25.0486 26.0035 24.8996C25.9871 24.7506 25.9373 24.6073 25.8579 24.4801C25.7786 24.353 25.6716 24.2453 25.545 24.165L1.74501 0.364982C1.56149 0.153636 1.30183 0.0234565 1.02269 0.00284858C0.743543 -0.0177594 0.467579 0.0728782 0.255013 0.254982Z" fill="white"/>
<path d="M31 9.99998C31.018 10.2822 31.147 10.5457 31.3587 10.7331C31.5705 10.9205 31.8477 11.0164 32.13 11H65.8C66.0823 11.0164 66.3595 10.9205 66.5713 10.7331C66.783 10.5457 66.912 10.2822 66.93 9.99998C66.912 9.71782 66.783 9.45426 66.5713 9.26688C66.3595 9.07951 66.0823 8.98355 65.8 8.99998H32.13C31.8477 8.98355 31.5705 9.07951 31.3587 9.26688C31.147 9.45426 31.018 9.71782 31 9.99998Z" fill="white"/>
<path d="M32.13 -2.14721e-05C31.8477 -0.0164507 31.5705 0.0795047 31.3587 0.26688C31.147 0.454255 31.018 0.717816 31 0.999979C31.018 1.28214 31.147 1.5457 31.3587 1.73307C31.5705 1.92045 31.8477 2.0164 32.13 1.99997H65.8C66.0823 2.0164 66.3595 1.92045 66.5713 1.73307C66.783 1.5457 66.912 1.28214 66.93 0.999979C66.912 0.717816 66.783 0.454255 66.5713 0.26688C66.3595 0.0795047 66.0823 -0.0164507 65.8 -2.14721e-05H32.13Z" fill="white"/>
<path d="M31 19C31.018 19.2822 31.147 19.5457 31.3587 19.7331C31.5705 19.9205 31.8477 20.0164 32.13 20H65.8C66.0652 20 66.3196 19.8946 66.5071 19.7071C66.6946 19.5196 66.8 19.2652 66.8 19C66.8 18.7348 66.6946 18.4804 66.5071 18.2929C66.3196 18.1053 66.0652 18 65.8 18H32.13C31.8477 17.9836 31.5705 18.0795 31.3587 18.2669C31.147 18.4543 31.018 18.7178 31 19Z" fill="white"/>
<path d="M87.19 53.42C86.6233 55.16 86.0633 56.9033 85.51 58.65C90.1213 67.7521 91.3456 78.1975 88.9641 88.1193C86.5826 98.0411 80.7505 106.793 72.51 112.81C73.692 113.527 74.752 114.429 75.65 115.48C84.9182 108.402 91.2295 98.1358 93.3615 86.6705C95.4934 75.2052 93.2943 63.3566 87.19 53.42ZM9.51997 101.34H10.86C5.77875 93.4315 3.42504 84.0775 4.15817 74.7059C4.89129 65.3343 8.67096 56.4601 14.9202 49.438C21.1694 42.4158 29.5449 37.6315 38.768 35.8154C47.9911 33.9993 57.5551 35.2512 66 39.38C66.7149 38.223 67.5314 37.132 68.44 36.12C59.4052 31.5205 49.127 29.9603 39.1343 31.6715C29.1416 33.3826 19.9681 38.2738 12.9785 45.6173C5.98881 52.9609 1.5564 62.3645 0.340492 72.4296C-0.875412 82.4946 1.19016 92.6832 6.22997 101.48C7.35997 101.37 8.47997 101.34 9.51997 101.34Z" fill="#826550"/>
<path d="M53.45 113C53.89 106.86 52.58 99 54.11 93.93C58.64 93.85 63.67 94.28 67.26 93.27C75.44 78.43 79.26 59.27 85.68 42.63V40C85 37 81.93 36.3 79.1 35.4H78.45C67.85 38.83 66.45 51.5 63.98 63.02C48.18 58.88 31.68 62.96 31.09 78.15C26.57 78.22 23.09 79.37 21.23 82.09C20.66 88.84 22.8 92.84 27.81 94C26.8585 98.8548 24.3098 103.252 20.57 106.49C14.17 107.11 4.94 104.89 1.5 108.49V111.12C4.65 114.98 14.35 112.3 20.57 113.12C27.16 109.11 29 100.45 32.41 93.31C37.08 93.68 43.27 92.53 46.88 93.97V113.7C39.05 114.2 31.43 114.91 27.81 119.62H72.53C69.27 114.33 60.05 115 53.45 113ZM37.67 78.19C38.35 66.48 53 66.5 63.32 69.64C63.42 74.36 62.8 79.8 64.63 82.79C57.59 81.94 47.56 78.39 37.67 78.19Z" fill="#826550"/>
<path d="M47.08 136.17C48.8831 136.164 50.6473 136.693 52.1494 137.691C53.6515 138.688 54.8238 140.109 55.5179 141.773C56.212 143.437 56.3967 145.27 56.0486 147.039C55.7005 148.808 54.8352 150.434 53.5624 151.711C52.2895 152.988 50.6663 153.859 48.8983 154.213C47.1304 154.567 45.2971 154.388 43.6307 153.699C41.9643 153.011 40.5398 151.843 39.5374 150.344C38.5351 148.846 38 147.083 38 145.28C38 142.869 38.9557 140.556 40.6576 138.849C42.3596 137.141 44.6691 136.178 47.08 136.17Z" fill="#826550"/>
<path d="M67.46 154.38H26.7C25.9538 154.383 25.2391 154.681 24.7124 155.209C24.1857 155.738 23.89 156.454 23.89 157.2V161.67C23.8926 162.415 24.1892 163.13 24.7153 163.658C25.2415 164.186 25.9547 164.485 26.7 164.49H27.53V209.88H26.7C25.9538 209.883 25.2391 210.181 24.7124 210.709C24.1857 211.238 23.89 211.954 23.89 212.7V217.17C23.89 217.917 24.1854 218.634 24.7118 219.164C25.2382 219.694 25.9529 219.995 26.7 220H67.46C68.2071 219.997 68.9229 219.699 69.4511 219.171C69.9794 218.643 70.2774 217.927 70.28 217.18V212.7C70.2774 211.953 69.9794 211.237 69.4511 210.709C68.9229 210.181 68.2071 209.883 67.46 209.88H66.63V164.49H67.46C68.2071 164.487 68.9229 164.189 69.4511 163.661C69.9794 163.133 70.2774 162.417 70.28 161.67V157.2C70.2774 156.453 69.9794 155.737 69.4511 155.209C68.9229 154.681 68.2071 154.383 67.46 154.38ZM33.66 164.49H46.86L33.66 177.69V164.49ZM60.5 209.88H47L60.5 196.41V209.88ZM60.5 181.17L33.66 208V192.93L60.5 166.09V181.17Z" fill="#826550"/>
<path d="M47.08 128C37.1919 127.999 27.5545 131.112 19.5349 136.896C11.5153 142.681 5.52059 150.844 2.40099 160.227C-0.718596 169.61 -0.804656 179.737 2.15502 189.172C5.11471 198.607 10.9698 206.87 18.89 212.79V212.7C18.8953 211.252 19.3002 209.833 20.06 208.6C13.1115 203.011 8.06846 195.404 5.62665 186.828C3.18483 178.251 3.46456 169.128 6.42725 160.718C9.38993 152.307 14.8895 145.023 22.1674 139.871C29.4453 134.718 38.1428 131.951 47.06 131.951C55.9772 131.951 64.6747 134.718 71.9526 139.871C79.2304 145.023 84.7301 152.307 87.6928 160.718C90.6555 169.128 90.9352 178.251 88.4934 186.828C86.0515 195.404 81.0085 203.011 74.06 208.6C74.8272 209.83 75.2359 211.25 75.24 212.7V212.79C83.1519 206.868 89.0003 198.608 91.9568 189.178C94.9133 179.748 94.8281 169.627 91.7132 160.248C88.5984 150.869 82.6118 142.708 74.6013 136.92C66.5908 131.133 56.9625 128.012 47.08 128Z" fill="#826550"/>
<path d="M90.28 253.39C88.1906 248.583 85.3182 244.157 81.78 240.29L79.78 244.07C82.371 247.091 84.5314 250.457 86.2 254.07C87.56 253.84 88.92 253.62 90.28 253.39ZM90 268.56C90.09 269.73 90.15 270.9 90.15 272.08C90.15 283.504 85.6126 294.46 77.5357 302.539C69.4588 310.617 58.5038 315.157 47.08 315.16C46.3 315.16 45.52 315.14 44.74 315.1C44.9009 315.701 44.9882 316.318 45 316.94C44.9868 317.674 44.8516 318.4 44.6 319.09C45.43 319.09 46.27 319.16 47.12 319.16C59.5954 319.136 71.5524 314.167 80.3701 305.342C89.1878 296.517 94.1468 284.555 94.16 272.08C94.1552 270.02 94.0183 267.962 93.75 265.92C92.5549 266.875 91.3026 267.757 90 268.56ZM4 272.08C4.00018 264.515 5.99243 257.083 9.77635 250.533C13.5603 243.982 19.0024 238.544 25.5555 234.764C32.1085 230.984 39.5413 228.996 47.1062 229.001C54.6712 229.006 62.1016 231.002 68.65 234.79C69.73 233.93 70.86 233.06 72.01 232.17C66.4663 228.697 60.2594 226.417 53.7855 225.477C47.3115 224.536 40.7127 224.956 34.4099 226.708C28.1071 228.461 22.2388 231.508 17.1795 235.655C12.1201 239.802 7.98081 244.959 5.02563 250.795C2.07046 256.631 0.364327 263.02 0.0160833 269.552C-0.33216 276.085 0.685138 282.618 3.00307 288.736C5.321 294.853 8.88866 300.421 13.4784 305.082C18.0682 309.744 23.5793 313.397 29.66 315.81C29.2775 314.31 29.086 312.768 29.09 311.22C21.601 307.781 15.2562 302.265 10.8088 295.327C6.36141 288.389 3.9983 280.321 4 272.08Z" fill="#826550"/>
<path d="M38.77 309.91C46.51 307.19 55.08 300.24 53.31 290.08C52.41 284.94 48.83 285.08 46.04 280.83C60.48 268.83 70.25 252.17 79.04 234.57H77.04C69.59 240.23 55.13 251.57 48.62 261C46.02 264.78 44.03 270.31 41.35 274.88C36.81 282.63 26.23 296.11 34.74 305.94C33.36 310.56 33.54 318.33 38.74 318.5C42 316.77 37.38 313.89 38.77 309.91ZM47.08 271.08C47.5931 271.078 48.0952 271.228 48.5227 271.512C48.9501 271.796 49.2837 272.201 49.4809 272.674C49.6782 273.148 49.7303 273.669 49.6307 274.173C49.5311 274.676 49.2842 275.139 48.9214 275.501C48.5586 275.864 48.0962 276.111 47.5928 276.211C47.0895 276.31 46.5679 276.258 46.0942 276.061C45.6206 275.864 45.2162 275.53 44.9323 275.103C44.6485 274.675 44.498 274.173 44.5 273.66C44.5026 272.977 44.7753 272.322 45.2586 271.839C45.7419 271.355 46.3966 271.083 47.08 271.08ZM36.79 300C34.93 291 43.79 283.05 48.68 290.75C48.94 298.16 42.5 306.51 36.79 300Z" fill="#826550"/>
<path d="M56 276.2C70 271 86.58 268.45 95 257.7C85.59 259.08 76.88 261.17 67.25 262.32C65.05 268.56 60.16 272 56 276.2ZM12.34 265C8.11009 277.25 20.76 281 34.14 278.88C37.93 274.06 39.99 268.88 36.14 263.01C31.23 255.52 15.22 256.61 12.34 265ZM17.62 272.27C12.5 261.4 30.51 261.17 32.16 267C34.34 274.58 23.06 275 17.62 272.24V272.27Z" fill="#826550"/>
<path fill-rule="evenodd" clip-rule="evenodd" d="M100.057 1H113.11C117.411 1 121.068 2.90119 121.068 6.75494C121.068 9.97495 119.779 11.2253 117.127 12.6298C117.354 12.801 118.87 13.2121 119.381 13.4348C120.196 13.7945 120.67 14.1713 121.219 14.668C122.716 16.0382 123 17.3057 123 19.4638C123 24.4822 117.619 27 112.447 27H100L100.057 1ZM107.161 7.83398V11.2082C110.515 11.2082 113.679 11.6192 113.679 8.31359C113.679 5.26483 110.098 5.76155 107.142 5.76155L107.161 7.83398ZM107.161 22.2213C110.837 22.2213 115.384 22.7694 115.479 18.9842C115.554 15.0448 110.799 15.7471 107.161 15.7471V22.2213Z" fill="#FEFEFE"/>
<path fill-rule="evenodd" clip-rule="evenodd" d="M100.037 31H108.55C111.355 31 113.74 32.2431 113.74 34.7628C113.74 36.8682 112.899 37.6858 111.17 38.6041C111.318 38.7161 112.306 38.9848 112.64 39.1304C113.171 39.3656 113.48 39.612 113.839 39.9368C114.815 40.8327 115 41.6614 115 43.0725C115 46.3538 111.491 48 108.118 48H100L100.037 31ZM104.671 35.4684V37.6746C106.858 37.6746 108.921 37.9434 108.921 35.782C108.921 33.7885 106.586 34.1133 104.658 34.1133L104.671 35.4684ZM104.671 44.8755C107.068 44.8755 110.033 45.2339 110.095 42.7589C110.144 40.1832 107.043 40.6423 104.671 40.6423V44.8755Z" fill="#FEFEFE"/>
<path d="M145.322 1.00811L141.005 1C136.154 1 133.02 4.7672 133.02 10.598V15.0233H128.679C128.304 15.0233 128 15.3795 128 15.8189V22.2306C128 22.67 128.304 23.0259 128.679 23.0259H133.02V39.2048C133.02 39.6442 133.324 40 133.699 40H139.362C139.737 40 140.041 39.6438 140.041 39.2048V23.0259H145.117C145.492 23.0259 145.796 22.67 145.796 22.2306L145.798 15.8189C145.798 15.6079 145.726 15.4059 145.599 15.2565C145.472 15.1072 145.299 15.0233 145.119 15.0233H140.041V11.2719C140.041 9.46881 140.408 8.55348 142.413 8.55348L145.321 8.55226C145.696 8.55226 146 8.19603 146 7.75703V1.80335C146 1.36475 145.697 1.00893 145.322 1.00811Z" fill="white"/>
<path d="M125.623 31.0044L123.225 31C120.53 31 118.789 33.0285 118.789 36.1681V38.551H116.377C116.169 38.551 116 38.7428 116 38.9794V42.4319C116 42.6685 116.169 42.8601 116.377 42.8601H118.789V51.5718C118.789 51.8084 118.958 52 119.166 52H122.312C122.521 52 122.69 51.8082 122.69 51.5718V42.8601H125.509C125.718 42.8601 125.886 42.6685 125.886 42.4319L125.888 38.9794C125.888 38.8658 125.848 38.757 125.777 38.6766C125.707 38.5962 125.61 38.551 125.51 38.551H122.69V36.531C122.69 35.5601 122.893 35.0673 124.007 35.0673L125.623 35.0666C125.831 35.0666 126 34.8748 126 34.6384V31.4326C126 31.1964 125.831 31.0048 125.623 31.0044Z" fill="white"/>
<path d="M155.621 0H182.38C184.921 0 187 1.88141 187 4.62036V31.3796C187 34.1186 184.921 36 182.38 36H155.621C153.079 36 151 34.1186 151 31.3796V4.62036C151 1.88141 153.079 0 155.621 0ZM177.225 3.99975C176.333 3.99975 175.605 4.72866 175.605 5.62058V9.49983C175.605 10.3914 176.333 11.1207 177.225 11.1207H181.294C182.185 11.1207 182.914 10.3914 182.914 9.49983V5.62058C182.914 4.72866 182.185 3.99975 181.294 3.99975H177.225ZM182.931 15.2243H179.763C180.063 16.2031 180.225 17.2399 180.225 18.3125C180.225 24.3005 175.214 29.1545 169.034 29.1545C162.855 29.1545 157.845 24.3005 157.845 18.3125C157.845 17.2391 158.007 16.2027 158.307 15.2243H155.001V30.4312C155.001 31.2181 155.644 31.8624 156.432 31.8624H181.501C182.288 31.8624 182.932 31.2185 182.932 30.4312V15.2243H182.931ZM169.034 10.9162C165.041 10.9162 161.804 14.0525 161.804 17.9218C161.804 21.7911 165.041 24.9274 169.034 24.9274C173.027 24.9274 176.265 21.7911 176.265 17.9218C176.265 14.0525 173.028 10.9162 169.034 10.9162Z" fill="white"/>
<path d="M77.4387 0H91.5615C92.9027 0 94 0.992967 94 2.43852V16.5615C94 18.007 92.9027 19 91.5615 19H77.4387C76.0972 19 75 18.007 75 16.5615V2.43852C75 0.992967 76.0972 0 77.4387 0ZM88.8408 2.11098C88.3703 2.11098 87.9858 2.49568 87.9858 2.96642V5.0138C87.9858 5.48434 88.3703 5.86923 88.8408 5.86923H90.9883C91.4588 5.86923 91.8437 5.48434 91.8437 5.0138V2.96642C91.8437 2.49568 91.4588 2.11098 90.9883 2.11098H88.8408ZM91.8527 8.03503H90.1805C90.3387 8.55161 90.4243 9.09881 90.4243 9.66494C90.4243 12.8253 87.7798 15.3871 84.5181 15.3871C81.2567 15.3871 78.6126 12.8253 78.6126 9.66494C78.6126 9.09842 78.698 8.55141 78.8564 8.03503H77.1114V16.0609C77.1114 16.4762 77.4512 16.8163 77.8668 16.8163H91.0977C91.5133 16.8163 91.8531 16.4764 91.8531 16.0609V8.03503H91.8527ZM84.5179 5.76135C82.4107 5.76135 80.7021 7.41662 80.7021 9.45874C80.7021 11.5009 82.4107 13.1561 84.5179 13.1561C86.6254 13.1561 88.3342 11.5009 88.3342 9.45874C88.3342 7.41662 86.6256 5.76135 84.5179 5.76135Z" fill="white"/>
<path d="M111 73L99 67L111 61V73Z" fill="black"/>
<path d="M116 61L128 67L116 73V61Z" fill="black"/>
<path d="M155.401 50.2958C155.308 50.2021 155.197 50.1277 155.075 50.0769C154.954 50.0261 154.823 50 154.691 50C154.559 50 154.428 50.0261 154.306 50.0769C154.184 50.1277 154.074 50.2021 153.981 50.2958L140.601 63.6758L135.701 58.7758C135.513 58.5895 135.26 58.485 134.996 58.485C134.732 58.485 134.478 58.5895 134.291 58.7758C134.105 58.9632 134 59.2166 134 59.4808C134 59.745 134.105 59.9984 134.291 60.1858L139.891 65.7958C139.984 65.8885 140.095 65.9618 140.217 66.0116C140.339 66.0613 140.469 66.0866 140.601 66.0858C140.732 66.0866 140.863 66.0613 140.985 66.0116C141.107 65.9618 141.217 65.8885 141.311 65.7958L155.401 51.7058C155.587 51.5184 155.692 51.265 155.692 51.0008C155.692 50.7366 155.587 50.4832 155.401 50.2958Z" fill="black"/>
<path fill-rule="evenodd" clip-rule="evenodd" d="M176.024 45.4521C176.018 44.7245 175.867 44.0055 175.581 43.3365C175.295 42.6676 174.879 42.0621 174.357 41.5551C173.835 41.0481 173.218 40.6497 172.541 40.3829C171.864 40.1162 171.141 39.9864 170.413 40.0011C169.694 39.9894 168.98 40.1224 168.313 40.3922C167.646 40.6621 167.04 41.0634 166.531 41.5721C166.023 42.0808 165.621 42.6866 165.352 43.3535C165.082 44.0204 164.949 44.7348 164.96 45.4541H164.33C164.173 45.4108 164.007 45.4069 163.847 45.4427C163.687 45.4785 163.539 45.5529 163.415 45.6594C163.291 45.766 163.194 45.9013 163.135 46.0536C163.075 46.206 163.054 46.3706 163.072 46.5331V55.5831C163.005 55.7549 162.984 55.9415 163.012 56.124C163.04 56.3065 163.115 56.4783 163.231 56.6222C163.347 56.7662 163.498 56.877 163.67 56.9435C163.842 57.01 164.029 57.0299 164.211 57.0011H176.779C177.128 56.9665 177.451 56.8006 177.682 56.537C177.913 56.2733 178.036 55.9316 178.024 55.5811V46.9711C178.051 46.7874 178.039 46.6002 177.989 46.4213C177.94 46.2424 177.854 46.0757 177.737 45.9318C177.62 45.7878 177.474 45.6698 177.309 45.585C177.144 45.5002 176.963 45.4505 176.777 45.4391L176.024 45.4521ZM174.837 45.4391C174.803 44.3261 174.337 43.2701 173.538 42.4948C172.739 41.7196 171.669 41.286 170.555 41.286C169.442 41.286 168.372 41.7196 167.573 42.4948C166.773 43.2701 166.307 44.3261 166.273 45.4391H174.837ZM170.192 47.4741C170.725 47.4867 171.23 47.7101 171.598 48.0952C171.966 48.4803 172.166 48.9957 172.154 49.5281C172.159 49.9374 172.041 50.3388 171.816 50.6807C171.591 51.0226 171.269 51.2895 170.891 51.4471C170.791 51.4881 171.552 54.9881 171.552 54.9881L168.912 55.0071C169.23 53.8498 169.447 52.667 169.559 51.4721C169.165 51.3238 168.826 51.0576 168.589 50.7098C168.351 50.3619 168.226 49.9493 168.231 49.5281C168.225 49.2642 168.272 49.0017 168.367 48.7556C168.463 48.5095 168.606 48.2846 168.788 48.0939C168.971 47.9031 169.189 47.7502 169.431 47.6439C169.672 47.5375 169.932 47.4798 170.196 47.4741H170.192Z" fill="black"/>
<path fill-rule="evenodd" clip-rule="evenodd" d="M169.845 61.23C169.586 61.2587 169.338 61.3512 169.124 61.499C168.862 61.4544 168.593 61.4701 168.338 61.545C168.005 61.6709 167.716 61.8911 167.507 62.1787C167.297 62.4662 167.176 62.8086 167.158 63.164C167.118 63.558 167.108 64.664 167.135 65.264C167.215 65.62 166.935 65.62 166.935 65.62C166.435 65.587 166.657 67.136 166.657 67.136C166.642 67.3456 166.709 67.5528 166.844 67.7142C166.978 67.8756 167.17 67.9787 167.379 68.002C167.632 68.6357 168.083 69.1709 168.665 69.528C168.665 69.528 168.665 70.144 168.683 70.6C168.607 70.563 168.943 71.765 166.621 72.1C164.299 72.435 163.855 73.177 163.421 73.589C162.987 74.001 163 75.999 163 75.999L177.977 76.003C177.977 76.003 177.865 74.003 177.428 73.586C176.991 73.169 176.513 72.434 174.192 72.097C171.935 71.776 172.306 70.59 172.292 70.519C172.292 70.34 172.32 69.578 172.32 69.578C172.833 69.1482 173.227 68.5938 173.465 67.968C173.661 67.9107 173.842 67.8087 173.992 67.6699C174.142 67.531 174.258 67.3593 174.331 67.168C174.331 67.168 174.496 65.604 173.967 65.612C173.967 65.612 173.716 65.692 173.796 65.337C173.861 64.7189 173.866 64.096 173.81 63.477C173.769 63.082 173.83 61.954 172.988 61.796C172.68 61.7543 172.368 61.7406 172.057 61.755C171.776 61.716 171.442 61 170.92 61L169.845 61.23Z" fill="black"/>
<path d="M100.37 104.17C100.159 104.354 100.028 104.613 100.008 104.892C99.9873 105.171 100.078 105.447 100.26 105.66C100.473 105.842 100.749 105.933 101.028 105.912C101.307 105.892 101.566 105.761 101.75 105.55L125.56 81.75C125.771 81.5665 125.902 81.3068 125.922 81.0277C125.943 80.7485 125.852 80.4726 125.67 80.26C125.457 80.0779 125.181 79.9873 124.902 80.0079C124.623 80.0285 124.364 80.1587 124.18 80.37L100.37 104.17Z" fill="white"/>
<path d="M100.26 80.26C100.078 80.4726 99.9873 80.7485 100.008 81.0277C100.028 81.3068 100.159 81.5665 100.37 81.75L124.18 105.55C124.364 105.761 124.623 105.892 124.902 105.912C125.181 105.933 125.457 105.842 125.67 105.66C125.852 105.447 125.943 105.171 125.922 104.892C125.902 104.613 125.771 104.354 125.56 104.17L101.75 80.37C101.566 80.1587 101.307 80.0285 101.028 80.0079C100.749 79.9873 100.473 80.0779 100.26 80.26Z" fill="white"/>
<path d="M150.92 115H150.68C148.37 122.69 147.75 132.07 141.28 135.64C140.09 132.28 137.17 130.74 133.84 129.28C131.72 128.34 129.29 126.72 127.24 126.64C126.719 126.558 126.186 126.668 125.74 126.95C125.294 126.669 124.761 126.558 124.24 126.64C122.18 126.72 119.75 128.34 117.64 129.28C114.31 130.74 111.39 132.28 110.2 135.64C103.76 132.07 103.14 122.64 100.84 115H100.6C100.33 115.781 100.129 116.584 100 117.4C100 119.32 100.54 138.86 101.92 145.84C103.16 152.13 107.99 156.67 112.72 159.64C116.01 161.71 121.22 164.47 125.72 164.47C130.22 164.47 135.45 161.71 138.72 159.64C143.44 156.64 148.28 152.13 149.52 145.84C150.89 138.84 151.44 119.32 151.44 117.4C151.333 116.587 151.159 115.784 150.92 115ZM136.99 143.05C136.74 144.6 135.32 146.44 133.63 146.53C130.63 146.7 129.12 142.12 125.77 142.15C122.42 142.18 120.89 146.7 117.91 146.53C116.21 146.44 114.79 144.6 114.55 143.05C114.447 142.042 114.547 141.024 114.844 140.055C115.141 139.086 115.629 138.187 116.28 137.41C117.38 136.34 119.1 136.48 120.96 136.21C122.75 136.071 124.451 135.371 125.82 134.21C127.189 135.371 128.89 136.071 130.68 136.21C132.54 136.48 134.25 136.34 135.36 137.41C135.993 138.194 136.463 139.097 136.743 140.066C137.023 141.034 137.107 142.049 136.99 143.05Z" fill="#826550"/>
<path d="M159.609 192.2C159.729 190.5 160.079 188.69 160.329 186.8C161.029 181.37 161.929 175.13 160.209 170H159.969C158.649 173.74 158.709 178.35 157.809 182.36C157.275 185.081 156.171 187.657 154.569 189.92C154.039 190.61 153.509 191.47 152.649 191.72C151.989 187.8 148.369 186.78 144.969 185.36C142.839 184.47 140.969 183.36 138.849 183.2C138.177 183.217 137.507 183.294 136.849 183.43C136.19 183.294 135.521 183.217 134.849 183.2C132.699 183.34 130.849 184.47 128.729 185.36C125.339 186.78 121.729 187.8 121.049 191.72C120.189 191.47 119.659 190.61 119.129 189.92C117.535 187.653 116.431 185.078 115.889 182.36C114.989 178.36 115.059 173.74 113.729 170H113.489C111.779 175.13 112.669 181.37 113.369 186.8C113.619 188.69 113.969 190.5 114.089 192.2C114.879 203.2 107.089 215.32 108.089 221.12C109.019 228.65 116.489 230.52 122.249 233.48C126.599 235.72 130.559 238.48 135.569 238.64H138.169C143.169 238.43 147.169 235.71 151.489 233.48C157.169 230.51 164.679 228.68 165.609 221.12C166.559 215.32 158.819 203.25 159.609 192.2ZM136.849 195.94C134.451 196.013 132.053 195.846 129.689 195.44C130.359 193.44 133.689 193.88 136.769 193.88H136.929C139.979 193.88 143.349 193.39 144.009 195.44C141.645 195.846 139.246 196.014 136.849 195.94Z" fill="#826550"/>
<path d="M165.4 294.04C165.4 288.83 163.03 286.27 161.8 284.04C159.446 278.429 158.027 272.47 157.6 266.4C157.53 261.5 155.91 253.96 154.72 252C153.86 252 153.2 259.78 152.44 263.64C151.01 270.64 148.67 272.58 148 272.64C147.24 269.83 143.89 265.28 134.32 264.92H134.2H134.07C124.51 265.28 121.16 269.83 120.4 272.64C119.72 272.58 117.4 270.64 115.96 263.64C115.2 259.8 114.54 252.04 113.68 252.04C112.49 254.04 110.87 261.54 110.8 266.44C110.368 272.509 108.949 278.467 106.6 284.08C105.37 286.27 103 288.83 103 294.08C103 297.83 108.2 301.29 108.64 305.48C108.8 306.67 108.61 307.8 108.8 308.8C110.8 326.29 126.67 330.53 134.24 330.53C141.81 330.53 157.68 326.29 159.68 308.8C159.83 307.8 159.68 306.67 159.8 305.44C160.2 301.25 165.4 297.8 165.4 294.04ZM136.24 278.8C134.883 278.67 133.517 278.67 132.16 278.8C130.43 279.14 126.4 279.8 126.4 277.72C126.4 276.66 133.12 275.43 134.2 275.43C135.28 275.43 142 276.66 142 277.72C142 279.8 137.97 279.14 136.24 278.8Z" fill="#826550"/>
<path d="M225.14 95.24C224.74 89.79 224.53 84.39 222.62 80C221.85 80 221.09 87.31 220.34 90.92C218.86 98.06 216.63 99.16 215.9 99.16C215.04 95.3 211.52 94.92 208.1 93.28C206.978 92.7074 205.768 92.3287 204.52 92.16C203.851 92.1497 203.183 92.1898 202.52 92.28C201.857 92.1898 201.189 92.1497 200.52 92.16C199.26 92.3516 198.043 92.7574 196.92 93.36C193.5 95 189.98 95.36 189.12 99.24C188.39 99.24 186.12 98.1 184.68 90.96C183.93 87.35 183.16 80.04 182.4 80.04C180.49 84.43 180.27 89.83 179.88 95.28C179 118.82 174 131.57 174 142.44C174 168.51 185.71 177.72 202.5 177.72C219.29 177.72 231 168.51 231 142.44C231.02 131.53 226.02 118.78 225.14 95.24ZM208.46 104.96C205.67 106.13 203.11 104.25 202.58 104.24H202.46C201.93 104.24 199.37 106.13 196.58 104.96C195.8 101.38 198.98 100.96 202.52 101.05C206.06 100.92 209.24 101.38 208.46 104.96Z" fill="#826550"/>
<path d="M224.428 187.01H224.308C221.498 208.54 218.928 209.57 217.308 209.69C215.688 209.81 213.668 207.92 212.388 207.17C209.705 205.435 206.562 204.546 203.368 204.62C200.161 204.535 197.003 205.42 194.308 207.16C193.028 207.91 190.808 209.79 189.388 209.68C187.808 209.56 185.248 208.53 182.388 187H182.268C180.198 199.21 180.708 237.2 183.468 250.6C186.078 269.12 193.578 285.71 196.908 290.2C197.588 291.2 200.438 291.77 203.328 291.78C206.218 291.79 209.068 291.24 209.748 290.2C213.128 285.72 220.618 269.13 223.228 250.62C225.988 237.21 226.498 199.22 224.428 187.01ZM203.368 215.16C199.981 215.163 196.597 215.34 193.228 215.69C194.358 213.94 202.228 212.45 203.368 212.24C204.518 212.45 212.368 213.94 213.508 215.69C210.139 215.34 206.755 215.164 203.368 215.16Z" fill="#826550"/>
<path d="M221.81 1H221.71C220.71 4.3 220.45 8.32 217.71 9.85C217.2 8.41 215.94 7.75 214.52 7.12C213.639 6.59788 212.68 6.21979 211.68 6C211.454 5.97116 211.224 6.02056 211.03 6.14C210.841 6.01638 210.613 5.96656 210.39 6C209.393 6.2208 208.438 6.59886 207.56 7.12C206.13 7.75 204.88 8.41 204.37 9.85C201.61 8.32 201.35 4.3 200.36 1H200.26C200.146 1.32552 200.059 1.66001 200 2C200.047 6.08537 200.321 10.165 200.82 14.22C201.35 16.92 203.43 18.86 205.45 20.14C206.86 21 209.1 22.21 211 22.21C212.9 22.21 215.2 21 216.62 20.14C218.62 18.86 220.71 16.92 221.25 14.22C221.749 10.165 222.023 6.08537 222.07 2C222.011 1.66001 221.924 1.32552 221.81 1V1ZM215.81 13C215.753 13.3665 215.584 13.7063 215.326 13.973C215.068 14.2397 214.734 14.4203 214.37 14.49C213.09 14.56 212.44 12.6 211 12.61C209.56 12.62 208.91 14.56 207.63 14.49C207.271 14.4148 206.944 14.2318 206.692 13.9655C206.44 13.6992 206.275 13.3624 206.22 13C206.172 12.569 206.211 12.1327 206.335 11.717C206.458 11.3013 206.664 10.9147 206.94 10.58C207.41 10.12 208.15 10.18 208.94 10.07C209.694 10.0178 210.413 9.73501 211 9.26V9.26C211.59 9.74792 212.317 10.0413 213.08 10.1C213.88 10.21 214.62 10.15 215.08 10.61C215.359 10.9379 215.57 11.3181 215.701 11.7285C215.831 12.1388 215.878 12.5711 215.84 13H215.81Z" fill="#826550"/>
<path d="M214.49 36.2412C215.453 37.6834 216.76 38.8634 218.293 39.6751C219.825 40.4869 221.536 40.9047 223.27 40.8912C230.43 41.1712 237 35.6712 237 33.6112C234.22 36.1012 229.61 36.3312 227.05 35.3012C223.27 33.8012 223.93 30.8112 221.17 28.8612C220.329 28.3005 219.341 28.0013 218.33 28.0013C217.319 28.0013 216.331 28.3005 215.49 28.8612C215.121 29.0838 214.784 29.3564 214.49 29.6712C214.193 29.3587 213.857 29.0864 213.49 28.8612C212.647 28.2996 211.658 28 210.645 28C209.632 28 208.643 28.2996 207.8 28.8612C205.05 30.8612 205.71 33.7912 201.93 35.3012C199.37 36.3012 194.76 36.1012 192 33.6112C192 35.6712 198.55 41.1712 205.71 40.8912C207.444 40.9047 209.155 40.4869 210.687 39.6751C212.22 38.8634 213.527 37.6834 214.49 36.2412V36.2412Z" fill="#826550"/>
<path d="M212 53C212 52.2089 211.765 51.4355 211.326 50.7777C210.886 50.1199 210.262 49.6072 209.531 49.3045C208.8 49.0017 207.996 48.9225 207.22 49.0769C206.444 49.2312 205.731 49.6122 205.172 50.1716C204.612 50.731 204.231 51.4437 204.077 52.2196C203.923 52.9956 204.002 53.7998 204.304 54.5307C204.607 55.2616 205.12 55.8864 205.778 56.3259C206.436 56.7654 207.209 57 208 57C208.561 57.0226 209.116 56.8838 209.6 56.6L212 59L209.6 61.4C209.116 61.1162 208.561 60.9774 208 61C207.209 61 206.436 61.2346 205.778 61.6741C205.12 62.1136 204.607 62.7384 204.304 63.4693C204.002 64.2002 203.923 65.0044 204.077 65.7804C204.231 66.5563 204.612 67.269 205.172 67.8284C205.731 68.3878 206.444 68.7688 207.22 68.9231C207.996 69.0775 208.8 68.9983 209.531 68.6955C210.262 68.3928 210.886 67.8801 211.326 67.2223C211.765 66.5645 212 65.7911 212 65C212.023 64.4394 211.884 63.884 211.6 63.4L214 61L221 68H225L211.6 54.6C211.884 54.116 212.023 53.5606 212 53ZM208 55C207.604 55 207.218 54.8827 206.889 54.6629C206.56 54.4432 206.304 54.1308 206.152 53.7654C206.001 53.3999 205.961 52.9978 206.038 52.6098C206.116 52.2219 206.306 51.8655 206.586 51.5858C206.865 51.3061 207.222 51.1156 207.61 51.0384C207.998 50.9613 208.4 51.0009 208.765 51.1522C209.131 51.3036 209.443 51.56 209.663 51.8889C209.883 52.2178 210 52.6044 210 53C210 53.5304 209.789 54.0391 209.414 54.4142C209.039 54.7893 208.53 55 208 55ZM208 67C207.604 67 207.218 66.8827 206.889 66.6629C206.56 66.4432 206.304 66.1308 206.152 65.7654C206.001 65.3999 205.961 64.9978 206.038 64.6098C206.116 64.2219 206.306 63.8655 206.586 63.5858C206.865 63.3061 207.222 63.1156 207.61 63.0384C207.998 62.9613 208.4 63.0009 208.765 63.1522C209.131 63.3036 209.443 63.56 209.663 63.8889C209.883 64.2178 210 64.6044 210 65C210 65.5304 209.789 66.0391 209.414 66.4142C209.039 66.7893 208.53 67 208 67ZM214 58.5C214.099 58.5 214.196 58.5293 214.278 58.5843C214.36 58.6392 214.424 58.7173 214.462 58.8087C214.5 58.9 214.51 59.0006 214.49 59.0975C214.471 59.1945 214.423 59.2836 214.354 59.3536C214.284 59.4235 214.195 59.4711 214.098 59.4904C214.001 59.5097 213.9 59.4998 213.809 59.4619C213.717 59.4241 213.639 59.36 213.584 59.2778C213.529 59.1956 213.5 59.0989 213.5 59C213.496 58.9332 213.505 58.8662 213.529 58.8036C213.553 58.7409 213.589 58.684 213.637 58.6366C213.684 58.5893 213.741 58.5526 213.804 58.5291C213.866 58.5055 213.933 58.4956 214 58.5V58.5ZM225 50H221L215 56L217 58L225 50Z" fill="#826550"/>
</g>
<defs>
<clipPath id="clip0">
<rect width="237" height="336" fill="white"/>
</clipPath>
</defs>
</svg>
