<svg xmlns="http://www.w3.org/2000/svg" viewBox="0 0 53 44"><path data-name="Composite Path" d="M20.3 0a213.301 213.301 0 00-6.01 4 38.851 38.851 0 00-6.794 5.93 33.847 33.847 0 00-5.309 7.777A21.013 21.013 0 000 27.328c0 4.984.956 9.024 2.888 12.074q2.9 4.61 9.619 4.6a8.312 8.312 0 006.773-2.986 9.91 9.91 0 002.464-6.424c0-3.223-.892-5.651-2.676-7.326a10.216 10.216 0 00-7.3-2.514h-3.61a24.286 24.286 0 011.571-6.875 19.465 19.465 0 013.228-5.092 27.91 27.91 0 014.438-4.168c1.443-1.031 3.355-2.3 5.712-3.76L20.3 0zm29.9 0a211.995 211.995 0 00-6.009 4 38.82 38.82 0 00-6.795 5.93 33.812 33.812 0 00-5.308 7.777 21 21 0 00-2.188 9.625c0 4.984.956 9.024 2.888 12.074q2.9 4.61 9.619 4.6a8.313 8.313 0 006.774-2.986 9.909 9.909 0 002.463-6.424c0-3.223-.892-5.651-2.676-7.326a10.214 10.214 0 00-7.3-2.514h-3.61a25.448 25.448 0 011.529-6.832 19.29 19.29 0 013.27-5.135 27.953 27.953 0 014.438-4.168c1.444-1.031 3.355-2.3 5.712-3.76L50.2 0z" fill-rule="evenodd"/></svg>