<svg xmlns="http://www.w3.org/2000/svg" viewBox="0 0 15 15"><path d="M15 7.88C15 3.63 11.486 0 7.612 0A7.776 7.776 0 000 7.88a6.6 6.6 0 004.557 6.62 4.136 4.136 0 01.127-1.37s.147-.48.974-4.13a3.4 3.4 0 01-.249-1.26c0-1.17.658-2.05 1.475-2.05a1.058 1.058 0 011.036 1.2 17.438 17.438 0 01-.677 2.8 1.2 1.2 0 001.086 1.53c1.127 0 1.884-1.93 1.884-4.21 0-1.67-.881-2.74-2.521-2.74a3.432 3.432 0 00-3.743 3.49 2.382 2.382 0 00.5 1.56.4.4 0 01.108.44c-.04.15-.118.5-.157.63a.259.259 0 01-.373.21 3.035 3.035 0 01-1.733-3.03 5.494 5.494 0 015.607-5.16 5.415 5.415 0 014.805 4.75c0 3.11-2.227 5.43-4.246 5.43a2.1 2.1 0 01-1.7-.99c-.449 1.62-.538 1.88-.538 1.88a4.588 4.588 0 01-.778 1.27 9.654 9.654 0 002.173.25 7.107 7.107 0 007.388-7.12z" fill="#fff" fill-rule="evenodd"/></svg>