<svg xmlns="http://www.w3.org/2000/svg" viewBox="0 0 13 14"><path d="M3.543 12.09A1.777 1.777 0 101.772 14a1.848 1.848 0 001.771-1.91zm4.724 1.22A9.241 9.241 0 005.85 7.7 8.016 8.016 0 00.637 5.09H.59a.542.542 0 00-.4.17.633.633 0 00-.194.47v1.34a.614.614 0 00.535.63 6.136 6.136 0 015.315 5.72.6.6 0 00.581.58h1.246a.541.541 0 00.433-.21.676.676 0 00.157-.48zm4.732.02a14.538 14.538 0 00-3.827-9.21A12.577 12.577 0 00.618 0H.59a.552.552 0 00-.406.18A.641.641 0 000 .64v1.42a.605.605 0 00.554.62c5.36.34 9.633 4.95 9.937 10.72a.611.611 0 00.591.6H12.4a.544.544 0 00.424-.2.646.646 0 00.174-.47z" fill="#fff" fill-rule="evenodd"/></svg>