<svg xmlns="http://www.w3.org/2000/svg" viewBox="0 0 15 13" width="15" height="13"><path d="M15 1.54a5.64 5.64 0 01-1.769.51A3.2 3.2 0 0014.583.24a5.914 5.914 0 01-1.951.8A2.985 2.985 0 0010.385 0a3.179 3.179 0 00-3.074 3.28 3.894 3.894 0 00.076.75A8.565 8.565 0 011.047.6a3.432 3.432 0 00-.419 1.65 3.354 3.354 0 001.371 2.74 3 3 0 01-1.39-.42v.04a3.228 3.228 0 002.466 3.22 3.1 3.1 0 01-.809.11 3.692 3.692 0 01-.581-.05 3.116 3.116 0 002.875 2.28 5.937 5.937 0 01-3.818 1.4A6.041 6.041 0 010 11.53 8.326 8.326 0 004.721 13c5.655 0 8.748-5 8.748-9.33 0-.15 0-.29-.009-.43A6.886 6.886 0 0015 1.54z" fill="#fff" fill-rule="evenodd"/></svg>