<svg width="279" height="85" viewBox="0 0 279 85" fill="none" xmlns="http://www.w3.org/2000/svg">
<g clip-path="url(#clip0)">
<path d="M5.99999 14.875L12.917 9.5L5.99999 4.125V7.042H-0.0420074V11.959H5.99999V14.875Z" fill="white"/>
<path d="M18 0H5C3.9 0 3 0.9 3 2V4H5V2H18V17H5V15H3V17C3 18.1 3.9 19 5 19H18C19.1 19 20 18.1 20 17V2C20 0.9 19.1 0 18 0Z" fill="white"/>
</g>
<path d="M30.657 2.031L30.422 0H25V2H28.64L30.14 15H44.128L45.827 2.031H30.657ZM42.372 13H31.922L30.888 4.031H43.548L42.372 13Z" fill="white"/>
<path d="M31.984 20C33.0886 20 33.984 19.1046 33.984 18C33.984 16.8954 33.0886 16 31.984 16C30.8794 16 29.984 16.8954 29.984 18C29.984 19.1046 30.8794 20 31.984 20Z" fill="white"/>
<path d="M40.984 20C42.0886 20 42.984 19.1046 42.984 18C42.984 16.8954 42.0886 16 40.984 16C39.8794 16 38.984 16.8954 38.984 18C38.984 19.1046 39.8794 20 40.984 20Z" fill="white"/>
<path d="M66.958 15.527L61.75 10.32C62.533 9.247 63 7.93 63 6.5C63 2.91 60.09 0 56.5 0C52.91 0 50 2.91 50 6.5C50 10.09 52.91 13 56.5 13C57.938 13 59.263 12.527 60.339 11.737L65.544 16.941L66.958 15.527ZM56.5 11C54.019 11 52 8.981 52 6.5C52 4.019 54.019 2 56.5 2C58.981 2 61 4.019 61 6.5C61 8.981 58.981 11 56.5 11Z" fill="white"/>
<g clip-path="url(#clip1)">
<path d="M5.99999 38.875L12.917 33.5L5.99999 28.125V31.042H-0.0420074V35.959H5.99999V38.875Z" fill="#323232"/>
<path d="M18 24H5C3.9 24 3 24.9 3 26V28H5V26H18V41H5V39H3V41C3 42.1 3.9 43 5 43H18C19.1 43 20 42.1 20 41V26C20 24.9 19.1 24 18 24Z" fill="#323232"/>
</g>
<path d="M30.657 26.031L30.422 24H25V26H28.64L30.14 39H44.128L45.827 26.031H30.657ZM42.372 37H31.922L30.888 28.031H43.548L42.372 37Z" fill="#323232"/>
<path d="M31.984 44C33.0886 44 33.984 43.1046 33.984 42C33.984 40.8954 33.0886 40 31.984 40C30.8794 40 29.984 40.8954 29.984 42C29.984 43.1046 30.8794 44 31.984 44Z" fill="#323232"/>
<path d="M40.984 44C42.0886 44 42.984 43.1046 42.984 42C42.984 40.8954 42.0886 40 40.984 40C39.8794 40 38.984 40.8954 38.984 42C38.984 43.1046 39.8794 44 40.984 44Z" fill="#323232"/>
<path d="M66.958 39.527L61.75 34.32C62.533 33.247 63 31.93 63 30.5C63 26.91 60.09 24 56.5 24C52.91 24 50 26.91 50 30.5C50 34.09 52.91 37 56.5 37C57.938 37 59.263 36.527 60.339 35.737L65.544 40.941L66.958 39.527ZM56.5 35C54.019 35 52 32.981 52 30.5C52 28.019 54.019 26 56.5 26C58.981 26 61 28.019 61 30.5C61 32.981 58.981 35 56.5 35Z" fill="#323232"/>
<path d="M95.5 0C81.969 0 71 10.969 71 24.5C71 38.031 81.969 49 95.5 49C109.031 49 120 38.031 120 24.5C120 10.969 109.031 0 95.5 0ZM95.5 47C83.093 47 73 36.906 73 24.5C73 12.093 83.093 2 95.5 2C107.906 2 118 12.093 118 24.5C118 36.906 107.906 47 95.5 47Z" fill="#323232"/>
<path d="M95.5 7.625C91.145 7.625 87.56 10.903 87.064 15.125H87V32.042H104V15.125H103.937C103.44 10.903 99.855 7.625 95.5 7.625ZM102 30.042H89V20.785C89.275 21.122 89.705 21.416 90.542 21.416C91.834 21.416 92.667 20.703 92.667 19.791C92.667 19.416 92.667 18.916 92.667 18.916C92.667 18.444 93.049 18.062 93.521 18.062C93.993 18.062 94.375 18.444 94.375 18.916C94.375 18.925 94.37 18.933 94.37 18.941C94.37 18.948 94.375 18.951 94.375 18.958C94.375 19.791 94.375 22.25 94.375 22.25C94.375 22.25 94.344 24.083 96.5 24.083C98.609 24.083 98.625 22.333 98.625 22.333V20.083H98.626C98.626 20.081 98.625 20.08 98.625 20.078C98.625 19.336 99.227 18.734 99.969 18.734C100.711 18.734 101.313 19.336 101.313 20.078C101.313 20.109 101.334 20.166 101.334 20.166C101.334 20.166 101.368 20.775 102.001 21.06V30.042H102Z" fill="#323232"/>
<path d="M94 40.125C94 40.953 94.671 41.625 95.5 41.625C96.328 41.625 97 40.953 97 40.125V33H94V40.125Z" fill="#323232"/>
<path d="M148.5 0C134.969 0 124 10.969 124 24.5C124 38.031 134.969 49 148.5 49C162.031 49 173 38.031 173 24.5C173 10.969 162.031 0 148.5 0ZM148.5 47C136.093 47 126 36.906 126 24.5C126 12.093 136.093 2 148.5 2C160.906 2 171 12.093 171 24.5C171 36.906 160.906 47 148.5 47Z" fill="#323232"/>
<path d="M158.811 19.342C159.671 17.631 160.691 14.355 159.244 9.86C159.122 9.482 158.787 9.211 158.391 9.172C158.001 9.132 157.614 9.331 157.419 9.678C156.148 11.946 153.381 15.605 151.372 15.772C151.342 15.774 151.318 15.791 151.289 15.796C149.799 15.509 148.6 15.5 148.5 15.5C148.397 15.5 147.189 15.509 145.699 15.792C145.674 15.788 145.654 15.773 145.628 15.771C143.624 15.604 140.855 11.944 139.58 9.676C139.385 9.33 139.003 9.133 138.608 9.171C138.212 9.211 137.878 9.481 137.756 9.859C136.308 14.353 137.329 17.63 138.189 19.341C136.445 19.561 134.235 20.118 133.432 21.529C133.044 22.211 133.052 22.993 133.456 23.73C133.97 24.669 134.855 24.975 135.79 24.975C136.606 24.975 137.458 24.742 138.139 24.493C138.135 25.033 138.165 25.573 138.268 26.105C138.556 27.601 139.399 29.741 140.016 31.302C140.204 31.781 140.412 32.306 140.525 32.626C140.29 33.24 139.853 34.438 139.759 35.11C139.647 35.911 139.873 37.257 140.88 38.416C142.323 40.075 144.886 40.916 148.499 40.916C152.111 40.916 154.675 40.075 156.118 38.416C157.125 37.258 157.351 35.911 157.239 35.11C157.145 34.437 156.709 33.24 156.472 32.626C156.586 32.307 156.792 31.783 156.981 31.306C157.598 29.743 158.443 27.602 158.731 26.105C158.834 25.57 158.866 25.032 158.866 24.495C159.545 24.743 160.394 24.975 161.208 24.975C162.144 24.975 163.028 24.669 163.542 23.73C163.946 22.993 163.954 22.211 163.566 21.529C162.765 20.119 160.555 19.562 158.811 19.342ZM157.858 12.708C158.286 15.768 157.381 17.865 156.827 18.82C156.581 18.517 156.315 18.225 156.029 17.948C155.485 17.422 154.83 17.014 154.138 16.69C155.621 15.639 156.939 14.017 157.858 12.708ZM139.142 12.71C140.058 14.014 141.371 15.629 142.848 16.68C142.147 17.009 141.489 17.424 140.956 17.963C140.68 18.242 140.423 18.533 140.185 18.835C139.636 17.892 138.717 15.781 139.142 12.71ZM135.21 22.77C135.121 22.607 135.147 22.56 135.17 22.52C135.393 22.129 136.557 21.514 138.779 21.287C138.663 21.577 138.562 21.869 138.477 22.165C137.212 22.838 135.479 23.256 135.21 22.77ZM156.768 25.729C156.516 27.042 155.71 29.083 155.122 30.573C154.724 31.583 154.513 32.125 154.439 32.45L154.373 32.752L154.487 33.039C154.77 33.749 155.198 34.947 155.259 35.39C155.26 35.399 155.355 36.248 154.61 37.106C153.89 37.932 152.247 38.918 148.5 38.918C144.753 38.918 143.109 37.932 142.39 37.106C141.644 36.249 141.739 35.399 141.74 35.39C141.802 34.949 142.229 33.749 142.512 33.038L142.626 32.752L142.56 32.45C142.488 32.124 142.276 31.581 141.877 30.569C141.29 29.08 140.485 27.041 140.232 25.728C139.81 23.53 140.611 21.153 142.377 19.37C143.89 17.842 147.31 17.502 148.5 17.499C149.666 17.499 153.039 17.838 154.639 19.385C156.72 21.399 157.104 23.982 156.768 25.729ZM161.789 22.77C161.526 23.249 159.815 22.84 158.551 22.178C158.467 21.878 158.368 21.582 158.254 21.29C160.452 21.52 161.608 22.13 161.829 22.519C161.853 22.56 161.879 22.606 161.789 22.77Z" fill="#323232"/>
<path d="M254.5 0C240.969 0 230 10.969 230 24.5C230 38.031 240.969 49 254.5 49C268.031 49 279 38.031 279 24.5C279 10.969 268.031 0 254.5 0ZM254.5 47C242.093 47 232 36.906 232 24.5C232 12.093 242.093 2 254.5 2C266.906 2 277 12.093 277 24.5C277 36.906 266.906 47 254.5 47Z" fill="#323232"/>
<path d="M258.938 13.125C258.938 10.351 256.681 8.094 253.907 8.094C251.133 8.094 248.876 10.351 248.876 13.125V27.765C247.595 29.087 246.876 30.832 246.876 32.688C246.876 36.617 250.072 39.813 254.001 39.813C257.93 39.813 261.126 36.617 261.126 32.688C261.126 30.746 260.324 28.897 258.938 27.562V13.125ZM259.125 32.688C259.125 35.518 256.83 37.813 254 37.813C251.169 37.813 248.875 35.518 248.875 32.688C248.875 31.041 249.667 29.59 250.875 28.653V13.125C250.875 11.451 252.232 10.094 253.906 10.094C255.58 10.094 256.937 11.451 256.937 13.125V28.497C258.257 29.425 259.125 30.952 259.125 32.688Z" fill="#323232"/>
<path d="M255 29.559V13.188C255 12.636 254.553 12.188 254 12.188C253.448 12.188 253 12.636 253 13.188V29.559C251.837 29.972 251 31.071 251 32.375C251 34.032 252.343 35.375 254 35.375C255.657 35.375 257 34.032 257 32.375C257 31.07 256.163 29.972 255 29.559Z" fill="#323232"/>
<path d="M267 12H261V14H267V12Z" fill="#323232"/>
<path d="M267 16H261V18H267V16Z" fill="#323232"/>
<path d="M267 20H261V22H267V20Z" fill="#323232"/>
<path d="M267 24H261V26H267V24Z" fill="#323232"/>
<path d="M201.5 0C187.969 0 177 10.969 177 24.5C177 38.031 187.969 49 201.5 49C215.031 49 226 38.031 226 24.5C226 10.969 215.031 0 201.5 0ZM201.5 47C189.093 47 179 36.906 179 24.5C179 12.093 189.093 2 201.5 2C213.906 2 224 12.093 224 24.5C224 36.906 213.906 47 201.5 47Z" fill="#323232"/>
<path d="M211.807 26.756C211.357 17.263 202.61 8.063 202.221 7.659C202.206 7.644 202.188 7.636 202.173 7.622C202.136 7.588 202.097 7.56 202.055 7.532C202.013 7.503 201.971 7.477 201.925 7.455C201.907 7.446 201.893 7.433 201.874 7.425C201.847 7.414 201.818 7.414 201.791 7.405C201.743 7.39 201.696 7.378 201.646 7.371C201.595 7.363 201.545 7.361 201.494 7.361C201.449 7.361 201.405 7.363 201.36 7.369C201.305 7.377 201.255 7.39 201.202 7.407C201.177 7.415 201.15 7.415 201.126 7.425C201.108 7.432 201.095 7.446 201.077 7.454C201.03 7.476 200.987 7.503 200.944 7.533C200.902 7.561 200.863 7.59 200.826 7.624C200.811 7.637 200.793 7.645 200.78 7.66C200.391 8.064 191.64 17.268 191.193 26.765C191.185 26.832 191.176 26.898 191.182 26.967C191.169 27.33 191.165 27.694 191.179 28.058C191.548 38.314 201.157 40.878 201.254 40.903C201.336 40.924 201.419 40.934 201.501 40.934C201.583 40.934 201.666 40.924 201.748 40.903C201.845 40.879 211.454 38.314 211.822 28.058C211.835 27.695 211.831 27.331 211.819 26.969C211.825 26.896 211.815 26.827 211.807 26.756ZM193.783 23.25C196.002 25.308 199.151 26.771 200.5 27.341V31.893C198.052 30.697 194.281 28.552 193.198 26.665C193.268 25.522 193.477 24.378 193.783 23.25ZM195.807 18.154C197.32 19.842 199.409 20.8 200.5 21.213V25.153C198.846 24.393 196.076 22.937 194.484 21.11C194.872 20.094 195.318 19.102 195.807 18.154ZM208.518 21.108C206.928 22.932 204.156 24.391 202.5 25.152V21.213C203.592 20.8 205.683 19.841 207.195 18.151C207.684 19.1 208.13 20.091 208.518 21.108ZM202.5 19.047V11.039C203.533 12.318 204.887 14.139 206.151 16.268C205.198 17.642 203.615 18.544 202.5 19.047ZM202.5 31.893V27.341C203.85 26.772 206.999 25.307 209.219 23.249C209.524 24.377 209.734 25.522 209.803 26.666C208.72 28.549 204.948 30.695 202.5 31.893ZM200.5 19.05C199.387 18.55 197.806 17.651 196.851 16.271C198.115 14.142 199.468 12.321 200.5 11.042V19.05ZM193.383 29.825C195.711 31.808 199.073 33.454 200.5 34.106V38.509C198.408 37.605 194.338 35.178 193.383 29.825ZM202.5 38.521V34.106C203.928 33.453 207.292 31.806 209.621 29.822C208.671 35.233 204.601 37.635 202.5 38.521Z" fill="#323232"/>
<path d="M16 53C7.164 53 0 60.164 0 69C0 77.837 7.164 85 16 85C24.837 85 32 77.837 32 69C32 60.164 24.837 53 16 53ZM23.944 65.809C23.693 72.325 20.481 76.641 12.952 76.511C12.812 76.511 12.747 76.511 12.719 76.511C12.704 76.511 12.698 76.511 12.698 76.511C12.669 76.511 12.604 76.511 12.466 76.511C12.019 76.511 7.923 76.068 7.122 74.688C9.601 74.878 11.369 74.282 12.242 73.552C11.194 73.263 9.319 73.091 8.991 70.704C9.375 70.808 9.609 70.925 10.29 70.817C8.983 69.993 7.532 69.298 7.611 67.174C7.922 67.491 8.775 67.692 9.071 67.631C8.303 67.398 6.922 64.387 8.097 62.85C10.081 64.64 12.172 66.332 15.901 66.493C16.128 64.279 17.141 62.794 19.069 62.168C20.909 61.689 22.324 62.428 22.97 63.306C23.707 63.082 24.423 62.84 25.163 62.621C25.159 63.454 24.594 64.084 24.228 64.33C24.975 64.495 25.651 63.855 25.651 63.855C25.467 64.818 24.557 65.58 23.944 65.809Z" fill="white"/>
<path d="M56.916 69C56.916 71.728 54.705 73.938 51.978 73.938C49.251 73.938 47.039 71.728 47.039 69C47.039 68.606 47.09 68.227 47.177 67.86H46.28V74.698H57.676V67.86H56.779C56.865 68.227 56.916 68.606 56.916 69Z" fill="white"/>
<path d="M51.978 71.659C53.444 71.659 54.637 70.466 54.637 69C54.637 67.534 53.444 66.341 51.978 66.341C50.512 66.341 49.319 67.534 49.319 69C49.319 70.466 50.511 71.659 51.978 71.659Z" fill="white"/>
<path d="M57.676 63.302H54.637V66.341H57.676V63.302Z" fill="white"/>
<path d="M52 53C43.164 53 36 60.164 36 69C36 77.837 43.164 85 52 85C60.837 85 68 77.837 68 69C68 60.164 60.837 53 52 53ZM59.955 74.698C59.955 75.952 58.93 76.977 57.676 76.977H46.279C45.026 76.978 44 75.952 44 74.698V63.302C44 62.049 45.026 61.023 46.279 61.023H57.675C58.929 61.023 59.954 62.049 59.954 63.302V74.698H59.955Z" fill="white"/>
<path d="M88 53C79.164 53 72 60.163 72 69C72 77.837 79.164 85 88 85C96.837 85 104 77.836 104 69C104 60.164 96.837 53 88 53ZM92.062 62.455H89.041V65.899H92.062V69.344H89.041V77.954H86.02V69.344H83V65.899H86.021V62.455C86.021 60.553 87.374 59.01 89.042 59.01H92.063V62.455H92.062Z" fill="white"/>
<path d="M124.637 67.495C125.039 67.476 125.356 67.413 125.588 67.307C125.914 67.162 126.128 66.977 126.229 66.748C126.33 66.519 126.379 66.252 126.379 65.951C126.379 65.719 126.321 65.486 126.205 65.254C126.089 65.022 125.883 64.849 125.588 64.737C125.324 64.637 124.996 64.582 124.604 64.572C124.212 64.563 123.661 64.558 122.952 64.558H122.613V67.523H123.178C123.749 67.523 124.235 67.514 124.637 67.495Z" fill="white"/>
<path d="M126.118 70.084C125.836 70.003 125.446 69.959 124.952 69.952C124.458 69.946 123.94 69.943 123.402 69.943H122.612V73.436H122.876C123.89 73.436 124.616 73.433 125.056 73.427C125.494 73.42 125.899 73.339 126.268 73.182C126.645 73.025 126.901 72.818 127.042 72.557C127.183 72.296 127.256 71.995 127.256 71.657C127.256 71.211 127.168 70.869 126.995 70.627C126.825 70.386 126.531 70.204 126.118 70.084Z" fill="white"/>
<path d="M124 53C115.164 53 108 60.164 108 69C108 77.837 115.164 85 124 85C132.837 85 140 77.837 140 69C140 60.164 132.837 53 124 53ZM130.602 73.531C130.329 74.064 129.956 74.507 129.478 74.858C128.926 75.273 128.317 75.568 127.655 75.744C126.993 75.92 126.154 76.008 125.136 76.008H119.015V61.987H124.458C125.588 61.987 126.415 62.025 126.938 62.1C127.462 62.176 127.983 62.342 128.499 62.6C129.032 62.87 129.428 63.232 129.688 63.687C129.948 64.142 130.08 64.662 130.08 65.245C130.08 65.923 129.901 66.523 129.544 67.04C129.186 67.558 128.681 67.96 128.027 68.248V68.323C128.944 68.505 129.669 68.882 130.206 69.453C130.743 70.024 131.013 70.778 131.013 71.714C131.013 72.392 130.875 72.997 130.602 73.531Z" fill="white"/>
<path d="M154.799 53C153.449 53 152.248 53.65 151.499 54.661C150.75 53.65 149.549 53 148.199 53C145.875 53 144 54.806 144 57.044C144 60.223 151.499 66 151.499 66C151.499 66 158.998 60.223 158.998 57.044C158.998 54.806 157.123 53 154.799 53Z" fill="white"/>
<path d="M151.5 85L146 75H157" fill="white"/>
<defs>
<clipPath id="clip0">
<rect width="21" height="19" fill="white"/>
</clipPath>
<clipPath id="clip1">
<rect width="21" height="19" fill="white" transform="translate(0 24)"/>
</clipPath>
</defs>
</svg>
