<svg width="237" height="336" fill="none" xmlns="http://www.w3.org/2000/svg"><g clip-path="url(#clip0)"><path d="M.365 24.165a1.06 1.06 0 00-.11 1.49 1.06 1.06 0 001.49-.11l23.8-23.8a1.06 1.06 0 00.11-1.49 1.06 1.06 0 00-1.49.11l-23.8 23.8z" fill="#fff"/><path d="M.255.255a1.06 1.06 0 00.11 1.49l23.8 23.8a1 1 0 101.38-1.38L1.745.365a1.06 1.06 0 00-1.49-.11zM31 10a1.07 1.07 0 001.13 1H65.8a1.07 1.07 0 001.13-1 1.07 1.07 0 00-1.13-1H32.13A1.07 1.07 0 0031 10zm1.13-10A1.07 1.07 0 0031 1a1.07 1.07 0 001.13 1H65.8a1.07 1.07 0 001.13-1 1.07 1.07 0 00-1.13-1H32.13zM31 19a1.07 1.07 0 001.13 1H65.8a1 1 0 000-2H32.13A1.07 1.07 0 0031 19z" fill="#fff"/><path d="M87.19 53.42a679.304 679.304 0 00-1.68 5.23 43 43 0 01-13 54.16 12.999 12.999 0 013.14 2.67 47.08 47.08 0 0011.54-62.06zM9.52 101.34h1.34A43.06 43.06 0 0166 39.38a22.888 22.888 0 012.44-3.26 47.08 47.08 0 00-62.21 65.36c1.13-.11 2.25-.14 3.29-.14z" fill="#826550"/><path d="M53.45 113c.44-6.14-.87-14 .66-19.07 4.53-.08 9.56.35 13.15-.66 8.18-14.84 12-34 18.42-50.64V40c-.68-3-3.75-3.7-6.58-4.6h-.65c-10.6 3.43-12 16.1-14.47 27.62-15.8-4.14-32.3-.06-32.89 15.13-4.52.07-8 1.22-9.86 3.94-.57 6.75 1.57 10.75 6.58 11.91a22.159 22.159 0 01-7.24 12.49c-6.4.62-15.63-1.6-19.07 2v2.63c3.15 3.86 12.85 1.18 19.07 2 6.59-4.01 8.43-12.67 11.84-19.81 4.67.37 10.86-.78 14.47.66v19.73c-7.83.5-15.45 1.21-19.07 5.92h44.72c-3.26-5.29-12.48-4.62-19.08-6.62zM37.67 78.19C38.35 66.48 53 66.5 63.32 69.64c.1 4.72-.52 10.16 1.31 13.15-7.04-.85-17.07-4.4-26.96-4.6zm9.41 57.98a9.105 9.105 0 018.438 5.603 9.11 9.11 0 11-8.438-5.603z" fill="#826550"/><path d="M67.46 154.38H26.7a2.822 2.822 0 00-2.81 2.82v4.47a2.832 2.832 0 002.81 2.82h.83v45.39h-.83a2.822 2.822 0 00-2.81 2.82v4.47A2.83 2.83 0 0026.7 220h40.76a2.833 2.833 0 002.82-2.82v-4.48a2.83 2.83 0 00-2.82-2.82h-.83v-45.39h.83a2.833 2.833 0 002.82-2.82v-4.47a2.83 2.83 0 00-2.82-2.82zm-33.8 10.11h13.2l-13.2 13.2v-13.2zm26.84 45.39H47l13.5-13.47v13.47zm0-28.71L33.66 208v-15.07l26.84-26.84v15.08z" fill="#826550"/><path d="M47.08 128a47.081 47.081 0 00-28.19 84.79v-.09a7.871 7.871 0 011.17-4.1 43.081 43.081 0 0127-76.649 43.077 43.077 0 0140.633 28.767A43.08 43.08 0 0174.06 208.6a7.789 7.789 0 011.18 4.1v.09A47.09 47.09 0 0047.08 128zm43.2 125.39a47.391 47.391 0 00-8.5-13.1l-2 3.78a43.153 43.153 0 016.42 10c1.36-.23 2.72-.45 4.08-.68zM90 268.56c.09 1.17.15 2.34.15 3.52a43.08 43.08 0 01-45.41 43.02c.16.601.248 1.218.26 1.84a6.621 6.621 0 01-.4 2.15c.83 0 1.67.07 2.52.07a47.131 47.131 0 0047.04-47.08 48.152 48.152 0 00-.41-6.16 37.692 37.692 0 01-3.75 2.64zm-86 3.52a43.078 43.078 0 0143.106-43.079 43.082 43.082 0 0121.544 5.789c1.08-.86 2.21-1.73 3.36-2.62a47.068 47.068 0 00-66.984 18.625A47.07 47.07 0 0029.66 315.81a18.383 18.383 0 01-.57-4.59A43.058 43.058 0 014 272.08z" fill="#826550"/><path d="M38.77 309.91c7.74-2.72 16.31-9.67 14.54-19.83-.9-5.14-4.48-5-7.27-9.25 14.44-12 24.21-28.66 33-46.26h-2c-7.45 5.66-21.91 17-28.42 26.43-2.6 3.78-4.59 9.31-7.27 13.88-4.54 7.75-15.12 21.23-6.61 31.06-1.38 4.62-1.2 12.39 4 12.56 3.26-1.73-1.36-4.61.03-8.59zm8.31-38.83a2.588 2.588 0 011.841 4.421 2.592 2.592 0 01-2.827.56 2.591 2.591 0 01-.835-4.222 2.589 2.589 0 011.821-.759zM36.79 300c-1.86-9 7-16.95 11.89-9.25.26 7.41-6.18 15.76-11.89 9.25z" fill="#826550"/><path d="M56 276.2c14-5.2 30.58-7.75 39-18.5-9.41 1.38-18.12 3.47-27.75 4.62-2.2 6.24-7.09 9.68-11.25 13.88zM12.34 265c-4.23 12.25 8.42 16 21.8 13.88 3.79-4.82 5.85-10 2-15.87-4.91-7.49-20.92-6.4-23.8 1.99zm5.28 7.27c-5.12-10.87 12.89-11.1 14.54-5.27 2.18 7.58-9.1 8-14.54 5.24v.03z" fill="#826550"/><path fill-rule="evenodd" clip-rule="evenodd" d="M100.057 1h13.053c4.301 0 7.958 1.901 7.958 5.755 0 3.22-1.289 4.47-3.941 5.875.227.171 1.743.582 2.254.805.815.36 1.289.736 1.838 1.233 1.497 1.37 1.781 2.638 1.781 4.796 0 5.018-5.381 7.536-10.553 7.536H100l.057-26zm7.104 6.834v3.374c3.354 0 6.518.411 6.518-2.894 0-3.05-3.581-2.552-6.537-2.552l.019 2.072zm0 14.387c3.676 0 8.223.548 8.318-3.237.075-3.94-4.68-3.237-8.318-3.237v6.474zM100.037 31h8.513c2.805 0 5.19 1.243 5.19 3.763 0 2.105-.841 2.923-2.57 3.841.148.112 1.136.38 1.47.526.531.236.84.482 1.199.807.976.896 1.161 1.724 1.161 3.136 0 3.28-3.509 4.927-6.882 4.927H100l.037-17zm4.634 4.468v2.207c2.187 0 4.25.268 4.25-1.893 0-1.993-2.335-1.669-4.263-1.669l.013 1.355zm0 9.407c2.397 0 5.362.359 5.424-2.116.049-2.576-3.052-2.117-5.424-2.117v4.233z" fill="#FEFEFE"/><path d="M145.322 1.008L141.005 1c-4.851 0-7.985 3.767-7.985 9.598v4.425h-4.341c-.375 0-.679.357-.679.796v6.412c0 .439.304.795.679.795h4.341v16.179c0 .44.304.795.679.795h5.663c.375 0 .679-.356.679-.795v-16.18h5.076c.375 0 .679-.355.679-.794l.002-6.412a.872.872 0 00-.199-.563.632.632 0 00-.48-.233h-5.078v-3.751c0-1.803.367-2.719 2.372-2.719h2.908c.375 0 .679-.357.679-.796V1.803c0-.438-.303-.794-.678-.795zm-19.699 29.996L123.225 31c-2.695 0-4.436 2.029-4.436 5.168v2.383h-2.412c-.208 0-.377.192-.377.428v3.453c0 .236.169.428.377.428h2.412v8.712c0 .236.169.428.377.428h3.146c.209 0 .378-.192.378-.428V42.86h2.819c.209 0 .377-.191.377-.428l.002-3.453a.459.459 0 00-.111-.302.355.355 0 00-.267-.126h-2.82v-2.02c0-.97.203-1.464 1.317-1.464h1.616c.208 0 .377-.192.377-.429v-3.205c0-.237-.169-.428-.377-.429zM155.621 0h26.759c2.541 0 4.62 1.881 4.62 4.62v26.76c0 2.739-2.079 4.62-4.62 4.62h-26.759c-2.542 0-4.621-1.881-4.621-4.62V4.62c0-2.739 2.079-4.62 4.621-4.62zm21.604 4c-.892 0-1.62.729-1.62 1.62V9.5c0 .891.728 1.62 1.62 1.62h4.069c.891 0 1.62-.729 1.62-1.62V5.62c0-.891-.729-1.62-1.62-1.62h-4.069zm5.706 11.224h-3.168c.3.98.462 2.016.462 3.088 0 5.988-5.011 10.842-11.191 10.842-6.179 0-11.189-4.854-11.189-10.841 0-1.074.162-2.11.462-3.089h-3.306v15.207c0 .787.643 1.431 1.431 1.431h25.069c.787 0 1.431-.643 1.431-1.43V15.223h-.001zm-13.897-4.308c-3.993 0-7.23 3.136-7.23 7.006s3.237 7.005 7.23 7.005c3.993 0 7.231-3.136 7.231-7.005 0-3.87-3.237-7.006-7.231-7.006zM77.439 0h14.123C92.901 0 94 .993 94 2.439V16.56c0 1.448-1.097 2.44-2.439 2.44H77.44c-1.343 0-2.44-.993-2.44-2.439V2.44C75 .993 76.097 0 77.439 0zM88.84 2.111a.857.857 0 00-.855.855v2.048c0 .47.384.855.855.855h2.147c.47 0 .856-.385.856-.855V2.966a.858.858 0 00-.856-.855H88.84zm3.012 5.924H90.18c.158.517.243 1.064.243 1.63 0 3.16-2.644 5.722-5.906 5.722-3.261 0-5.905-2.562-5.905-5.722 0-.567.085-1.114.243-1.63H77.11v8.026c0 .415.34.755.756.755h13.23c.416 0 .756-.34.756-.755V8.035zm-7.335-2.274c-2.107 0-3.816 1.656-3.816 3.698s1.709 3.697 3.816 3.697c2.107 0 3.816-1.655 3.816-3.697S86.626 5.76 84.518 5.76z" fill="#fff"/><path d="M111 73l-12-6 12-6v12zm5-12l12 6-12 6V61zm39.401-10.704a1.002 1.002 0 00-1.42 0l-13.38 13.38-4.9-4.9a1.001 1.001 0 00-1.41 0 1.001 1.001 0 000 1.41l5.6 5.61a.994.994 0 00.71.29 1.004 1.004 0 00.71-.29l14.09-14.09a1.001 1.001 0 000-1.41z" fill="#000"/><path fill-rule="evenodd" clip-rule="evenodd" d="M176.024 45.452a5.498 5.498 0 00-5.611-5.45 5.367 5.367 0 00-5.453 5.452h-.63a.998.998 0 00-1.195.6c-.06.152-.081.317-.063.48v9.05a1.05 1.05 0 00.598 1.36c.172.066.359.086.541.057h12.568a1.382 1.382 0 001.245-1.42v-8.61a1.335 1.335 0 00-1.247-1.532l-.753.013zm-1.187-.013a4.285 4.285 0 00-8.564 0h8.564zm-4.645 2.035a2.01 2.01 0 011.962 2.054 2.051 2.051 0 01-1.263 1.92c-.1.04.661 3.54.661 3.54l-2.64.02a20.62 20.62 0 00.647-3.536 2.05 2.05 0 01-1.328-1.944 2.019 2.019 0 01.557-1.434 2.012 2.012 0 011.408-.62h-.004zm-.347 13.756a1.574 1.574 0 00-.721.269 1.749 1.749 0 00-.786.046 1.825 1.825 0 00-1.18 1.619c-.04.394-.05 1.5-.023 2.1.08.356-.2.356-.2.356-.5-.033-.278 1.516-.278 1.516a.81.81 0 00.722.866 3.169 3.169 0 001.286 1.526s0 .616.018 1.072c-.076-.037.26 1.165-2.062 1.5-2.322.335-2.766 1.077-3.2 1.489-.434.412-.421 2.41-.421 2.41l14.977.004s-.112-2-.549-2.417c-.437-.417-.915-1.152-3.236-1.489-2.257-.321-1.886-1.507-1.9-1.578 0-.179.028-.941.028-.941.513-.43.907-.984 1.145-1.61a1.323 1.323 0 00.866-.8s.165-1.564-.364-1.556c0 0-.251.08-.171-.275.065-.618.07-1.241.014-1.86-.041-.395.02-1.523-.822-1.681a5.163 5.163 0 00-.931-.041c-.281-.039-.615-.755-1.137-.755l-1.075.23z" fill="#000"/><path d="M100.37 104.17a1.06 1.06 0 00-.11 1.49 1.06 1.06 0 001.49-.11l23.81-23.8a1.059 1.059 0 00.11-1.49 1.062 1.062 0 00-1.49.11l-23.81 23.8z" fill="#fff"/><path d="M100.26 80.26a1.06 1.06 0 00.11 1.49l23.81 23.8a1.06 1.06 0 001.49.11 1.06 1.06 0 00-.11-1.49l-23.81-23.8a1.06 1.06 0 00-1.49-.11z" fill="#fff"/><path d="M150.92 115h-.24c-2.31 7.69-2.93 17.07-9.4 20.64-1.19-3.36-4.11-4.9-7.44-6.36-2.12-.94-4.55-2.56-6.6-2.64a2.174 2.174 0 00-1.5.31 2.18 2.18 0 00-1.5-.31c-2.06.08-4.49 1.7-6.6 2.64-3.33 1.46-6.25 3-7.44 6.36-6.44-3.57-7.06-13-9.36-20.64h-.24a14.07 14.07 0 00-.6 2.4c0 1.92.54 21.46 1.92 28.44 1.24 6.29 6.07 10.83 10.8 13.8 3.29 2.07 8.5 4.83 13 4.83s9.73-2.76 13-4.83c4.72-3 9.56-7.51 10.8-13.8 1.37-7 1.92-26.52 1.92-28.44a14.899 14.899 0 00-.52-2.4zm-13.93 28.05c-.25 1.55-1.67 3.39-3.36 3.48-3 .17-4.51-4.41-7.86-4.38-3.35.03-4.88 4.55-7.86 4.38-1.7-.09-3.12-1.93-3.36-3.48a7.587 7.587 0 011.73-5.64c1.1-1.07 2.82-.93 4.68-1.2a8.537 8.537 0 004.86-2 8.537 8.537 0 004.86 2c1.86.27 3.57.13 4.68 1.2a7.575 7.575 0 011.63 5.64zm22.619 49.15c.12-1.7.47-3.51.72-5.4.7-5.43 1.6-11.67-.12-16.8h-.24c-1.32 3.74-1.26 8.35-2.16 12.36a19.623 19.623 0 01-3.24 7.56c-.53.69-1.06 1.55-1.92 1.8-.66-3.92-4.28-4.94-7.68-6.36-2.13-.89-4-2-6.12-2.16-.672.017-1.342.094-2 .23a11.308 11.308 0 00-2-.23c-2.15.14-4 1.27-6.12 2.16-3.39 1.42-7 2.44-7.68 6.36-.86-.25-1.39-1.11-1.92-1.8a19.916 19.916 0 01-3.24-7.56c-.9-4-.83-8.62-2.16-12.36h-.24c-1.71 5.13-.82 11.37-.12 16.8.25 1.89.6 3.7.72 5.4.79 11-7 23.12-6 28.92.93 7.53 8.4 9.4 14.16 12.36 4.35 2.24 8.31 5 13.32 5.16h2.6c5-.21 9-2.93 13.32-5.16 5.68-2.97 13.19-4.8 14.12-12.36.95-5.8-6.79-17.87-6-28.92zm-22.76 3.74a35.85 35.85 0 01-7.16-.5c.67-2 4-1.56 7.08-1.56h.16c3.05 0 6.42-.49 7.08 1.56a35.78 35.78 0 01-7.16.5zm28.551 98.1c0-5.21-2.37-7.77-3.6-10a55.701 55.701 0 01-4.2-17.64c-.07-4.9-1.69-12.44-2.88-14.4-.86 0-1.52 7.78-2.28 11.64-1.43 7-3.77 8.94-4.44 9-.76-2.81-4.11-7.36-13.68-7.72h-.25c-9.56.36-12.91 4.91-13.67 7.72-.68-.06-3-2-4.44-9-.76-3.84-1.42-11.6-2.28-11.6-1.19 2-2.81 9.5-2.88 14.4a55.992 55.992 0 01-4.2 17.64c-1.23 2.19-3.6 4.75-3.6 10 0 3.75 5.2 7.21 5.64 11.4.16 1.19-.03 2.32.16 3.32 2 17.49 17.87 21.73 25.44 21.73s23.44-4.24 25.44-21.73c.15-1 0-2.13.12-3.36.4-4.19 5.6-7.64 5.6-11.4zm-29.16-15.24a21.39 21.39 0 00-4.08 0c-1.73.34-5.76 1-5.76-1.08 0-1.06 6.72-2.29 7.8-2.29s7.8 1.23 7.8 2.29c0 2.08-4.03 1.42-5.76 1.08zm88.9-183.56c-.4-5.45-.61-10.85-2.52-15.24-.77 0-1.53 7.31-2.28 10.92-1.48 7.14-3.71 8.24-4.44 8.24-.86-3.86-4.38-4.24-7.8-5.88a11.165 11.165 0 00-3.58-1.12 13.31 13.31 0 00-2 .12 13.31 13.31 0 00-2-.12 11.16 11.16 0 00-3.6 1.2c-3.42 1.64-6.94 2-7.8 5.88-.73 0-3-1.14-4.44-8.28-.75-3.61-1.52-10.92-2.28-10.92-1.91 4.39-2.13 9.79-2.52 15.24-.88 23.54-5.88 36.29-5.88 47.16 0 26.07 11.71 35.28 28.5 35.28s28.5-9.21 28.5-35.28c.02-10.91-4.98-23.66-5.86-47.2zm-16.68 9.72c-2.79 1.17-5.35-.71-5.88-.72h-.12c-.53 0-3.09 1.89-5.88.72-.78-3.58 2.4-4 5.94-3.91 3.54-.13 6.72.33 5.94 3.91zm15.968 82.05h-.12c-2.81 21.53-5.38 22.56-7 22.68-1.62.12-3.64-1.77-4.92-2.52a15.933 15.933 0 00-9.02-2.55c-3.207-.085-6.365.8-9.06 2.54-1.28.75-3.5 2.63-4.92 2.52-1.58-.12-4.14-1.15-7-22.68h-.12c-2.07 12.21-1.56 50.2 1.2 63.6 2.61 18.52 10.11 35.11 13.44 39.6.68 1 3.53 1.57 6.42 1.58 2.89.01 5.74-.54 6.42-1.58 3.38-4.48 10.87-21.07 13.48-39.58 2.76-13.41 3.27-51.4 1.2-63.61zm-21.06 28.15c-3.387.003-6.771.18-10.14.53 1.13-1.75 9-3.24 10.14-3.45 1.15.21 9 1.7 10.14 3.45a99.257 99.257 0 00-10.14-.53zM221.81 1h-.1c-1 3.3-1.26 7.32-4 8.85-.51-1.44-1.77-2.1-3.19-2.73A9.623 9.623 0 00211.68 6a1 1 0 00-.65.14.92.92 0 00-.64-.14 9.619 9.619 0 00-2.83 1.12c-1.43.63-2.68 1.29-3.19 2.73-2.76-1.53-3.02-5.55-4.01-8.85h-.1c-.114.326-.201.66-.26 1 .047 4.085.321 8.165.82 12.22.53 2.7 2.61 4.64 4.63 5.92 1.41.86 3.65 2.07 5.55 2.07s4.2-1.21 5.62-2.07c2-1.28 4.09-3.22 4.63-5.92.499-4.055.773-8.135.82-12.22a6.268 6.268 0 00-.26-1zm-6 12a1.796 1.796 0 01-1.44 1.49c-1.28.07-1.93-1.89-3.37-1.88-1.44.01-2.09 1.95-3.37 1.88a1.799 1.799 0 01-1.41-1.49 3.235 3.235 0 01.72-2.42c.47-.46 1.21-.4 2-.51a3.678 3.678 0 002.06-.81c.59.488 1.317.781 2.08.84.8.11 1.54.05 2 .51a3.252 3.252 0 01.76 2.39h-.03zm-1.32 23.241a10.456 10.456 0 008.78 4.65c7.16.28 13.73-5.22 13.73-7.28-2.78 2.49-7.39 2.72-9.95 1.69-3.78-1.5-3.12-4.49-5.88-6.44a5.12 5.12 0 00-5.68 0 4.667 4.667 0 00-1 .81 4.954 4.954 0 00-1-.81 5.13 5.13 0 00-5.69 0c-2.75 2-2.09 4.93-5.87 6.44-2.56 1-7.17.8-9.93-1.69 0 2.06 6.55 7.56 13.71 7.28a10.457 10.457 0 008.78-4.65zM212 53a4.004 4.004 0 00-2.469-3.696 3.999 3.999 0 00-5.454 2.916A4.002 4.002 0 00208 57a2.93 2.93 0 001.6-.4L212 59l-2.4 2.4a2.93 2.93 0 00-1.6-.4 4 4 0 104 4 2.925 2.925 0 00-.4-1.6L214 61l7 7h4l-13.4-13.4c.284-.484.423-1.04.4-1.6zm-4 2a1.998 1.998 0 01-1.414-3.414 1.997 1.997 0 013.077.303 1.998 1.998 0 01-.249 2.525A2 2 0 01208 55zm0 12a1.998 1.998 0 01-1.414-3.414 1.997 1.997 0 013.077.303 1.998 1.998 0 01-.249 2.525A2 2 0 01208 67zm6-8.5a.5.5 0 11-.5.5.47.47 0 01.5-.5zm11-8.5h-4l-6 6 2 2 8-8z" fill="#826550"/></g><defs><clipPath id="clip0"><path fill="#fff" d="M0 0h237v336H0z"/></clipPath></defs></svg>