<?xml version="1.0" encoding="UTF-8"?><!DOCTYPE svg PUBLIC "-//W3C//DTD SVG 1.1//EN" "http://www.w3.org/Graphics/SVG/1.1/DTD/svg11.dtd"><svg xmlns="http://www.w3.org/2000/svg" xmlns:xlink="http://www.w3.org/1999/xlink"><symbol id="arrow-down" viewBox="0 0 12 7"><path d="m1 1 5 5 5-5" fill="none" stroke-width="2" stroke-linecap="round" stroke-linejoin="round"/></symbol><symbol id="arrow-up" viewBox="0 0 12 7"><path d="M11 6 6 1 1 6" stroke="#98999C" fill="none" stroke-width="2" stroke-linecap="round" stroke-linejoin="round"/></symbol><symbol id="cart" viewBox="0 0 24 24"><path d="M8.887 21.333a1.5 1.5 0 1 0 0-3 1.5 1.5 0 0 0 0 3ZM18 21.333a1.5 1.5 0 1 0 0-3 1.5 1.5 0 0 0 0 3ZM22.053 3.58a.667.667 0 0 0-.513-.247H7.66l.433 1.334h12.574l-1.78 8h-10L5.84 3.02a.667.667 0 0 0-.44-.433l-2.733-.84a.67.67 0 1 0-.394 1.28l2.394.733 3.06 9.667-1.094.893-.086.087a1.774 1.774 0 0 0-.054 2.26A1.832 1.832 0 0 0 8 17.333h11.127a.667.667 0 0 0 0-1.333H7.893a.447.447 0 0 1-.373-.667L9.127 14H19.42a.667.667 0 0 0 .667-.52L22.2 4.147a.667.667 0 0 0-.147-.567Z"/></symbol><symbol id="clock" viewBox="0 0 18 18">
<path d="M9 0C4.05 0 0 4.05 0 9C0 13.95 4.05 18 9 18C13.95 18 18 13.95 18 9C18 4.05 13.95 0 9 0ZM11.7 9.9H9C8.46 9.9 8.1 9.54 8.1 9V4.5C8.1 3.96 8.46 3.6 9 3.6C9.54 3.6 9.9 3.96 9.9 4.5V8.1H11.7C12.24 8.1 12.6 8.46 12.6 9C12.6 9.54 12.24 9.9 11.7 9.9Z" fill="#70737C"/>
</symbol><symbol id="facebook" viewBox="0 0 20 20"><path fill-rule="evenodd" clip-rule="evenodd" d="M0 10.056C0 15.028 3.61 19.162 8.333 20v-7.223h-2.5V10h2.5V7.777c0-2.5 1.611-3.888 3.89-3.888.721 0 1.5.111 2.221.222v2.556h-1.277c-1.223 0-1.5.61-1.5 1.389V10h2.666l-.444 2.777h-2.222V20C16.389 19.162 20 15.028 20 10.056 20 4.525 15.5 0 10 0S0 4.525 0 10.056Z"/></symbol><symbol id="fire" viewBox="0 0 15 19"><path d="M13.92 8.362a7.176 7.176 0 0 0-1.711-2.38l-.601-.55a.167.167 0 0 0-.269.067l-.268.77c-.167.484-.475.977-.91 1.463a.13.13 0 0 1-.085.041.114.114 0 0 1-.09-.03.121.121 0 0 1-.04-.1c.076-1.243-.296-2.645-1.11-4.172C8.164 2.203 7.229 1.214 6.06.525L5.206.023a.165.165 0 0 0-.248.15l.046.992c.03.677-.048 1.276-.234 1.774a5.89 5.89 0 0 1-.97 1.683c-.29.353-.62.672-.981.952A7.281 7.281 0 0 0 .748 8.083a7.181 7.181 0 0 0-.176 5.995 7.256 7.256 0 0 0 3.87 3.833 7.266 7.266 0 0 0 2.827.566c.981 0 1.931-.19 2.827-.564a7.199 7.199 0 0 0 2.311-1.543 7.149 7.149 0 0 0 2.131-5.099 7.107 7.107 0 0 0-.617-2.91Z" fill="#E55C5C"/></symbol><symbol id="heart" viewBox="0 0 24 24"><path d="M19.657 5.8a6.173 6.173 0 0 0-7.929-.613 6.155 6.155 0 0 0-8.253.902 5.959 5.959 0 0 0-1.47 4.155 5.971 5.971 0 0 0 1.795 4.03l6.034 5.96a2.72 2.72 0 0 0 1.894.766 2.72 2.72 0 0 0 1.895-.765l6.034-5.962a5.968 5.968 0 0 0 1.772-4.236c0-1.587-.637-3.11-1.772-4.236Zm-1.37 7.15-6.034 5.952a.738.738 0 0 1-.525.216.746.746 0 0 1-.524-.216l-6.034-5.98a4.083 4.083 0 0 1-1.19-2.875c0-1.075.428-2.107 1.19-2.876a4.179 4.179 0 0 1 2.915-1.18c1.09 0 2.138.424 2.915 1.18a.972.972 0 0 0 .69.284.983.983 0 0 0 .69-.284 4.179 4.179 0 0 1 2.914-1.18c1.092 0 2.139.424 2.915 1.18a4.084 4.084 0 0 1 1.228 2.86 4.08 4.08 0 0 1-1.15 2.89v.03Z"/></symbol><symbol id="instagram" viewBox="0 0 20 20"><path d="M10 6.876A3.13 3.13 0 0 0 6.876 10 3.13 3.13 0 0 0 10 13.124 3.13 3.13 0 0 0 13.124 10 3.13 3.13 0 0 0 10 6.876ZM19.37 10c0-1.294.012-2.576-.06-3.867-.073-1.5-.415-2.831-1.512-3.928-1.1-1.1-2.428-1.44-3.928-1.512C12.575.62 11.293.632 10.002.632 8.71.632 7.427.62 6.135.693c-1.5.073-2.831.415-3.928 1.512C1.107 3.304.768 4.633.695 6.133.623 7.427.635 8.709.635 10s-.012 2.576.06 3.867c.073 1.5.415 2.831 1.512 3.928 1.1 1.1 2.428 1.44 3.928 1.512 1.294.073 2.576.061 3.867.061 1.294 0 2.576.012 3.867-.061 1.5-.073 2.832-.415 3.929-1.512 1.099-1.099 1.439-2.428 1.511-3.928.075-1.291.061-2.573.061-3.867ZM10 14.807A4.8 4.8 0 0 1 5.193 10 4.8 4.8 0 0 1 10 5.193 4.8 4.8 0 0 1 14.807 10 4.8 4.8 0 0 1 10 14.807Zm5.004-8.688a1.121 1.121 0 0 1-1.123-1.123c0-.621.502-1.123 1.123-1.123a1.121 1.121 0 0 1 .43 2.16 1.122 1.122 0 0 1-.43.086Z"/></symbol><symbol id="lens" viewBox="0 0 16 16"><path d="m15.775 14.651-2.966-2.944a7.205 7.205 0 0 0-.811-9.869 7.192 7.192 0 0 0-9.89.271 7.204 7.204 0 0 0 4.498 12.27 7.192 7.192 0 0 0 5.092-1.56l2.942 2.944a.8.8 0 0 0 1.135 0 .8.8 0 0 0 0-1.112ZM7.212 12.82a5.594 5.594 0 0 1-5.17-3.458A5.605 5.605 0 0 1 6.12 1.725a5.593 5.593 0 0 1 5.745 2.381 5.604 5.604 0 0 1-.696 7.072 5.595 5.595 0 0 1-3.958 1.64Z" fill="#70737C"/></symbol><symbol id="logo" viewBox="0 0 97 21"><path d="m0 18.274 2.34-2.61c1.172 1.305 2.76 1.74 4.476 1.74 2.134 0 3.279-.9 3.279-2.553 0-.725-.182-1.334-.572-1.74-.365-.377-.781-.58-1.64-.725l-2.237-.348c-1.587-.261-2.759-.812-3.59-1.711C1.17 9.34.727 8.005.727 6.266.728 2.58 3.174 0 7.181 0c2.55 0 4.397.696 5.984 2.408l-2.29 2.523C9.705 3.683 8.3 3.51 7.076 3.51c-1.925 0-2.862 1.19-2.862 2.61 0 .522.157 1.073.547 1.479.365.378.963.696 1.717.813l2.186.348c1.69.261 2.758.783 3.538 1.595.99 1.044 1.431 2.552 1.431 4.38 0 4.003-2.992 6.265-6.869 6.265-2.81 0-4.943-.667-6.764-2.726ZM17.042 20.826V.173h12.202v3.598h-8.586v4.844h7.312v3.596h-7.312v5.018h8.586v3.597H17.042ZM32.784 20.826V.173h12.202v3.598H36.4v4.844h7.312v3.596H36.4v5.018h8.586v3.597H32.784ZM75.508 20.826 71.89 12.59h-2.602v8.237h-3.616V.173h7.259c3.772 0 6.01 2.873 6.01 6.324 0 2.9-1.587 4.7-3.383 5.425l4.138 8.904h-4.19Zm-2.81-17.055h-3.41v5.453h3.41c1.586 0 2.628-1.131 2.628-2.727 0-1.595-1.042-2.726-2.629-2.726ZM93.227 20.826l-1.093-3.655h-6.582l-1.12 3.655H80.66L87.399.173h2.835L97 20.826h-3.773Zm-4.32-14.56-2.341 7.512h4.605l-2.263-7.513ZM60.104 2.147C58.881.784 57.137.173 55.212.173h-6.686v20.653h4.054c1.396-4.01 3.51-8.386 2.07-14.868 1.919 6.76.02 11.056-1.32 14.868h1.882c1.925 0 3.669-.609 4.892-1.972 2.082-2.321 1.873-5.338 1.873-8.441 0-3.103.209-5.946-1.873-8.266Zm-5.58 16.24c1.037-2.596 2.128-6.758.576-11.862 2.076 2.601 2.398 6.445 1.958 8.199 3.758-4.211-.104-9.13-3.958-11.227 2.457 4.608 2.087 8.95.179 14.172-5.995-4.198 1.122-9.547-.895-15.303 8.705 3.732 10.257 12.125 2.14 16.02Z" fill="#359740"/></symbol><symbol id="navbtn" viewBox="0 0 16 14"><path d="M9 .25a.75.75 0 0 0 0 1.5h6a.75.75 0 0 0 0-1.5H9ZM1 6.25a.75.75 0 0 0 0 1.5h14a.75.75 0 0 0 0-1.5H1ZM5 12.25a.75.75 0 0 0 0 1.5h10a.75.75 0 0 0 0-1.5H5Z"/></symbol><symbol id="slogan-leef-1" viewBox="0 0 112 97"><path d="M117.162 127.234c-1.443 3.791-2.75 7.515-4.368 11.244-1.251 2.895-.776 6.039-2.179 8.829-1.812 3.601-3.745 2.524-7.72 1.839-4.775-.812-9.476-1.86-14.22-2.668-6.387-1.087-12.76-3.709-18.042-7.485-10.399-7.429-18.042-17.746-23.26-29.38-9.734-21.73-10.315-49.296-3.26-71.933 1.557-5.029 3.53-12.373 1.96-17.623-1.102-3.707-5.085-8.832 1.401-6.314 3.829 1.496 5.902 4.555 8.834 7.07 2.973 2.537 6.674 3.886 10.276 5.435 3.42 1.438 6.685 3.22 9.99 4.871 21.542 10.63 32.263 35.332 38.462 57.125 3.657 12.798 6.989 26.111 2.126 38.99Z" fill="#78AF02"/><path opacity=".42" d="M93.372 147.37a161.546 161.546 0 0 0-4.686-.874c-6.387-1.088-12.76-3.71-18.042-7.485-10.399-7.429-18.042-17.746-23.26-29.381-9.746-21.748-10.327-49.314-3.272-71.95 1.557-5.029 3.53-12.373 1.96-17.623-1.102-3.707-5.085-8.832 1.401-6.315 2.917 1.13 4.827 3.197 6.855 5.208 2.7 5.702 2.737 11.964 4.876 18.109.882 2.518 1.952 4.853 2.614 7.471.162.65.687 7.994.401 7.772-3.659-2.956-5.405-6.794-7.07-11.084-1.432-3.688-2.838-10.368-6.387-12.559-6.592 6.53 2.824 17.693 5.111 23.786-3.372-2.997-4.471-7.759-7.572-10.972.479 2.772-1.948 5.906-1.744 9 .223 3.16 1.712 5.494 4.143 7.514 3.814 3.217 7.477 6.065 11.62 8.317 4.398 2.39 9.983 2.666 12.86 7.297-4.291 2.193-11.856-3.733-15.123-5.935-1.87-1.252-15.596-11.841-15.201-12.484-7.43 12.214 9.621 24.597 18.797 27.956 3.06 1.11 6.234 1.93 9.328 2.936 1.599.521 6.595 3.47 8.015 3.166-10.695 2.329-22.358-3.853-30.237-10.534-1.834-1.54-3.577-3.329-5.686-4.205-7.681 8.18 5.441 15.742 11.356 18.498 4.857 2.256 9.458 5.583 14.612 7.132 3.696 1.115 7.816.304 11.548 1.131-5.228 1.792-11.994.574-17.15-1.053-6.181-1.966-11.392-7.344-17.792-8.526-3.034 3.66 3.823 12.998 6.342 15.562 4.88 4.977 13.213 7.579 19.6 9.955 3.61 1.332 7.697.966 11.491 1.012 2.26.034 8.421 1.857 10.2 1.199-4.07 1.488-9.425 1.052-13.673.505-2.716-.35-5.439-.746-8.1-1.396-2.361-.596-5.326-2.666-7.62-2.862-6.303-.513-4.25 4.901-.783 7.202 7.691 5.047 15.611 7.963 24.557 9.403-4.449-.724-8.494-.07-13.234-1.591-4.723-1.533-8.514-4.792-13.636-5.574-1.622 5.39 15.884 13.353 19.434 15.016 4.125 1.922 8.487 2.785 12.991 2.944 2.363.068 6.916-.991 9.842-.604.818.116 1.493.331 1.95.723.457.393-8.702 3.759-9.766 3.893-.622.09-1.261.192-1.87.3Z" fill="#A3CE24"/><path opacity=".42" d="M70.644 139.011c-10.399-7.429-18.042-17.746-23.26-29.381-9.746-21.748-10.327-49.314-3.272-71.95 1.557-5.029 3.53-12.373 1.96-17.623-1.102-3.707-5.085-8.832 1.401-6.315 3.672 1.422 5.717 4.29 8.461 6.723 1.997 3.139 3.42 6.36 3.351 10.275a16.65 16.65 0 0 1-.042.924c-.46 6.607-4.414 3.567-8.613 3.696-6.631.188-2.031 8.095.57 11.233 2.173 2.595 7.592 4.828 8.097 8.319-5.53 1.659-9.752-4.379-13.712-7.39-4.796 8.359 8.75 15.81 15.37 17.84 7.954 2.472.793 4.738-3.902 4.607-3.029-.08-5.414-.71-8.194-1.91-1.989-.854-4.657-2.762-6.641-2.778 2.942 5.56 6.641 9.935 12.108 13.713 2.826 1.984 6.824 4.52 10.14 5.846 2.942 1.166 6.853 1 8.97 3.554-1.925 3.364-11.446 1.06-14.37.146-7.043-2.183-11.641-5.355-17.4-9.667-.93 2.751 1.655 7.19 3.286 9.425 2.37 3.22 6.378 4.671 9.795 6.56 3.992 2.224 8.197 4.564 12.619 5.701 2.686.685 9.93-.06 11.532 1.905-2.628 2.958-9.871 3.098-13.562 3.163-6.573.121-13.48-2.814-18.377-7.173-.764 2.346 3.516 7.37 5.061 9.138 7.991 9.076 20.312 10.828 31.965 11.202 2.855.095 6.518-.767 3.533 2.964-1.639 2.034-4.317 2.685-6.916 2.807-7.843.452-14.788-4.431-22.058-6.298 2.87 2.767 6.394 6.134 10.064 7.819 5.525 4.58 14.56 3.458 19.834 7.792-4.87 1.7-9.628.797-14.254-1.277-3.047-1.356-6.278-5.135-9.635-5.46-3.43-.353-3.523 1.633-1.591 4.184 3.242 4.325 10.051 5.302 14.484 7.932 2.006 1.184 3.128.904 1.286 3.289a3.203 3.203 0 0 1-.69.637 40.915 40.915 0 0 1-7.398-4.172Z" fill="#A3CE24"/><path d="M88.686 146.496c-6.387-1.088-12.76-3.71-18.042-7.485-.924-.648-1.8-1.38-2.671-2.065 1.129.716 2.233 1.396 3.243 1.904 5.248 2.667 13.54 5.588 19.442 3.933a8.701 8.701 0 0 0 3.557-1.998c3.438-3.231-1.624-6.502-4.278-7.709-4.341-1.93-9.51-2.022-14.113-3.006-5.574-1.205-14.238-5.419-18.662-11.027 7.786 6.508 28.916 16.241 35.73 5.98.32-.486.402-1.2-.115-1.604-5.161-3.754-11.325-3.233-17.358-4.645-5.767-1.333-20.885-8.587-22.884-10.592 8.164 4.062 18.936 6.916 27.235 5.569 4.976-.827 3.845-6.961.86-9.439-4.1-3.439-10.285-2.798-15.162-4.855-5.559-2.32-10.906-4.866-16.02-8.022-1.358-.819-2.542-1.916-3.797-2.965-2.334-1.957-4.524-4.276-4.777-7.442 2.585 5.045 7.885 7.598 12.706 9.878 5.268 2.47 10.518 4.951 16.53 3.72 2.078-.418 8.372-1.582 7.564-4.94-.698-2.936-8.12-4.567-10.585-5.275-5.41-1.501-9.75-3.959-14.567-6.689-4.297-2.434-7.167-5.201-9.377-9.744 4.752 5.513 11.24 8.791 18.169 10.66 3.302.889 11.159 1.48 9.925-4.346-1.005-4.853-8.136-6.028-11.956-7.399-5.739-2.01-10.694-7.513-14.568-11.951 3.01 1.644 5.446 4.24 8.7 5.478 1.703.632 5.2 1.99 6.9 1.598 3.777-.888.592-3.2-.956-4.518-4.405-3.727-7.424-7.654-10.307-12.597-2.35-4.025-2.966-8.017-2.773-12.623-.02 5.119 2.946 8.556 5.808 12.408 2.128 2.836 4.658 6.893 8.9 6.181.944-.156 1.432-.968 2.285-.877 1.525.15 2.252 1.803 3.017 2.903.715 1.029 1.638 1.676 2.412 2.638 1.935 2.444.652 5.52 1.096 8.316.508 3.041 2.145 5.85 3.397 8.637 1.56 3.494 3.085 7.013 4.614 10.502 3.004 6.858 5.967 13.772 9 20.636 4.026 9.2 7.873 18.446 11.38 27.848 2.485 6.641 4.539 10.581 10.097 14.717.505.386 1.264.91 2.11 1.559-1.717 2.982-3.671 2.025-7.436 1.379-4.828-.776-9.529-1.824-14.273-2.631Z" fill="#6D9E02"/><path d="M95.463 135.234c-3.005-4.437-5.424-9.281-8.08-13.934-5.838-10.257-12.397-20.906-16.198-32.13-3.915-11.54-7.909-22.816-10.966-34.636-2.851-11.069-5.508-23.562-10.816-33.66-1.12-2.143-3.113-4.442-4.811-6.129a5.034 5.034 0 0 0-.676-.556c-.119-1.155.67-1.572 3.587-.441 3.83 1.496 5.902 4.555 8.834 7.07 2.973 2.537 6.674 3.886 10.276 5.435 3.42 1.438 6.685 3.22 9.99 4.871 21.542 10.63 32.263 35.332 38.462 57.125 3.64 12.81 6.972 26.123 2.096 38.984-1.443 3.792-2.75 7.515-4.368 11.245-1.251 2.895-.776 6.038-2.179 8.828-.75 1.495-1.523 2.164-2.465 2.398-4.756-4.194-8.873-8.831-12.686-14.47Z" fill="#61A304"/><path opacity=".6" d="M49.373 20.868c-1.12-2.142-3.113-4.441-4.811-6.128a5.04 5.04 0 0 0-.676-.557c-.119-1.154.67-1.571 3.587-.44.278.096.532.235.774.356a1.184 1.184 0 0 0-.379.553c-.367 1.176 1.294 3.073 1.923 3.978 1.03 1.52 1.51 3.082 2.106 4.772 2.141 5.959 3.602 12.074 5.755 18.05 1.115 3.119 2.323 14.094 5.51 15.615 2.892 1.358 2.695-2.636 2.838-5.156.165-2.904-.771-4.858-1.112-7.62-.351-2.966-.086-5.992-.85-8.908-.924-3.489-2.322-6.333-3.661-9.585C63.8 28.68 64.7 35.58 65.634 39.799c1.32 5.95 1.844 11.664 1.306 17.668-.415 4.893-.924 8.93 1.053 13.555.327.773.62 2.596 1.677 2.413 1.446-.267 1.677-3.19 2.226-4.256 1.175-2.133 2.458-3.998 3.39-6.33 1.635-4.082 2.646-8.495 4.004-12.675 1.165-3.625 1.612-8.093.927-11.88 1.58 8.823 1.15 16.725-2.591 25.008-1.208 2.655-1.972 5.606-3.306 8.191-1.376 2.64-2.72 5.363-2.39 8.45.32 2.882 1.768 5.875 2.84 8.63 1.458 3.801 3.09 3.009 5.131.038 3.504-5.066 4.918-11.021 7.964-16.217 2.78-4.746 3.134-11.202 4.41-16.483 1.068-4.294 1.14-8.318.645-12.21l.313.336c.116.13.232.259.343.419 3.161 8.485.326 17.77-1.584 26.57-.318.905-.654 1.823-.99 2.74-2.141 5.514-4.4 11.084-6.107 16.768-1.194 3.961-3.156 7.877-.434 11.643 1.022 1.394 2.727 3.129 4.535 2.399.839-.346 1.747-1.424 2.303-2.1 5.206-6.328 7.476-14.799 10.569-22.237 1.941-4.665 3.707-9.47 5.086-14.375.037.053.056.119.076.184.012.018.024.036.019.066 1.233 5.826-.963 11.562-2.697 17.056-.898 2.834-1.653 5.99-2.931 8.693-1.162 2.492-2.205 5.006-3.337 7.503-1.673 3.688-3.412 7.054-4.692 10.891-1.695 5.02-3.132 13.516 2.658 16.623 3.78 2.031 8.403-4.34 10.401-6.728 4.564-5.435 7.011-13.423 9.135-20.135a124.2 124.2 0 0 0 1.332-4.557c.196.811.404 1.64.587 2.434.457 1.945-.713 4.994-.98 6.995-.378 2.789-2.294 5.331-3.388 7.959-2.154 5.155-4.876 11.65-8.722 15.77-1.673 1.795-6.786 8.295-1.425 9.042 5.498.757 11.008-5.361 13.891-9.996-1.368 3.635-2.653 7.238-4.201 10.84-1.251 2.895-.777 6.038-2.179 8.829-.751 1.495-1.523 2.163-2.465 2.397-4.177-3.701-7.84-7.76-11.258-12.489a321.929 321.929 0 0 1-8.83-14.676l-.708-1.245c-.316-.569-.65-1.126-.968-1.695-1.043-1.88-2.116-3.765-3.142-5.657-3.777-6.874-7.863-13.927-10.792-21.285a67.79 67.79 0 0 1-1.296-3.493c-3.915-11.54-7.91-22.815-10.967-34.635-1.645-6.381-3.11-13.336-5.324-19.928-1.381-4.828-3.132-9.505-5.378-13.759Z" fill="#468E02"/><path opacity=".31" d="M105.927 133.066c-1.155-2.722 4.736-10.526 6.011-12.78 5.027-8.782 7.486-16.753 3.161-26.535-1.328-2.971-2.663-5.043-5.34-2.157-3.352 3.62-5.857 13.911-7.181 18.593-.639 2.26-3.535 15.245-7.764 10.711-2.265-2.425.902-9.757 1.607-12.378 1.65-6.067 3.536-11.797 6.55-17.418 1.845-3.44 6.326-8.843 6.387-12.806.086-4.874-7.757-14.342-10.758-6.469-2.162 5.634-4.013 11.262-6.454 16.8-.82 1.885-5.181 13.783-7.255 10.383-1.442-2.34 1.69-9.305 2.295-11.804 1.567-6.378 3.387-13.3 5.92-19.348 1.58-3.783 4.665-9.794.79-13.363-2.929-2.7-4.855.321-6.307 2.699-3.636 5.974-4.295 16.535-10.174 20.91-4.728 3.496-2.975-2.879-2.292-5.985.97-4.436 2.602-8.675 4.059-12.977 1.16-3.516 4.931-13.083-.87-14.655-1.879 3.015-2.405 14.221-7.58 14.082-3.059-.085-.865-6.583-.832-8.316.138-5.252-.7-16.642-5.809-19.564-4.892 3.978 3.319 13.218-1.176 17.578-3.395-3.22-4.44-7.94-5.858-12.216-1.299-3.913-3.587-8.19-6.136-11.97-.5-1.1-1.006-2.169-1.56-3.23-1.12-2.143-3.113-4.442-4.812-6.13a5.041 5.041 0 0 0-.676-.556c-.118-1.154.671-1.57 3.588-.44 3.829 1.496 5.902 4.554 8.833 7.07 2.974 2.537 6.674 3.886 10.276 5.434 3.42 1.439 6.686 3.222 9.99 4.872 21.543 10.63 32.263 35.332 38.462 57.125 3.061 10.765 5.889 21.877 3.817 32.789-.792 1.208-2.09 1.953-4.361 1.715.335 2.715-6.693 14.676-8.551 10.336Z" fill="#A3CE24"/><path d="M54.628 33.844a26.538 26.538 0 0 0-.4-1.22c2.996 4.653 4.58 12.156 6.127 17.185 1.285 4.158 1.237 10.98 3.627 14.608 2.034-3.282 1.919-9.885 1.64-13.77 1.593 4.603 1.246 9.29.745 14.06-.447 4.467-.974 9.464 2.58 12.836 3.9-1.922 4.431-8.237 6.687-11.541-.559 6.124-4.89 13.712-5.046 16.136-.233 3.451 5.749 13.686 8.768 15.798 1.238-1.702 1.039-4.563 1.676-6.638.648-2.134 1.784-4.134 2.252-6.3.129 5.146-1.31 9.171-2.09 14.107-.828 5.206 1.877 10.273 4.513 14.519 6.585-3.813 7.121-13.605 12.538-18.343.49 4-3.263 8.898-4.8 12.44-1.63 3.789-3.265 7.531-3.002 11.847.208 3.329 1.424 7.956 4.971 9.122 3.704 1.241 9.1-3.034 11.424-5.597-1.746 4.266-8.802 7.591-8.223 12.74.457 4.103 3.72 5.808 7.622 5.175 3.519-.578 5.576-3.297 7.794-5.785-.429 1.087-.845 2.192-1.321 3.286-1.251 2.895-.777 6.039-2.179 8.829-.751 1.495-1.523 2.163-2.465 2.397-2.812-2.493-5.387-5.176-7.816-8.066-5.364-9.27-11.488-18.196-17.043-27.439-4.62-8.05-9.193-16.37-12.117-25.047-3.916-11.54-7.91-22.815-10.967-34.635-1.639-6.333-3.226-13.123-5.26-19.683-.012-.36-.12-.705-.235-1.02Z" fill="#4A8209"/><path opacity=".24" d="M45.451 95.187c.746 4.822 2.031 9.586 4.304 14.295 6.538 13.611 24.863 32.634 41.927 28.906-.189-5.42-11.31-13.321-14.689-17.577-8.625-10.897-13.895-24.311-18.01-37.502-3.898-12.499-1.161-31.24-12.163-40.407-6.616 4.413-3.936 15.312-3.275 21.562 1.035 10.463.34 20.708 1.906 30.723Z" fill="#CCEA86"/><path opacity=".2" d="M95.69 57.984a4.415 4.415 0 0 1-.702-.328c-.048.007-.078.002-.126.009.28.174.54.283.828.32Z" fill="#CCEA86"/><path opacity=".2" d="M104.819 69.531c-1.608-1.67-3.79-2.312-4.327-4.939-.337-1.66.741-3.25-.238-4.886-1.015-1.688-3.576-2.382-5.266-2.05-1.772-1.11-.782-3.245-1.762-4.958-.763-1.364-2.72-2.136-3.633-3.448-1.992-2.905-.837-7.338-2.883-9.942-2.217-2.774-6.146-1.386-8.67-2.632-2.251-1.119-2.525-3.823-4.624-5.1-2.559-1.563-4.89.346-7.041-.895-3.364-1.925-5.674-4.53-9.388-5.974-2.234-.868-4.272-1.189-6.371-1.256-.401-.88-.802-1.758-1.255-2.6-1.12-2.143-3.113-4.442-4.812-6.13a5.041 5.041 0 0 0-.676-.556c-.118-1.154.671-1.57 3.588-.44 3.829 1.496 5.902 4.554 8.833 7.07 2.974 2.537 6.674 3.886 10.276 5.434 3.42 1.439 6.686 3.222 9.99 4.872 21.543 10.63 32.263 35.332 38.462 57.125.205.673.38 1.341.567 2.027-1.746-5.049-4.307-9.794-6.884-14.45-1.163-2.165-2.21-4.542-3.886-6.272Z" fill="#CCEA86"/><path opacity=".25" d="M49.5 99.424c.913 2.524 2.283 4.571 3.337 6.996 1.097 2.526.388 5.518 1.93 7.814 1.265 1.858 3.796 2.888 5.46 4.258 2.333 1.957 4.225 4.378 6.584 6.37 2.248 1.91 4.472 3.785 6.89 5.447 1.354.927 3.592 3.503 5.11 3.947 1.254.365 1.97.525 2.767-1.055 1.647-3.196-2.416-6.846-4.384-8.504-3.698-3.087-8.48-4.895-11.166-9.026-2.156-3.291-2.994-7.261-3.857-11.002-1.19-5.12-2.421-10.526-3.934-15.58-1.41-4.755-4.314-8.025-4.964-13.125-.284-2.302-.962-3.883-1.439-5.894-.54-2.255-1.119-24.402-4.716-22.613-2.963 1.454-.73 14.321-.685 17.263.12 6.495 1.3 13.305.609 19.731-.57 5.238.691 10.044 2.459 14.973Z" fill="#CCEA86"/></symbol><symbol id="slogan-leef-2" viewBox="0 0 64 57"><path d="M52.72 38.852c-.035 1.547-.03 3.051-.136 4.597-.08 1.2.49 2.27.342 3.45-.192 1.525-1.024 1.385-2.54 1.645-1.819.317-3.642.54-5.45.854a16.89 16.89 0 0 1-7.436-.39c-4.684-1.344-8.745-4.077-12.103-7.593-6.267-6.568-9.989-16.4-10.339-25.432-.081-2.006-.308-4.896-1.541-6.583-.869-1.191-2.953-2.525-.302-2.447 1.567.05 2.701.885 4.075 1.415 1.392.532 2.894.546 4.386.643 1.412.08 2.812.305 4.21.477 9.096 1.074 16.096 8.584 21.101 15.625 2.945 4.132 5.84 8.492 5.733 13.74Z" fill="#78AF02"/><path opacity=".42" d="M46.739 49.12c-.6.086-1.204.18-1.795.283a16.89 16.89 0 0 1-7.437-.39c-4.684-1.344-8.745-4.078-12.103-7.593-6.274-6.573-9.996-16.404-10.346-25.437-.081-2.006-.308-4.896-1.541-6.583-.869-1.19-2.953-2.525-.302-2.447 1.193.034 2.142.534 3.128.998 1.696 1.704 2.508 3.95 4.06 5.885.637.793 1.319 1.495 1.89 2.352.142.213 1.267 2.785 1.136 2.741-1.692-.595-2.809-1.752-3.954-3.081-.984-1.143-2.34-3.364-3.895-3.7-1.537 3.187 3.27 5.999 4.868 7.896-1.594-.647-2.596-2.218-4.12-2.977.526.935.053 2.37.52 3.456.484 1.108 1.316 1.756 2.447 2.172 1.78.67 3.46 1.227 5.236 1.508 1.885.298 3.927-.315 5.55.983-1.262 1.335-4.735.17-6.19-.205-.832-.212-7.113-2.268-7.053-2.55-1.113 5.337 6.592 7.613 10.317 7.65 1.241.01 2.486-.1 3.726-.133.641-.017 2.812.406 3.284.116-3.547 2.2-8.526 1.465-12.208.069-.855-.32-1.71-.74-2.579-.787-1.718 3.918 3.961 4.963 6.438 5.2 2.033.191 4.11.8 6.16.7 1.47-.07 2.847-.887 4.293-1.065-1.65 1.31-4.236 1.735-6.296 1.807-2.472.082-5.03-1.187-7.48-.796-.624 1.702 3.03 4.183 4.262 4.784 2.387 1.166 5.714 1.04 8.311 1.079 1.467.019 2.89-.634 4.259-1.1.816-.277 3.262-.407 3.818-.87-1.273 1.053-3.253 1.58-4.85 1.924-1.02.22-2.049.425-3.088.53-.924.087-2.253-.279-3.102-.056-2.33.618-.903 2.302.636 2.687 3.407.834 6.624.872 10.023.249-1.691.307-3.062 1.058-4.959 1.115-1.892.051-3.67-.637-5.61-.265.104 2.144 7.41 2.774 8.897 2.919 1.727.165 3.405-.081 5.043-.598.858-.277 2.359-1.237 3.46-1.471.308-.063.578-.072.793.011.214.083-2.648 2.46-3.013 2.644-.212.111-.429.23-.634.346Z" fill="#A3CE24"/><path opacity=".42" d="M37.507 49.013c-4.684-1.344-8.745-4.078-12.103-7.593-6.274-6.573-9.996-16.404-10.346-25.437-.081-2.006-.308-4.896-1.541-6.582-.869-1.192-2.953-2.526-.302-2.448 1.5.043 2.601.813 3.898 1.338 1.117.873 2.039 1.849 2.513 3.264.035.107.072.225.103.338.677 2.433-1.132 1.844-2.624 2.426-2.359.912.302 3.167 1.637 3.963 1.11.656 3.343.768 3.969 1.957-1.776 1.302-4.062-.33-5.869-.907-.658 3.614 5.16 4.566 7.797 4.451 3.173-.125.889 1.602-.815 2.153-1.099.358-2.036.435-3.188.358-.823-.053-2.026-.399-2.74-.152 1.765 1.623 3.652 2.724 6.098 3.385 1.268.352 3.028.754 4.389.808 1.205.044 2.59-.514 3.676.134-.263 1.454-3.978 1.84-5.145 1.884-2.809.113-4.866-.44-7.485-1.256.017 1.107 1.512 2.372 2.383 2.967 1.262.856 2.887.866 4.355 1.11 1.718.29 3.527.595 5.261.44 1.053-.096 3.56-1.287 4.387-.786-.568 1.398-3.153 2.371-4.47 2.865-2.347.882-5.203.707-7.518-.235.024.94 2.203 2.2 2.983 2.639 4.028 2.242 8.679 1.302 12.914-.049 1.038-.33 2.244-1.107 1.647.615-.33.94-1.209 1.515-2.127 1.89-2.76 1.162-5.879.292-8.73.548 1.385.629 3.08 1.39 4.614 1.527 2.569.941 5.672-.613 8.12.272-1.533 1.232-3.358 1.514-5.285 1.358-1.267-.1-2.91-1.045-4.158-.734-1.277.31-1.057 1.035-.038 1.706 1.716 1.141 4.287.624 6.215 1.004.872.17 1.24-.073.882 1.018a1.225 1.225 0 0 1-.167.317 15.586 15.586 0 0 1-3.19-.556Z" fill="#A3CE24"/><path opacity=".42" d="M34.945 44.557c.063.026.124.04.188.064.04 0 .09.015.132.014a.912.912 0 0 0-.32-.078Z" fill="#A3CE24"/><path d="M44.944 49.403a16.889 16.889 0 0 1-7.437-.39c-.415-.115-.823-.267-1.223-.402.497.114.98.217 1.408.27 2.226.29 5.577.283 7.487-1.063a3.315 3.315 0 0 0 1.024-1.172c.823-1.6-1.413-2.13-2.52-2.225-1.806-.14-3.675.486-5.455.719-2.156.277-5.806-.133-8.11-1.584 3.626 1.346 12.46 2.15 13.6-2.405.053-.215-.008-.483-.246-.562-2.333-.69-4.48.282-6.829.543-2.242.256-8.599-.423-9.573-.89 3.452.42 7.686.073 10.496-1.469 1.683-.932.495-2.991-.893-3.501-1.912-.713-4.053.305-6.067.187-2.293-.125-4.54-.358-6.78-.84-.591-.121-1.157-.365-1.742-.582-1.087-.405-2.17-.96-2.664-2.065 1.571 1.483 3.801 1.725 5.824 1.93 2.208.216 4.41.439 6.414-.77.693-.415 2.807-1.636 2.088-2.74-.625-.965-3.5-.605-4.475-.545-2.136.15-4.008-.18-6.087-.547-1.855-.328-3.239-.956-4.612-2.307 2.41 1.375 5.16 1.727 7.888 1.515 1.3-.101 4.198-.89 3.012-2.827-.98-1.616-3.692-1.129-5.239-1.134-2.318.008-4.8-1.337-6.758-2.438 1.291.207 2.497.83 3.825.86.692.01 2.122.052 2.683-.306 1.244-.8-.196-1.225-.92-1.501-2.058-.778-3.643-1.805-5.309-3.213-1.357-1.147-2.087-2.503-2.605-4.183.645 1.842 2.149 2.7 3.668 3.719 1.127.748 2.553 1.883 3.986 1.087.32-.177.391-.531.71-.607.566-.14 1.038.36 1.453.659.388.278.803.393 1.203.64 1.007.632.938 1.9 1.454 2.849.57 1.028 1.516 1.829 2.322 2.67 1.005 1.057 2.002 2.127 2.996 3.186 1.953 2.081 3.899 4.188 5.864 6.268 2.619 2.793 5.18 5.625 7.639 8.556 1.738 2.07 2.979 3.224 5.503 4.002.23.074.57.166.957.291-.237 1.29-1.061 1.196-2.496 1.443-1.834.337-3.657.56-5.465.874Z" fill="#6D9E02"/><path d="M45.944 44.493c-1.646-1.212-3.132-2.644-4.68-3.978-3.405-2.941-7.119-5.932-9.915-9.48-2.878-3.648-5.75-7.19-8.355-11.049-2.435-3.614-4.982-7.764-8.176-10.716-.676-.627-1.685-1.2-2.51-1.59a1.922 1.922 0 0 0-.314-.113c-.19-.4.04-.65 1.233-.616 1.566.05 2.701.885 4.075 1.415 1.392.533 2.893.546 4.385.643 1.412.081 2.813.306 4.21.477C34.994 10.56 41.995 18.07 47 25.111c2.94 4.14 5.834 8.498 5.721 13.741-.035 1.547-.03 3.051-.136 4.597-.08 1.2.49 2.27.342 3.45-.079.633-.271.972-.58 1.176a28.433 28.433 0 0 1-6.402-3.582Z" fill="#61A304"/><path opacity=".6" d="M14.806 9.271c-.675-.627-1.684-1.199-2.51-1.589a1.926 1.926 0 0 0-.314-.113c-.19-.4.041-.65 1.233-.616.112 0 .222.017.324.03a.451.451 0 0 0-.066.246c.018.47.857.94 1.198 1.185.564.415.936.915 1.365 1.446 1.529 1.869 2.833 3.88 4.369 5.753.798.978 2.63 4.768 3.97 4.908 1.212.12.632-1.29.362-2.214-.31-1.065-.896-1.647-1.37-2.596-.505-1.021-.795-2.143-1.441-3.093-.777-1.136-1.642-1.98-2.537-2.978 1.597.6 2.8 2.964 3.673 4.361 1.233 1.97 2.15 3.957 2.721 6.183.475 1.81.806 3.326 2.106 4.736.216.236.554.854.91.653.486-.28.196-1.36.258-1.813.15-.916.373-1.75.411-2.706.067-1.675-.132-3.39-.177-5.065-.043-1.45-.452-3.113-1.18-4.387 1.691 2.969 2.544 5.863 2.255 9.317-.095 1.107.007 2.265-.143 3.364-.158 1.124-.294 2.274.218 3.34.482.996 1.384 1.887 2.12 2.74 1.008 1.18 1.494.687 1.849-.64.613-2.267.362-4.587.795-6.842.393-2.06-.302-4.425-.517-6.486-.163-1.679-.65-3.133-1.324-4.47l.155.082c.058.032.117.063.177.107 2.217 2.646 2.382 6.344 2.817 9.749.001.366-.003.738-.006 1.11-.067 2.255-.17 4.544-.058 6.804.076 1.576-.13 3.233 1.328 4.24.545.37 1.379.776 1.936.283.257-.23.446-.734.56-1.048 1.064-2.937.8-6.27.963-9.337.103-1.924.125-3.875-.004-5.814.02.015.035.036.05.057.007.005.014.01.016.02 1.185 1.937 1.127 4.278 1.204 6.473.039 1.133.17 2.363.055 3.498-.1 1.043-.154 2.08-.243 3.12-.131 1.54-.327 2.97-.298 4.513.03 2.02.598 5.255 3.074 5.634 1.617.248 2.466-2.63 2.88-3.743.947-2.535.808-5.717.716-8.4a47.124 47.124 0 0 0-.102-1.807c.173.267.354.538.52.8.413.64.381 1.885.54 2.638.22 1.05-.145 2.208-.203 3.292-.117 2.127-.267 4.808-1.124 6.778-.373.858-1.381 3.846.64 3.431 2.073-.429 3.273-3.33 3.718-5.362-.028 1.48-.03 2.938-.128 4.43-.08 1.2.49 2.269.342 3.45-.079.633-.271.972-.58 1.176a28.783 28.783 0 0 1-5.637-3.053 122.895 122.895 0 0 1-5.044-4.148l-.412-.357c-.187-.164-.378-.322-.564-.486-.615-.543-1.24-1.083-1.85-1.632-2.233-1.989-4.6-4.003-6.591-6.273-.312-.356-.62-.719-.911-1.09-2.878-3.648-5.75-7.19-8.355-11.048-1.404-2.083-2.817-4.395-4.453-6.482-1.111-1.559-2.337-3.016-3.686-4.259Z" fill="#468E02"/><path opacity=".31" d="M49.428 42.38c-.763-.831.36-4.386.53-5.359.687-3.796.555-6.974-2.246-9.937-.856-.899-1.6-1.473-2.193-.095-.744 1.728-.332 5.745-.21 7.597.057.893.672 5.928-1.426 4.838-1.123-.583-.92-3.621-1-4.653-.18-2.39-.233-4.69.134-7.093.224-1.472 1.146-3.984.663-5.416-.59-1.762-4.615-4.165-4.69-.953-.06 2.3-.007 4.558-.178 6.859-.055.782-.106 5.613-1.284 4.655-.816-.657-.579-3.559-.68-4.534-.25-2.491-.478-5.21-.339-7.706.086-1.561.429-4.114-1.419-4.903-1.396-.597-1.703.734-1.922 1.774-.545 2.61.564 6.489-.991 8.81-1.253 1.859-1.436-.655-1.586-1.858-.217-1.718-.171-3.45-.196-5.18-.03-1.412.105-5.33-2.18-5.156-.29 1.323.948 5.417-.93 6.026-1.109.36-1.149-2.255-1.358-2.882-.62-1.905-2.372-5.89-4.58-6.29-1.251 2.053 2.876 4.327 1.817 6.467-1.63-.724-2.607-2.287-3.662-3.643-.965-1.24-2.332-2.486-3.73-3.52-.32-.33-.638-.65-.973-.961-.675-.627-1.684-1.2-2.51-1.59a1.921 1.921 0 0 0-.313-.113c-.19-.4.04-.65 1.233-.616 1.566.05 2.7.885 4.075 1.415 1.392.533 2.893.546 4.385.643 1.412.081 2.813.306 4.21.478 9.096 1.074 16.097 8.583 21.102 15.624 2.472 3.478 4.904 7.11 5.55 11.296-.13.535-.502.968-1.348 1.172.466.933-.535 6.126-1.755 4.804Z" fill="#A3CE24"/><path d="M18.349 13.264a10.217 10.217 0 0 0-.3-.387c1.67 1.29 3.195 3.784 4.392 5.394.992 1.33 1.844 3.788 3.165 4.787.313-1.439-.57-3.796-1.166-5.157 1.16 1.451 1.632 3.18 2.06 4.957.409 1.662.856 3.525 2.563 4.284 1.157-1.188.543-3.525.932-5 .58 2.272-.01 5.55.243 6.442.356 1.27 3.81 4.185 5.164 4.559.228-.77-.208-1.772-.244-2.599-.039-.85.115-1.713.007-2.55.702 1.832.698 3.462 1.047 5.335.366 1.976 1.984 3.452 3.472 4.642 1.88-2.21.825-5.797 2.167-8.19.686 1.376-.038 3.614-.14 5.082-.102 1.57-.213 3.123.432 4.64.5 1.17 1.526 2.677 2.949 2.644 1.49-.026 2.883-2.25 3.392-3.467-.084 1.755-2.196 3.85-1.332 5.626.688 1.416 2.078 1.613 3.399.888 1.19-.656 1.583-1.895 2.063-3.072-.015.445-.024.895-.056 1.35-.08 1.199.49 2.268.343 3.45-.08.632-.272.97-.58 1.175a29.166 29.166 0 0 1-3.837-1.902c-3.109-2.648-6.447-5.075-9.621-7.688-2.687-2.304-5.39-4.71-7.547-7.456-2.877-3.647-5.75-7.19-8.354-11.047-1.396-2.067-2.832-4.305-4.399-6.403a1.294 1.294 0 0 0-.214-.337Z" fill="#4A8209"/><path opacity=".24" d="M22.869 36.476c.883 1.638 1.951 3.186 3.368 4.589 4.084 4.057 13.094 8.557 18.75 5.043-.759-1.924-5.762-3.345-7.518-4.444-4.489-2.817-8.092-6.965-11.252-11.18-2.993-3.995-4.398-11.078-9.52-12.97-1.815 2.43.537 6.004 1.571 8.166 1.706 3.627 2.762 7.397 4.6 10.796Z" fill="#CCEA86"/><path opacity=".2" d="M36.18 16.705c-.112.001-.203-.013-.294-.028-.017.009-.028.01-.044.019.122.027.23.033.338.01Z" fill="#CCEA86"/><path opacity=".2" d="M40.932 19.691c-.791-.395-1.657-.348-2.184-1.223-.333-.554-.149-1.263-.709-1.726-.58-.477-1.589-.4-2.153-.065-.778-.173-.695-1.067-1.265-1.557-.449-.393-1.25-.42-1.745-.776-1.086-.79-1.236-2.53-2.303-3.205-1.15-.714-2.386.285-3.451.16-.952-.116-1.395-1.053-2.312-1.244-1.118-.236-1.713.747-2.644.575-1.454-.263-2.616-.904-4.135-.95a7.107 7.107 0 0 0-2.45.361c-.255-.265-.511-.53-.781-.774-.676-.627-1.685-1.2-2.51-1.59a1.921 1.921 0 0 0-.314-.113c-.19-.4.04-.65 1.233-.616 1.566.05 2.7.885 4.075 1.415 1.392.533 2.893.546 4.385.643 1.412.081 2.813.306 4.21.477 9.096 1.074 16.097 8.584 21.102 15.625.16.216.307.434.462.656-1.271-1.591-2.796-2.97-4.316-4.314-.693-.63-1.373-1.351-2.195-1.759Z" fill="#CCEA86"/><path opacity=".25" d="M24.864 37.483c.65.79 1.402 1.351 2.09 2.088.717.768.843 1.934 1.69 2.562.691.506 1.732.554 2.504.834 1.088.406 2.077 1.035 3.178 1.45 1.051.4 2.09.79 3.17 1.08.605.16 1.737.8 2.34.766.497-.028.774-.062.86-.731.183-1.359-1.741-2.152-2.66-2.497-1.722-.638-3.67-.678-5.163-1.82-1.194-.908-2-2.228-2.788-3.462-1.08-1.688-2.211-3.474-3.399-5.097-1.113-1.53-2.573-2.334-3.457-4.084-.395-.791-.84-1.273-1.268-1.934-.481-.742-3.512-8.626-4.576-7.525-.88.9 1.563 5.24 1.953 6.29.871 2.32 2.163 4.616 2.734 7.013.463 1.955 1.529 3.52 2.792 5.067Z" fill="#CCEA86"/></symbol><symbol id="star-full" viewBox="0 0 14 14"><path d="M13.667 5.733c.066-.333-.2-.733-.534-.733l-3.8-.533L7.6 1a.52.52 0 0 0-.267-.267C7 .533 6.6.667 6.4 1L4.733 4.467.933 5c-.2 0-.333.067-.4.2a.644.644 0 0 0 0 .933L3.267 8.8 2.6 12.6c0 .133 0 .267.067.4.2.333.6.467.933.267l3.4-1.8 3.4 1.8c.067.066.2.066.333.066h.134c.333-.066.6-.4.533-.8l-.667-3.8 2.734-2.666c.133-.067.2-.2.2-.334Z" fill="#FFCF55"/></symbol><symbol id="star-half" viewBox="0 0 16 16"><path d="M14.667 6.733c.066-.333-.2-.733-.534-.733l-3.8-.533L8.6 2a.52.52 0 0 0-.267-.267C8 1.533 7.6 1.667 7.4 2L5.733 5.467 1.933 6c-.2 0-.333.067-.4.2a.644.644 0 0 0 0 .933L4.267 9.8 3.6 13.6c0 .133 0 .267.067.4.2.333.6.467.933.267l3.4-1.8 3.4 1.8c.067.066.2.066.333.066h.134c.333-.066.6-.4.533-.8l-.667-3.8 2.734-2.666c.133-.067.2-.2.2-.334Zm-4.134 2.334c-.133.133-.2.4-.2.6l.467 2.8-2.533-1.334c-.067-.066-.2-.066-.334-.066V3.8L9.2 6.333c.067.2.267.334.533.334l2.8.4-2 2Z" fill="#FFCF55"/></symbol><symbol id="types-all" viewBox="0 0 21 23">
<path d="M20.8161 21.8609C20.9233 21.6945 20.9604 21.4924 20.9193 21.2988C20.8782 21.1052 20.7622 20.9357 20.5966 20.8273C19.7857 20.301 18.8447 19.6848 17.8332 18.9895C18.2271 17.4072 18.4813 15.7934 18.5928 14.1666C18.7549 11.2923 18.2621 8.98178 17.126 7.16817C14.9142 3.66449 10.6997 2.8037 7.30892 2.10949C5.22389 1.6841 3.25731 1.28792 2.4525 0.386538C2.3578 0.281124 2.23517 0.20473 2.09883 0.166215C1.96249 0.127701 1.81803 0.128642 1.6822 0.168933C1.54637 0.209224 1.42474 0.287212 1.33141 0.393853C1.23808 0.500494 1.17688 0.631418 1.1549 0.771443C1.06183 1.22424 -0.402052 11.6167 5.09179 17.0774C7.80009 19.7606 11.6994 20.7538 16.6942 20.0216C17.8191 20.8359 18.8627 21.4955 19.783 22.0805C19.9492 22.1877 20.1512 22.2248 20.3447 22.1837C20.5383 22.1426 20.7077 22.0265 20.8161 21.8609V21.8609ZM6.13473 16.0174C2.25315 12.1793 2.34087 5.16343 2.50288 2.28913C3.93943 2.92235 5.4548 3.35884 7.008 3.5868C10.2804 4.25182 13.9829 5.00865 15.8575 7.96771C17.2901 10.2486 17.501 13.5644 16.5051 18.0511C12.5669 15.2161 8.12424 11.3464 6.74544 6.91347C6.6782 6.73428 6.545 6.5876 6.37314 6.50351C6.20129 6.41942 6.00378 6.40428 5.82112 6.46119C5.63845 6.51811 5.48446 6.64276 5.3907 6.80961C5.29694 6.97646 5.27052 7.17287 5.31685 7.35857C6.73211 11.9437 10.9504 15.8008 14.8618 18.7094C11.1402 18.9577 8.21883 18.0572 6.15012 16.0108L6.13473 16.0174Z" fill="#359740"/>
</symbol><symbol id="types-bundles" viewBox="0 0 28 28">
<path d="M7.0116 6.54C6.82785 7.12359 7.2841 8.41478 7.48514 8.63984L7.30999 8.93707L10.8536 21.3102C11.0527 22.0594 11.63 22.1065 11.8938 22.0363L21.1521 19.575C22.0715 19.4643 22.2296 18.9543 22.1938 18.7132L18.7839 5.88673L18.4051 5.73676C18.5608 5.47256 18.6515 4.11396 18.169 3.5738C17.5658 2.8986 7.24127 5.81051 7.0116 6.54Z" stroke="#359740" stroke-width="1.5"/>
<path d="M4.0383 13.1508C3.95222 13.7723 4.69241 14.8968 4.9525 15.0576L4.82067 15.3978L11.0199 26.4149C11.3787 27.0864 12.0105 26.9647 12.2815 26.8199L21.7951 21.7374C22.7656 21.3627 22.8382 20.8204 22.7532 20.5961L16.611 9.09894L16.1737 9.06284C16.2908 8.76047 16.1276 7.41156 15.5034 7.02572C14.7231 6.54342 4.14591 12.374 4.0383 13.1508Z" fill="white" stroke="#359740" stroke-width="1.5"/>
</symbol><symbol id="types-flowers" viewBox="0 0 21 22">
<path d="M5.00707 8.24471C4.42373 8.59242 3.81329 8.80066 3.16381 8.87031C2.72623 8.91948 2.31003 8.86876 1.96194 8.73386C1.39127 8.50753 0.967849 8.10005 0.707228 7.52705C0.647085 7.39482 0.642942 7.24166 0.702042 7.1006C0.944008 6.51438 1.35237 6.10289 1.92166 5.85693C2.26323 5.70936 2.68341 5.65188 3.11984 5.68432C4.02201 5.75663 4.84821 6.09833 5.64339 6.70131L6.07443 6.69338C6.16446 6.32224 6.35986 5.98166 6.63396 5.69999L6.40945 5.32335C5.47417 4.96574 4.74939 4.43909 4.22052 3.7085C3.95927 3.35376 3.79439 2.9727 3.74044 2.60022C3.64959 1.98828 3.79245 1.42378 4.15984 0.912211C4.24455 0.793239 4.37775 0.71384 4.5227 0.695918C5.14745 0.616108 5.71194 0.758969 6.207 1.12998C6.50898 1.35461 6.76573 1.68091 6.95349 2.07946C7.33996 2.89492 7.45844 3.78298 7.3281 4.77578L7.5526 5.15242C7.928 5.04071 8.32327 5.03543 8.69256 5.13279L8.90457 4.75741C8.74971 3.76654 8.84215 2.87726 9.20585 2.05663C9.38217 1.65272 9.63075 1.31779 9.92763 1.0848C10.4102 0.703784 10.971 0.537586 11.6017 0.603605C11.7466 0.616863 11.8793 0.693363 11.9744 0.811022C12.359 1.3101 12.516 1.87638 12.4391 2.48875C12.3921 2.8591 12.2388 3.24933 11.9874 3.61084C11.6172 4.149 11.1436 4.5869 10.5603 4.93461C10.3352 5.06876 10.0918 5.18269 9.83843 5.29017L9.62642 5.66555C9.76085 5.79708 9.88883 5.93868 9.99013 6.10863C10.0914 6.27858 10.1551 6.4585 10.2069 6.63931L10.6452 6.63325C11.421 6.00272 12.2383 5.6401 13.14 5.54458C13.5776 5.49541 13.9938 5.54613 14.3419 5.68103C14.9126 5.90736 15.336 6.31485 15.5966 6.88784C15.6567 7.02007 15.6563 7.17597 15.6018 7.31429C15.4023 7.79425 15.0913 8.16017 14.6733 8.40932C14.5814 8.46408 14.4868 8.51424 14.3868 8.55522C14.0452 8.7028 13.6296 8.75754 13.1886 8.72783C12.2864 8.65552 11.4602 8.31382 10.6696 7.70811L10.2386 7.71603C10.1504 8.07985 9.95501 8.42043 9.6855 8.69935C9.7649 8.83256 9.84889 8.96302 9.92829 9.09622C10.8471 9.45745 11.5618 9.97766 12.0898 10.6963C12.351 11.0511 12.5159 11.4321 12.5698 11.8046C12.6265 12.1817 12.5833 12.5374 12.4622 12.8773C12.8577 13.4259 13.256 13.9479 13.6452 14.4443C13.6904 14.0501 13.8061 13.6698 14.0044 13.3026C14.4303 12.5134 15.1528 11.9395 16.0863 11.657C16.8132 11.4354 17.5727 11.3936 18.3288 11.5342C18.5186 11.5705 18.6796 11.7049 18.7414 11.8922C18.8032 12.0794 18.7558 12.282 18.6225 12.4237C18.249 12.8206 17.7746 13.5391 17.6689 14.2496C17.5043 15.3624 16.8908 16.0145 16.2064 16.4224C15.9997 16.5456 15.7931 16.6377 15.5837 16.7251C17.2714 18.5329 18.8232 19.7369 20.125 20.2185C20.4035 20.3201 20.5438 20.6287 20.4421 20.9072C20.3959 21.0281 20.314 21.1205 20.213 21.1807C20.0798 21.2601 19.911 21.2798 19.7534 21.2243C18.8163 20.874 17.8542 20.2522 16.9092 19.4709L16.8311 19.5175C16.4477 19.8456 16.0148 20.1846 15.5371 20.4693C14.6369 21.0059 13.5647 21.3586 12.3256 21.1075C11.442 20.9307 10.2556 21.1647 9.50931 21.4166C9.30368 21.4894 9.07827 21.4245 8.93934 21.2646C8.80041 21.1046 8.76624 20.8697 8.86218 20.6756C9.27269 19.8395 9.86365 19.0764 10.6203 18.4137C11.5682 17.581 12.6481 17.0742 13.7416 16.9454C13.9343 16.9239 14.1205 16.9125 14.3076 16.9131C14.2893 16.8928 14.2682 16.868 14.25 16.8478C13.3368 15.8171 12.4917 14.7335 11.7472 13.7143C11.1362 13.7859 10.5837 13.6421 10.106 13.2794C9.80404 13.0548 9.54729 12.7285 9.35953 12.33C8.97306 11.5145 8.85457 10.6264 8.98033 9.63638L8.75582 9.25974C8.38042 9.37145 7.98515 9.37672 7.61586 9.27936L7.40385 9.65474C7.55872 10.6456 7.46627 11.5349 7.10258 12.3555C6.92625 12.7594 6.67767 13.0944 6.38079 13.3274C6.29714 13.3959 6.20801 13.4552 6.11615 13.51C5.69817 13.7591 5.22375 13.8614 4.71128 13.8058C4.56368 13.788 4.43367 13.7161 4.33863 13.5984C3.954 13.0993 3.79698 12.533 3.87396 11.9207C3.92088 11.5503 4.07424 11.1601 4.32564 10.7986C4.84135 10.0554 5.54906 9.50907 6.46999 9.12198L6.68386 8.73927C6.54943 8.60774 6.42145 8.46614 6.32015 8.2962C6.21885 8.12625 6.15517 7.94632 6.10343 7.76551L5.67238 7.77343C5.44811 7.95069 5.23214 8.11055 5.00707 8.24471ZM3.0333 6.75061C2.76558 6.72966 2.52798 6.75924 2.33974 6.84031C2.1047 6.93684 1.93095 7.08398 1.80012 7.29269C1.93525 7.49851 2.11826 7.63843 2.3555 7.73357C2.54328 7.8084 2.78256 7.83385 3.05134 7.80436C3.59624 7.74725 4.09107 7.56435 4.57433 7.25762C4.07724 6.9563 3.57607 6.79437 3.0333 6.75061ZM11.0987 3.00759C11.2524 2.78519 11.3439 2.56261 11.3674 2.36184C11.3993 2.1125 11.3559 1.88311 11.2438 1.66361C10.998 1.6794 10.7859 1.76224 10.5892 1.92307C10.4329 2.04734 10.2893 2.24501 10.1803 2.49047C9.96064 2.98871 9.86468 3.50657 9.89053 4.08256C10.3975 3.80524 10.7911 3.45239 11.0987 3.00759ZM13.2632 7.66242C13.5309 7.68337 13.7685 7.6538 13.9568 7.57273C14.1891 7.4716 14.3674 7.32172 14.4964 7.12034C14.3612 6.91453 14.1782 6.77461 13.9437 6.68406C13.756 6.60923 13.5167 6.58378 13.2479 6.61327C12.703 6.67038 12.2128 6.85054 11.7249 7.16001C12.2193 7.45673 12.7204 7.61867 13.2632 7.66242ZM16.612 14.0952C16.6953 13.5351 16.9307 12.9901 17.2108 12.5306C16.9365 12.5509 16.6668 12.5996 16.3923 12.6823C15.9352 12.824 15.3034 13.1322 14.9365 13.8116C14.7216 14.2135 14.5043 14.8411 14.9233 15.8364C15.9991 15.469 16.4802 14.9706 16.612 14.0952ZM5.19784 11.4054C5.04405 11.6278 4.95262 11.8504 4.92911 12.0512C4.89995 12.3051 4.93597 12.5327 5.05273 12.7494C5.29855 12.7336 5.51062 12.6508 5.70734 12.49C5.8636 12.3657 6.00723 12.168 6.11616 11.9226C6.33586 11.4243 6.43182 10.9065 6.40597 10.3305C5.89895 10.6078 5.50543 10.9606 5.19784 11.4054ZM5.56348 1.9929C5.36033 1.84008 5.14596 1.76243 4.89838 1.75437C4.79229 1.97324 4.75862 2.19874 4.79182 2.45286C4.82334 2.65196 4.92357 2.87234 5.07884 3.09105C5.40404 3.53218 5.80105 3.87447 6.31201 4.1364C6.32194 3.55776 6.2143 3.04298 5.97911 2.55442C5.86978 2.30834 5.72361 2.11533 5.56348 1.9929ZM13.8633 18.0058C12.9863 18.1115 12.1038 18.5317 11.3177 19.2181C11.0115 19.4878 10.7374 19.7695 10.4963 20.0751C11.1716 19.9651 11.9007 19.9351 12.5359 20.0608C13.6678 20.2887 14.7299 19.8984 16.0749 18.7605C15.5026 18.1243 14.8045 17.893 13.8633 18.0058ZM10.733 12.4201C10.9362 12.573 11.1505 12.6506 11.3981 12.6587C11.5042 12.4398 11.5425 12.2116 11.5047 11.9602C11.4732 11.7611 11.3729 11.5407 11.2177 11.322C10.8925 10.8809 10.4954 10.5386 9.98449 10.2766C9.97456 10.8553 10.0822 11.3701 10.3174 11.8586C10.4267 12.1047 10.5729 12.2977 10.733 12.4201ZM8.69583 8.12516C9.20108 7.82399 9.36806 7.16419 9.06689 6.65894C8.76572 6.15369 8.10593 5.98671 7.60067 6.28788C7.09542 6.58904 6.92844 7.24884 7.22961 7.7541C7.53077 8.25935 8.19057 8.42633 8.69583 8.12516Z" fill="#359740"/>
</symbol><symbol id="types-fruits" viewBox="0 0 22 22">
<path d="M19.3862 6.17556C18.1393 4.2725 16.187 3.07274 14.0923 2.73488C14.1137 2.59008 14.0923 2.43149 14.0139 2.29359C13.8643 2.03157 13.5579 1.88677 13.2444 1.94883L8.91953 2.81072L8.32103 1.03177C8.23553 0.77665 8.0004 0.59048 7.72253 0.5629C7.44465 0.535319 7.1739 0.666327 7.0314 0.900763L5.74178 3.03137C4.8654 2.38322 3.78953 1.94193 2.6994 1.94193C2.30753 1.94193 1.9869 2.25221 1.9869 2.63145C1.9869 3.01068 2.30753 3.32096 2.6994 3.32096C3.5259 3.32096 4.3524 3.70709 5.0079 4.22423L0.882527 6.88576C0.618902 7.05125 0.504902 7.36842 0.597527 7.65802C0.683027 7.94762 0.960902 8.14758 1.2744 8.14758H3.17678L2.00828 12.0985C1.92278 12.4019 2.05103 12.7191 2.3289 12.8777C2.4429 12.9466 2.57115 12.9673 2.6994 12.9673C2.71365 15.222 3.74678 17.4078 5.64915 18.8144C8.46353 20.8898 12.5604 21.9448 17.8329 21.9448C18.0324 21.9448 18.2319 21.9448 18.4314 21.9379C20.0844 21.9103 21.488 20.6899 21.6947 19.0971C22.3715 13.8912 21.5949 9.54729 19.3862 6.17556ZM20.2839 18.9247C20.1628 19.8418 19.3648 20.5451 18.4172 20.5589C13.1803 20.6347 9.17603 19.6832 6.5184 17.7181C4.65165 16.339 3.81803 14.0291 4.23128 11.8089L5.25728 10.8505C4.31678 13.1259 4.99365 15.7254 6.95303 17.1733C9.38265 18.9661 13.0449 19.8762 17.8329 19.8762C18.0253 19.8762 18.2177 19.8762 18.4172 19.8694C18.809 19.8625 19.1225 19.5453 19.1154 19.166C19.1083 18.7868 18.7877 18.4903 18.4029 18.4903C18.3958 18.4903 18.3958 18.4903 18.3887 18.4903C13.6505 18.5731 10.088 17.7456 7.82228 16.077C6.29753 14.9531 5.82728 12.8501 6.71078 11.0849L8.55615 13.4017C8.6844 13.5672 8.89815 13.6637 9.1119 13.6637C9.19028 13.6637 9.26865 13.6499 9.3399 13.6292C9.63203 13.5327 9.8244 13.2707 9.8244 12.9742V8.06484L14.8974 7.45117C15.218 7.40979 15.4745 7.16846 15.5173 6.85818C15.56 6.5479 15.3819 6.25141 15.0827 6.12729L12.0759 4.93443L12.9879 4.01738C15.0185 4.05185 16.9922 5.08613 18.182 6.90645C20.2055 10.0093 20.918 14.0498 20.2839 18.9247ZM5.94128 5.27229C5.95553 5.2654 5.95553 5.2585 5.96265 5.25161C6.15503 5.5481 6.2619 5.8377 6.2619 6.07903C6.2619 6.45826 6.58253 6.76854 6.9744 6.76854C7.36628 6.76854 7.6869 6.45826 7.6869 6.07903C7.6869 5.42399 7.3449 4.68621 6.78915 4.01738L7.45178 2.92104L7.75815 3.83121C7.87215 4.16907 8.2284 4.36213 8.57753 4.29318L11.2637 3.75536L10.3089 4.71379C10.145 4.87927 10.0738 5.11371 10.1237 5.33435C10.1735 5.555 10.3303 5.74117 10.5512 5.8308L12.0189 6.41L9.01928 6.77544C8.67015 6.81681 8.3994 7.1133 8.3994 7.45806V10.947L6.61815 8.70609C6.49703 8.5475 6.30465 8.45096 6.10515 8.43717C6.0909 8.43717 6.06953 8.43717 6.05528 8.43717C5.87003 8.43717 5.6919 8.50613 5.55653 8.63024L4.11728 9.98169L4.8084 7.63734C4.87253 7.43738 4.82978 7.21673 4.6944 7.04435C4.55903 6.87197 4.34528 6.76854 4.1244 6.76854H3.62565L5.94128 5.27229Z" fill="#359740"/>
<path d="M12.1691 10.7053C12.3116 10.8363 12.4898 10.9052 12.675 10.9052C12.8603 10.9052 13.0384 10.8363 13.1809 10.7053C13.4588 10.4364 13.4588 10.002 13.1809 9.73306L12.4684 9.04354C12.1905 8.77463 11.7416 8.77463 11.4638 9.04354C11.1859 9.31245 11.1859 9.74685 11.4638 10.0158L12.1691 10.7053Z" fill="#359740"/>
<path d="M16.4441 10.0157C16.5866 10.1467 16.7647 10.2157 16.95 10.2157C17.1352 10.2157 17.3134 10.1467 17.4559 10.0157C17.7337 9.74679 17.7337 9.31239 17.4559 9.04348L16.7434 8.35397C16.4655 8.08505 16.0166 8.08505 15.7387 8.35397C15.4609 8.62288 15.4609 9.05727 15.7387 9.32618L16.4441 10.0157Z" fill="#359740"/>
<path d="M13.1809 14.5528L12.4684 13.8633C12.1905 13.5944 11.7416 13.5944 11.4638 13.8633C11.1859 14.1322 11.1859 14.5666 11.4638 14.8355L12.1763 15.525C12.3116 15.6629 12.4898 15.7319 12.675 15.7319C12.8603 15.7319 13.0384 15.6629 13.1809 15.5319C13.4588 15.263 13.4588 14.8217 13.1809 14.5528Z" fill="#359740"/>
<path d="M15.0191 13.4633C15.1616 13.5943 15.3397 13.6633 15.525 13.6633C15.7102 13.6633 15.8884 13.5943 16.0309 13.4633C16.3087 13.1944 16.3087 12.76 16.0309 12.4911L15.3184 11.8016C15.0405 11.5327 14.5916 11.5327 14.3137 11.8016C14.0359 12.0705 14.0359 12.5049 14.3137 12.7738L15.0191 13.4633Z" fill="#359740"/>
<path d="M17.8691 13.4633L18.5816 14.1528C18.7241 14.2839 18.9023 14.3528 19.0875 14.3528C19.2728 14.3528 19.4509 14.2839 19.5934 14.1528C19.8713 13.8839 19.8713 13.4495 19.5934 13.1806L18.8809 12.4911C18.603 12.2222 18.1541 12.2222 17.8763 12.4911C17.5913 12.7531 17.5913 13.1944 17.8691 13.4633Z" fill="#359740"/>
<path d="M16.7434 15.2423C16.4655 14.9734 16.0166 14.9734 15.7387 15.2423C15.4609 15.5112 15.4609 15.9456 15.7387 16.2145L16.4512 16.904C16.5866 17.0419 16.7647 17.1109 16.95 17.1109C17.1352 17.1109 17.3134 17.0419 17.4559 16.9109C17.7337 16.642 17.7337 16.2076 17.4559 15.9387L16.7434 15.2423Z" fill="#359740"/>
</symbol><symbol id="types-herbs" viewBox="0 0 22 22">
<path d="M14.9834 16.7684C14.8325 16.7684 14.675 16.7487 14.5044 16.6962C13.3363 16.3747 12.0434 16.7487 11.2297 17.6347C10.8819 18.0087 10.4159 18.2122 9.91719 18.2122C8.93281 18.2122 8.13219 17.4116 8.13219 16.4272C8.13219 16.355 8.14531 16.2631 8.15844 16.1516C8.29625 15.2853 8.07969 14.4125 7.56125 13.7037C7.04938 13.0081 6.26188 12.5291 5.40875 12.3978C4.89688 12.3191 4.50969 11.8662 4.50969 11.3544C4.50969 11.0853 4.60813 10.8425 4.79188 10.6391C5.435 9.94343 5.75 8.99843 5.645 8.05343C5.53344 7.11499 5.02813 6.26187 4.24719 5.72374C3.95188 5.52031 3.53844 5.59249 3.335 5.88781C3.125 6.18312 3.19719 6.59656 3.49906 6.79999C3.965 7.12812 4.27344 7.63343 4.33906 8.20437C4.40469 8.76874 4.21438 9.33968 3.82719 9.75968C3.53844 10.0747 3.19719 10.6062 3.19719 11.3675C3.19719 12.5291 4.06344 13.5331 5.21188 13.7103C5.72375 13.7891 6.19625 14.0712 6.50469 14.4912C6.81313 14.9178 6.94438 15.4362 6.85906 15.9612C6.82625 16.1516 6.81969 16.3025 6.81969 16.4337C6.81969 18.1466 8.21094 19.5312 9.91719 19.5312C10.79 19.5312 11.5972 19.1769 12.1944 18.5272C12.6866 17.9956 13.4609 17.7725 14.1631 17.9628C14.4453 18.0416 14.7209 18.0809 14.99 18.0809C15.3509 18.0809 15.6463 17.7856 15.6463 17.4247C15.6397 17.0637 15.3444 16.7684 14.9834 16.7684Z" fill="#359740"/>
<path d="M18.7241 18.3894C19.5444 17.4903 20.0497 16.2959 20.0497 14.9834C20.0497 14.3075 19.7675 13.5594 19.5312 12.9688C20.6469 12.0369 21.5 10.7506 21.5 9.18875C21.5 6.38656 19.2294 4.1225 16.4338 4.1225C15.8694 4.1225 15.4494 4.26688 14.9375 4.4375C14.4256 2.61313 12.6275 1.22188 10.6391 1.22188C9.70719 1.22188 9.08375 1.31375 8.375 1.8125C7.58094 0.887188 6.16344 0.5 4.84437 0.5C2.4425 0.5 0.5 2.4425 0.5 4.84437C0.5 6.3275 1.33344 7.59406 2.46875 8.375C1.75344 9.14937 1.22188 10.2256 1.22188 11.3609C1.22188 13.5331 3.00687 15.2722 5.09375 15.5938C5.05438 15.8497 4.84437 16.1647 4.84437 16.4338C4.84437 19.2359 7.115 21.5 9.91063 21.5C11.3806 21.5 12.6931 20.5353 13.625 19.5312C13.9859 19.8003 14.5175 20.0497 14.9834 20.0497C15.9941 20.0497 16.9325 19.7478 17.72 19.2425C18.2056 19.9316 18.6256 20.5812 18.9603 21.1653C19.085 21.3819 19.3016 21.5 19.5312 21.5C19.6428 21.5 19.7544 21.4738 19.8594 21.4147C20.1744 21.2375 20.2859 20.8372 20.1022 20.5222C19.7281 19.8725 19.2622 19.1506 18.7241 18.3894ZM14.4059 18.4812C14.1763 18.3041 13.9006 18.2188 13.625 18.2188C13.2706 18.2188 12.9163 18.3631 12.6603 18.6387C12.1288 19.2162 11.0591 20.1875 9.91063 20.1875C7.86969 20.1875 6.20937 18.5534 6.15687 16.5322C6.17 16.4994 6.18313 16.4731 6.19625 16.4403C6.26844 16.2697 6.35375 16.0531 6.39312 15.7906C6.44562 15.4494 6.36031 15.095 6.15687 14.8128C5.94687 14.5372 5.63844 14.3469 5.29063 14.2944C3.93875 14.0909 2.53437 12.9359 2.53437 11.3609C2.53437 10.6587 2.86906 9.87125 3.43344 9.26094C3.68937 8.97875 3.81406 8.60469 3.77469 8.22406C3.73531 7.84344 3.53187 7.50219 3.21687 7.29219C2.32437 6.68188 1.8125 5.78281 1.8125 4.84437C1.8125 3.17094 3.17094 1.8125 4.84437 1.8125C5.95344 1.8125 6.92469 2.14062 7.3775 2.66562C7.64 2.9675 8.0075 3.125 8.375 3.125C8.6375 3.125 8.9 3.04625 9.12969 2.88219C9.52344 2.60656 9.83187 2.53437 10.6391 2.53437C12.0041 2.53437 13.31 3.50562 13.6775 4.79187C13.7759 5.13969 14.0122 5.42844 14.3272 5.59906C14.5175 5.6975 14.7275 5.75 14.9375 5.75C15.0753 5.75 15.2197 5.73031 15.3575 5.68438L15.3903 5.67125C15.8628 5.51375 16.1056 5.435 16.4272 5.435C18.5009 5.435 20.1809 7.12156 20.1809 9.18875C20.1809 10.4422 19.3672 11.3872 18.6847 11.9581C18.245 12.3256 18.0941 12.9294 18.3106 13.4609C18.4484 13.8022 18.7372 14.5044 18.7372 14.9834C18.7372 15.8562 18.4353 16.6634 17.93 17.3C17.0572 16.1319 16.0531 14.8981 14.99 13.6644L17.4903 8.67031C17.6544 8.34875 17.5231 7.955 17.195 7.79094C16.8734 7.62687 16.4797 7.75813 16.3156 8.08625L14.0581 12.5947C13.0475 11.4528 12.0041 10.3306 10.9869 9.28719L11.6431 5.19875C11.7022 4.83781 11.4594 4.50313 11.0984 4.44406C10.7441 4.385 10.4028 4.62781 10.3438 4.98875L9.83844 8.13219C9.10344 7.39063 8.38156 6.71469 7.71875 6.12406V4.4375C7.71875 4.07656 7.42344 3.78125 7.0625 3.78125C6.70156 3.78125 6.40625 4.07656 6.40625 4.4375V5.00188C5.73688 4.47031 5.16594 4.07 4.73281 3.85344C4.40469 3.68938 4.01094 3.82063 3.85344 4.14219C3.68938 4.47031 3.82063 4.86406 4.14219 5.02156C4.71969 5.31031 5.57281 5.96 6.58344 6.8525C6.60313 6.86563 6.61625 6.87875 6.62938 6.89187C7.68594 7.82375 8.91969 9.01813 10.1994 10.3438H6.40625C6.04531 10.3438 5.75 10.6391 5.75 11C5.75 11.3609 6.04531 11.6562 6.40625 11.6562H11.3609C11.3872 11.6562 11.4069 11.6431 11.4331 11.6431C12.0959 12.3584 12.7653 13.1 13.415 13.8416L9.51031 14.9638C9.1625 15.0622 8.95906 15.4297 9.06406 15.7775C9.14281 16.0597 9.39875 16.25 9.6875 16.25C9.74656 16.25 9.80562 16.2434 9.87125 16.2237L14.3534 14.9375C15.2919 16.0466 16.1712 17.1425 16.9456 18.1794C16.3747 18.5338 15.6987 18.7437 14.9769 18.7437C14.9047 18.7372 14.6553 18.6584 14.4059 18.4812Z" fill="#359740"/>
</symbol><symbol id="types-supplies" viewBox="0 0 14 19">
<path d="M5.25243 2.12435L3.72845 0.714956C3.42006 0.428348 2.93686 0.428348 2.62846 0.714956L1.10409 2.12435C0.404727 2.77432 0 3.68283 0 4.63386V10.6289C0 11.1037 0.399636 11.5115 0.877864 11.5115H2.66477V13.0827C2.26705 13.2732 1.94886 13.6883 1.94886 14.1701V17.3146C1.94886 17.9765 2.50691 18.5 3.1737 18.5H3.17577C3.8426 18.5 4.375 17.9765 4.375 17.3146V14.1701C4.375 13.6883 4.09659 13.2732 3.69886 13.0827V11.5018V8.9885C3.69886 8.79677 3.84121 8.66869 4.03439 8.66869H4.03494C4.22808 8.66869 4.375 8.79677 4.375 8.9885V11.5115H5.46784C5.94606 11.5115 6.36364 11.1037 6.36364 10.6289V4.63386C6.36364 3.68283 5.95179 2.77432 5.25243 2.12435ZM13.4917 0.929982H13.4507C13.1565 0.929982 12.9261 1.14714 12.9261 1.43924V4.20582C12.9261 4.61029 12.5836 4.95727 12.1762 4.95727H12.1742C11.7667 4.95727 11.4148 4.61029 11.4148 4.20582V1.43924C11.4148 1.14714 11.2 0.929982 10.9057 0.929982H10.9037C10.6094 0.929982 10.3807 1.14714 10.3807 1.43924V4.20582C10.3807 4.61029 10.0426 4.95727 9.63522 4.95727H9.63319C9.22576 4.95727 8.90909 4.61029 8.90909 4.20582V1.43924C8.90909 1.14714 8.65896 0.929982 8.36472 0.929982H8.36269C8.06845 0.929982 7.83523 1.14714 7.83523 1.43924V10.5868C7.83523 11.0848 8.24266 11.5115 8.74431 11.5115H10.4205V13.0827C9.98295 13.2732 9.70455 13.6883 9.70455 14.1701V17.3146C9.70455 17.9765 10.2585 18.5 10.9254 18.5H10.9246C11.5914 18.5 12.1307 17.9765 12.1307 17.3146V14.1701C12.1307 13.6883 11.8523 13.2732 11.4148 13.0827V8.94021C11.4943 8.77138 11.5943 8.64132 11.7709 8.64132C11.964 8.64132 12.1307 8.79677 12.1307 8.9885V11.5115H13.1162C13.6179 11.5115 14 11.0848 14 10.5868V1.43924C14 1.14714 13.786 0.929982 13.4917 0.929982Z" fill="#359740"/>
</symbol><symbol id="types-vegetables" viewBox="0 0 24 24">
<path d="M14.9328 1.80646C14.7487 1.63845 14.4927 1.55844 14.2367 1.61445L13.9967 1.66245C13.6047 1.62245 13.2046 1.59844 12.7966 1.59844C11.5565 1.59844 10.3564 1.80646 9.24436 2.18249L8.70833 0.550372C8.61232 0.254352 8.3483 0.0383365 8.03628 0.0063343C7.72426 -0.0336685 7.42024 0.118342 7.26022 0.390361L5.81212 2.86253C4.82806 2.11048 3.61997 1.59844 2.39589 1.59844C1.95586 1.59844 1.59583 1.95847 1.59583 2.3985C1.59583 2.83853 1.95586 3.19856 2.39589 3.19856C3.32395 3.19856 4.25202 3.64659 4.98807 4.24663L0.355746 7.33484C0.0597259 7.52686 -0.0682829 7.89488 0.0357243 8.2309C0.131731 8.56693 0.443753 8.79894 0.795777 8.79894H2.34788C1.86785 10.039 1.59583 11.3911 1.59583 12.7992C1.59583 12.9992 1.61183 13.1912 1.62783 13.3913C1.57983 13.5593 1.59583 13.7353 1.65184 13.8873C2.19587 19.5597 6.98021 24 12.7966 24C18.981 24 23.9974 18.9837 23.9974 12.7992C23.9974 7.34284 20.1011 2.80653 14.9328 1.80646ZM12.7966 22.3999C7.86827 22.3999 3.79598 18.6636 3.25995 13.8793L4.02 13.1432C4.10001 15.2794 4.94806 17.3995 6.58018 19.0237C8.2923 20.7358 10.5485 21.5998 12.8046 21.5998C15.0608 21.5998 17.3089 20.7438 19.029 19.0237C19.3411 18.7116 19.3411 18.2076 19.029 17.8956C18.717 17.5836 18.213 17.5836 17.901 17.8956C15.0928 20.7038 10.5245 20.7038 7.71626 17.8956C5.98014 16.1595 5.31609 13.7433 5.73212 11.4871L6.08414 11.1431L8.97234 14.8874C9.11635 15.0874 9.35637 15.1994 9.59639 15.1994C9.68439 15.1994 9.7724 15.1834 9.8524 15.1594C10.1804 15.0474 10.3964 14.7434 10.3964 14.3993V8.70294L16.0928 7.99089C16.4529 7.94288 16.7409 7.66287 16.7889 7.30284C16.8369 6.94282 16.6369 6.59879 16.3008 6.45478L12.9246 5.07069L14.5727 3.36657C19.021 4.20663 22.3973 8.1109 22.3973 12.7992C22.3973 18.0956 18.093 22.3999 12.7966 22.3999ZM6.03614 5.46271C6.05214 5.45471 6.05214 5.44671 6.06014 5.43871C6.27616 5.78274 6.39616 6.11876 6.39616 6.39878C6.39616 6.83881 6.75619 7.19883 7.19622 7.19883C7.63625 7.19883 7.99628 6.83881 7.99628 6.39878C7.99628 5.63872 7.61225 4.78267 6.98821 4.00661L7.73226 2.73452L8.07628 3.7906C8.20429 4.17462 8.59632 4.40664 8.99634 4.32663L12.0126 3.70259L10.9405 4.81467C10.7565 5.00668 10.6765 5.2787 10.7325 5.53472C10.7885 5.79074 10.9645 6.00675 11.2125 6.11076L12.8606 6.7828L9.49238 7.20683C9.10035 7.25484 8.79633 7.59886 8.79633 7.99889V12.0472L6.79619 9.44699C6.66018 9.26298 6.44417 9.15097 6.22015 9.13497C6.20415 9.13497 6.18015 9.13497 6.16415 9.13497C5.95613 9.13497 5.75612 9.21497 5.60411 9.35898L3.988 10.9271L4.76405 8.2069C4.83606 7.97489 4.78805 7.71887 4.63604 7.51886C4.48403 7.31884 4.24402 7.19883 3.996 7.19883H3.43596L6.03614 5.46271Z" fill="#359740"/>
</symbol></svg>