<svg xmlns="http://www.w3.org/2000/svg" viewBox="0 0 456.91 77.47"><path d="M41.46 31.82q-1.39-.46-3.48-1c-1.4-.34-2.83-.71-4.3-1.1q-2.67-.81-5.11-1.68a12.5 12.5 0 01-3.72-1.92 9.6 9.6 0 01-1.27-1.28 4.06 4.06 0 01-.82-1.5 1.86 1.86 0 01-.29-.69 4.23 4.23 0 01-.06-.7 5.83 5.83 0 012.35-4.36 9.45 9.45 0 015-2.38h.93a16.53 16.53 0 017.52 1.77 44.49 44.49 0 016.62 4l6.39-14.25a45.5 45.5 0 00-7.61-3.83 41 41 0 00-8.3-2.32c-1.09-.16-2.15-.29-3.2-.41a29.14 29.14 0 00-15.35 2.5 21.58 21.58 0 00-9.58 8.83 17.57 17.57 0 00-2.07 4.18 25.61 25.61 0 00-1.16 4.64 10 10 0 00-.29 1.86q-.06.93-.06 1.86v.87a3.49 3.49 0 00.16.87 18.63 18.63 0 00.4 2.67c.19.86.41 1.67.64 2.44a15.66 15.66 0 006.85 8.89 37.07 37.07 0 0010.69 4.47.53.53 0 01.23.06.49.49 0 00.23.06c.7.15 1.43.33 2.21.52a23.81 23.81 0 012.44.75 21.74 21.74 0 015.82 3.34A6.52 6.52 0 0136 54.27a8.5 8.5 0 01-.11 1.27 15.27 15.27 0 01-.35 1.44c-.08.16-.16.31-.23.47l-.24.46a7.9 7.9 0 01-2.61 2.56 10.11 10.11 0 01-3.54 1.39 7.26 7.26 0 01-1 .18 8.63 8.63 0 01-1 0 .92.92 0 01-.29 0 .88.88 0 00-.27-.06 1 1 0 01-.29-.06.88.88 0 00-.29-.06 15.93 15.93 0 01-9.02-3.15 49.24 49.24 0 01-7.08-6.45l-.18-.17-.17-.18L0 66.78a41.6 41.6 0 0012 7.61 38.52 38.52 0 0013.71 3.08h1.27a32.71 32.71 0 003.37-.18 35 35 0 003.41-.52c1.39-.31 2.78-.68 4.18-1.1A30.69 30.69 0 0042 74.1a21.9 21.9 0 008.54-8.36 29.15 29.15 0 003.89-11.5c0-.39 0-.82.06-1.28s.06-.93.06-1.39v-.59a22.79 22.79 0 00-3.37-11.44 18 18 0 00-9.72-7.72zm27.64 44h45.42V59.23H88.96V46.69h24v-15.8h-24V17.98h25.56V1.86H69.1zm121.72-55a30.4 30.4 0 00-10.1-12 30.45 30.45 0 00-11.21-5.12 74.59 74.59 0 00-12.37-1.72c-1.16-.07-2.34-.11-3.54-.11h-25.15v74h23.87q1.8 0 3.66-.12a80.34 80.34 0 0012.89-1.77 33.58 33.58 0 0011.89-5.11 32 32 0 0010.33-12.54 41.17 41.17 0 004-15.91v-2.91a9.3 9.3 0 00-.11-1.39 40.28 40.28 0 00-4.16-15.33zm-16.14 18.09a26 26 0 01-1.8 9.58 15.79 15.79 0 01-5.52 7.26 17.09 17.09 0 01-5.23 2.44 30.34 30.34 0 01-5.92 1c-.77.08-1.59.14-2.44.18s-1.66 0-2.44 0a4 4 0 01-.69 0 5 5 0 00-.82-.06 5.14 5.14 0 01-.75-.06 5.27 5.27 0 00-.76-.06V18.46h7.55a31.45 31.45 0 016.1.82 13.3 13.3 0 015.4 2.7 16.46 16.46 0 015.11 6.56 23.55 23.55 0 012.09 8.54 3.71 3.71 0 01.12.93zm92.33-32.18a39.92 39.92 0 00-8.07-3.94A41.57 41.57 0 00250.4.7l-2.84-.24c-1-.07-1.92-.11-2.85-.11a40.77 40.77 0 00-19.86 5.22 36.8 36.8 0 00-14.87 15.1 39 39 0 00-2.55 5.87 45.87 45.87 0 00-1.67 6.09 23.12 23.12 0 00-.46 3.14c-.08 1-.12 2-.12 3a38.26 38.26 0 005.58 19.71 37.86 37.86 0 0022.86 17.5 46 46 0 007.84 1.39c.54 0 1.06 0 1.57.06s1 .06 1.57.06a41.45 41.45 0 0021.71-6.22 37 37 0 0015.22-17.48 42.47 42.47 0 001.57-4.7 30.66 30.66 0 00.87-4.82 16.82 16.82 0 00.29-2.38c0-.82.06-1.61.06-2.38a40.31 40.31 0 00-4.56-18.53 36.34 36.34 0 00-12.75-14.25zm-3 33.92q-.06.81-.18 1.62a18.65 18.65 0 01-.4 2.56c-.2.85-.41 1.67-.64 2.44a20.5 20.5 0 01-7.14 9.81 18.19 18.19 0 01-11.09 3.66c-.47 0-.93 0-1.4-.06a13.18 13.18 0 01-1.39-.17 15.71 15.71 0 01-2.91-.7 16.07 16.07 0 01-9.46-7.26 24.43 24.43 0 01-3.74-11.67 4 4 0 01-.11-.87v-.87c0-.54 0-1.06.06-1.57s.09-1 .17-1.57c.15-.77.31-1.53.46-2.26a18.9 18.9 0 01.59-2.15 1.88 1.88 0 01.05-.47 2.42 2.42 0 01.18-.46 19.31 19.31 0 017-9.87 17.84 17.84 0 0110.91-3.72 15.24 15.24 0 012.33.18c.77.11 1.54.25 2.32.4s1.55.51 2.32.81 1.55.66 2.32 1.05a17.75 17.75 0 016.74 7.2 27.4 27.4 0 013 9.64c0 .47 0 .93.06 1.39s.06.93.06 1.4-.03.97-.07 1.51zm87.51-2.44c0 1.7 0 3.37.12 5s.19 3.22.35 4.77c.07.85.17 1.66.29 2.43s.21 1.59.29 2.44c-.47-.93-.93-1.89-1.4-2.9s-.93-2-1.39-3q-.93-1.86-1.92-3.66c-.66-1.2-1.33-2.34-2-3.42l-27.87-38h-19.51v74H318v-36.5c0-2.48-.12-5-.35-7.43s-.54-4.92-.93-7.32c.39.85.79 1.76 1.22 2.73s.87 2 1.33 3c.62 1.4 1.28 2.73 2 4a20.24 20.24 0 002.21 3.31l28.1 38.21h19.4v-74h-19.42zm79.72-36.35h-25.21l-25.43 74h20l3.84-13.36h28.57l3.72 13.36h20.2zM408.7 48.2l7.55-24.51c.31-1.08.6-2.17.87-3.25s.53-2.21.76-3.37a.9.9 0 00.12-.41.86.86 0 01.11-.4c.08-.47.18-.91.29-1.34s.21-.83.29-1.22c.08.39.16.8.24 1.22a9.41 9.41 0 00.34 1.34c.24 1.24.53 2.5.87 3.77s.72 2.5 1.11 3.66l7.51 24.51z" fill="#fff"/></svg>