<svg width="12" height="12" viewBox="0 0 12 12" fill="none" xmlns="http://www.w3.org/2000/svg">
<path d="M11.12 2C11.1578 2.03722 11.1878 2.08159 11.2083 2.13051C11.2288 2.17944 11.2393 2.23196 11.2393 2.285C11.2393 2.33805 11.2288 2.39056 11.2083 2.43949C11.1878 2.48842 11.1578 2.53278 11.12 2.57L8.00001 5.71C7.96222 5.74722 7.93221 5.79159 7.91172 5.84051C7.89123 5.88944 7.88068 5.94196 7.88068 5.995C7.88068 6.04805 7.89123 6.10056 7.91172 6.14949C7.93221 6.19842 7.96222 6.24278 8.00001 6.28L11.14 9.42C11.1778 9.45722 11.2078 9.50159 11.2283 9.55052C11.2488 9.59944 11.2593 9.65196 11.2593 9.705C11.2593 9.75805 11.2488 9.81056 11.2283 9.85949C11.2078 9.90842 11.1778 9.95278 11.14 9.99L10 11.13C9.92356 11.2039 9.82137 11.2453 9.71501 11.2453C9.60866 11.2453 9.50647 11.2039 9.43001 11.13L6.27001 8C6.19356 7.92607 6.09137 7.88475 5.98501 7.88475C5.87866 7.88475 5.77647 7.92607 5.70001 8L2.56001 11.12C2.48356 11.1939 2.38137 11.2353 2.27501 11.2353C2.16866 11.2353 2.06647 11.1939 1.99001 11.12L0.850014 10C0.81222 9.96278 0.782206 9.91842 0.761719 9.86949C0.741233 9.82056 0.730682 9.76805 0.730682 9.715C0.730682 9.66196 0.741233 9.60944 0.761719 9.56051C0.782206 9.51159 0.81222 9.46722 0.850014 9.43L4.00001 6.28C4.03781 6.24278 4.06782 6.19842 4.08831 6.14949C4.10879 6.10056 4.11934 6.04805 4.11934 5.995C4.11934 5.94196 4.10879 5.88944 4.08831 5.84051C4.06782 5.79159 4.03781 5.74722 4.00001 5.71L0.850014 2.57C0.81222 2.53278 0.782206 2.48842 0.761719 2.43949C0.741233 2.39056 0.730682 2.33805 0.730682 2.285C0.730682 2.23196 0.741233 2.17944 0.761719 2.13051C0.782206 2.08159 0.81222 2.03722 0.850014 2L2.00001 0.860002C2.07647 0.786073 2.17866 0.744747 2.28501 0.744747C2.39137 0.744747 2.49356 0.786073 2.57001 0.860002L5.70001 4C5.73723 4.0378 5.7816 4.06781 5.83053 4.0883C5.87945 4.10878 5.93197 4.11933 5.98501 4.11933C6.03806 4.11933 6.09057 4.10878 6.1395 4.0883C6.18843 4.06781 6.23279 4.0378 6.27001 4L9.41001 0.870001C9.48647 0.796073 9.58866 0.754747 9.69501 0.754747C9.80137 0.754747 9.90356 0.796073 9.98001 0.870001L11.12 2Z" fill="#d0d0d0"/>
</svg>
