<?xml version="1.0" encoding="UTF-8"?><!DOCTYPE svg PUBLIC "-//W3C//DTD SVG 1.1//EN" "http://www.w3.org/Graphics/SVG/1.1/DTD/svg11.dtd"><svg xmlns="http://www.w3.org/2000/svg" xmlns:xlink="http://www.w3.org/1999/xlink"><symbol id="advantages--eat" viewBox="0 0 76.17 68.96"><path d="M71.91 46H4.25A4.27 4.27 0 000 50.29v3.46A4.26 4.26 0 004.25 58h1v1a10 10 0 009.88 10H61a10 10 0 0010-10v-1h1a4.27 4.27 0 004.26-4.25v-3.46A4.27 4.27 0 0071.91 46zM68 59a6.94 6.94 0 01-7 7H15.13a6.93 6.93 0 01-6.92-7v-1H68zm5.21-5.29a1.27 1.27 0 01-1.3 1.29H4.25A1.26 1.26 0 013 53.75v-3.46A1.27 1.27 0 014.25 49h67.66a1.28 1.28 0 011.26 1.25zM16.16 37.86l5.48 4 5.47-4 5.48 4 5.48-4 5.48 4 5.48-4 5.48 4 5.47-4 5.49 4 6.37-4.65-1.77-2.42-4.6 3.35-5.49-4-5.47 4-5.48-4-5.48 4-5.48-4-5.48 4-5.48-4-5.47 4-5.48-4-5.47 4-4.6-3.35-1.77 2.42 6.37 4.65 5.47-4zM70.89 31.09v-3C70.24 12.48 55.8 0 38.08 0S5.92 12.48 5.24 28.09v3zM38.08 3c16 0 29.15 11.15 29.84 25.09H8.24C8.93 14.15 22.05 3 38.08 3z"/><circle cx="38.08" cy="15.04" r="2"/><circle cx="30.08" cy="10.08" r="2"/><circle cx="46.08" cy="10.08" r="2"/></symbol><symbol id="advantages--gift" viewBox="0 0 63 75.08"><path d="M60.17 22.23H35.76C49.36 15.41 50.45 11.12 50 8.71c-1.2-3.92-5.66-6.94-9.9-5.34-5.49 2.06-7 10.26-8.52 16.19-1.89-6-3.72-13.65-8-17.53A7.21 7.21 0 0017.9 0c-4 .35-9.65 5.32-7.35 10.85 2.22 5.31 9.54 8.67 14.36 11.35H2.83A2.84 2.84 0 000 25.06v11.19a2.84 2.84 0 002.84 2.83h.26v36h57v-36h.11A2.83 2.83 0 0063 36.25V25.06a2.85 2.85 0 00-2.83-2.83zM41.77 5.87c2.07-.3 4.9 1.29 5.17 3.17.39 2.73-3.35 5.2-5 6.35-2.48 1.72-4.85 2.61-7.17 4 .86-3.64 2.5-12.85 7-13.52zm-22.54 9.85C17 14.25 12.79 11.34 12.89 8c.11-3.51 5.65-6.45 8.68-3.8 3.8 3.34 5.62 11 7 16.36a68.14 68.14 0 01-9.34-4.84zm5.88 56.43H6V39.08h19.11zm0-36.07H3V25.23h22.11zm10 36.07h-7.06V25.23h7.07zm22 0H38.05V39.08h19.08zM60 36.08H38V25.23h22z"/></symbol><symbol id="advantages--house" viewBox="0 0 74.7 72.35"><path d="M29.5 65.34h16V41.41h-16v23.93zm13.07-2.93H32.44V44.34h10.13z"/><path d="M72.62 39.44l2.08-2.08-9.91-9.91V.47H51v13.16L37.35 0 0 37.36l2.08 2.08 7.83-7.83v37.8H6v2.94h63.85v-2.94h-5.06v-37.8zm-18.71-36h7.94v21.1l-7.94-7.94zm7.94 66h-49V28.67l24.5-24.5 24.5 24.5z"/><path d="M29.75 27.21a7.75 7.75 0 107.75-7.75 7.75 7.75 0 00-7.75 7.75zm7.75-5a5 5 0 11-5 5 5 5 0 015-4.97zM16.91 41.41h3v3.94h-3zM22.85 41.41h3v3.94h-3zM16.91 47.41h3v3.94h-3zM22.85 47.41h3v3.94h-3zM48.85 41.41h3v3.94h-3zM54.78 41.41h3v3.94h-3zM48.85 47.41h3v3.94h-3zM54.78 47.41h3v3.94h-3z"/></symbol><symbol id="advantages__triangle" viewBox="0 0 1084 53" preserveAspectRatio="none">
<path d="M1083.5 0H0L547.5 52.5L1083.5 0Z" fill="#ffffff"/>
</symbol><symbol id="dev" viewBox="0 0 154.38 195.33"><path d="M78 .59L77.19.5.5 8.54v140.57l76.69 45.63 76.69-45.63V8.54zm65.85 142.82l-66.66 39.66-66.66-39.66V85.79l66.38 39.51.11 7.16-45.54-27.1-.06 7 45.71 27.47.11 7.35L31.54 120l-.06 7 45.71 27.47 46.15-27.61v-7h0V97.1l20.56-12.28zm0-66.06l-18.29 10.74-8.42 5L77 69.17l-.06 7 34.31 20.41-.3.18-.74.43-4.88 2.81L77 83.16l-.06 7 22.36 13.3-5.3 3.48-.12.07L77 97.06l-.06 7L88 110.54l-11.29 6.78-66-39.26 66.11-39.75h0zm0-7l-67-39.51h0L10.53 70.31V17.58l66.66-7 66.66 7z" stroke="#231f20" stroke-miterlimit="10"/></symbol><symbol id="email" viewBox="0 0 16 12"><path d="M8 8a2.22 2.22 0 01-1-.34L0 4v7a1 1 0 001 1h14a1 1 0 001-1V4L9 7.66A2.22 2.22 0 018 8zm7-8H1a1 1 0 00-1 1v.76L8 6l8-4.2V1a1 1 0 00-1-1z"/></symbol><symbol id="field__phone" viewBox="0 0 18 18"><path d="M3.6 7.8a15.57 15.57 0 006.6 6.6l2.2-2.2a.8.8 0 011-.2 10.46 10.46 0 003.6.6.94.94 0 011 1V17a.94.94 0 01-1 1A17 17 0 010 1a.94.94 0 011-1h3.5a.94.94 0 011 1 11.33 11.33 0 00.6 3.6 1.23 1.23 0 01-.2 1L3.6 7.8z"/></symbol><symbol id="hero__photoTitle" viewBox="0 0 456.91 77.47"><path d="M41.46 31.82q-1.39-.46-3.48-1c-1.4-.34-2.83-.71-4.3-1.1q-2.67-.81-5.11-1.68a12.5 12.5 0 01-3.72-1.92 9.6 9.6 0 01-1.27-1.28 4.06 4.06 0 01-.82-1.5 1.86 1.86 0 01-.29-.69 4.23 4.23 0 01-.06-.7 5.83 5.83 0 012.35-4.36 9.45 9.45 0 015-2.38h.93a16.53 16.53 0 017.52 1.77 44.49 44.49 0 016.62 4l6.39-14.25a45.5 45.5 0 00-7.61-3.83 41 41 0 00-8.3-2.32c-1.09-.16-2.15-.29-3.2-.41a29.14 29.14 0 00-15.35 2.5 21.58 21.58 0 00-9.58 8.83 17.57 17.57 0 00-2.07 4.18 25.61 25.61 0 00-1.16 4.64 10 10 0 00-.29 1.86q-.06.93-.06 1.86v.87a3.49 3.49 0 00.16.87 18.63 18.63 0 00.4 2.67c.19.86.41 1.67.64 2.44a15.66 15.66 0 006.85 8.89 37.07 37.07 0 0010.69 4.47.53.53 0 01.23.06.49.49 0 00.23.06c.7.15 1.43.33 2.21.52a23.81 23.81 0 012.44.75 21.74 21.74 0 015.82 3.34A6.52 6.52 0 0136 54.27a8.5 8.5 0 01-.11 1.27 15.27 15.27 0 01-.35 1.44c-.08.16-.16.31-.23.47l-.24.46a7.9 7.9 0 01-2.61 2.56 10.11 10.11 0 01-3.54 1.39 7.26 7.26 0 01-1 .18 8.63 8.63 0 01-1 0 .92.92 0 01-.29 0 .88.88 0 00-.27-.06 1 1 0 01-.29-.06.88.88 0 00-.29-.06 15.93 15.93 0 01-9.02-3.15 49.24 49.24 0 01-7.08-6.45l-.18-.17-.17-.18L0 66.78a41.6 41.6 0 0012 7.61 38.52 38.52 0 0013.71 3.08h1.27a32.71 32.71 0 003.37-.18 35 35 0 003.41-.52c1.39-.31 2.78-.68 4.18-1.1A30.69 30.69 0 0042 74.1a21.9 21.9 0 008.54-8.36 29.15 29.15 0 003.89-11.5c0-.39 0-.82.06-1.28s.06-.93.06-1.39v-.59a22.79 22.79 0 00-3.37-11.44 18 18 0 00-9.72-7.72zm27.64 44h45.42V59.23H88.96V46.69h24v-15.8h-24V17.98h25.56V1.86H69.1zm121.72-55a30.4 30.4 0 00-10.1-12 30.45 30.45 0 00-11.21-5.12 74.59 74.59 0 00-12.37-1.72c-1.16-.07-2.34-.11-3.54-.11h-25.15v74h23.87q1.8 0 3.66-.12a80.34 80.34 0 0012.89-1.77 33.58 33.58 0 0011.89-5.11 32 32 0 0010.33-12.54 41.17 41.17 0 004-15.91v-2.91a9.3 9.3 0 00-.11-1.39 40.28 40.28 0 00-4.16-15.33zm-16.14 18.09a26 26 0 01-1.8 9.58 15.79 15.79 0 01-5.52 7.26 17.09 17.09 0 01-5.23 2.44 30.34 30.34 0 01-5.92 1c-.77.08-1.59.14-2.44.18s-1.66 0-2.44 0a4 4 0 01-.69 0 5 5 0 00-.82-.06 5.14 5.14 0 01-.75-.06 5.27 5.27 0 00-.76-.06V18.46h7.55a31.45 31.45 0 016.1.82 13.3 13.3 0 015.4 2.7 16.46 16.46 0 015.11 6.56 23.55 23.55 0 012.09 8.54 3.71 3.71 0 01.12.93zm92.33-32.18a39.92 39.92 0 00-8.07-3.94A41.57 41.57 0 00250.4.7l-2.84-.24c-1-.07-1.92-.11-2.85-.11a40.77 40.77 0 00-19.86 5.22 36.8 36.8 0 00-14.87 15.1 39 39 0 00-2.55 5.87 45.87 45.87 0 00-1.67 6.09 23.12 23.12 0 00-.46 3.14c-.08 1-.12 2-.12 3a38.26 38.26 0 005.58 19.71 37.86 37.86 0 0022.86 17.5 46 46 0 007.84 1.39c.54 0 1.06 0 1.57.06s1 .06 1.57.06a41.45 41.45 0 0021.71-6.22 37 37 0 0015.22-17.48 42.47 42.47 0 001.57-4.7 30.66 30.66 0 00.87-4.82 16.82 16.82 0 00.29-2.38c0-.82.06-1.61.06-2.38a40.31 40.31 0 00-4.56-18.53 36.34 36.34 0 00-12.75-14.25zm-3 33.92q-.06.81-.18 1.62a18.65 18.65 0 01-.4 2.56c-.2.85-.41 1.67-.64 2.44a20.5 20.5 0 01-7.14 9.81 18.19 18.19 0 01-11.09 3.66c-.47 0-.93 0-1.4-.06a13.18 13.18 0 01-1.39-.17 15.71 15.71 0 01-2.91-.7 16.07 16.07 0 01-9.46-7.26 24.43 24.43 0 01-3.74-11.67 4 4 0 01-.11-.87v-.87c0-.54 0-1.06.06-1.57s.09-1 .17-1.57c.15-.77.31-1.53.46-2.26a18.9 18.9 0 01.59-2.15 1.88 1.88 0 01.05-.47 2.42 2.42 0 01.18-.46 19.31 19.31 0 017-9.87 17.84 17.84 0 0110.91-3.72 15.24 15.24 0 012.33.18c.77.11 1.54.25 2.32.4s1.55.51 2.32.81 1.55.66 2.32 1.05a17.75 17.75 0 016.74 7.2 27.4 27.4 0 013 9.64c0 .47 0 .93.06 1.39s.06.93.06 1.4-.03.97-.07 1.51zm87.51-2.44c0 1.7 0 3.37.12 5s.19 3.22.35 4.77c.07.85.17 1.66.29 2.43s.21 1.59.29 2.44c-.47-.93-.93-1.89-1.4-2.9s-.93-2-1.39-3q-.93-1.86-1.92-3.66c-.66-1.2-1.33-2.34-2-3.42l-27.87-38h-19.51v74H318v-36.5c0-2.48-.12-5-.35-7.43s-.54-4.92-.93-7.32c.39.85.79 1.76 1.22 2.73s.87 2 1.33 3c.62 1.4 1.28 2.73 2 4a20.24 20.24 0 002.21 3.31l28.1 38.21h19.4v-74h-19.42zm79.72-36.35h-25.21l-25.43 74h20l3.84-13.36h28.57l3.72 13.36h20.2zM408.7 48.2l7.55-24.51c.31-1.08.6-2.17.87-3.25s.53-2.21.76-3.37a.9.9 0 00.12-.41.86.86 0 01.11-.4c.08-.47.18-.91.29-1.34s.21-.83.29-1.22c.08.39.16.8.24 1.22a9.41 9.41 0 00.34 1.34c.24 1.24.53 2.5.87 3.77s.72 2.5 1.11 3.66l7.51 24.51z" fill="#fff"/></symbol><symbol id="hero__title" viewBox="0 0 459.75 350.08"><path d="M165.42 70l-.2.23a6.44 6.44 0 01-4.52 2.22l2.82-4.87c1.81-3.14.14-6.1-2.68-6.1-2.3 0-4.09.92-5.81 3.91L153.56 68l-1.23 2.09-.15.18c-2.16 2.51-4.26 4.49-5.59 4.49-.66 0-1-.46-.34-1.64l6.42-11.2h2.44l.87-1.44h-2.48l2.82-4.89h-3l-2.82 4.89h-2.7l-.86 1.44h2.73l-6 10.43c-1.27 2.21-.37 4.26 2 4.26 1.74 0 3.67-1.31 5.52-3.09 0 3.82 5.29 4.56 8.54.47h.66a9.11 9.11 0 006.15-2.99 2.5 2.5 0 00-1.12-1zm-6.39.2h-.15a1.77 1.77 0 00-1.75 1.8 1.92 1.92 0 00.29 1v.06c-1.41 2.41-4.84 2-3-1.16l2.19-3.9 1.44-2.45c2.1-3.57 5-2.16 3.17.95zM206.88 70l-.2.23c-2.16 2.51-4.93 4.49-7 4.49-1.84 0-2.94-1.15-1.55-3.57l.28-.52c1.93.81 5.56.43 7.81-3.45l.43-.75c1.61-2.77.06-4.84-2.39-4.84a6.34 6.34 0 00-5.62 3.46l-2.9 5-.17.2c-2.16 2.5-4.27 4.49-5.59 4.49-.66 0-1-.46-.35-1.64l4.32-7.57c1.3-2.28.06-3.92-1.61-3.92-1.3 0-2.68.72-4.18 2.28l4.78-8.33h-3L181.57 70l-.17.19c-2.16 2.5-4.26 4.49-5.59 4.49-.66 0-1-.46-.34-1.64l6.42-11.2h2.44l.87-1.44h-2.48l2.82-4.9h-3l-2.82 4.9H177l-.86 1.44h2.73l-6 10.42c-1.26 2.22-.37 4.26 2 4.26a6.74 6.74 0 003.82-1.62l-.69 1.37h3l4.55-7.91c4.61-5.79 6.65-5 5.36-2.82L187 72.3c-1.27 2.22-.38 4.27 2 4.27 1.78 0 3.76-1.38 5.65-3.22.14 1.86 1.65 3.22 4.05 3.22 3.4 0 6.77-2.65 9.25-5.53a2.55 2.55 0 00-1.07-1.04zm-5.7-4.2c1.72-3 4.78-2.48 3 .63l-.43.75c-1.44 2.45-3.37 2.39-4.49 2zM316.05 70l-.2.23a18.83 18.83 0 01-3.6 3.25c.95-2.85.74-7.22 2.59-11.05l-2.25-1.21c-1.24 1.7-3.94 5.61-6.65 8.78l-.2.23c-2.16 2.51-4.26 4.49-5.59 4.49-.66 0-1-.46-.34-1.64l6.39-11.2h-3l-5.33 9.3c-2.27 2.07-4 3.22-4.6 3-.75-.31 0-1.43.37-2.07l5.85-10.19h-3L291.8 70l-.19.23a6.46 6.46 0 01-4.52 2.22l2.82-4.87c1.81-3.14.14-6.1-2.68-6.1-2.3 0-4.09.92-5.81 3.91L280 68l-1.23 2.09-.16.18c-2.15 2.51-4.92 4.49-7 4.49-1.84 0-2.94-1.15-1.56-3.57l.29-.52c1.93.81 5.56.44 7.81-3.45l.43-.75c1.61-2.76.06-4.84-2.39-4.84a6.34 6.34 0 00-5.62 3.46l-2.9 5-.17.2c-2.48 2.85-4.61 4.69-7 5.7l6.71-11.46h-1.76a3.17 3.17 0 00-3.14-2.88 6.67 6.67 0 00-5.13 3.46l-2.87 5-.21.23c-2.15 2.5-4.26 4.49-5.58 4.49-.66 0-1-.46-.35-1.64l3-5.24a3.06 3.06 0 00-.44-4.06l-1.67-2a1.17 1.17 0 01.14-1.89l-1.56-1.7c-1.7 1.53-1.84 3.23-.77 4.61l.26.35c-1.33 1.87-3.11 4.4-5.07 6.71l-.2.23a6.46 6.46 0 01-4.52 2.22l2.82-4.87c1.81-3.14.14-6.1-2.68-6.1-2.3 0-4.09.92-5.81 3.91L230.2 68l-1.2 2.06-.15.17c-2.48 2.85-4.61 4.69-7 5.7l6.71-11.46h-1.76a3.17 3.17 0 00-3.14-2.88 6.64 6.64 0 00-5.12 3.46l-4.21 7.25c-1.26 2.22-.37 4.26 2 4.26a5.74 5.74 0 002.85-1l-.79 1.44c-4 1.23-6.56 2.87-6.56 5.12 0 2.88 4.4 3.49 6.56-.2l2.28-4a18.19 18.19 0 007.18-4.48c0 3.84 5.29 4.59 8.54.48h.66a9.07 9.07 0 006.13-2.9c1.44-1.67 2.56-3.17 4.95-6.42l.4.48a1.48 1.48 0 01.18 1.7l-3.17 5.5c-1.27 2.22-.37 4.27 2.05 4.27 1.51 0 3.17-1 4.8-2.44a2.31 2.31 0 002.61 2.46 5.76 5.76 0 002.86-1L257 77c-4 1.23-6.56 2.88-6.56 5.12 0 2.88 4.4 3.48 6.56-.2l2.27-3.92a18.62 18.62 0 007.32-4.62c.13 1.87 1.64 3.23 4.06 3.23s4.85-1.36 6.94-3.2c-.11 3.92 5.27 4.72 8.54.58h.67a8.56 8.56 0 003.33-.85c-.81 2.08-.07 3.48 1.65 3.48s3.48-1.5 4.92-2.88a2.33 2.33 0 002.56 2.88c2.48 0 5.33-2.65 7.8-5.53 1.7-2 3.2-4.06 4.26-5.47-1.18 3.11-.54 8.69-3.39 8.69a1.66 1.66 0 01-1.41-1.09l-1.88 1a3.27 3.27 0 003.29 2.42 7.91 7.91 0 00.83-.06h.09c3-.4 6.07-2.82 8.32-5.44a1.91 1.91 0 00-1.12-1.14zm-43-4.2c1.73-3 4.78-2.48 3 .63l-.43.75c-1.44 2.45-3.37 2.39-4.5 2zm-57.16 15.6c-.64 1.13-1.64.95-1.64.15s.72-1.67 3-2.56zm1.38-6.68c-.66 0-1-.46-.35-1.64l4.18-7.28c1.61-2.8 4.81-2.08 3.34.63l-2.27 4c-1.82 2.88-3.63 4.29-4.9 4.29zm18.4-4.52h-.15a1.77 1.77 0 00-1.75 1.8 2 2 0 00.28 1v.06c-1.41 2.41-4.84 2-3.06-1.16l2.26-3.9 1.44-2.45c2.1-3.57 5-2.16 3.16.95zm18.82 11.2c-.63 1.13-1.64.95-1.64.15s.72-1.67 3-2.56zm1.39-6.68c-.67 0-1-.46-.35-1.64l4.18-7.28c1.61-2.8 4.8-2.08 3.34.63l-2.28 4c-1.77 2.88-3.63 4.29-4.89 4.29zm29.54-4.52h-.15a1.78 1.78 0 00-1.76 1.8 2 2 0 00.29 1v.06c-1.41 2.41-4.83 2-3-1.16L283 68l1.44-2.45c2.11-3.57 5-2.16 3.17.95zM101.42 66.82h28.92v1.96h-28.92zM328.42 66.82h28.92v1.96h-28.92z" fill="#766458"/><path d="M163.18 0h7.71l-1.21 44.92h-14.52l-2-18.55-2 18.55h-14.54L135.47 0h7.65l.63 37.15h.83L149.36 0h7.58l4.91 37.15h.76zM195 37.15v7.77h-20.86V0H195v7.7h-13.22v10.84h10.58v7.7h-10.58v10.91zM216.37 37.15v7.77h-18.28V0h7.65v37.15zM232.62 28.36l7.71-1.8v13.61a4.81 4.81 0 01-4.72 4.75h-11.47a4.77 4.77 0 01-4.71-4.75V4.75A4.72 4.72 0 01224.14 0h11.47a4.76 4.76 0 014.71 4.75v9.11l-7.7 1.8v-8h-5.55v29.49h5.55v-8.79zM261.09 0a4.76 4.76 0 014.71 4.75v35.42a4.8 4.8 0 01-4.71 4.75h-11.47a4.76 4.76 0 01-4.71-4.75V4.75A4.72 4.72 0 01249.62 0zm-3 7.7h-5.55v29.45h5.55zM290.84 0h7.58v44.92h-7.65V22.84l-3.06 11.43h-7.45l-3-11.43v22.08h-7.65V0h7.58L284 21.69zM323.13 37.15v7.77h-20.89V0h20.89v7.7h-13.25v10.84h10.58v7.7h-10.58v10.91z" fill="#81b3d3"/><path d="M44.47 157.61a20.45 20.45 0 00-12.9-5c-3.58 0-8.34 2.08-8.34 6.25 0 4.37 5.26 6.06 8.63 7.15l5 1.49c10.42 3.07 18.46 8.33 18.46 20.44 0 7.45-1.79 15.09-7.74 20.15s-13.7 7.05-21.24 7.05A46.22 46.22 0 010 206.64L8.34 191c4.86 4.27 10.62 7.74 17.27 7.74 4.57 0 9.43-2.28 9.43-7.54 0-5.46-7.64-7.35-11.81-8.54C11 179.15 3 176 3 161.48c0-15.19 10.82-25.11 25.81-25.11a51.2 51.2 0 0123.42 6.15zM91.83 154.83v12.51h21.94v16.48H91.83v12.9H115v16.48H72.38v-74.85H115v16.48zM129.42 138.35H157c20.85 0 38 16.38 38 37.42s-17.27 37.42-38 37.42h-27.58zm19.45 58.37h4.37c11.61 0 21.54-6.35 21.54-20.94 0-13.41-8.84-20.95-21.34-20.95h-4.57zM286.87 174.38c0 24.22-17.37 41.3-41.39 41.3s-41.39-17.07-41.39-41.3c0-22.63 19.85-38.51 41.39-38.51s41.39 15.88 41.39 38.51zm-62.53.1c0 12.91 9.53 22.34 21.14 22.34s21.14-9.43 21.14-22.34c0-10.32-9.52-19.75-21.14-19.75s-21.14 9.43-21.14 19.75zM297.24 138.35h19.45l35.64 45.76h.2v-45.76H372v74.84h-19.47l-35.64-45.85h-.2v45.85h-19.45zM407.35 200.19l-5.16 13h-20.65l28.79-74.84h21.24l28.18 74.84H439l-4.86-13zM421 161.48h-.2l-8 23.82h16.18zM108.08 287.74c7.66-2.59 8.24-12.18.69-12.18-2.08 0-4.56 1.46-6.27 4.45l-10.21 17.65a14.37 14.37 0 01-1.46 2.15c-2.62-3.61-1.86-9 1.82-11.38l-1.53-1.93c-8 5.07-5.61 19.69 7.66 19.69 11.34 0 16.6-13.6 9.3-18.45zm-9.37 15.54a10.83 10.83 0 01-5.47-1.28 18.79 18.79 0 001.89-2.69l6.39-11.06 1 .11c8.92 1.83 5.38 14.92-3.81 14.92zm4.08-17.28l3.07-5.25c2.77-4.78 6.31-2 4.41 1.6-1.46 2.73-3.61 3.57-7.48 3.65z" fill="#fff"/><path d="M140.16 300c-.63 2.25.57 4.08 3.15 4.08 1.53 0 3.42-1 5.25-2.48.18 1.46 1.35 2.48 3.28 2.48s4.23-1.4 6.39-3.36c-.42 2 .54 3.36 2.41 3.36 2.08 0 4.42-1.9 6.24-3.65-.37 2 .84 3.65 3.25 3.65 3.13 0 6.74-3.36 9.88-7l-.1-.16c2.09-2.43 3.94-5 5.27-6.77-1.5 3.94-.7 11-4.31 11a2.13 2.13 0 01-1.79-1.38l-2.37 1.23a4.14 4.14 0 004.16 3.06c.36 0 .69 0 1.06-.07h.11c2.78-.37 5.55-2.06 7.94-4.22.06 2.49 2 4.33 5.15 4.33 4.3 0 8.56-3.36 11.7-7a3.23 3.23 0 00-1.42-1.32l-.26.3c-2.73 3.17-6.23 5.68-8.89 5.68-2.34 0-3.72-1.45-2-4.52l.36-.65c2.45 1 7 .54 9.89-4.38l.54-.95c2-3.5.08-6.12-3-6.12a8 8 0 00-7.11 4.37l-3.69 6.32-.1-.05-.26.29a23.42 23.42 0 01-4.56 4.13c1.21-3.61.95-9.16 3.29-14l-2.85-1.53c-1.57 2.15-5 7.11-8.42 11.12a1.34 1.34 0 00.11.14l-.14.15c-2.73 3.18-5.39 5.69-7.07 5.69-.84 0-1.32-.58-.44-2.08l8.1-14.18h-3.8l-6.74 11.78c-2.89 2.62-5.11 4.08-5.84 3.75-.95-.4 0-1.82.48-2.62l7.4-12.91h-3.8l-6 10.44-.29-.16-.25.29c-2.74 3.17-5.4 5.69-7.08 5.69-.84 0-1.31-.58-.44-2.08l6.13-10.72h-2.15a4 4 0 00-4-3.83c-2 0-4.88 1.6-6.49 4.38l-3.85 6.63a2.82 2.82 0 00-.57-.36l-.26.29c-2.73 3.17-6.23 5.69-8.89 5.69-2.34 0-3.72-1.46-2-4.52l3.9-6.78c2.19-3.76 6-3.14 3.79.8l-.55.95h3.1l.55-.95c2-3.5.07-6.13-3-6.13a8 8 0 00-7.11 4.38l-3.77 6.48a3 3 0 00-.35-.19l-.25.29c-2.74 3.17-6.24 5.69-8.9 5.69-2.33 0-3.72-1.46-2-4.52l.37-.66c2.44 1 7 .55 9.88-4.37l.55-.95c2-3.5.07-6.13-3-6.13a8 8 0 00-7.11 4.38l-4 6.81c-2.37 4.05-.32 7.77 4.16 7.77 3.34 0 6.66-2 9.44-4.63-.1 2.64 1.87 4.63 5.14 4.63 3.12-.04 6.2-1.78 8.85-4.12zm58-9.56c2.19-3.76 6.05-3.14 3.79.8l-.55.95c-1.82 3.1-4.26 3-5.68 2.52zM144 299.67l5.29-9.23c2-3.54 6.09-2.63 4.23.8l-3 5.18c-2.29 3.61-4.56 5.32-6.12 5.32-.8 0-1.28-.58-.4-2.07zm-24.19-9.23c2.19-3.76 6.06-3.14 3.8.8l-.55.95c-1.82 3.1-4.27 3-5.69 2.52zM248.4 304.08c4.3 0 8.57-3.36 11.71-7a3.26 3.26 0 00-1.43-1.32l-.25.3c-2.74 3.17-6.24 5.68-8.9 5.68-2.33 0-3.72-1.45-2-4.52l.36-.65c2.45 1 7 .54 9.89-4.38l.54-.95c2-3.5.08-6.12-3-6.12a8 8 0 00-7.11 4.37l-3.7 6.34-.11-.07-.25.3c-2.74 3.17-5.4 5.68-7.08 5.68-.84 0-1.31-.58-.44-2.08l5.47-9.59c1.64-2.88.08-5-2-5-1.64 0-3.39.92-5.29 2.89l6.06-10.54H237L226.35 296a2.3 2.3 0 00-.44-.26l-.25.3c-2.74 3.17-5.4 5.68-7.08 5.68-.84 0-1.31-.58-.44-2.08l8.14-14.18h3.1l1.09-1.83h-3.13l3.57-6.19h-3.79l-3.58 6.19h-3.42l-1.1 1.83h3.46l-7.62 13.2c-1.6 2.81-.47 5.4 2.59 5.4 1.89 0 3.94-1.22 6-3l-1.5 2.61h3.83l5.76-10c5.84-7.33 8.43-6.38 6.78-3.57l-4.92 8.57c-1.6 2.81-.47 5.4 2.59 5.4 2.3 0 4.86-1.82 7.3-4.22.08 2.45 2.01 4.23 5.11 4.23zm3.06-13.64c2.19-3.76 6.06-3.14 3.79.8l-.54.95c-1.83 3.1-4.27 3-5.69 2.52zM363.42 295.77l-.26.29c-2.73 3.17-5.39 5.69-7.07 5.69-.84 0-1.31-.59-.44-2.08l12.84-22.21h-3.8l-5.58 9.62a4.1 4.1 0 00-3.46-2c-2 0-4.89 1.6-6.49 4.37l-3.71 6.41-.24-.14-.26.3c-2.73 3.17-5.39 5.68-7.07 5.68-.84 0-1.31-.58-.44-2.08l5.47-9.59c1.64-2.88.07-5-2-5-1.64 0-3.35.88-5.25 2.85l1.42-2.48h-3.79l-6.1 10.6a3.65 3.65 0 00-.36-.21l-.26.3c-2.73 3.17-5.4 5.68-7.07 5.68-.84 0-1.32-.58-.44-2.08l6.12-10.72H323a3.94 3.94 0 00-4-3.83c-2.05 0-4.89 1.61-6.5 4.38l-3.66 6.33-.21.23c-2.73 3.17-5.39 5.69-7.07 5.69-.84 0-1.31-.58-.44-2.08L305 293c1.32-2.3.69-3.65-.54-5.15l-2.12-2.55a1.48 1.48 0 01.22-2.19l-2-2.15c-2.15 1.93-2.33 4.08-1 5.84l.33.43c-1.68 2.37-3.94 5.58-6.43 8.5.08.11.17.21.26.32-3.12 3.59-5.78 5.92-8.76 7.19l4.81-8.24H286l-.4.66c-2 3.53-4.3 6.05-7.26 6.05-2.59 0-3.06-2.59-.8-6.45l1.06-1.86a13.36 13.36 0 002.15.18c13.49 0 20-18.05 8.13-18.05-2.08 0-4.56 1.46-6.27 4.45l-5.91 10.17a6.1 6.1 0 01-3.39-5.39 6 6 0 012.44-4.78l-1.24-2.23a8.36 8.36 0 00.88 14.63l-1.13 2c-2.66 4.59-2.19 9.7 3.17 9.7a7.6 7.6 0 004.12-1.21l-1 1.72c-5.14 1.56-8.32 3.64-8.32 6.49 0 3.64 5.58 4.41 8.32-.26l2.91-5c3.94-1.24 7.81-3.94 12-8.75a2.5 2.5 0 00-.24-.36c1.69-2 3.12-3.89 6-7.78l.51.62a1.86 1.86 0 01.22 2.16l-4 7c-1.6 2.81-.47 5.4 2.59 5.4 1.91 0 4-1.25 6-3 0 1.74 1.15 3 3.31 3 1.54 0 3.43-1 5.25-2.48.19 1.45 1.36 2.48 3.29 2.48s3.79-1.13 5.74-2.79l-1.4 2.42h3.83l5.8-10.1c5.8-7.26 8.39-6.31 6.74-3.5l-4.92 8.57c-1.6 2.81-.47 5.39 2.59 5.39 2 0 4.23-1.38 6.38-3.34-.2 1.9 1 3.34 3.3 3.34 1.53 0 3.42-1 5.25-2.48.18 1.46 1.35 2.48 3.28 2.48 3.14 0 6.75-3.35 9.88-7a3.25 3.25 0 00-1.44-1.33zm-78-14.16c1.13-1.93 2.37-2.77 3.42-2.77 6 0 1.79 12.26-8.13 12.26H280zm-8.06 28.6c-.8 1.42-2.08 1.2-2.08.18s.87-2.12 3.79-3.25zm39.69-13.79c-2.3 3.61-4.56 5.32-6.13 5.32-.84 0-1.31-.58-.44-2.08l5.29-9.22c2-3.54 6.09-2.63 4.23.8zm36.7-.22c-2.3 3.76-4.63 5.54-6.24 5.54-.83 0-1.31-.58-.43-2.08l5.28-9.22c2.05-3.54 6.09-2.63 4.23.8zM236.71 331.76l-.25.3c-2.74 3.17-5.4 5.69-7.08 5.69-.84 0-1.31-.59-.43-2.08l5.47-9.59c1.64-2.89.07-5-2-5-1.64 0-3.35.87-5.25 2.84l1.43-2.48h-3.8l-6.11 10.57a3.61 3.61 0 00-.48-.29l-.26.3a8.22 8.22 0 01-5.72 2.81l3.57-6.17c2.3-4 .18-7.73-3.39-7.73-2.92 0-5.18 1.17-7.37 5l-1.86 3.25-1.68 2.82a1.45 1.45 0 00-.34-.19l-.25.29c-3.14 3.61-5.8 5.94-8.79 7.22l10.39-17.8h-3.79L192 333.15c-2.92 2.7-5.18 4.2-5.91 3.87-.95-.4 0-1.82.48-2.63l7.4-12.91h-3.79L184.13 332a1.79 1.79 0 00-.33-.18l-.25.29c-2.74 3.17-5.4 5.69-7.08 5.69-.84 0-1.31-.59-.43-2.08l5.46-9.59c1.65-2.88.08-5-2-5-1.64 0-3.35.87-5.25 2.84l1.42-2.48h-3.79l-6.1 10.51a2.64 2.64 0 00-.36-.2l-.26.29c-2.73 3.17-5.39 5.69-7.07 5.69-.84 0-1.31-.59-.44-2.08l6.13-10.7h-2.15a4 4 0 00-4-3.83c-2 0-4.89 1.6-6.49 4.37l-3.92 6.77a2.07 2.07 0 00-.83-.49l-.25.29c-2.74 3.17-6.09 5.69-9.85 5.69-2.59 0-4.16-2.59-1.9-6.46l1.06-1.86a13.43 13.43 0 002.15.19c4 0 8.65-2.08 11.64-7.3a10.59 10.59 0 001.53-5.1c0-3.43-2.23-5.65-5-5.65-2.07 0-4.55 1.46-6.27 4.45l-5.91 10.17a6.12 6.12 0 01-3.39-5.4 6 6 0 012.45-4.77l-1.25-2.23a8.36 8.36 0 00.88 14.63l-1.13 2c-2.66 4.59-1.09 9.7 4.27 9.7 4.24 0 7.35-1.89 10-4.38-.83 2.39.37 4.38 3 4.38 1.54 0 3.43-1 5.26-2.48.18 1.46 1.35 2.48 3.28 2.48s3.79-1.13 5.74-2.79l-1.4 2.42h3.83l5.8-10.1c5.8-7.26 8.39-6.31 6.75-3.5l-4.93 8.57c-1.6 2.81-.47 5.39 2.59 5.39 2 0 4.29-1.42 6.47-3.42-.46 2.09.51 3.42 2.4 3.42s3.9-1.53 5.61-3.06l-2.08 3.57c-5.14 1.53-8.35 3.65-8.35 6.49 0 3.65 5.58 4.42 8.31-.25l2.92-5a23.89 23.89 0 009.56-6.19c-.52 5.29 6.54 6.5 10.79 1.12h.84a11.09 11.09 0 004.95-1.45l-2.55 4.41H218l5.8-10.1c5.8-7.26 8.39-6.31 6.75-3.51l-4.93 8.57c-1.6 2.81-.47 5.4 2.59 5.4s6.75-3.35 9.89-7a3.37 3.37 0 00-1.39-1.4zm-94.38-14.15c1.13-1.93 2.37-2.77 3.42-2.77 1.43 0 2.08 1 2.08 2.34 0 3.53-4.3 9.92-10.21 9.92h-.76zm13.35 14.81c-2.3 3.61-4.56 5.32-6.13 5.32-.83 0-1.31-.58-.43-2.08l5.28-9.22c2-3.54 6.09-2.63 4.23.8zm28.85 13.78c-.8 1.43-2.08 1.21-2.08.19s.92-2.12 3.83-3.25zm25.53-14.2h-.18a2.24 2.24 0 00-2.23 2.26 2.49 2.49 0 00.37 1.28v.07c-1.79 3.06-6.13 2.48-3.87-1.46l2.89-5 1.82-3.1c2.66-4.52 6.31-2.73 4 1.21zM324.62 333.08a2.39 2.39 0 00-1.42-1.32l-.26.3a23.36 23.36 0 01-4.56 4.12c1.21-3.61.95-9.15 3.29-14l-2.85-1.53c-1.57 2.15-5 7.11-8.43 11.12h-.05l-.25.3c-2.74 3.17-5.4 5.69-7.08 5.69-.84 0-1.64-.84-1.64-2.56v-1.57c2.66.33 5.47-1.42 7.26-4.52l1-1.75c3.53-6.05-2.23-8.06-6.09-4.52l5.39-9.37h-3.79l-10.82 18.77a2.67 2.67 0 00-.69-.46l-.26.29c-2.73 3.17-6.23 5.69-8.89 5.69-2.34 0-3.72-1.46-2-4.52l3.9-6.78c2.18-3.76 6.05-3.14 3.79.8l-.55.95h3.1l.55-.95c2-3.5.07-6.13-3-6.13a8 8 0 00-7.11 4.38l-3.73 6.4-.23-.13-.26.29c-2.73 3.17-5.4 5.69-7.07 5.69-.84 0-1.31-.58-.44-2.08l8.1-14.18h-3.8L269 333.26c-2.89 2.63-5.11 4.09-5.84 3.76-.95-.4 0-1.82.47-2.63l7.41-12.9h-3.8l-7.36 12.74a23.71 23.71 0 01-2.45 1.95c1.2-3.61.95-9.15 3.28-14l-2.84-1.54c-1.57 2.16-10.32 13.75-13.75 17.77a5.46 5.46 0 001.42 1.31c2.15-2.48 9.37-11.78 10.72-13.57-1.49 3.94-.69 11-4.3 11a2.12 2.12 0 01-1.79-1.39l-2.33 1.24a4.13 4.13 0 004.16 3.06 9.59 9.59 0 001.06-.07h.1a13.09 13.09 0 005.64-2.38 2.28 2.28 0 002.5 2.49c2.08 0 4.42-1.89 6.24-3.64-.36 2 .84 3.64 3.25 3.64s5-1.89 7.46-4.38c0 2.52 2 4.38 5.15 4.38s6.13-1.72 8.77-4l-2.11 3.67h3.83l4.34-7.55v3c0 3.24.62 4.88 3.68 4.88s6.75-3.35 9.89-7c2.15-2.48 4.05-5.14 5.4-6.93-1.5 3.94-.69 11-4.3 11a2.11 2.11 0 01-1.79-1.38l-2.35 1.21a4.13 4.13 0 004.16 3.06c.36 0 .69 0 1.05-.07h.11c3.92-.53 7.7-3.59 10.54-6.91zm-25.19-3l1.1-1.9c4.37-6.09 7.36-4.41 6-2.11l-1.83 3.13c-1.11 1.98-4.43 3.37-5.27.89zM324.47 335.66a2.18 2.18 0 00-2.18 2.23 2.14 2.14 0 002.18 2.19 2.19 2.19 0 002.23-2.19 2.22 2.22 0 00-2.23-2.23zM324.65 334.17h3.84l11.88-20.71h-3.79l-11.93 20.71zM80.41 277.58a2.52 2.52 0 01-.67 1.68 2.72 2.72 0 01-.83.57 2.64 2.64 0 01-1.1.22 3.47 3.47 0 01-1.31-.25 2.92 2.92 0 01-1.06-.73 3 3 0 01-.57-1.05 3.86 3.86 0 01-.21-1.28 6 6 0 011.76-4.3 5.33 5.33 0 01.85-.69 6.83 6.83 0 01.89-.54c.28-.15.53-.27.73-.36a4.06 4.06 0 00.37-.17l1.36 2c-.25.09-.53.21-.83.35a4.46 4.46 0 00-.86.54 2.88 2.88 0 00-.68.76 2.3 2.3 0 00-.31 1 2.77 2.77 0 011.73.57 2 2 0 01.74 1.68zm7.87 0a2.5 2.5 0 01-.17.88 2.37 2.37 0 01-.51.8 2.5 2.5 0 01-.83.57 2.6 2.6 0 01-1.1.22 3.42 3.42 0 01-1.3-.25 2.84 2.84 0 01-1.06-.73 3.13 3.13 0 01-.58-1.05 4.13 4.13 0 01-.2-1.28 6.1 6.1 0 01.45-2.37 6 6 0 011.31-1.93 5.72 5.72 0 01.84-.69 7.63 7.63 0 01.9-.54c.28-.15.52-.27.73-.36a4.06 4.06 0 00.37-.17l1.35 2c-.25.09-.52.21-.83.35a5.16 5.16 0 00-.86.54 3 3 0 00-.67.76 2.07 2.07 0 00-.31 1 2.74 2.74 0 011.73.58 2 2 0 01.74 1.67zM353.44 336.52a2.5 2.5 0 01.17-.88 2.23 2.23 0 01.51-.79 2.59 2.59 0 01.82-.58 2.8 2.8 0 011.1-.22 3.48 3.48 0 011.31.26 2.92 2.92 0 011.06.73 3.18 3.18 0 01.58 1 4.25 4.25 0 01.2 1.29 6 6 0 01-.46 2.37 6 6 0 01-2.15 2.62 10.1 10.1 0 01-.89.54l-.73.35-.37.17-1.36-2a8.72 8.72 0 00.83-.36 3.88 3.88 0 00.86-.54 2.9 2.9 0 00.68-.76 2.11 2.11 0 00.3-1 2.74 2.74 0 01-1.72-.57 2 2 0 01-.74-1.63zm-7.87 0a2.5 2.5 0 01.17-.88 2.38 2.38 0 01.51-.79 2.52 2.52 0 01.83-.58 2.73 2.73 0 011.1-.22 3.43 3.43 0 011.3.26 3 3 0 011.07.73 3.36 3.36 0 01.57 1 4 4 0 01.2 1.29 6.17 6.17 0 01-.45 2.37 6 6 0 01-1.31 1.92 5.38 5.38 0 01-.84.7q-.48.31-.9.54c-.28.14-.52.26-.73.35l-.37.17-1.35-2a8.72 8.72 0 00.83-.36 4.12 4.12 0 00.86-.54 3.09 3.09 0 00.68-.76 2.11 2.11 0 00.3-1 2.79 2.79 0 01-1.73-.57 2 2 0 01-.74-1.63z" fill="#fff"/></symbol><symbol id="hero__triangle" viewBox="0 0 1199.91 57" preserveAspectRatio="none"><path fill="#fff" d="M249.57 23.71L0 0v57h599.96L249.57 0v23.71zM950.35 23.71V0L599.96 57h599.95V0L950.35 23.71z"/></symbol><symbol id="logo--mobile" viewBox="0 0 101.67 83.98"><path fill="#23a9e1" d="M0 0l50.58 59.05L101.67 0H0z"/><path d="M50.92 0H0v22.46L50.58 84l.34-.42 50.75-60.39V0zm0 57.05l-.34.41L3.71 1.78h94.42z" fill="#491213"/><path d="M50.58 57.46l.34-.41L78.5 24.76c-6.92.95-11.87 6.08-18.61 5-3.39-.56-3.5-2.51-4.47-4.46-.74-1.49-1.94-1.3-3.48-1.91s-2.28-1.73-5.17-1.06c-2.52.59-2.81 4.52-6 4.3-1.69-.13-1.81-2.5-4.24-5.54-6.3-7.57-12.16-6.53-16.25.47z" fill="#491213"/><path d="M23.28 32.25a2.79 2.79 0 01.8 2.11c0 .58-.93 1.55-.27 1.85l2.25-2.83c-.6-.15-5.37-5.85-5.44-6.48l-3.16 1.74c.16.66 1.29 0 1.85 0a2.89 2.89 0 012 1.16c-1.73 1.45-5.93 5-6.37 5.09-.23 0-1.09-.6-1.1-.06 0 .26.85 1 1 1.21L17 38.73c.62-.28-.11-.73.21-1.24s4.9-4.27 6-5.24zM18 25.27c.44-.1.62.43.95-.06-.81-1-1.63-1.94-2.44-2.92-.38-.44-.84-.91-.71 0 .09.63-6.11 5.67-6.49 5.82s-.76-.41-1.11.1l2.19 2.61c.25.29.48.61.75.88s.21-.67.22-.59c-.09-.51.53-.94.86-1.22A58.94 58.94 0 0118 25.27zM9.24 24.35a3.22 3.22 0 01-4.21-2c-.54-1.84.61-3.76 2.07-4.8s3.59-1 4.37.84a3.59 3.59 0 01-.09 2.5c-.16.5-.6 1 0 1.29L14 18.85c-1.06-.63-1.52-1.68-2.31-2.59A5.89 5.89 0 008.23 14c-2.87-.4-5.57 2.56-5.79 5.25a5.75 5.75 0 001.24 4c.75 1 1.87 1.62 2.44 2.75a22.55 22.55 0 003.29-1.25 2.09 2.09 0 00-.17-.37zM48.54 60.76c-1.15-.77-4-4.69-4.58-5.34l-.33-.42s-.28.22-.24.19c-.18.14.13.57-.06.86-.79 1.24-5.75 5-6 5.16-.56.39-1.17-.15-1.49.32a46 46 0 003 3.58c.48.08.15-.81.21-1a30.37 30.37 0 013.55-3.21c.34-.28.69.42.89.72a1.78 1.78 0 01.3 1.57c-.12.37-.72.92-.25 1.17l2.61-3c.25-.3-.57 0-.47-.09a.92.92 0 01-1.06 0c-.1-.07-1.09-1.08-1-1.17a4.73 4.73 0 011.53-1.1c.87-.21 1.59 1.52 1.71 2.13a3.46 3.46 0 01-.07 1.75c-.13.39-.49.7 0 .93l2.13-2.92a.68.68 0 01-.4-.09zM38.31 56.63a5.48 5.48 0 10-7.79-1.07 5.42 5.42 0 007.79 1.07c1.16-.98-.1.07 0 0zm-.46-4.75a7.41 7.41 0 01-3.74 3.66c-1.81.72-3.1-.82-2.35-2.55a7.45 7.45 0 013.73-3.67c1.85-.73 3.07.85 2.36 2.56-.38.89.07-.17 0 0zM31.87 42c.47.06.92.55 1.27 0l-2.23-2.63c-.6.26.05.55-.2 1s-2.56.78-3.17.89a14.93 14.93 0 011.16-2.84c.54-.44.88.43 1.28-.14l-2.75-3.25c-.31-.37-.55-1-1-.68a8.47 8.47 0 01-.08 1.73c-.09.24-.94 3.64-1.93 4.47a20.88 20.88 0 01-2.7 2.1c-.54.19-.83-.6-1.22 0l2.49 3c.12.15.6.86.77.89.52.1.06-.89.11-1.09.15-.43 2.5-2.71 3.5-2.85a19 19 0 014.7-.6zM69.21 52.45a5.06 5.06 0 01.21 2c-.11.87-1 2.92-2.17 2.34a18.6 18.6 0 01-3.19-2.55c.8-.94 1.51-1.75 2.85-1.3.37.12.69 0 .3-.26s-3.11-2-3.26-1.8.53.87.22 1.47a6.9 6.9 0 01-.93 1.22c-.72-.61-1.92-1.25-1.06-2.25a3.69 3.69 0 012.1-1.32c.57-.11 1.84.39 2-.22-1.09-.52-2.17-1-3.26-1.56.18.79-3.35 4.52-4.13 5.46-.11.14-.66.61-.67.8 0 .42.63.09.66.08.49-.18 6.82 5.11 7 5.47s-.22.58 0 .73c0 0 .23.22.26.19.39-.47 4.52-6 5.37-6.22-.79-1.21-1.59-2.43-2.37-3.65-.64.24-.07.92.07 1.37zM63 59.15c-2.07-1.34-5.59 1.28-6.12 1.53-1 .49-1.79-.54-1.25-1.5A2.78 2.78 0 0158 57.89c.27 0 1.35.2 1.46 0s.23-.23 0-.35l-2.57-1.73c-.17 1-1.38 1.73-2.07 2.44a4.7 4.7 0 00-1.52 3.15 3 3 0 001.7 2.69 3.29 3.29 0 003.33-.51 19.66 19.66 0 011.92-1.17c1-.47 2.31-.06 1.95 1.27A3.58 3.58 0 0159.79 66a3.22 3.22 0 01-1.87-.09c-.43-.14-1-.73-1.23-.11l3.48 2.54a2.35 2.35 0 011.08-1.57 11.48 11.48 0 002-2.12c1.16-1.65 1.54-4.05-.25-5.5zM63 59.15c.93.6-.59-.49 0 0zM99.73 19.63c-.72.73-8.42-2.34-9-2.77-.29-.11-.3-1.32-.7-.83s-.81 1-1.22 1.46L87.58 19c-.26.31-.54.45 0 .72.84-.42 5.42 7.34 5 8.46-.73.37-6.92-5.06-7.08-5.42-.06-.14.27-1-.22-.94-.22 0-.74.89-.88 1.07L83.48 24c.33.49.51 0 1 0a13.81 13.81 0 012.24 1.67c-.73 0-2.69.13-2.94.11-.9.11-.42-.66-1-.93l-2.28 2.76-1.33 1.61c-.05.07 0 0 0 .11.33.28.11.17.57 0s6.56 4.93 6.78 5.19c.37.45-.16 1 .41 1.22l1.8-2.18c.09-.11.14-.1 0-.2-.43-.35-.48.21-1 .15s-4.4-3.37-5.9-4.61l8.2-.3c.3 0 1.14.89 1.06 1.21s-.46.56.06.8c.48-.58 1-1.15 1.45-1.74l.23-.28a.63.63 0 00.21-.26l.17-.21c.43-.49 1.8-2 1.64-2.15-.47-.4-.69.46-1.3-.06a12.89 12.89 0 01-1.44-2.16c-.27-.45.6-.9 1-1.12.78-.48 3.25-1.18 3.48.35 0 .26-.27.55-.08.7s.2.25.27.17 2.36-2.85 3.3-4c-.08-.03-.23-.18-.35-.22zm-7.37 2.15l-.08.06.08-.05a5.44 5.44 0 00-1 .76l-1.56-2.7 3.52 1.49a3.72 3.72 0 00-.96.44zM82.62 33a5.48 5.48 0 10.59 7.6 5.38 5.38 0 00-.59-7.6zm-.29 6.61c-1.23 1.3-3.36.1-4.51-.73S74.69 36.34 76 34.8c1.06-1.29 3.12-.23 4.19.48s3.41 2.6 2.27 4.22c.03-.09.08-.15-.13.11z" fill="#fff"/><path d="M82.62 33c1.17 1-.26-.22 0 0zM82.31 39.64a.76.76 0 00.08-.11.62.62 0 00-.08.11zM76 42.12c.11.09.28.22-.06-.06-2.83-2.12-6.19-1.5-8.4 1.16l-3 3.57c.35.51.76-.12 1.27.17s6.25 5.1 6.34 5.37c.16.45-.25.54.14.87.18.15 4.54-5.24 4.94-6.19A4.33 4.33 0 0076 42.12zm-1.31 6.75c-.24.3 0 .06-.67.65-.31.3-6.44-4.67-6.19-4.94a4.34 4.34 0 013.58-1.3c2.21.56 5.23 3.26 3.3 5.59z" fill="#fff"/><path d="M50.58 57.48l.34-.41L78.5 24.78c-6.92.95-11.87 6.08-18.61 5-3.39-.57-3.5-2.52-4.47-4.46-.74-1.49-1.93-1.3-3.48-1.91s-2.28-1.74-5.17-1.06c-2.52.59-2.8 4.52-6 4.29-1.69-.12-1.81-2.5-4.24-5.54-6.3-7.57-12.16-6.52-16.25.48z" fill="#491213"/><path fill="#23a9e1" d="M46.56 70.92l4.02-6.5 4 6.5-4 6.51-4.02-6.51z"/><path d="M23.28 32.27a2.78 2.78 0 01.8 2.11c0 .58-.93 1.55-.26 1.85.74-.95 1.49-1.89 2.24-2.84-.6-.15-5.37-5.85-5.44-6.47l-3.16 1.73c.16.67 1.29 0 1.85.05a2.9 2.9 0 012 1.15c-1.72 1.45-5.93 5-6.37 5.09-.23 0-1.09-.6-1.1 0 0 .26.85 1 1 1.21.75.88 1.49 1.77 2.23 2.65.62-.28-.11-.73.21-1.24s4.9-4.27 6-5.24zM18 25.29c.44-.1.62.43.95-.06l-2.44-2.92c-.38-.44-.85-.91-.71 0 .1.69-6.1 5.69-6.48 5.84s-.76-.42-1.11.1l2.19 2.6c.25.3.48.62.75.89s.21-.68.22-.59c-.09-.51.53-.95.86-1.23A58.49 58.49 0 0118 25.29zM9.24 24.37a3.22 3.22 0 01-4.21-2c-.54-1.84.61-3.76 2.07-4.81s3.59-1 4.37.84a3.62 3.62 0 01-.09 2.51c-.16.5-.6 1 0 1.28L14 18.87c-1.06-.64-1.52-1.68-2.31-2.6A5.83 5.83 0 008.23 14c-2.87-.41-5.57 2.55-5.79 5.24a5.73 5.73 0 001.24 4c.75 1 1.87 1.63 2.44 2.76a22.73 22.73 0 003.29-1.26 2 2 0 00-.17-.36zM48.54 60.78c-1.16-.77-4-4.69-4.58-5.34l-.33-.4s-.28.23-.24.19c-.18.15.13.58-.06.87-.79 1.24-5.75 5-6 5.16-.56.39-1.16-.16-1.49.32a46 46 0 003 3.58c.48.08.15-.81.21-1A30.37 30.37 0 0142.61 61c.34-.28.69.42.89.72a1.77 1.77 0 01.29 1.57c-.11.37-.71.92-.25 1.17l2.62-3c.25-.29-.57 0-.47-.08a.92.92 0 01-1.06 0c-.1-.07-1.09-1.08-1-1.17A4.62 4.62 0 0145.15 59c.87-.21 1.59 1.52 1.71 2.13a3.46 3.46 0 01-.07 1.75c-.13.39-.49.7 0 .93.72-1 1.43-1.94 2.14-2.92a.68.68 0 01-.4-.09c-.12-.11.14.05.01-.02zM38.31 56.65a5.48 5.48 0 10-7.79-1.07 5.42 5.42 0 007.79 1.07c1.16-.98-.1.07 0 0zm-.46-4.76a7.43 7.43 0 01-3.74 3.67c-1.81.71-3.1-.83-2.36-2.55a7.47 7.47 0 013.74-3.67c1.85-.73 3.07.85 2.36 2.55-.39.89.07-.17 0 0zM31.87 42c.47.06.92.55 1.27 0l-2.23-2.64c-.6.27.05.55-.2 1s-2.56.78-3.17.89a15.08 15.08 0 011.16-2.83c.54-.45.88.43 1.28-.14l-2.74-3.26c-.32-.36-.56-1-1-.68a8.56 8.56 0 01-.08 1.74c-.09.23-.94 3.64-1.93 4.47a21.67 21.67 0 01-2.7 2.09c-.54.19-.83-.59-1.22 0l2.49 3c.12.15.6.87.77.9.52.09.06-.9.11-1.09.15-.43 2.5-2.72 3.5-2.86a19.53 19.53 0 014.69-.59z" fill="#fff"/><path d="M25.61 22.87c-4.05-.16-2.35-3.95.39-4.8s8.09 1.71 9.84 3.39c-2.78.86-6.38.74-9.44.88-.23-3.12-1-2-.79.53zM26.62 27.72c-2-1.58-1.39-5.26 1.76-4.14 4 2.08-.85 3.24-1.76 4.14zM35.11 35.42c-8.62-.07-2.79-13.32.14-12.52 3.37 1.08 3 12.62-.14 12.52zM41.22 31.09c-.84 2.51-2.36 3-2.2-.07.2-3.5 2.48-2.66 4.93-4 2-1.12 3.14-5.21 6.64-2.77 1.57 1.1 3.36.18 3.86 1.84 0-.09-4.55 10.31-2 10.31-5 0-2.77-5.93-.87-9.9-1.85.88-4.84 6.69-2.38 7.64-1.28 1.69-5.2 3.94-7.24 2.3-1.55-1.25-.69-3.33-.7-5.35zM45.32 40.7c-3.49 1-8.12-1.21-2.51-2.34 3.48-.71 7.19.77 2.51 2.34zM49.69 40.56c-.74-1.66.56-3.64 2.68-2.2 1.85 1.25-.85 3.1-2.68 2.2zM46.74 45.22c-2.41-.74-10.53-.56-5.21-2.76 1.64-.68 10.15.1 5.21 2.76zM50 44.87c0-1-.51-2.68 1.35-1.95 2.24.88-1.35 2.66-1.35 1.95zM57.18 48.54c-1.44-1.23-2.89-1.3-4.23 0-1.8-3.29-8.32-2.19-11.37-2.65 1.64 4 14.87 4.78 15.6 2.65zM55.28 51c-3.16-.14-6.68-.56-9.65.09 1.86.46 6.4 1.79 2.17 2.91 1.52 2.17 4 2 5.58.13A15 15 0 0151.83 53c1.67-.3 3.24-1.26 3.45-2.07zM58.87 47.08c-5.29-3.11-3.95-5.42.36-7.58 2.25-1.13 7.32-5.21 9.44-3.85l-9.8 11.43z" fill="#dc6243"/><path d="M55.11 39.81c-4.48-4.6 6.68-4.18 8.48-5.8 1.31.44 10.77-8.28 13.07-7.74-1.65 1.94-5.22 8.14-7.77 8.14-2 0-4-.29-5.47 1.11-2.23 2-5.91 3.08-8.31 4.29z" fill="#f49774"/><path d="M56.57 34.18c-2.45 1.32-4.77-3.9-.53-3.39 2.81.33 5.66-.24 8.34.22a8.65 8.65 0 01-7.81 3.17z" fill="#f4b1a4"/><path d="M69.21 52.47a5 5 0 01.21 2c-.11.87-1 2.92-2.17 2.33a17.68 17.68 0 01-3.19-2.55c.8-.93 1.51-1.75 2.85-1.29.37.12.69 0 .3-.26s-3.11-2-3.26-1.8.53.86.22 1.47a7.29 7.29 0 01-.93 1.22c-.72-.61-1.92-1.25-1.06-2.26a3.71 3.71 0 012.1-1.33c.57-.11 1.84.39 2-.22L63 48.21c.18.8-3.35 4.53-4.13 5.47-.11.13-.66.6-.67.79 0 .43.63.1.66.09.49-.18 6.82 5.11 7 5.47s-.22.57 0 .73c0 0 .23.22.26.18.39-.46 4.52-6 5.37-6.21-.79-1.22-1.59-2.43-2.37-3.65-.62.25-.04.92.09 1.39zM63 59.17c-2.07-1.34-5.59 1.28-6.12 1.53-1 .49-1.79-.54-1.25-1.5A2.76 2.76 0 0158 57.91c.27 0 1.35.2 1.46 0s.22-.23 0-.35l-2.57-1.73c-.17 1-1.38 1.72-2.07 2.44a4.66 4.66 0 00-1.52 3.15 3 3 0 001.7 2.69 3.32 3.32 0 003.33-.51 19.66 19.66 0 011.92-1.17c1-.47 2.3-.06 1.95 1.27a3.6 3.6 0 01-2.41 2.3 3.31 3.31 0 01-1.87 0c-.43-.14-1-.73-1.23-.11l3.48 2.54a2.35 2.35 0 011.08-1.57 11.54 11.54 0 002-2.13c1.16-1.73 1.54-4.11-.25-5.56zM63 59.17c.93.6-.59-.49 0 0zM99.74 19.64c-.73.73-8.42-2.34-9-2.76-.29-.11-.3-1.32-.7-.83l-1.22 1.46L87.58 19c-.26.32-.54.46 0 .72.83-.41 5.42 7.35 5 8.47-.73.37-6.92-5.06-7.09-5.42 0-.15.28-1-.21-.94-.22 0-.74.89-.88 1.07-.3.35-.6.71-.89 1.07.33.48.51 0 1 0a13.72 13.72 0 012.24 1.66c-.73 0-2.69.14-2.94.12-.9.11-.42-.67-1-.93l-2.28 2.76-1.33 1.61c-.05.06 0 0 0 .11.33.27.11.17.57 0s6.56 4.93 6.78 5.19c.38.45-.16 1 .41 1.22l1.8-2.19c.09-.11.14-.1 0-.2-.43-.35-.48.22-1 .16s-4.4-3.37-5.9-4.61l8.2-.31c.3 0 1.14.9 1.07 1.22s-.46.56 0 .79c.48-.57 1-1.14 1.46-1.73l.23-.28a.9.9 0 00.21-.27l.16-.21c.43-.48 1.8-2 1.64-2.15-.46-.4-.69.47-1.3-.05a12.89 12.89 0 01-1.44-2.16c-.27-.45.61-.9 1-1.12.78-.48 3.25-1.19 3.48.35 0 .25-.27.55-.08.7s.2.24.27.16l3.3-4a2 2 0 00-.32-.17zm-7.38 2.16l-.08.05.08-.05a5.94 5.94 0 00-1 .76l-1.56-2.69 3.52 1.48a3.75 3.75 0 00-.96.45zM82.62 33a5.49 5.49 0 10.59 7.6 5.33 5.33 0 00-.59-7.6zm-.29 6.62c-1.23 1.29-3.36.1-4.51-.73s-3.11-2.57-1.85-4.1c1-1.29 3.12-.23 4.19.48s3.41 2.6 2.27 4.22c.06-.06.11-.12-.1.14z" fill="#fff"/><path d="M82.62 33c1.17 1-.26-.21 0 0zM82.31 39.65l.08-.11a.7.7 0 00-.08.11zM76 42.14c.12.09.28.22-.06-.06-2.83-2.13-6.19-1.5-8.4 1.16q-1.49 1.77-3 3.56c.35.51.76-.11 1.27.18s6.25 5.1 6.34 5.37c.16.45-.25.54.14.87a40.89 40.89 0 005-6.22A4.33 4.33 0 0076 42.14zm-1.31 6.75c-.24.3 0 0-.67.65-.3.29-6.44-4.67-6.19-4.94a4.34 4.34 0 013.58-1.3c2.21.56 5.23 3.26 3.3 5.59z" fill="#fff"/></symbol><symbol id="photoVideo__like" viewBox="0 0 22 20"><path d="M12.38 3.65l-.63 2.93L11.22 9h8.68v2.06L17 18H8V8l4.37-4.36M13.2 0L6.6 6.6A1.68 1.68 0 006 8v10a2 2 0 002 2h9a2 2 0 001.8-1.2l3-7.1a1.7 1.7 0 00.1-.7V9h.1a2 2 0 00-2-2h-6.3l1-4.6v-.3a2.1 2.1 0 00-.4-1.1l-1.1-1zM4 8H0v12h4V8zm18 1z" fill="#b2b2b2"/></symbol><symbol id="socials__fb" viewBox="0 0 8.67 18.94"><path d="M6.28 3.36h2.39V0H5.79C2.66.18 1.54 2.39 2 6.11H0v3.52h2v9.31h3.8V9.63h2.85V6.11H5.79c-.02-1.04-.04-2.4.49-2.75z"/></symbol><symbol id="socials__twitter" viewBox="0 0 17.5 14.66"><path d="M11.28.15A3.31 3.31 0 0115 1.3c.69-.22 1.37-.47 2.07-.69a2.27 2.27 0 01-.88 1.73 1.62 1.62 0 001.34-.48 2.89 2.89 0 01-1.61 2c-.24 6.59-3.27 11-10.38 10.82h-.49c-.42 0-4.29-.45-5-1.84a6.64 6.64 0 004.84-1.15c-1-.3-2.77-.47-3.07-2.88A2.13 2.13 0 003 8.9C1.76 8.07.38 7.37.46 5.22a2 2 0 001.38.46C1.12 5.44-.19 2.4.92.84c1.87 1.81 3.85 3.52 7.37 3.69C8.51 2.29 9.46.79 11.28.15z"/></symbol><symbol id="socials__youtube" viewBox="0 0 19.98 14.02"><path d="M17.14 0H2.83A2.84 2.84 0 000 2.83v8.35A2.84 2.84 0 002.83 14h14.31A2.84 2.84 0 0020 11.18V2.83A2.85 2.85 0 0017.14 0zM7 10.39V3.62L13.8 7z"/></symbol></svg>