<?xml version="1.0" encoding="UTF-8" standalone="no"?>
<svg
   xmlns:dc="http://purl.org/dc/elements/1.1/"
   xmlns:cc="http://creativecommons.org/ns#"
   xmlns:rdf="http://www.w3.org/1999/02/22-rdf-syntax-ns#"
   xmlns:svg="http://www.w3.org/2000/svg"
   xmlns="http://www.w3.org/2000/svg"
   xmlns:sodipodi="http://sodipodi.sourceforge.net/DTD/sodipodi-0.dtd"
   xmlns:inkscape="http://www.inkscape.org/namespaces/inkscape"
   version="1.0"
   width="148.05562"
   height="137.41472"
   viewBox="0 0 1480.5562 1374.1472"
   preserveAspectRatio="xMidYMid meet"
   id="svg96"
   sodipodi:docname="circle-mind.svg"
   inkscape:version="0.92.4 (5da689c313, 2019-01-14)">
  <metadata
     id="metadata102">
    <rdf:RDF>
      <cc:Work
         rdf:about="">
        <dc:format>image/svg+xml</dc:format>
        <dc:type
           rdf:resource="http://purl.org/dc/dcmitype/StillImage" />
        <dc:title></dc:title>
      </cc:Work>
    </rdf:RDF>
  </metadata>
  <defs
     id="defs100" />
  <sodipodi:namedview
     pagecolor="#ffffff"
     bordercolor="#666666"
     borderopacity="1"
     objecttolerance="10"
     gridtolerance="10"
     guidetolerance="10"
     inkscape:pageopacity="0"
     inkscape:pageshadow="2"
     inkscape:window-width="1920"
     inkscape:window-height="1027"
     id="namedview98"
     showgrid="false"
     fit-margin-top="0"
     fit-margin-left="0"
     fit-margin-right="0"
     fit-margin-bottom="0"
     inkscape:zoom="4.8370203"
     inkscape:cx="31.586996"
     inkscape:cy="75.788286"
     inkscape:window-x="-8"
     inkscape:window-y="-8"
     inkscape:window-maximized="1"
     inkscape:current-layer="svg96" />
  <ellipse
     style="opacity:1;fill:#ffffff;fill-opacity:1;stroke:#ffffff;stroke-width:20;stroke-miterlimit:4;stroke-dasharray:none;stroke-opacity:0"
     id="path108"
     cx="234.17111"
     cy="1268.5835"
     rx="88.897705"
     ry="47.549934" />
  <ellipse
     style="opacity:1;fill:#ffffff;fill-opacity:1;stroke:#ffffff;stroke-width:20;stroke-miterlimit:4;stroke-dasharray:none;stroke-opacity:0"
     id="path106"
     cx="458.48279"
     cy="1150.7423"
     rx="98.200951"
     ry="51.684715" />
  <path
     style="fill:#ffffff;fill-opacity:1;stroke:none;stroke-width:10px;stroke-linecap:butt;stroke-linejoin:miter;stroke-opacity:1"
     d="m 769.62473,52.959073 c 68.91295,-1.576569 137.8259,15.384814 206.73885,57.886877 189.62572,-83.984465 265.53872,-0.95339 279.09742,173.66064 230.9068,1.65943 247.1191,197.971 115.7738,314.24304 13.6341,47.62417 53.1919,82.28649 16.5391,155.05414 -80.2374,145.22826 -166.714,128.23835 -252.2214,136.44764 C 993.97115,1070.8178 912.01695,1007.4549 829.579,946.0709 719.8443,1021.6886 632.60035,956.73913 544.27939,898.52096 442.66125,952.42083 370.3601,936.69283 312.73188,886.11663 278.40611,856.84882 219.99272,849.25986 236.23851,774.47765 54.873322,753.97942 -18.107671,669.25352 97.723477,472.63894 26.749056,240.60487 105.37004,152.06026 304.46233,179.06977 381.05956,38.213661 478.23832,-20.316322 620.77276,102.5764 657.08008,76.720289 680.98377,42.181638 769.62473,52.959073 Z"
     id="path104"
     inkscape:connector-curvature="0"
     sodipodi:nodetypes="cccccccccccccc" />
  <g
     id="layer101"
     style="fill:#606060;stroke:none"
     transform="translate(0.55621879,-5.9796926)">
    <path
       d="m 154,1366 c -68,-30 -85,-106 -36,-156 50,-49 152,-49 152,0 0,22 -28,40 -62,40 -13,0 -30,5 -38,10 -13,9 -12,13 9,30 35,30 77,26 111,-11 41,-46 81,-24 66,36 -14,56 -126,84 -202,51 z"
       id="path62"
       inkscape:connector-curvature="0" />
    <path
       d="m 395,1249 c -47,-13 -89,-63 -89,-103 0,-59 53,-96 137,-96 118,0 193,71 161,155 -17,43 -130,67 -209,44 z m 139,-79 c 25,-26 -73,-61 -122,-44 -38,13 -38,32 0,49 36,17 103,14 122,-5 z"
       id="path64"
       inkscape:connector-curvature="0" />
    <path
       d="m 837,1020 c -39,-24 -51,-28 -73,-20 -64,25 -158,6 -210,-41 -19,-18 -23,-18 -57,-4 -54,22 -106,19 -168,-12 -47,-25 -54,-32 -54,-58 0,-39 32,-45 74,-14 41,30 111,30 151,1 39,-29 55,-28 81,8 44,58 119,75 177,40 42,-26 54,-25 83,6 59,63 137,73 193,24 19,-17 40,-46 46,-65 13,-40 29,-48 70,-33 44,15 107,4 137,-24 14,-13 34,-42 44,-65 30,-71 91,-51 70,22 -25,90 -101,145 -201,145 -33,0 -60,4 -60,9 0,19 -53,72 -91,91 -26,14 -58,20 -102,20 -53,0 -71,-5 -110,-30 z"
       id="path66"
       inkscape:connector-curvature="0" />
    <path
       d="M 696,780 C 251,731 246,730 255,685 c 2,-11 14,-116 26,-233 18,-170 25,-215 38,-221 13,-6 237,15 851,83 l 56,7 -6,-58 c -7,-68 -29,-105 -75,-127 -44,-21 -78,-20 -125,4 -47,24 -70,18 -70,-20 0,-23 8,-32 43,-49 116,-56 262,6 292,125 11,43 15,48 60,65 89,34 135,100 135,195 0,97 -63,191 -123,182 -31,-4 -36,-52 -7,-68 61,-33 79,-136 34,-190 -30,-35 -73,-60 -104,-60 -19,0 -20,2 -7,15 10,10 14,27 10,52 -2,21 -14,128 -26,238 l -22,200 -55,2 c -30,0 -248,-20 -484,-47 z"
       id="path68"
       inkscape:connector-curvature="0" />
    <path
       d="M 137,800 C 93,787 42,743 20,700 -9,643 -7,556 24,498 47,455 48,450 34,410 5,326 41,222 117,170 c 25,-17 53,-25 97,-28 60,-4 62,-5 84,-43 34,-58 102,-94 177,-93 60,1 110,18 134,48 12,14 16,14 43,0 46,-24 121,-30 137,-11 25,31 9,50 -50,62 -30,6 -68,21 -84,33 -36,28 -41,28 -74,-9 -33,-35 -89,-57 -130,-51 -41,6 -90,50 -106,97 l -13,40 -69,-3 c -54,-2 -75,2 -100,17 -63,40 -83,121 -44,187 26,44 26,56 0,80 -81,73 -54,201 48,235 19,6 45,8 58,5 23,-6 55,14 55,34 0,35 -75,50 -143,30 z"
       id="path70"
       inkscape:connector-curvature="0" />
  </g>
  <g
     id="layer102"
     style="fill:#574d82;stroke:none"
     transform="translate(0.55621879,-5.9796926)">
    <path
       d="M 696,780 C 251,731 246,730 255,685 c 2,-11 14,-116 26,-233 18,-170 25,-215 38,-221 13,-7 873,80 937,94 12,3 24,10 26,17 3,7 -7,119 -21,248 l -26,235 -55,2 c -30,0 -248,-20 -484,-47 z"
       id="path73"
       inkscape:connector-curvature="0" />
  </g>
  <g
     id="layer103"
     style="fill:#8a7782;stroke:none"
     transform="translate(0.55621879,-5.9796926)">
    <path
       d="M 1045,814 C 985,807 910,799 880,796 850,793 767,784 695,776 624,768 538,758 506,756 379,744 275,728 266,720 c -10,-10 36,-475 48,-487 10,-10 947,94 959,106 11,11 -27,427 -44,469 -10,26 -20,26 -184,6 z m 161,-235 c 12,-107 18,-197 15,-200 -11,-12 -161,-21 -161,-11 0,6 32,13 70,17 83,8 78,-12 53,214 l -17,154 -73,-6 c -86,-6 -99,9 -15,18 31,3 64,8 72,9 8,2 20,3 25,1 6,-1 19,-89 31,-196 z M 480,691 c 0,-5 -30,-13 -67,-16 -38,-4 -71,-9 -74,-11 -5,-3 27,-327 35,-350 3,-7 25,-8 72,-2 63,7 84,5 72,-7 -9,-9 -153,-24 -159,-17 -8,9 -49,385 -43,392 5,5 88,16 137,19 15,0 27,-3 27,-8 z m 391,-25 c 68,-46 89,-142 47,-218 -83,-147 -318,-92 -318,74 0,84 43,144 118,169 41,13 112,1 153,-25 z m 217,-103 c -5,-26 -38,-29 -38,-4 0,15 6,21 21,21 14,0 19,-5 17,-17 z M 490,500 c 0,-13 -7,-20 -20,-20 -19,0 -27,20 -13,33 13,14 33,6 33,-13 z"
       id="path76"
       inkscape:connector-curvature="0" />
    <path
       d="m 737,604 c -31,-38 -29,-56 3,-36 24,14 60,16 60,2 0,-5 -12,-17 -27,-27 -16,-9 -33,-23 -39,-30 -16,-19 -6,-51 17,-58 10,-4 19,-11 19,-16 0,-18 25,-7 48,21 15,19 19,31 11,35 -6,4 -16,2 -22,-4 -13,-13 -47,-15 -47,-2 0,5 16,18 36,30 28,17 35,26 32,48 -2,14 -12,31 -23,37 -11,6 -24,17 -30,24 -8,9 -17,4 -38,-24 z"
       id="path78"
       inkscape:connector-curvature="0" />
  </g>
  <g
     id="layer104"
     style="fill:#ab9281;stroke:none"
     transform="translate(0.55621879,-5.9796926)">
    <path
       d="M 702,771 C 470,745 276,720 271,714 c -11,-13 38,-456 52,-470 14,-13 931,85 945,101 5,6 -2,105 -17,240 l -26,230 -50,1 c -27,1 -240,-19 -473,-45 z m 483,-3 c 10,-29 44,-383 37,-390 -12,-12 -162,-22 -162,-11 0,11 55,23 108,23 38,0 38,-10 14,205 l -17,150 -77,-3 c -141,-6 -79,27 70,37 12,0 25,-5 27,-11 z M 480,691 c 0,-10 -49,-21 -96,-21 -18,0 -36,-5 -39,-11 -4,-5 1,-87 11,-181 l 18,-170 74,6 c 59,6 73,4 70,-6 -3,-8 -33,-16 -83,-21 -43,-4 -79,-6 -80,-5 -8,9 -45,392 -38,399 16,15 163,24 163,10 z m 370,-13 c 51,-27 78,-60 90,-111 17,-77 -17,-147 -90,-184 -77,-40 -161,-25 -213,36 -75,89 -48,214 57,262 55,25 103,24 156,-3 z m 238,-116 c 3,-16 -2,-22 -17,-22 -26,0 -36,17 -20,36 16,19 33,13 37,-14 z M 496,509 c 3,-6 -1,-18 -9,-27 -13,-12 -19,-13 -31,-3 -8,7 -12,19 -9,27 6,17 39,19 49,3 z"
       id="path81"
       inkscape:connector-curvature="0" />
    <path
       d="m 736,599 c -32,-30 -28,-52 4,-31 26,16 60,15 60,-1 0,-7 -16,-21 -35,-31 -44,-24 -47,-56 -6,-85 34,-25 41,-26 41,-7 0,8 7,16 15,20 8,3 15,13 15,23 0,13 -3,14 -12,5 -17,-17 -58,-15 -58,2 0,8 8,17 19,21 10,3 26,14 36,25 15,17 16,24 7,45 -6,14 -18,25 -27,25 -8,0 -15,5 -15,10 0,16 -13,10 -44,-21 z"
       id="path83"
       inkscape:connector-curvature="0" />
  </g>
  <g
     id="layer105"
     style="fill:#d4b481;stroke:none"
     transform="translate(0.55621879,-5.9796926)">
    <path
       d="M 712,770 C 473,743 276,719 272,716 c -8,-9 38,-459 49,-470 9,-10 921,83 942,96 8,5 4,70 -14,240 l -24,233 -40,2 c -22,0 -235,-21 -473,-47 z m 478,3 c 0,-4 9,-95 21,-201 12,-106 20,-195 18,-197 -10,-9 -165,-22 -173,-14 -15,14 -3,19 67,27 37,5 69,11 72,13 4,5 -19,247 -30,316 l -6,33 -76,-7 c -63,-5 -75,-4 -71,8 6,18 178,39 178,22 z M 482,688 c -6,-6 -39,-15 -72,-19 -34,-4 -64,-9 -66,-12 -5,-5 22,-279 32,-325 4,-22 7,-23 81,-16 62,6 75,5 71,-7 -3,-9 -31,-17 -87,-23 -45,-4 -84,-6 -86,-4 -5,5 -45,346 -45,382 0,27 14,31 129,34 42,2 52,-1 43,-10 z m 361,-2 C 916,656 963,562 941,490 917,408 852,360 765,360 c -56,0 -92,18 -133,64 -93,106 -10,275 136,276 23,0 57,-6 75,-14 z m 248,-112 c 11,-14 10,-18 -6,-30 -16,-12 -21,-12 -33,0 -17,17 -9,46 11,46 8,0 21,-7 28,-16 z M 495,495 c 0,-25 -40,-33 -49,-10 -9,24 2,37 27,33 14,-2 22,-10 22,-23 z"
       id="path86"
       inkscape:connector-curvature="0" />
    <path
       d="m 743,604 c -32,-29 -30,-49 2,-28 27,18 55,13 55,-10 0,-8 -16,-23 -35,-35 -42,-25 -46,-56 -10,-73 14,-6 25,-15 25,-19 0,-4 12,3 27,17 31,29 26,40 -11,23 -21,-10 -29,-10 -39,0 -9,10 -8,15 7,25 73,44 82,77 29,106 -26,14 -30,14 -50,-6 z"
       id="path88"
       inkscape:connector-curvature="0" />
  </g>
  <g
     id="layer106"
     style="fill:#fed681;stroke:none"
     transform="translate(0.55621879,-5.9796926)">
    <path
       d="M 720,768 C 476,741 274,717 271,715 c -6,-6 44,-464 52,-471 6,-7 936,92 944,100 5,5 -32,392 -43,449 -5,22 -11,27 -32,26 -15,-1 -227,-24 -472,-51 z m 473,-20 c 14,-77 40,-368 35,-374 -12,-12 -162,-24 -172,-14 -16,16 1,23 71,32 36,4 67,9 68,10 1,2 -6,75 -16,163 -10,88 -18,166 -18,173 -1,9 -11,11 -33,8 -77,-13 -113,-11 -113,4 0,16 44,26 126,29 45,1 47,0 52,-31 z M 485,690 c 0,-11 -18,-17 -69,-23 -38,-4 -71,-8 -72,-10 -2,-2 21,-230 31,-304 l 6,-41 76,5 c 62,5 75,4 71,-8 -5,-16 -60,-28 -130,-28 -56,-1 -50,-17 -72,194 -24,221 -25,213 27,219 125,17 132,16 132,-4 z M 866,675 C 948,627 973,515 919,436 817,286 575,364 592,541 605,673 749,743 866,675 Z m 231,-101 c 8,-21 -19,-46 -40,-38 -17,6 -23,35 -10,47 12,13 44,7 50,-9 z M 490,515 c 17,-20 5,-45 -20,-45 -11,0 -23,7 -26,15 -6,15 11,45 26,45 4,0 13,-7 20,-15 z"
       id="path91"
       inkscape:connector-curvature="0" />
    <path
       d="m 760,618 c 0,-9 -9,-20 -20,-23 -11,-3 -20,-13 -20,-22 0,-14 2,-14 18,0 23,21 58,22 66,2 4,-10 -8,-23 -34,-40 -22,-14 -40,-29 -40,-34 0,-20 13,-41 26,-41 7,0 18,-8 23,-17 9,-16 10,-17 11,-1 0,9 9,20 20,23 11,3 20,11 20,16 0,12 -6,11 -29,-3 -20,-12 -51,-5 -51,12 0,6 16,20 35,31 42,25 47,62 13,80 -13,7 -26,17 -30,23 -5,7 -8,5 -8,-6 z"
       id="path93"
       inkscape:connector-curvature="0" />
  </g>
</svg>
