<!DOCTYPE svg PUBLIC "-//W3C//DTD SVG 20010904//EN" "http://www.w3.org/TR/2001/REC-SVG-20010904/DTD/svg10.dtd">
<svg version="1.0" xmlns="http://www.w3.org/2000/svg" width="156px" height="79px" viewBox="0 0 1560 790" preserveAspectRatio="xMidYMid meet">
<g id="layer101" fill="#3a4252" stroke="none">
 <path d="M110 784 c-50 -18 -90 -38 -90 -46 0 -8 37 -87 45 -96 2 -2 26 4 54 14 66 21 133 15 167 -17 23 -21 24 -29 24 -131 0 -102 -1 -110 -25 -133 -26 -27 -63 -32 -98 -14 -30 16 -37 28 -37 66 0 61 63 89 131 59 14 -6 16 2 18 52 1 54 0 59 -24 70 -14 7 -51 12 -81 12 -67 0 -122 -26 -161 -76 -53 -70 -41 -207 24 -266 50 -46 160 -62 217 -33 35 18 36 18 36 0 0 -12 15 -15 76 -15 l76 0 -4 208 c-3 192 -5 210 -26 249 -12 24 -41 55 -64 70 -38 25 -51 28 -142 30 -56 1 -108 0 -116 -3z"/>
 <path d="M477 644 c-4 -4 -7 -99 -7 -211 l0 -203 75 0 c69 0 75 2 75 20 0 19 2 20 28 7 15 -8 44 -17 65 -21 l37 -7 0 65 0 64 -37 7 c-73 12 -77 21 -83 158 l-5 122 -70 3 c-39 1 -74 0 -78 -4z"/>
 <path d="M770 440 l0 -210 75 0 75 0 0 210 0 210 -75 0 -75 0 0 -210z"/>
 <path d="M992 500 l3 -150 -32 0 -33 0 0 -60 c0 -60 0 -60 30 -60 25 0 30 -4 35 -34 16 -80 67 -124 152 -129 42 -2 49 -6 63 -32 12 -24 22 -31 52 -33 30 -3 40 1 54 22 10 16 26 26 40 26 29 0 64 33 64 60 0 11 7 20 15 20 11 0 15 12 15 50 l0 50 45 0 45 0 0 60 0 60 -45 0 -45 0 0 80 c0 87 12 106 57 89 20 -8 24 -4 40 47 15 48 15 57 3 65 -31 19 -140 14 -183 -7 -52 -27 -67 -68 -67 -176 0 -98 0 -98 -25 -98 -24 0 -25 -3 -25 -60 0 -57 1 -60 25 -60 15 0 25 -6 25 -14 0 -8 15 -17 35 -20 19 -4 45 -17 58 -29 13 -12 15 -16 5 -8 -9 7 -48 22 -85 32 -52 15 -69 16 -75 6 -4 -6 -8 -9 -8 -5 0 4 -12 3 -26 -2 -29 -12 -64 2 -64 25 0 11 12 15 45 15 l45 0 0 60 0 60 -45 0 -45 0 0 150 0 150 -76 0 -75 0 3 -150z"/>
 </g>
<g id="layer102" fill="#545454" stroke="none">
 <path d="M73 769 c-29 -11 -53 -24 -53 -29 0 -5 10 -30 22 -55 19 -38 26 -45 43 -40 99 33 170 30 205 -7 17 -19 20 -36 20 -130 0 -102 -1 -110 -25 -133 -26 -27 -63 -32 -98 -14 -30 16 -37 28 -37 66 0 61 63 89 130 59 13 -5 16 4 18 52 2 54 0 59 -23 70 -41 19 -131 15 -175 -8 -64 -33 -94 -81 -98 -160 -5 -84 19 -137 80 -177 36 -24 52 -28 114 -28 57 0 76 4 93 19 21 19 21 19 21 -3 0 -21 4 -22 73 -19 l72 3 0 205 c0 194 -1 207 -23 247 -12 24 -41 55 -64 70 -37 25 -51 28 -142 30 -82 2 -111 -1 -153 -18z"/>
 <path d="M477 643 c-4 -3 -7 -98 -7 -210 l0 -203 75 0 c69 0 75 2 75 20 0 19 2 20 28 7 15 -8 44 -17 65 -21 l37 -7 0 65 0 64 -39 7 c-75 12 -89 41 -89 179 0 47 -3 90 -7 95 -7 12 -127 15 -138 4z"/>
 <path d="M777 643 c-4 -3 -7 -98 -7 -210 l0 -203 75 0 75 0 0 204 c0 203 0 204 -22 210 -31 8 -113 8 -121 -1z"/>
 <path d="M994 637 c-3 -8 -4 -76 -2 -151 l3 -136 -33 0 -33 0 3 -57 c3 -55 5 -58 30 -61 21 -3 28 -10 33 -35 10 -46 43 -95 74 -111 14 -8 48 -17 74 -21 l47 -7 0 31 c0 20 4 30 11 26 6 -4 7 -19 4 -36 -10 -45 16 -79 60 -79 26 0 39 6 51 25 10 15 26 25 40 25 54 0 83 69 44 105 -29 26 -152 58 -162 42 -4 -6 -8 -9 -8 -5 0 4 -12 3 -26 -2 -29 -12 -64 2 -64 25 0 11 12 15 45 15 l45 0 0 60 0 60 -45 0 -44 0 -3 148 -3 147 -68 3 c-51 2 -69 -1 -73 -11z m226 -503 c0 -8 -4 -12 -10 -9 -5 3 -10 13 -10 21 0 8 5 12 10 9 6 -3 10 -13 10 -21z"/>
 <path d="M1418 640 c-89 -16 -118 -64 -118 -200 0 -89 0 -90 -25 -90 -24 0 -25 -3 -25 -60 0 -57 1 -60 25 -60 15 0 25 -6 25 -14 0 -9 7 -12 20 -9 11 3 20 0 20 -6 0 -5 7 -8 15 -5 9 4 29 -8 51 -30 20 -20 38 -36 40 -36 2 0 4 23 4 50 l0 50 45 0 45 0 0 60 0 60 -45 0 -45 0 0 80 c0 87 12 106 56 90 20 -8 24 -4 38 37 22 65 21 71 -21 79 -61 11 -66 11 -105 4z"/>
 </g>
<g id="layer103" fill="#fdcd70" stroke="none">
 <path d="M1226 158 c-28 -99 -29 -107 -12 -133 23 -35 79 -35 102 0 10 15 26 25 40 25 31 0 64 33 64 63 0 41 -37 63 -152 91 -26 6 -28 4 -42 -46z"/>
 </g>
<g id="layer104" fill="#ffeac3" stroke="none">
 <path d="M1206 76 c-11 -43 16 -76 60 -76 l35 0 -37 32 c-20 18 -39 41 -43 52 -7 18 -9 17 -15 -8z"/>
 </g>

</svg>