<!DOCTYPE svg PUBLIC "-//W3C//DTD SVG 20010904//EN" "http://www.w3.org/TR/2001/REC-SVG-20010904/DTD/svg10.dtd">
<svg version="1.0" xmlns="http://www.w3.org/2000/svg" width="49px" height="34px" viewBox="0 0 490 340" preserveAspectRatio="xMidYMid meet">
<g id="layer101" fill="#545454" stroke="none">
 <path d="M0 320 c0 -19 7 -20 245 -20 238 0 245 1 245 20 0 19 -7 20 -245 20 -238 0 -245 -1 -245 -20z"/>
 <path d="M0 170 c0 -19 7 -20 245 -20 238 0 245 1 245 20 0 19 -7 20 -245 20 -238 0 -245 -1 -245 -20z"/>
 <path d="M0 20 c0 -19 7 -20 245 -20 238 0 245 1 245 20 0 19 -7 20 -245 20 -238 0 -245 -1 -245 -20z"/>
 </g>

</svg>