<!DOCTYPE svg PUBLIC "-//W3C//DTD SVG 20010904//EN" "http://www.w3.org/TR/2001/REC-SVG-20010904/DTD/svg10.dtd">
<svg version="1.0" xmlns="http://www.w3.org/2000/svg" width="69px" height="70px" viewBox="0 0 690 700" preserveAspectRatio="xMidYMid meet">
<g id="layer101" fill="#545454" stroke="none">
 <path d="M243 686 c-109 -35 -195 -118 -228 -217 -26 -77 -17 -207 19 -277 86 -168 291 -234 464 -150 209 101 252 408 79 565 -86 78 -233 112 -334 79z"/>
 </g>
<g id="layer102" fill="#e7eced" stroke="none">
 <path d="M244 686 c-47 -15 -124 -56 -124 -66 0 -4 24 -19 53 -35 28 -15 60 -35 70 -43 24 -21 21 -64 -9 -123 -24 -49 -25 -56 -18 -151 4 -68 12 -105 23 -119 34 -42 159 -45 200 -5 9 9 19 44 23 79 4 34 10 78 14 98 4 24 1 40 -8 50 -25 25 -58 99 -58 129 0 36 12 48 88 84 34 16 62 33 62 37 0 4 -29 22 -65 40 -77 37 -182 48 -251 25z"/>
 </g>

</svg>