<svg xmlns="http://www.w3.org/2000/svg" preserveAspectRatio='none' viewBox="0 0 508.467 28.979"><path d="M.265.434s23.141-.38 34.703 0c68.49 2.256 136.802 8.402 205.138 13.53 62.96 4.725 124.893 8.587 185.38 10.45 28.097.865 80.793-2.835 82.717-3.4v7.7H.265z" fill="#fff"/><path d="M.265.434C11.78.206 45.59-.226 80.515 2.519c11.333.682 22.55 1.144 33.89 1.984 60.97 4.518 121.526 9.15 182.197 13.45 39.352 2.854 79.576 4.988 119.737 6.215 20.108.507 35.853.608 57.457-.896 11.179-.778 22.264-.81 34.407-2.258" fill="none" stroke="#f3998f" stroke-width=".529"/></svg>