<svg width="441" height="65" viewBox="0 0 441 65" fill="none" xmlns="http://www.w3.org/2000/svg">
<path d="M21.032 14H33.969C33.806 11.357 31.895 9.163 29.298 8.457C30.306 7.846 30.985 6.75 30.985 5.485C30.985 3.561 29.425 2 27.5 2C25.575 2 24.015 3.561 24.015 5.485C24.015 6.749 24.695 7.846 25.703 8.457C23.106 9.163 21.194 11.357 21.032 14Z" fill="#272525"/>
<path d="M15.7 14.3L12.596 11.196C13.473 10.023 14 8.576 14 7C14 3.134 10.866 0 7 0C3.134 0 0 3.134 0 7C0 10.866 3.134 14 7 14C8.576 14 10.023 13.473 11.193 12.596L14.3 15.7C14.485 15.884 14.68 16 15 16C15.553 16 16 15.553 16 15C16 14.781 15.945 14.546 15.7 14.3ZM2 7C2 4.238 4.238 2 7 2C9.762 2 12 4.238 12 7C12 9.762 9.762 12 7 12C4.238 12 2 9.762 2 7Z" fill="black"/>
<path d="M48.984 6H47V14H48.984V6Z" fill="black"/>
<path d="M40.984 7H39V14H40.984V7Z" fill="black"/>
<path d="M45 4H43V14H45V4Z" fill="black"/>
<path d="M65.864 7.01701C65.782 6.91901 65.661 6.86301 65.537 6.86301H63.225V8.09001C63.225 8.65301 62.741 9.11201 62.145 9.11201C61.551 9.11201 61.067 8.65401 61.067 8.09001V6.86301H58.909V8.09001C58.909 8.65301 58.424 9.11201 57.829 9.11201C57.234 9.11201 56.751 8.65401 56.751 8.09001V6.86301H54.438C54.313 6.86301 54.195 6.91901 54.111 7.01701C54.028 7.11501 53.988 7.24501 54.003 7.37501L54.779 14.509C54.794 15.315 55.421 15.964 56.19 15.964H63.785C64.555 15.964 65.181 15.315 65.196 14.509L65.972 7.37501C65.987 7.24501 65.946 7.11501 65.864 7.01701Z" fill="black"/>
<path d="M57.829 8.499C58.068 8.499 58.262 8.315 58.262 8.09V5.84C58.262 5.208 58.934 4.818 59.557 4.818H60.636C61.291 4.818 61.714 5.219 61.714 5.84V8.09C61.714 8.315 61.908 8.499 62.145 8.499C62.384 8.499 62.578 8.315 62.578 8.09V5.84C62.577 4.773 61.761 4 60.636 4H59.557C58.367 4 57.398 4.826 57.398 5.84V8.09C57.398 8.315 57.592 8.499 57.829 8.499Z" fill="black"/>
<path d="M21.032 34H33.969C33.806 31.357 31.895 29.163 29.298 28.457C30.306 27.846 30.985 26.75 30.985 25.485C30.985 23.561 29.425 22 27.5 22C25.575 22 24.015 23.561 24.015 25.485C24.015 26.749 24.695 27.846 25.703 28.457C23.106 29.163 21.194 31.357 21.032 34Z" fill="#FFC600"/>
<path d="M48.984 24H47V32H48.984V24Z" fill="#FFC600"/>
<path d="M40.984 25H39V32H40.984V25Z" fill="#FFC600"/>
<path d="M45 22H43V32H45V22Z" fill="#FFC600"/>
<path d="M65.864 25.017C65.782 24.919 65.661 24.863 65.537 24.863H63.225V26.09C63.225 26.653 62.741 27.112 62.145 27.112C61.551 27.112 61.067 26.654 61.067 26.09V24.863H58.909V26.09C58.909 26.653 58.424 27.112 57.829 27.112C57.234 27.112 56.751 26.654 56.751 26.09V24.863H54.438C54.313 24.863 54.195 24.919 54.111 25.017C54.028 25.115 53.988 25.245 54.003 25.375L54.779 32.509C54.794 33.315 55.421 33.964 56.19 33.964H63.785C64.555 33.964 65.181 33.315 65.196 32.509L65.972 25.375C65.987 25.245 65.946 25.115 65.864 25.017Z" fill="#FFC600"/>
<path d="M57.829 26.499C58.068 26.499 58.262 26.315 58.262 26.09V23.84C58.262 23.208 58.934 22.818 59.557 22.818H60.636C61.291 22.818 61.714 23.219 61.714 23.84V26.09C61.714 26.315 61.908 26.499 62.145 26.499C62.384 26.499 62.578 26.315 62.578 26.09V23.84C62.577 22.773 61.761 22 60.636 22H59.557C58.367 22 57.398 22.826 57.398 23.84V26.09C57.398 26.315 57.592 26.499 57.829 26.499Z" fill="#FFC600"/>
<path d="M87 0C78.164 0 71 7.163 71 16C71 24.837 78.164 32 87 32C95.837 32 103 24.836 103 16C103 7.164 95.837 0 87 0ZM91.062 9.455H88.041V12.899H91.062V16.344H88.041V24.954H85.02V16.344H82V12.899H85.021V9.455C85.021 7.553 86.374 6.01 88.042 6.01H91.063V9.455H91.062Z" fill="white"/>
<path d="M128.916 16C128.916 18.728 126.705 20.938 123.978 20.938C121.251 20.938 119.039 18.728 119.039 16C119.039 15.606 119.09 15.227 119.177 14.86H118.28V21.698H129.676V14.86H128.779C128.865 15.227 128.916 15.606 128.916 16Z" fill="white"/>
<path d="M123.978 18.659C125.444 18.659 126.637 17.466 126.637 16C126.637 14.534 125.444 13.341 123.978 13.341C122.512 13.341 121.319 14.534 121.319 16C121.319 17.466 122.511 18.659 123.978 18.659Z" fill="white"/>
<path d="M129.676 10.302H126.637V13.341H129.676V10.302Z" fill="white"/>
<path d="M124 0C115.164 0 108 7.164 108 16C108 24.837 115.164 32 124 32C132.837 32 140 24.837 140 16C140 7.164 132.837 0 124 0ZM131.955 21.698C131.955 22.952 130.93 23.977 129.676 23.977H118.279C117.026 23.978 116 22.952 116 21.698V10.302C116 9.049 117.026 8.023 118.279 8.023H129.675C130.929 8.023 131.954 9.049 131.954 10.302V21.698H131.955Z" fill="white"/>
<path d="M161 0C152.164 0 145 7.164 145 16C145 24.837 152.164 32 161 32C169.837 32 177 24.837 177 16C177 7.164 169.837 0 161 0ZM168.944 12.809C168.693 19.325 165.481 23.641 157.952 23.511C157.812 23.511 157.747 23.511 157.719 23.511C157.704 23.511 157.698 23.511 157.698 23.511C157.669 23.511 157.604 23.511 157.466 23.511C157.019 23.511 152.923 23.068 152.122 21.688C154.601 21.878 156.369 21.282 157.242 20.552C156.194 20.263 154.319 20.091 153.991 17.704C154.375 17.808 154.609 17.925 155.29 17.817C153.983 16.993 152.532 16.298 152.611 14.174C152.922 14.491 153.775 14.692 154.071 14.631C153.303 14.398 151.922 11.387 153.097 9.85C155.081 11.64 157.172 13.332 160.901 13.493C161.128 11.279 162.141 9.794 164.069 9.168C165.909 8.689 167.324 9.428 167.97 10.306C168.707 10.082 169.423 9.84 170.163 9.621C170.159 10.454 169.594 11.084 169.228 11.33C169.975 11.495 170.651 10.855 170.651 10.855C170.467 11.818 169.557 12.58 168.944 12.809Z" fill="white"/>
<g clip-path="url(#clip0)">
<path d="M185.83 3.132L182.861 0.144001C182.664 -0.054999 182.345 -0.054999 182.148 0.144001C181.95 0.343001 181.95 0.664001 182.148 0.862001L184.759 3.491L182.148 6.12C181.95 6.32 181.95 6.641 182.148 6.84C182.246 6.939 182.376 6.988 182.504 6.988C182.633 6.988 182.763 6.938 182.861 6.84L185.83 3.852C185.928 3.753 185.977 3.623 185.977 3.492C185.978 3.362 185.928 3.231 185.83 3.132Z" fill="black"/>
</g>
<path d="M187.5 22L182 12H193" fill="#231F20"/>
<path d="M187.5 27L182 37H193L187.5 27Z" fill="#231F20"/>
<path d="M204.5 22L199 12H210" fill="#C3C2C2"/>
<path d="M204.5 27L199 37H210L204.5 27Z" fill="#C3C2C2"/>
<defs>
<clipPath id="clip0">
<rect width="4" height="7" fill="white" transform="translate(182)"/>
</clipPath>
</defs>
</svg>
