<svg width="24" height="24" viewBox="0 0 24 24" xmlns="http://www.w3.org/2000/svg"><path d="M8.887 21.333a1.5 1.5 0 1 0 0-3 1.5 1.5 0 0 0 0 3ZM18 21.333a1.5 1.5 0 1 0 0-3 1.5 1.5 0 0 0 0 3ZM22.053 3.58a.667.667 0 0 0-.513-.247H7.66l.433 1.334h12.574l-1.78 8h-10L5.84 3.02a.667.667 0 0 0-.44-.433l-2.733-.84a.67.67 0 1 0-.394 1.28l2.394.733 3.06 9.667-1.094.893-.086.087a1.774 1.774 0 0 0-.054 2.26A1.832 1.832 0 0 0 8 17.333h11.127a.667.667 0 0 0 0-1.333H7.893a.447.447 0 0 1-.373-.667L9.127 14H19.42a.667.667 0 0 0 .667-.52L22.2 4.147a.667.667 0 0 0-.147-.567Z"/></svg>