<svg width="15" height="19" viewBox="0 0 15 19" fill="none" xmlns="http://www.w3.org/2000/svg"><path d="M13.92 8.362a7.176 7.176 0 0 0-1.711-2.38l-.601-.55a.167.167 0 0 0-.269.067l-.268.77c-.167.484-.475.977-.91 1.463a.13.13 0 0 1-.085.041.114.114 0 0 1-.09-.03.121.121 0 0 1-.04-.1c.076-1.243-.296-2.645-1.11-4.172C8.164 2.203 7.229 1.214 6.06.525L5.206.023a.165.165 0 0 0-.248.15l.046.992c.03.677-.048 1.276-.234 1.774a5.89 5.89 0 0 1-.97 1.683c-.29.353-.62.672-.981.952A7.281 7.281 0 0 0 .748 8.083a7.181 7.181 0 0 0-.176 5.995 7.256 7.256 0 0 0 3.87 3.833 7.266 7.266 0 0 0 2.827.566c.981 0 1.931-.19 2.827-.564a7.199 7.199 0 0 0 2.311-1.543 7.149 7.149 0 0 0 2.131-5.099 7.107 7.107 0 0 0-.617-2.91Z" fill="#E55C5C"/></svg>