<svg width="24" height="24" viewBox="0 0 24 24" xmlns="http://www.w3.org/2000/svg"><path d="M19.657 5.8a6.173 6.173 0 0 0-7.929-.613 6.155 6.155 0 0 0-8.253.902 5.959 5.959 0 0 0-1.47 4.155 5.971 5.971 0 0 0 1.795 4.03l6.034 5.96a2.72 2.72 0 0 0 1.894.766 2.72 2.72 0 0 0 1.895-.765l6.034-5.962a5.968 5.968 0 0 0 1.772-4.236c0-1.587-.637-3.11-1.772-4.236Zm-1.37 7.15-6.034 5.952a.738.738 0 0 1-.525.216.746.746 0 0 1-.524-.216l-6.034-5.98a4.083 4.083 0 0 1-1.19-2.875c0-1.075.428-2.107 1.19-2.876a4.179 4.179 0 0 1 2.915-1.18c1.09 0 2.138.424 2.915 1.18a.972.972 0 0 0 .69.284.983.983 0 0 0 .69-.284 4.179 4.179 0 0 1 2.914-1.18c1.092 0 2.139.424 2.915 1.18a4.084 4.084 0 0 1 1.228 2.86 4.08 4.08 0 0 1-1.15 2.89v.03Z"/></svg>