<svg width="64" height="57" viewBox="0 0 64 57" fill="none" xmlns="http://www.w3.org/2000/svg"><path d="M52.72 38.852c-.035 1.547-.03 3.051-.136 4.597-.08 1.2.49 2.27.342 3.45-.192 1.525-1.024 1.385-2.54 1.645-1.819.317-3.642.54-5.45.854a16.89 16.89 0 0 1-7.436-.39c-4.684-1.344-8.745-4.077-12.103-7.593-6.267-6.568-9.989-16.4-10.339-25.432-.081-2.006-.308-4.896-1.541-6.583-.869-1.191-2.953-2.525-.302-2.447 1.567.05 2.701.885 4.075 1.415 1.392.532 2.894.546 4.386.643 1.412.08 2.812.305 4.21.477 9.096 1.074 16.096 8.584 21.101 15.625 2.945 4.132 5.84 8.492 5.733 13.74Z" fill="#78AF02"/><path opacity=".42" d="M46.739 49.12c-.6.086-1.204.18-1.795.283a16.89 16.89 0 0 1-7.437-.39c-4.684-1.344-8.745-4.078-12.103-7.593-6.274-6.573-9.996-16.404-10.346-25.437-.081-2.006-.308-4.896-1.541-6.583-.869-1.19-2.953-2.525-.302-2.447 1.193.034 2.142.534 3.128.998 1.696 1.704 2.508 3.95 4.06 5.885.637.793 1.319 1.495 1.89 2.352.142.213 1.267 2.785 1.136 2.741-1.692-.595-2.809-1.752-3.954-3.081-.984-1.143-2.34-3.364-3.895-3.7-1.537 3.187 3.27 5.999 4.868 7.896-1.594-.647-2.596-2.218-4.12-2.977.526.935.053 2.37.52 3.456.484 1.108 1.316 1.756 2.447 2.172 1.78.67 3.46 1.227 5.236 1.508 1.885.298 3.927-.315 5.55.983-1.262 1.335-4.735.17-6.19-.205-.832-.212-7.113-2.268-7.053-2.55-1.113 5.337 6.592 7.613 10.317 7.65 1.241.01 2.486-.1 3.726-.133.641-.017 2.812.406 3.284.116-3.547 2.2-8.526 1.465-12.208.069-.855-.32-1.71-.74-2.579-.787-1.718 3.918 3.961 4.963 6.438 5.2 2.033.191 4.11.8 6.16.7 1.47-.07 2.847-.887 4.293-1.065-1.65 1.31-4.236 1.735-6.296 1.807-2.472.082-5.03-1.187-7.48-.796-.624 1.702 3.03 4.183 4.262 4.784 2.387 1.166 5.714 1.04 8.311 1.079 1.467.019 2.89-.634 4.259-1.1.816-.277 3.262-.407 3.818-.87-1.273 1.053-3.253 1.58-4.85 1.924-1.02.22-2.049.425-3.088.53-.924.087-2.253-.279-3.102-.056-2.33.618-.903 2.302.636 2.687 3.407.834 6.624.872 10.023.249-1.691.307-3.062 1.058-4.959 1.115-1.892.051-3.67-.637-5.61-.265.104 2.144 7.41 2.774 8.897 2.919 1.727.165 3.405-.081 5.043-.598.858-.277 2.359-1.237 3.46-1.471.308-.063.578-.072.793.011.214.083-2.648 2.46-3.013 2.644-.212.111-.429.23-.634.346Z" fill="#A3CE24"/><path opacity=".42" d="M37.507 49.013c-4.684-1.344-8.745-4.078-12.103-7.593-6.274-6.573-9.996-16.404-10.346-25.437-.081-2.006-.308-4.896-1.541-6.582-.869-1.192-2.953-2.526-.302-2.448 1.5.043 2.601.813 3.898 1.338 1.117.873 2.039 1.849 2.513 3.264.035.107.072.225.103.338.677 2.433-1.132 1.844-2.624 2.426-2.359.912.302 3.167 1.637 3.963 1.11.656 3.343.768 3.969 1.957-1.776 1.302-4.062-.33-5.869-.907-.658 3.614 5.16 4.566 7.797 4.451 3.173-.125.889 1.602-.815 2.153-1.099.358-2.036.435-3.188.358-.823-.053-2.026-.399-2.74-.152 1.765 1.623 3.652 2.724 6.098 3.385 1.268.352 3.028.754 4.389.808 1.205.044 2.59-.514 3.676.134-.263 1.454-3.978 1.84-5.145 1.884-2.809.113-4.866-.44-7.485-1.256.017 1.107 1.512 2.372 2.383 2.967 1.262.856 2.887.866 4.355 1.11 1.718.29 3.527.595 5.261.44 1.053-.096 3.56-1.287 4.387-.786-.568 1.398-3.153 2.371-4.47 2.865-2.347.882-5.203.707-7.518-.235.024.94 2.203 2.2 2.983 2.639 4.028 2.242 8.679 1.302 12.914-.049 1.038-.33 2.244-1.107 1.647.615-.33.94-1.209 1.515-2.127 1.89-2.76 1.162-5.879.292-8.73.548 1.385.629 3.08 1.39 4.614 1.527 2.569.941 5.672-.613 8.12.272-1.533 1.232-3.358 1.514-5.285 1.358-1.267-.1-2.91-1.045-4.158-.734-1.277.31-1.057 1.035-.038 1.706 1.716 1.141 4.287.624 6.215 1.004.872.17 1.24-.073.882 1.018a1.225 1.225 0 0 1-.167.317 15.586 15.586 0 0 1-3.19-.556Z" fill="#A3CE24"/><path opacity=".42" d="M34.945 44.557c.063.026.124.04.188.064.04 0 .09.015.132.014a.912.912 0 0 0-.32-.078Z" fill="#A3CE24"/><path d="M44.944 49.403a16.889 16.889 0 0 1-7.437-.39c-.415-.115-.823-.267-1.223-.402.497.114.98.217 1.408.27 2.226.29 5.577.283 7.487-1.063a3.315 3.315 0 0 0 1.024-1.172c.823-1.6-1.413-2.13-2.52-2.225-1.806-.14-3.675.486-5.455.719-2.156.277-5.806-.133-8.11-1.584 3.626 1.346 12.46 2.15 13.6-2.405.053-.215-.008-.483-.246-.562-2.333-.69-4.48.282-6.829.543-2.242.256-8.599-.423-9.573-.89 3.452.42 7.686.073 10.496-1.469 1.683-.932.495-2.991-.893-3.501-1.912-.713-4.053.305-6.067.187-2.293-.125-4.54-.358-6.78-.84-.591-.121-1.157-.365-1.742-.582-1.087-.405-2.17-.96-2.664-2.065 1.571 1.483 3.801 1.725 5.824 1.93 2.208.216 4.41.439 6.414-.77.693-.415 2.807-1.636 2.088-2.74-.625-.965-3.5-.605-4.475-.545-2.136.15-4.008-.18-6.087-.547-1.855-.328-3.239-.956-4.612-2.307 2.41 1.375 5.16 1.727 7.888 1.515 1.3-.101 4.198-.89 3.012-2.827-.98-1.616-3.692-1.129-5.239-1.134-2.318.008-4.8-1.337-6.758-2.438 1.291.207 2.497.83 3.825.86.692.01 2.122.052 2.683-.306 1.244-.8-.196-1.225-.92-1.501-2.058-.778-3.643-1.805-5.309-3.213-1.357-1.147-2.087-2.503-2.605-4.183.645 1.842 2.149 2.7 3.668 3.719 1.127.748 2.553 1.883 3.986 1.087.32-.177.391-.531.71-.607.566-.14 1.038.36 1.453.659.388.278.803.393 1.203.64 1.007.632.938 1.9 1.454 2.849.57 1.028 1.516 1.829 2.322 2.67 1.005 1.057 2.002 2.127 2.996 3.186 1.953 2.081 3.899 4.188 5.864 6.268 2.619 2.793 5.18 5.625 7.639 8.556 1.738 2.07 2.979 3.224 5.503 4.002.23.074.57.166.957.291-.237 1.29-1.061 1.196-2.496 1.443-1.834.337-3.657.56-5.465.874Z" fill="#6D9E02"/><path d="M45.944 44.493c-1.646-1.212-3.132-2.644-4.68-3.978-3.405-2.941-7.119-5.932-9.915-9.48-2.878-3.648-5.75-7.19-8.355-11.049-2.435-3.614-4.982-7.764-8.176-10.716-.676-.627-1.685-1.2-2.51-1.59a1.922 1.922 0 0 0-.314-.113c-.19-.4.04-.65 1.233-.616 1.566.05 2.701.885 4.075 1.415 1.392.533 2.893.546 4.385.643 1.412.081 2.813.306 4.21.477C34.994 10.56 41.995 18.07 47 25.111c2.94 4.14 5.834 8.498 5.721 13.741-.035 1.547-.03 3.051-.136 4.597-.08 1.2.49 2.27.342 3.45-.079.633-.271.972-.58 1.176a28.433 28.433 0 0 1-6.402-3.582Z" fill="#61A304"/><path opacity=".6" d="M14.806 9.271c-.675-.627-1.684-1.199-2.51-1.589a1.926 1.926 0 0 0-.314-.113c-.19-.4.041-.65 1.233-.616.112 0 .222.017.324.03a.451.451 0 0 0-.066.246c.018.47.857.94 1.198 1.185.564.415.936.915 1.365 1.446 1.529 1.869 2.833 3.88 4.369 5.753.798.978 2.63 4.768 3.97 4.908 1.212.12.632-1.29.362-2.214-.31-1.065-.896-1.647-1.37-2.596-.505-1.021-.795-2.143-1.441-3.093-.777-1.136-1.642-1.98-2.537-2.978 1.597.6 2.8 2.964 3.673 4.361 1.233 1.97 2.15 3.957 2.721 6.183.475 1.81.806 3.326 2.106 4.736.216.236.554.854.91.653.486-.28.196-1.36.258-1.813.15-.916.373-1.75.411-2.706.067-1.675-.132-3.39-.177-5.065-.043-1.45-.452-3.113-1.18-4.387 1.691 2.969 2.544 5.863 2.255 9.317-.095 1.107.007 2.265-.143 3.364-.158 1.124-.294 2.274.218 3.34.482.996 1.384 1.887 2.12 2.74 1.008 1.18 1.494.687 1.849-.64.613-2.267.362-4.587.795-6.842.393-2.06-.302-4.425-.517-6.486-.163-1.679-.65-3.133-1.324-4.47l.155.082c.058.032.117.063.177.107 2.217 2.646 2.382 6.344 2.817 9.749.001.366-.003.738-.006 1.11-.067 2.255-.17 4.544-.058 6.804.076 1.576-.13 3.233 1.328 4.24.545.37 1.379.776 1.936.283.257-.23.446-.734.56-1.048 1.064-2.937.8-6.27.963-9.337.103-1.924.125-3.875-.004-5.814.02.015.035.036.05.057.007.005.014.01.016.02 1.185 1.937 1.127 4.278 1.204 6.473.039 1.133.17 2.363.055 3.498-.1 1.043-.154 2.08-.243 3.12-.131 1.54-.327 2.97-.298 4.513.03 2.02.598 5.255 3.074 5.634 1.617.248 2.466-2.63 2.88-3.743.947-2.535.808-5.717.716-8.4a47.124 47.124 0 0 0-.102-1.807c.173.267.354.538.52.8.413.64.381 1.885.54 2.638.22 1.05-.145 2.208-.203 3.292-.117 2.127-.267 4.808-1.124 6.778-.373.858-1.381 3.846.64 3.431 2.073-.429 3.273-3.33 3.718-5.362-.028 1.48-.03 2.938-.128 4.43-.08 1.2.49 2.269.342 3.45-.079.633-.271.972-.58 1.176a28.783 28.783 0 0 1-5.637-3.053 122.895 122.895 0 0 1-5.044-4.148l-.412-.357c-.187-.164-.378-.322-.564-.486-.615-.543-1.24-1.083-1.85-1.632-2.233-1.989-4.6-4.003-6.591-6.273-.312-.356-.62-.719-.911-1.09-2.878-3.648-5.75-7.19-8.355-11.048-1.404-2.083-2.817-4.395-4.453-6.482-1.111-1.559-2.337-3.016-3.686-4.259Z" fill="#468E02"/><path opacity=".31" d="M49.428 42.38c-.763-.831.36-4.386.53-5.359.687-3.796.555-6.974-2.246-9.937-.856-.899-1.6-1.473-2.193-.095-.744 1.728-.332 5.745-.21 7.597.057.893.672 5.928-1.426 4.838-1.123-.583-.92-3.621-1-4.653-.18-2.39-.233-4.69.134-7.093.224-1.472 1.146-3.984.663-5.416-.59-1.762-4.615-4.165-4.69-.953-.06 2.3-.007 4.558-.178 6.859-.055.782-.106 5.613-1.284 4.655-.816-.657-.579-3.559-.68-4.534-.25-2.491-.478-5.21-.339-7.706.086-1.561.429-4.114-1.419-4.903-1.396-.597-1.703.734-1.922 1.774-.545 2.61.564 6.489-.991 8.81-1.253 1.859-1.436-.655-1.586-1.858-.217-1.718-.171-3.45-.196-5.18-.03-1.412.105-5.33-2.18-5.156-.29 1.323.948 5.417-.93 6.026-1.109.36-1.149-2.255-1.358-2.882-.62-1.905-2.372-5.89-4.58-6.29-1.251 2.053 2.876 4.327 1.817 6.467-1.63-.724-2.607-2.287-3.662-3.643-.965-1.24-2.332-2.486-3.73-3.52-.32-.33-.638-.65-.973-.961-.675-.627-1.684-1.2-2.51-1.59a1.921 1.921 0 0 0-.313-.113c-.19-.4.04-.65 1.233-.616 1.566.05 2.7.885 4.075 1.415 1.392.533 2.893.546 4.385.643 1.412.081 2.813.306 4.21.478 9.096 1.074 16.097 8.583 21.102 15.624 2.472 3.478 4.904 7.11 5.55 11.296-.13.535-.502.968-1.348 1.172.466.933-.535 6.126-1.755 4.804Z" fill="#A3CE24"/><path d="M18.349 13.264a10.217 10.217 0 0 0-.3-.387c1.67 1.29 3.195 3.784 4.392 5.394.992 1.33 1.844 3.788 3.165 4.787.313-1.439-.57-3.796-1.166-5.157 1.16 1.451 1.632 3.18 2.06 4.957.409 1.662.856 3.525 2.563 4.284 1.157-1.188.543-3.525.932-5 .58 2.272-.01 5.55.243 6.442.356 1.27 3.81 4.185 5.164 4.559.228-.77-.208-1.772-.244-2.599-.039-.85.115-1.713.007-2.55.702 1.832.698 3.462 1.047 5.335.366 1.976 1.984 3.452 3.472 4.642 1.88-2.21.825-5.797 2.167-8.19.686 1.376-.038 3.614-.14 5.082-.102 1.57-.213 3.123.432 4.64.5 1.17 1.526 2.677 2.949 2.644 1.49-.026 2.883-2.25 3.392-3.467-.084 1.755-2.196 3.85-1.332 5.626.688 1.416 2.078 1.613 3.399.888 1.19-.656 1.583-1.895 2.063-3.072-.015.445-.024.895-.056 1.35-.08 1.199.49 2.268.343 3.45-.08.632-.272.97-.58 1.175a29.166 29.166 0 0 1-3.837-1.902c-3.109-2.648-6.447-5.075-9.621-7.688-2.687-2.304-5.39-4.71-7.547-7.456-2.877-3.647-5.75-7.19-8.354-11.047-1.396-2.067-2.832-4.305-4.399-6.403a1.294 1.294 0 0 0-.214-.337Z" fill="#4A8209"/><path opacity=".24" d="M22.869 36.476c.883 1.638 1.951 3.186 3.368 4.589 4.084 4.057 13.094 8.557 18.75 5.043-.759-1.924-5.762-3.345-7.518-4.444-4.489-2.817-8.092-6.965-11.252-11.18-2.993-3.995-4.398-11.078-9.52-12.97-1.815 2.43.537 6.004 1.571 8.166 1.706 3.627 2.762 7.397 4.6 10.796Z" fill="#CCEA86"/><path opacity=".2" d="M36.18 16.705c-.112.001-.203-.013-.294-.028-.017.009-.028.01-.044.019.122.027.23.033.338.01Z" fill="#CCEA86"/><path opacity=".2" d="M40.932 19.691c-.791-.395-1.657-.348-2.184-1.223-.333-.554-.149-1.263-.709-1.726-.58-.477-1.589-.4-2.153-.065-.778-.173-.695-1.067-1.265-1.557-.449-.393-1.25-.42-1.745-.776-1.086-.79-1.236-2.53-2.303-3.205-1.15-.714-2.386.285-3.451.16-.952-.116-1.395-1.053-2.312-1.244-1.118-.236-1.713.747-2.644.575-1.454-.263-2.616-.904-4.135-.95a7.107 7.107 0 0 0-2.45.361c-.255-.265-.511-.53-.781-.774-.676-.627-1.685-1.2-2.51-1.59a1.921 1.921 0 0 0-.314-.113c-.19-.4.04-.65 1.233-.616 1.566.05 2.7.885 4.075 1.415 1.392.533 2.893.546 4.385.643 1.412.081 2.813.306 4.21.477 9.096 1.074 16.097 8.584 21.102 15.625.16.216.307.434.462.656-1.271-1.591-2.796-2.97-4.316-4.314-.693-.63-1.373-1.351-2.195-1.759Z" fill="#CCEA86"/><path opacity=".25" d="M24.864 37.483c.65.79 1.402 1.351 2.09 2.088.717.768.843 1.934 1.69 2.562.691.506 1.732.554 2.504.834 1.088.406 2.077 1.035 3.178 1.45 1.051.4 2.09.79 3.17 1.08.605.16 1.737.8 2.34.766.497-.028.774-.062.86-.731.183-1.359-1.741-2.152-2.66-2.497-1.722-.638-3.67-.678-5.163-1.82-1.194-.908-2-2.228-2.788-3.462-1.08-1.688-2.211-3.474-3.399-5.097-1.113-1.53-2.573-2.334-3.457-4.084-.395-.791-.84-1.273-1.268-1.934-.481-.742-3.512-8.626-4.576-7.525-.88.9 1.563 5.24 1.953 6.29.871 2.32 2.163 4.616 2.734 7.013.463 1.955 1.529 3.52 2.792 5.067Z" fill="#CCEA86"/></svg>