<svg width="112" height="97" viewBox="0 0 112 97" fill="none" xmlns="http://www.w3.org/2000/svg"><path d="M117.162 127.234c-1.443 3.791-2.75 7.515-4.368 11.244-1.251 2.895-.776 6.039-2.179 8.829-1.812 3.601-3.745 2.524-7.72 1.839-4.775-.812-9.476-1.86-14.22-2.668-6.387-1.087-12.76-3.709-18.042-7.485-10.399-7.429-18.042-17.746-23.26-29.38-9.734-21.73-10.315-49.296-3.26-71.933 1.557-5.029 3.53-12.373 1.96-17.623-1.102-3.707-5.085-8.832 1.401-6.314 3.829 1.496 5.902 4.555 8.834 7.07 2.973 2.537 6.674 3.886 10.276 5.435 3.42 1.438 6.685 3.22 9.99 4.871 21.542 10.63 32.263 35.332 38.462 57.125 3.657 12.798 6.989 26.111 2.126 38.99Z" fill="#78AF02"/><path opacity=".42" d="M93.372 147.37a161.546 161.546 0 0 0-4.686-.874c-6.387-1.088-12.76-3.71-18.042-7.485-10.399-7.429-18.042-17.746-23.26-29.381-9.746-21.748-10.327-49.314-3.272-71.95 1.557-5.029 3.53-12.373 1.96-17.623-1.102-3.707-5.085-8.832 1.401-6.315 2.917 1.13 4.827 3.197 6.855 5.208 2.7 5.702 2.737 11.964 4.876 18.109.882 2.518 1.952 4.853 2.614 7.471.162.65.687 7.994.401 7.772-3.659-2.956-5.405-6.794-7.07-11.084-1.432-3.688-2.838-10.368-6.387-12.559-6.592 6.53 2.824 17.693 5.111 23.786-3.372-2.997-4.471-7.759-7.572-10.972.479 2.772-1.948 5.906-1.744 9 .223 3.16 1.712 5.494 4.143 7.514 3.814 3.217 7.477 6.065 11.62 8.317 4.398 2.39 9.983 2.666 12.86 7.297-4.291 2.193-11.856-3.733-15.123-5.935-1.87-1.252-15.596-11.841-15.201-12.484-7.43 12.214 9.621 24.597 18.797 27.956 3.06 1.11 6.234 1.93 9.328 2.936 1.599.521 6.595 3.47 8.015 3.166-10.695 2.329-22.358-3.853-30.237-10.534-1.834-1.54-3.577-3.329-5.686-4.205-7.681 8.18 5.441 15.742 11.356 18.498 4.857 2.256 9.458 5.583 14.612 7.132 3.696 1.115 7.816.304 11.548 1.131-5.228 1.792-11.994.574-17.15-1.053-6.181-1.966-11.392-7.344-17.792-8.526-3.034 3.66 3.823 12.998 6.342 15.562 4.88 4.977 13.213 7.579 19.6 9.955 3.61 1.332 7.697.966 11.491 1.012 2.26.034 8.421 1.857 10.2 1.199-4.07 1.488-9.425 1.052-13.673.505-2.716-.35-5.439-.746-8.1-1.396-2.361-.596-5.326-2.666-7.62-2.862-6.303-.513-4.25 4.901-.783 7.202 7.691 5.047 15.611 7.963 24.557 9.403-4.449-.724-8.494-.07-13.234-1.591-4.723-1.533-8.514-4.792-13.636-5.574-1.622 5.39 15.884 13.353 19.434 15.016 4.125 1.922 8.487 2.785 12.991 2.944 2.363.068 6.916-.991 9.842-.604.818.116 1.493.331 1.95.723.457.393-8.702 3.759-9.766 3.893-.622.09-1.261.192-1.87.3Z" fill="#A3CE24"/><path opacity=".42" d="M70.644 139.011c-10.399-7.429-18.042-17.746-23.26-29.381-9.746-21.748-10.327-49.314-3.272-71.95 1.557-5.029 3.53-12.373 1.96-17.623-1.102-3.707-5.085-8.832 1.401-6.315 3.672 1.422 5.717 4.29 8.461 6.723 1.997 3.139 3.42 6.36 3.351 10.275a16.65 16.65 0 0 1-.042.924c-.46 6.607-4.414 3.567-8.613 3.696-6.631.188-2.031 8.095.57 11.233 2.173 2.595 7.592 4.828 8.097 8.319-5.53 1.659-9.752-4.379-13.712-7.39-4.796 8.359 8.75 15.81 15.37 17.84 7.954 2.472.793 4.738-3.902 4.607-3.029-.08-5.414-.71-8.194-1.91-1.989-.854-4.657-2.762-6.641-2.778 2.942 5.56 6.641 9.935 12.108 13.713 2.826 1.984 6.824 4.52 10.14 5.846 2.942 1.166 6.853 1 8.97 3.554-1.925 3.364-11.446 1.06-14.37.146-7.043-2.183-11.641-5.355-17.4-9.667-.93 2.751 1.655 7.19 3.286 9.425 2.37 3.22 6.378 4.671 9.795 6.56 3.992 2.224 8.197 4.564 12.619 5.701 2.686.685 9.93-.06 11.532 1.905-2.628 2.958-9.871 3.098-13.562 3.163-6.573.121-13.48-2.814-18.377-7.173-.764 2.346 3.516 7.37 5.061 9.138 7.991 9.076 20.312 10.828 31.965 11.202 2.855.095 6.518-.767 3.533 2.964-1.639 2.034-4.317 2.685-6.916 2.807-7.843.452-14.788-4.431-22.058-6.298 2.87 2.767 6.394 6.134 10.064 7.819 5.525 4.58 14.56 3.458 19.834 7.792-4.87 1.7-9.628.797-14.254-1.277-3.047-1.356-6.278-5.135-9.635-5.46-3.43-.353-3.523 1.633-1.591 4.184 3.242 4.325 10.051 5.302 14.484 7.932 2.006 1.184 3.128.904 1.286 3.289a3.203 3.203 0 0 1-.69.637 40.915 40.915 0 0 1-7.398-4.172Z" fill="#A3CE24"/><path d="M88.686 146.496c-6.387-1.088-12.76-3.71-18.042-7.485-.924-.648-1.8-1.38-2.671-2.065 1.129.716 2.233 1.396 3.243 1.904 5.248 2.667 13.54 5.588 19.442 3.933a8.701 8.701 0 0 0 3.557-1.998c3.438-3.231-1.624-6.502-4.278-7.709-4.341-1.93-9.51-2.022-14.113-3.006-5.574-1.205-14.238-5.419-18.662-11.027 7.786 6.508 28.916 16.241 35.73 5.98.32-.486.402-1.2-.115-1.604-5.161-3.754-11.325-3.233-17.358-4.645-5.767-1.333-20.885-8.587-22.884-10.592 8.164 4.062 18.936 6.916 27.235 5.569 4.976-.827 3.845-6.961.86-9.439-4.1-3.439-10.285-2.798-15.162-4.855-5.559-2.32-10.906-4.866-16.02-8.022-1.358-.819-2.542-1.916-3.797-2.965-2.334-1.957-4.524-4.276-4.777-7.442 2.585 5.045 7.885 7.598 12.706 9.878 5.268 2.47 10.518 4.951 16.53 3.72 2.078-.418 8.372-1.582 7.564-4.94-.698-2.936-8.12-4.567-10.585-5.275-5.41-1.501-9.75-3.959-14.567-6.689-4.297-2.434-7.167-5.201-9.377-9.744 4.752 5.513 11.24 8.791 18.169 10.66 3.302.889 11.159 1.48 9.925-4.346-1.005-4.853-8.136-6.028-11.956-7.399-5.739-2.01-10.694-7.513-14.568-11.951 3.01 1.644 5.446 4.24 8.7 5.478 1.703.632 5.2 1.99 6.9 1.598 3.777-.888.592-3.2-.956-4.518-4.405-3.727-7.424-7.654-10.307-12.597-2.35-4.025-2.966-8.017-2.773-12.623-.02 5.119 2.946 8.556 5.808 12.408 2.128 2.836 4.658 6.893 8.9 6.181.944-.156 1.432-.968 2.285-.877 1.525.15 2.252 1.803 3.017 2.903.715 1.029 1.638 1.676 2.412 2.638 1.935 2.444.652 5.52 1.096 8.316.508 3.041 2.145 5.85 3.397 8.637 1.56 3.494 3.085 7.013 4.614 10.502 3.004 6.858 5.967 13.772 9 20.636 4.026 9.2 7.873 18.446 11.38 27.848 2.485 6.641 4.539 10.581 10.097 14.717.505.386 1.264.91 2.11 1.559-1.717 2.982-3.671 2.025-7.436 1.379-4.828-.776-9.529-1.824-14.273-2.631Z" fill="#6D9E02"/><path d="M95.463 135.234c-3.005-4.437-5.424-9.281-8.08-13.934-5.838-10.257-12.397-20.906-16.198-32.13-3.915-11.54-7.909-22.816-10.966-34.636-2.851-11.069-5.508-23.562-10.816-33.66-1.12-2.143-3.113-4.442-4.811-6.129a5.034 5.034 0 0 0-.676-.556c-.119-1.155.67-1.572 3.587-.441 3.83 1.496 5.902 4.555 8.834 7.07 2.973 2.537 6.674 3.886 10.276 5.435 3.42 1.438 6.685 3.22 9.99 4.871 21.542 10.63 32.263 35.332 38.462 57.125 3.64 12.81 6.972 26.123 2.096 38.984-1.443 3.792-2.75 7.515-4.368 11.245-1.251 2.895-.776 6.038-2.179 8.828-.75 1.495-1.523 2.164-2.465 2.398-4.756-4.194-8.873-8.831-12.686-14.47Z" fill="#61A304"/><path opacity=".6" d="M49.373 20.868c-1.12-2.142-3.113-4.441-4.811-6.128a5.04 5.04 0 0 0-.676-.557c-.119-1.154.67-1.571 3.587-.44.278.096.532.235.774.356a1.184 1.184 0 0 0-.379.553c-.367 1.176 1.294 3.073 1.923 3.978 1.03 1.52 1.51 3.082 2.106 4.772 2.141 5.959 3.602 12.074 5.755 18.05 1.115 3.119 2.323 14.094 5.51 15.615 2.892 1.358 2.695-2.636 2.838-5.156.165-2.904-.771-4.858-1.112-7.62-.351-2.966-.086-5.992-.85-8.908-.924-3.489-2.322-6.333-3.661-9.585C63.8 28.68 64.7 35.58 65.634 39.799c1.32 5.95 1.844 11.664 1.306 17.668-.415 4.893-.924 8.93 1.053 13.555.327.773.62 2.596 1.677 2.413 1.446-.267 1.677-3.19 2.226-4.256 1.175-2.133 2.458-3.998 3.39-6.33 1.635-4.082 2.646-8.495 4.004-12.675 1.165-3.625 1.612-8.093.927-11.88 1.58 8.823 1.15 16.725-2.591 25.008-1.208 2.655-1.972 5.606-3.306 8.191-1.376 2.64-2.72 5.363-2.39 8.45.32 2.882 1.768 5.875 2.84 8.63 1.458 3.801 3.09 3.009 5.131.038 3.504-5.066 4.918-11.021 7.964-16.217 2.78-4.746 3.134-11.202 4.41-16.483 1.068-4.294 1.14-8.318.645-12.21l.313.336c.116.13.232.259.343.419 3.161 8.485.326 17.77-1.584 26.57-.318.905-.654 1.823-.99 2.74-2.141 5.514-4.4 11.084-6.107 16.768-1.194 3.961-3.156 7.877-.434 11.643 1.022 1.394 2.727 3.129 4.535 2.399.839-.346 1.747-1.424 2.303-2.1 5.206-6.328 7.476-14.799 10.569-22.237 1.941-4.665 3.707-9.47 5.086-14.375.037.053.056.119.076.184.012.018.024.036.019.066 1.233 5.826-.963 11.562-2.697 17.056-.898 2.834-1.653 5.99-2.931 8.693-1.162 2.492-2.205 5.006-3.337 7.503-1.673 3.688-3.412 7.054-4.692 10.891-1.695 5.02-3.132 13.516 2.658 16.623 3.78 2.031 8.403-4.34 10.401-6.728 4.564-5.435 7.011-13.423 9.135-20.135a124.2 124.2 0 0 0 1.332-4.557c.196.811.404 1.64.587 2.434.457 1.945-.713 4.994-.98 6.995-.378 2.789-2.294 5.331-3.388 7.959-2.154 5.155-4.876 11.65-8.722 15.77-1.673 1.795-6.786 8.295-1.425 9.042 5.498.757 11.008-5.361 13.891-9.996-1.368 3.635-2.653 7.238-4.201 10.84-1.251 2.895-.777 6.038-2.179 8.829-.751 1.495-1.523 2.163-2.465 2.397-4.177-3.701-7.84-7.76-11.258-12.489a321.929 321.929 0 0 1-8.83-14.676l-.708-1.245c-.316-.569-.65-1.126-.968-1.695-1.043-1.88-2.116-3.765-3.142-5.657-3.777-6.874-7.863-13.927-10.792-21.285a67.79 67.79 0 0 1-1.296-3.493c-3.915-11.54-7.91-22.815-10.967-34.635-1.645-6.381-3.11-13.336-5.324-19.928-1.381-4.828-3.132-9.505-5.378-13.759Z" fill="#468E02"/><path opacity=".31" d="M105.927 133.066c-1.155-2.722 4.736-10.526 6.011-12.78 5.027-8.782 7.486-16.753 3.161-26.535-1.328-2.971-2.663-5.043-5.34-2.157-3.352 3.62-5.857 13.911-7.181 18.593-.639 2.26-3.535 15.245-7.764 10.711-2.265-2.425.902-9.757 1.607-12.378 1.65-6.067 3.536-11.797 6.55-17.418 1.845-3.44 6.326-8.843 6.387-12.806.086-4.874-7.757-14.342-10.758-6.469-2.162 5.634-4.013 11.262-6.454 16.8-.82 1.885-5.181 13.783-7.255 10.383-1.442-2.34 1.69-9.305 2.295-11.804 1.567-6.378 3.387-13.3 5.92-19.348 1.58-3.783 4.665-9.794.79-13.363-2.929-2.7-4.855.321-6.307 2.699-3.636 5.974-4.295 16.535-10.174 20.91-4.728 3.496-2.975-2.879-2.292-5.985.97-4.436 2.602-8.675 4.059-12.977 1.16-3.516 4.931-13.083-.87-14.655-1.879 3.015-2.405 14.221-7.58 14.082-3.059-.085-.865-6.583-.832-8.316.138-5.252-.7-16.642-5.809-19.564-4.892 3.978 3.319 13.218-1.176 17.578-3.395-3.22-4.44-7.94-5.858-12.216-1.299-3.913-3.587-8.19-6.136-11.97-.5-1.1-1.006-2.169-1.56-3.23-1.12-2.143-3.113-4.442-4.812-6.13a5.041 5.041 0 0 0-.676-.556c-.118-1.154.671-1.57 3.588-.44 3.829 1.496 5.902 4.554 8.833 7.07 2.974 2.537 6.674 3.886 10.276 5.434 3.42 1.439 6.686 3.222 9.99 4.872 21.543 10.63 32.263 35.332 38.462 57.125 3.061 10.765 5.889 21.877 3.817 32.789-.792 1.208-2.09 1.953-4.361 1.715.335 2.715-6.693 14.676-8.551 10.336Z" fill="#A3CE24"/><path d="M54.628 33.844a26.538 26.538 0 0 0-.4-1.22c2.996 4.653 4.58 12.156 6.127 17.185 1.285 4.158 1.237 10.98 3.627 14.608 2.034-3.282 1.919-9.885 1.64-13.77 1.593 4.603 1.246 9.29.745 14.06-.447 4.467-.974 9.464 2.58 12.836 3.9-1.922 4.431-8.237 6.687-11.541-.559 6.124-4.89 13.712-5.046 16.136-.233 3.451 5.749 13.686 8.768 15.798 1.238-1.702 1.039-4.563 1.676-6.638.648-2.134 1.784-4.134 2.252-6.3.129 5.146-1.31 9.171-2.09 14.107-.828 5.206 1.877 10.273 4.513 14.519 6.585-3.813 7.121-13.605 12.538-18.343.49 4-3.263 8.898-4.8 12.44-1.63 3.789-3.265 7.531-3.002 11.847.208 3.329 1.424 7.956 4.971 9.122 3.704 1.241 9.1-3.034 11.424-5.597-1.746 4.266-8.802 7.591-8.223 12.74.457 4.103 3.72 5.808 7.622 5.175 3.519-.578 5.576-3.297 7.794-5.785-.429 1.087-.845 2.192-1.321 3.286-1.251 2.895-.777 6.039-2.179 8.829-.751 1.495-1.523 2.163-2.465 2.397-2.812-2.493-5.387-5.176-7.816-8.066-5.364-9.27-11.488-18.196-17.043-27.439-4.62-8.05-9.193-16.37-12.117-25.047-3.916-11.54-7.91-22.815-10.967-34.635-1.639-6.333-3.226-13.123-5.26-19.683-.012-.36-.12-.705-.235-1.02Z" fill="#4A8209"/><path opacity=".24" d="M45.451 95.187c.746 4.822 2.031 9.586 4.304 14.295 6.538 13.611 24.863 32.634 41.927 28.906-.189-5.42-11.31-13.321-14.689-17.577-8.625-10.897-13.895-24.311-18.01-37.502-3.898-12.499-1.161-31.24-12.163-40.407-6.616 4.413-3.936 15.312-3.275 21.562 1.035 10.463.34 20.708 1.906 30.723Z" fill="#CCEA86"/><path opacity=".2" d="M95.69 57.984a4.415 4.415 0 0 1-.702-.328c-.048.007-.078.002-.126.009.28.174.54.283.828.32Z" fill="#CCEA86"/><path opacity=".2" d="M104.819 69.531c-1.608-1.67-3.79-2.312-4.327-4.939-.337-1.66.741-3.25-.238-4.886-1.015-1.688-3.576-2.382-5.266-2.05-1.772-1.11-.782-3.245-1.762-4.958-.763-1.364-2.72-2.136-3.633-3.448-1.992-2.905-.837-7.338-2.883-9.942-2.217-2.774-6.146-1.386-8.67-2.632-2.251-1.119-2.525-3.823-4.624-5.1-2.559-1.563-4.89.346-7.041-.895-3.364-1.925-5.674-4.53-9.388-5.974-2.234-.868-4.272-1.189-6.371-1.256-.401-.88-.802-1.758-1.255-2.6-1.12-2.143-3.113-4.442-4.812-6.13a5.041 5.041 0 0 0-.676-.556c-.118-1.154.671-1.57 3.588-.44 3.829 1.496 5.902 4.554 8.833 7.07 2.974 2.537 6.674 3.886 10.276 5.434 3.42 1.439 6.686 3.222 9.99 4.872 21.543 10.63 32.263 35.332 38.462 57.125.205.673.38 1.341.567 2.027-1.746-5.049-4.307-9.794-6.884-14.45-1.163-2.165-2.21-4.542-3.886-6.272Z" fill="#CCEA86"/><path opacity=".25" d="M49.5 99.424c.913 2.524 2.283 4.571 3.337 6.996 1.097 2.526.388 5.518 1.93 7.814 1.265 1.858 3.796 2.888 5.46 4.258 2.333 1.957 4.225 4.378 6.584 6.37 2.248 1.91 4.472 3.785 6.89 5.447 1.354.927 3.592 3.503 5.11 3.947 1.254.365 1.97.525 2.767-1.055 1.647-3.196-2.416-6.846-4.384-8.504-3.698-3.087-8.48-4.895-11.166-9.026-2.156-3.291-2.994-7.261-3.857-11.002-1.19-5.12-2.421-10.526-3.934-15.58-1.41-4.755-4.314-8.025-4.964-13.125-.284-2.302-.962-3.883-1.439-5.894-.54-2.255-1.119-24.402-4.716-22.613-2.963 1.454-.73 14.321-.685 17.263.12 6.495 1.3 13.305.609 19.731-.57 5.238.691 10.044 2.459 14.973Z" fill="#CCEA86"/></svg>