<svg width="16" height="16" viewBox="0 0 16 16" fill="none" xmlns="http://www.w3.org/2000/svg"><path d="M14.667 6.733c.066-.333-.2-.733-.534-.733l-3.8-.533L8.6 2a.52.52 0 0 0-.267-.267C8 1.533 7.6 1.667 7.4 2L5.733 5.467 1.933 6c-.2 0-.333.067-.4.2a.644.644 0 0 0 0 .933L4.267 9.8 3.6 13.6c0 .133 0 .267.067.4.2.333.6.467.933.267l3.4-1.8 3.4 1.8c.067.066.2.066.333.066h.134c.333-.066.6-.4.533-.8l-.667-3.8 2.734-2.666c.133-.067.2-.2.2-.334Zm-4.134 2.334c-.133.133-.2.4-.2.6l.467 2.8-2.533-1.334c-.067-.066-.2-.066-.334-.066V3.8L9.2 6.333c.067.2.267.334.533.334l2.8.4-2 2Z" fill="#FFCF55"/></svg>