<svg width="21" height="22" viewBox="0 0 21 22" fill="none" xmlns="http://www.w3.org/2000/svg">
<path d="M5.00707 8.24471C4.42373 8.59242 3.81329 8.80066 3.16381 8.87031C2.72623 8.91948 2.31003 8.86876 1.96194 8.73386C1.39127 8.50753 0.967849 8.10005 0.707228 7.52705C0.647085 7.39482 0.642942 7.24166 0.702042 7.1006C0.944008 6.51438 1.35237 6.10289 1.92166 5.85693C2.26323 5.70936 2.68341 5.65188 3.11984 5.68432C4.02201 5.75663 4.84821 6.09833 5.64339 6.70131L6.07443 6.69338C6.16446 6.32224 6.35986 5.98166 6.63396 5.69999L6.40945 5.32335C5.47417 4.96574 4.74939 4.43909 4.22052 3.7085C3.95927 3.35376 3.79439 2.9727 3.74044 2.60022C3.64959 1.98828 3.79245 1.42378 4.15984 0.912211C4.24455 0.793239 4.37775 0.71384 4.5227 0.695918C5.14745 0.616108 5.71194 0.758969 6.207 1.12998C6.50898 1.35461 6.76573 1.68091 6.95349 2.07946C7.33996 2.89492 7.45844 3.78298 7.3281 4.77578L7.5526 5.15242C7.928 5.04071 8.32327 5.03543 8.69256 5.13279L8.90457 4.75741C8.74971 3.76654 8.84215 2.87726 9.20585 2.05663C9.38217 1.65272 9.63075 1.31779 9.92763 1.0848C10.4102 0.703784 10.971 0.537586 11.6017 0.603605C11.7466 0.616863 11.8793 0.693363 11.9744 0.811022C12.359 1.3101 12.516 1.87638 12.4391 2.48875C12.3921 2.8591 12.2388 3.24933 11.9874 3.61084C11.6172 4.149 11.1436 4.5869 10.5603 4.93461C10.3352 5.06876 10.0918 5.18269 9.83843 5.29017L9.62642 5.66555C9.76085 5.79708 9.88883 5.93868 9.99013 6.10863C10.0914 6.27858 10.1551 6.4585 10.2069 6.63931L10.6452 6.63325C11.421 6.00272 12.2383 5.6401 13.14 5.54458C13.5776 5.49541 13.9938 5.54613 14.3419 5.68103C14.9126 5.90736 15.336 6.31485 15.5966 6.88784C15.6567 7.02007 15.6563 7.17597 15.6018 7.31429C15.4023 7.79425 15.0913 8.16017 14.6733 8.40932C14.5814 8.46408 14.4868 8.51424 14.3868 8.55522C14.0452 8.7028 13.6296 8.75754 13.1886 8.72783C12.2864 8.65552 11.4602 8.31382 10.6696 7.70811L10.2386 7.71603C10.1504 8.07985 9.95501 8.42043 9.6855 8.69935C9.7649 8.83256 9.84889 8.96302 9.92829 9.09622C10.8471 9.45745 11.5618 9.97766 12.0898 10.6963C12.351 11.0511 12.5159 11.4321 12.5698 11.8046C12.6265 12.1817 12.5833 12.5374 12.4622 12.8773C12.8577 13.4259 13.256 13.9479 13.6452 14.4443C13.6904 14.0501 13.8061 13.6698 14.0044 13.3026C14.4303 12.5134 15.1528 11.9395 16.0863 11.657C16.8132 11.4354 17.5727 11.3936 18.3288 11.5342C18.5186 11.5705 18.6796 11.7049 18.7414 11.8922C18.8032 12.0794 18.7558 12.282 18.6225 12.4237C18.249 12.8206 17.7746 13.5391 17.6689 14.2496C17.5043 15.3624 16.8908 16.0145 16.2064 16.4224C15.9997 16.5456 15.7931 16.6377 15.5837 16.7251C17.2714 18.5329 18.8232 19.7369 20.125 20.2185C20.4035 20.3201 20.5438 20.6287 20.4421 20.9072C20.3959 21.0281 20.314 21.1205 20.213 21.1807C20.0798 21.2601 19.911 21.2798 19.7534 21.2243C18.8163 20.874 17.8542 20.2522 16.9092 19.4709L16.8311 19.5175C16.4477 19.8456 16.0148 20.1846 15.5371 20.4693C14.6369 21.0059 13.5647 21.3586 12.3256 21.1075C11.442 20.9307 10.2556 21.1647 9.50931 21.4166C9.30368 21.4894 9.07827 21.4245 8.93934 21.2646C8.80041 21.1046 8.76624 20.8697 8.86218 20.6756C9.27269 19.8395 9.86365 19.0764 10.6203 18.4137C11.5682 17.581 12.6481 17.0742 13.7416 16.9454C13.9343 16.9239 14.1205 16.9125 14.3076 16.9131C14.2893 16.8928 14.2682 16.868 14.25 16.8478C13.3368 15.8171 12.4917 14.7335 11.7472 13.7143C11.1362 13.7859 10.5837 13.6421 10.106 13.2794C9.80404 13.0548 9.54729 12.7285 9.35953 12.33C8.97306 11.5145 8.85457 10.6264 8.98033 9.63638L8.75582 9.25974C8.38042 9.37145 7.98515 9.37672 7.61586 9.27936L7.40385 9.65474C7.55872 10.6456 7.46627 11.5349 7.10258 12.3555C6.92625 12.7594 6.67767 13.0944 6.38079 13.3274C6.29714 13.3959 6.20801 13.4552 6.11615 13.51C5.69817 13.7591 5.22375 13.8614 4.71128 13.8058C4.56368 13.788 4.43367 13.7161 4.33863 13.5984C3.954 13.0993 3.79698 12.533 3.87396 11.9207C3.92088 11.5503 4.07424 11.1601 4.32564 10.7986C4.84135 10.0554 5.54906 9.50907 6.46999 9.12198L6.68386 8.73927C6.54943 8.60774 6.42145 8.46614 6.32015 8.2962C6.21885 8.12625 6.15517 7.94632 6.10343 7.76551L5.67238 7.77343C5.44811 7.95069 5.23214 8.11055 5.00707 8.24471ZM3.0333 6.75061C2.76558 6.72966 2.52798 6.75924 2.33974 6.84031C2.1047 6.93684 1.93095 7.08398 1.80012 7.29269C1.93525 7.49851 2.11826 7.63843 2.3555 7.73357C2.54328 7.8084 2.78256 7.83385 3.05134 7.80436C3.59624 7.74725 4.09107 7.56435 4.57433 7.25762C4.07724 6.9563 3.57607 6.79437 3.0333 6.75061ZM11.0987 3.00759C11.2524 2.78519 11.3439 2.56261 11.3674 2.36184C11.3993 2.1125 11.3559 1.88311 11.2438 1.66361C10.998 1.6794 10.7859 1.76224 10.5892 1.92307C10.4329 2.04734 10.2893 2.24501 10.1803 2.49047C9.96064 2.98871 9.86468 3.50657 9.89053 4.08256C10.3975 3.80524 10.7911 3.45239 11.0987 3.00759ZM13.2632 7.66242C13.5309 7.68337 13.7685 7.6538 13.9568 7.57273C14.1891 7.4716 14.3674 7.32172 14.4964 7.12034C14.3612 6.91453 14.1782 6.77461 13.9437 6.68406C13.756 6.60923 13.5167 6.58378 13.2479 6.61327C12.703 6.67038 12.2128 6.85054 11.7249 7.16001C12.2193 7.45673 12.7204 7.61867 13.2632 7.66242ZM16.612 14.0952C16.6953 13.5351 16.9307 12.9901 17.2108 12.5306C16.9365 12.5509 16.6668 12.5996 16.3923 12.6823C15.9352 12.824 15.3034 13.1322 14.9365 13.8116C14.7216 14.2135 14.5043 14.8411 14.9233 15.8364C15.9991 15.469 16.4802 14.9706 16.612 14.0952ZM5.19784 11.4054C5.04405 11.6278 4.95262 11.8504 4.92911 12.0512C4.89995 12.3051 4.93597 12.5327 5.05273 12.7494C5.29855 12.7336 5.51062 12.6508 5.70734 12.49C5.8636 12.3657 6.00723 12.168 6.11616 11.9226C6.33586 11.4243 6.43182 10.9065 6.40597 10.3305C5.89895 10.6078 5.50543 10.9606 5.19784 11.4054ZM5.56348 1.9929C5.36033 1.84008 5.14596 1.76243 4.89838 1.75437C4.79229 1.97324 4.75862 2.19874 4.79182 2.45286C4.82334 2.65196 4.92357 2.87234 5.07884 3.09105C5.40404 3.53218 5.80105 3.87447 6.31201 4.1364C6.32194 3.55776 6.2143 3.04298 5.97911 2.55442C5.86978 2.30834 5.72361 2.11533 5.56348 1.9929ZM13.8633 18.0058C12.9863 18.1115 12.1038 18.5317 11.3177 19.2181C11.0115 19.4878 10.7374 19.7695 10.4963 20.0751C11.1716 19.9651 11.9007 19.9351 12.5359 20.0608C13.6678 20.2887 14.7299 19.8984 16.0749 18.7605C15.5026 18.1243 14.8045 17.893 13.8633 18.0058ZM10.733 12.4201C10.9362 12.573 11.1505 12.6506 11.3981 12.6587C11.5042 12.4398 11.5425 12.2116 11.5047 11.9602C11.4732 11.7611 11.3729 11.5407 11.2177 11.322C10.8925 10.8809 10.4954 10.5386 9.98449 10.2766C9.97456 10.8553 10.0822 11.3701 10.3174 11.8586C10.4267 12.1047 10.5729 12.2977 10.733 12.4201ZM8.69583 8.12516C9.20108 7.82399 9.36806 7.16419 9.06689 6.65894C8.76572 6.15369 8.10593 5.98671 7.60067 6.28788C7.09542 6.58904 6.92844 7.24884 7.22961 7.7541C7.53077 8.25935 8.19057 8.42633 8.69583 8.12516Z" fill="#359740"/>
</svg>
