<?xml version="1.0" encoding="UTF-8"?><!DOCTYPE svg PUBLIC "-//W3C//DTD SVG 1.1//EN" "http://www.w3.org/Graphics/SVG/1.1/DTD/svg11.dtd"><svg xmlns="http://www.w3.org/2000/svg" xmlns:xlink="http://www.w3.org/1999/xlink"><defs><clipPath id="a"><path fill="#fff" d="M0 0h30v30H0z"/></clipPath><clipPath id="a"><path fill="#fff" transform="rotate(180 7.5 7.5)" d="M0 0h15v15H0z"/></clipPath><clipPath id="a"><path fill="#fff" d="M0 0h30v30H0z"/></clipPath><clipPath id="a"><path fill="#fff" d="M0 0h30v30H0z"/></clipPath><clipPath id="a"><path fill="#fff" d="M0 0h80v80H0z"/></clipPath><clipPath id="a"><path fill="#fff" d="M0 0h30v30H0z"/></clipPath><clipPath id="a"><path fill="#fff" d="M0 0h30v30H0z"/></clipPath><clipPath id="a"><path fill="#fff" d="M0 0h30v30H0z"/></clipPath><clipPath id="a"><path fill="#fff" d="M0 0h35v35H0z"/></clipPath><clipPath id="a"><path fill="#fff" d="M0 0h35v35H0z"/></clipPath><clipPath id="a"><path fill="#fff" d="M0 0h30v30H0z"/></clipPath><clipPath id="a"><path fill="#fff" d="M0 0h18v18H0z"/></clipPath></defs><symbol id="247" viewBox="0 0 30 30"><g clip-path="url(#a)" fill="#F90"><path d="M8.812 18.53h-5.18a3.38 3.38 0 0 1 1.765-2.16l1.721-.86a3.047 3.047 0 0 0 1.694-2.74 3.067 3.067 0 0 0-3.064-3.064h-.931a3.067 3.067 0 0 0-3.064 3.064v.465h1.765v-.465a1.3 1.3 0 0 1 1.299-1.3h.931a1.3 1.3 0 0 1 .581 2.461l-1.72.86a5.137 5.137 0 0 0-2.856 4.62v.883h7.059V18.53zM14.988 14.118h-1.216a1.433 1.433 0 0 1-1.43-1.431V9.706h-1.766v2.98a3.2 3.2 0 0 0 3.196 3.196h1.216v4.412h1.765V9.706h-1.765v4.412zM24.948 20.263l3.3-10.557h-6.79v1.765h4.389l-2.583 8.266 1.684.526zM18.518 14.118h2.647v1.764h-2.647v-1.764zM14.106 0h1.765v3.53h-1.765V0zM10.102 1.934l1.705-.457.61 2.273-1.705.457-.61-2.273zM6.43 3.706l1.528-.882L9.135 4.86l-1.529.883L6.43 3.706zM3.34 6.366l1.248-1.248 1.664 1.664-1.248 1.247-1.663-1.663zM17.565 3.751l.61-2.273 1.704.457-.61 2.273-1.704-.457zM20.842 4.862l1.176-2.038 1.528.883-1.176 2.037-1.528-.882zM23.72 6.784l1.664-1.664 1.247 1.248-1.663 1.664-1.248-1.248zM14.106 26.47h1.765V30h-1.765v-3.53zM10.105 28.069l.61-2.273 1.704.457-.61 2.273-1.704-.457zM6.43 26.294l1.176-2.038 1.528.883-1.176 2.037-1.529-.882zM3.34 23.632l1.663-1.664 1.247 1.248-1.663 1.663-1.248-1.247zM17.568 26.247l1.705-.458.609 2.273-1.705.457-.61-2.272zM20.841 25.138l1.528-.883 1.177 2.038-1.528.882-1.177-2.037zM23.718 23.218l1.248-1.247 1.663 1.663-1.248 1.248-1.663-1.664z"/></g></symbol><symbol id="angle-bottom" viewBox="0 0 15 15"><path d="M13.25 2.875 7.5 8.625l-5.75-5.75L0 4.625l7.5 7.5 7.5-7.5-1.75-1.75z" fill="#000"/></symbol><symbol id="angle-top" viewBox="0 0 15 15"><g clip-path="url(#a)"><path d="m1.75 12.125 5.75-5.75 5.75 5.75 1.75-1.75-7.5-7.5-7.5 7.5 1.75 1.75z" fill="#000"/></g></symbol><symbol id="arrow-left" viewBox="0 0 30 20"><path d="M30 10c0 .582-.472 1.054-1.054 1.054H3.566l6.648 6.642a1.049 1.049 0 0 1 0 1.483c-.41.41-1.078.41-1.489 0l-8.43-8.437c-.393-.393-.393-1.091 0-1.49L8.731.823A1.054 1.054 0 0 1 10.22 2.31L3.578 8.952h25.374A1.04 1.04 0 0 1 30 10z" fill="#F90"/></symbol><symbol id="arrow-right" viewBox="0 0 30 20"><path d="M0 10c0 .582.472 1.054 1.054 1.054h25.38l-6.649 6.642a1.049 1.049 0 0 0 0 1.483c.411.41 1.079.41 1.49 0l8.43-8.437c.393-.393.393-1.091 0-1.49L21.269.823A1.054 1.054 0 0 0 19.78 2.31l6.643 6.642H1.048A1.04 1.04 0 0 0 0 10z" fill="#F90"/></symbol><symbol id="book"><path d="M76.129 18.721H3.871A3.875 3.875 0 0 0 0 22.591v42.582a3.875 3.875 0 0 0 3.871 3.87h72.258A3.875 3.875 0 0 0 80 65.174V22.592a3.875 3.875 0 0 0-3.871-3.871z" fill="#FF4F19"/><path d="M43.871 62.592h-7.742v6.451h7.742v-6.451z" fill="#E3001E"/><path d="M74.874 58.72v3.872a1.29 1.29 0 0 1-1.29 1.29H6.487a1.29 1.29 0 0 1-1.29-1.29V58.72l7.706-3.871 30.968 1.29 25.806-1.29 5.197 3.87z" fill="#E6BE8A"/><path d="M7.007 60.502a40.913 40.913 0 0 1 33.028.8V14.85a40.912 40.912 0 0 0-34.072-.351 1.307 1.307 0 0 0-.766 1.192v43.632c0 .932.949 1.535 1.81 1.18z" fill="#FFEBB7"/><path d="M40.035 61.302a40.912 40.912 0 0 1 33.029-.8c.861.356 1.81-.247 1.81-1.18v-43.63c0-.512-.3-.985-.766-1.193a40.912 40.912 0 0 0-34.073.351v46.452z" fill="#FFD788"/><path d="M45.197 52.875a1.29 1.29 0 0 1-.387-2.522c1.305-.41 2.648-.76 3.993-1.042a1.29 1.29 0 1 1 .53 2.525 39.813 39.813 0 0 0-3.75.98c-.128.04-.26.059-.386.059zM69.713 52.875c-.127 0-.259-.02-.387-.06a39.393 39.393 0 0 0-14.995-1.697 1.291 1.291 0 0 1-.204-2.573c5.42-.426 10.789.18 15.973 1.808a1.291 1.291 0 0 1-.387 2.522zM69.713 47.698c-.128 0-.259-.02-.387-.06a39.427 39.427 0 0 0-23.742 0 1.291 1.291 0 0 1-.774-2.462 42.001 42.001 0 0 1 25.29 0 1.291 1.291 0 0 1-.387 2.522zM45.197 42.552a1.29 1.29 0 0 1-.387-2.522 42.147 42.147 0 0 1 14.642-1.892 1.29 1.29 0 0 1-.124 2.578 39.536 39.536 0 0 0-13.745 1.776c-.128.04-.26.06-.386.06zM69.713 42.552c-.127 0-.259-.02-.387-.06a39.76 39.76 0 0 0-5-1.22 1.29 1.29 0 0 1 .449-2.542c1.797.317 3.587.755 5.325 1.3a1.291 1.291 0 0 1-.387 2.522zM69.713 37.376c-.128 0-.259-.02-.387-.06a39.427 39.427 0 0 0-23.742 0 1.29 1.29 0 1 1-.774-2.462 42.001 42.001 0 0 1 25.29 0 1.291 1.291 0 0 1-.387 2.522zM45.197 32.215a1.29 1.29 0 0 1-.387-2.522 42.257 42.257 0 0 1 7.987-1.681 1.28 1.28 0 0 1 1.425 1.14 1.29 1.29 0 0 1-1.14 1.424 39.706 39.706 0 0 0-7.499 1.579c-.128.04-.26.06-.386.06zM69.713 32.215c-.128 0-.259-.02-.387-.06a39.55 39.55 0 0 0-11.245-1.816 1.29 1.29 0 0 1-1.27-1.31c.011-.712.634-1.312 1.31-1.27 4.068.064 8.099.715 11.979 1.934a1.291 1.291 0 0 1-.387 2.522zM45.197 27.068a1.29 1.29 0 0 1-.387-2.522 41.917 41.917 0 0 1 17.303-1.68 1.29 1.29 0 0 1 1.14 1.424 1.274 1.274 0 0 1-1.425 1.14 39.384 39.384 0 0 0-16.245 1.579c-.128.04-.26.06-.386.06zM69.713 27.068c-.127 0-.259-.02-.387-.06a39.45 39.45 0 0 0-2.5-.696 1.29 1.29 0 0 1 .613-2.507c.893.218 1.788.467 2.66.741a1.291 1.291 0 0 1-.386 2.522zM45.197 21.892a1.29 1.29 0 0 1-.386-2.522 42.188 42.188 0 0 1 2.66-.74 1.29 1.29 0 1 1 .61 2.508c-.824.199-1.665.433-2.499.694a1.29 1.29 0 0 1-.385.06zM69.713 21.892c-.127 0-.258-.02-.387-.06a39.394 39.394 0 0 0-16.245-1.579 1.282 1.282 0 0 1-1.425-1.14 1.29 1.29 0 0 1 1.14-1.424A41.921 41.921 0 0 1 70.1 19.37a1.291 1.291 0 0 1-.387 2.522z" fill="#868491"/><path d="M10.358 52.875a1.29 1.29 0 0 1-.387-2.522c1.305-.41 2.649-.76 3.993-1.042a1.29 1.29 0 1 1 .53 2.525 39.823 39.823 0 0 0-3.75.98c-.128.04-.259.059-.386.059zM34.874 52.875c-.127 0-.259-.02-.387-.06a39.39 39.39 0 0 0-14.995-1.697 1.282 1.282 0 0 1-1.388-1.185 1.291 1.291 0 0 1 1.184-1.388c5.42-.426 10.788.18 15.973 1.808a1.292 1.292 0 0 1-.387 2.522zM34.874 47.698c-.127 0-.258-.02-.387-.06a39.427 39.427 0 0 0-23.742 0 1.291 1.291 0 0 1-.774-2.462 42.001 42.001 0 0 1 25.29 0 1.291 1.291 0 0 1-.387 2.522zM10.358 42.552a1.29 1.29 0 0 1-.387-2.522 42.159 42.159 0 0 1 14.642-1.892 1.29 1.29 0 0 1-.123 2.578c-4.66-.22-9.287.377-13.745 1.776-.129.04-.26.06-.387.06zM34.874 42.552c-.127 0-.258-.02-.387-.06a39.755 39.755 0 0 0-5-1.22 1.29 1.29 0 1 1 .449-2.542 42.45 42.45 0 0 1 5.325 1.3 1.291 1.291 0 0 1-.387 2.522zM10.358 37.376a1.29 1.29 0 0 1-.387-2.522 42.21 42.21 0 0 1 22.627-.741 1.29 1.29 0 0 1-.61 2.507 39.602 39.602 0 0 0-21.243.696c-.129.04-.26.06-.387.06zM10.358 32.215a1.29 1.29 0 0 1-.387-2.522 42.256 42.256 0 0 1 7.988-1.681 1.284 1.284 0 0 1 1.425 1.14 1.29 1.29 0 0 1-1.14 1.424c-2.54.282-5.064.813-7.5 1.579-.128.04-.259.06-.386.06zM32.294 31.496c-.1 0-.204-.012-.306-.037a39.634 39.634 0 0 0-8.746-1.12 1.29 1.29 0 0 1-1.27-1.31c.011-.713.568-1.312 1.31-1.27 3.136.049 6.27.45 9.316 1.192a1.29 1.29 0 0 1-.303 2.545zM10.358 27.068a1.29 1.29 0 0 1-.387-2.522 41.921 41.921 0 0 1 17.303-1.68 1.29 1.29 0 0 1 1.14 1.424 1.276 1.276 0 0 1-1.425 1.14 39.384 39.384 0 0 0-16.244 1.579c-.129.04-.26.06-.387.06zM10.358 21.892a1.291 1.291 0 0 1-.386-2.522 42.205 42.205 0 0 1 2.66-.74 1.29 1.29 0 1 1 .61 2.508c-.824.199-1.665.433-2.499.694a1.29 1.29 0 0 1-.385.06zM32.295 21.172c-.101 0-.204-.011-.306-.036a39.527 39.527 0 0 0-13.747-.883 1.284 1.284 0 0 1-1.425-1.14 1.29 1.29 0 0 1 1.14-1.424c4.911-.547 9.84-.23 14.641.94a1.29 1.29 0 0 1-.303 2.543z" fill="#B4B6BC"/><path d="M32.293 34.849c0 .515.575.823 1.003.537l2.868-1.912 2.868 1.912a.645.645 0 0 0 1.003-.537V14.957a1.3 1.3 0 0 0-.763-1.187 40.841 40.841 0 0 0-6.171-2.164.651.651 0 0 0-.811.631l.003 22.612z" fill="#5D647F"/></symbol><symbol id="cart" viewBox="0 0 30 30"><path d="M22.735 22.292a3.5 3.5 0 0 0-3.503 3.503 3.5 3.5 0 0 0 3.503 3.503 3.5 3.5 0 0 0 3.503-3.503c-.033-1.92-1.583-3.503-3.503-3.503z" fill="#fff"/><path d="M19.732 25.795a3 3 0 0 1 3.003-3.003c1.635 0 2.972 1.35 3.003 3.007a3 3 0 0 1-3.003 2.999 3 3 0 0 1-3.003-3.003z" stroke-opacity=".5"/><path d="M28.9 6.084c-.068 0-.17-.034-.27-.034H7.41l-.337-2.256A3.016 3.016 0 0 0 4.076 1.2H1.347C.607 1.2 0 1.806 0 2.547s.606 1.348 1.347 1.348h2.729c.168 0 .303.134.336.303L6.501 18.41a3.693 3.693 0 0 0 3.637 3.133H24.15c1.752 0 3.267-1.246 3.638-2.964l2.189-10.947a1.331 1.331 0 0 0-1.078-1.55z" fill="#fff"/><path d="m6.916 6.124.063.426H28.63l.012.001a.903.903 0 0 1 .046.008l.01.002.069.012a.993.993 0 0 0 .07.008.83.83 0 0 1 .65.957l-.001.002-2.188 10.938c-.323 1.49-1.638 2.566-3.148 2.566H10.138a3.193 3.193 0 0 1-3.143-2.707L4.907 4.125l-.002-.013-.002-.012c-.07-.348-.37-.705-.827-.705H1.347A.851.851 0 0 1 .5 2.547c0-.465.382-.847.847-.847h2.729c1.269 0 2.334.93 2.502 2.161v.006l.338 2.257z" stroke-opacity=".5"/><path d="M14.146 25.627c-.067-1.853-1.616-3.335-3.469-3.335-1.954.101-3.436 1.718-3.368 3.638.067 1.852 1.583 3.334 3.435 3.334h.068c1.92-.1 3.435-1.717 3.334-3.637z" fill="#fff"/><path d="M13.647 25.645v.008c.086 1.628-1.199 3.018-2.849 3.111h-.054c-1.579 0-2.878-1.265-2.935-2.852-.058-1.64 1.203-3.026 2.88-3.12 1.58.007 2.9 1.276 2.958 2.853z" stroke-opacity=".5"/></symbol><symbol id="cauldron" viewBox="0 0 30 30"><g clip-path="url(#a)"><path d="M20.294 13.236a.883.883 0 0 0 .883-.883v-3.53h-5.295v7.06a.883.883 0 0 0 1.765 0v-5.294h1.765v1.764c0 .487.396.883.882.883z"/><path d="M22.942 8.823v3.53c0 1.829-1.817 3.104-3.53 2.497v1.033a2.65 2.65 0 0 1-2.647 2.647 2.65 2.65 0 0 1-2.647-2.647v-7.06c-2.347 0-10.454.001-10.615 0a13.008 13.008 0 0 0-1.613 6.343c.022 7.268 5.924 13.19 13.325 13.069 7.073-.114 12.895-5.87 12.895-13.108 0-2.23-.554-4.38-1.613-6.304h-3.555zM25.686 25.473a14.854 14.854 0 0 1-4.363 3.124l.63.629a2.65 2.65 0 0 0 3.743 0 2.65 2.65 0 0 0 0-3.744l-.01-.01zM3.88 25.024l-.458.458a2.65 2.65 0 0 0 0 3.744 2.65 2.65 0 0 0 3.744 0l.915-.915a14.882 14.882 0 0 1-4.201-3.287zM10.588 0h1.765v1.765h-1.765V0zM14.118 0h1.764v1.765h-1.764V0zM3.529 7.06h10.589V3.53H3.528a1.765 1.765 0 0 0 0 3.53zM15.882 3.53v3.53h5.295V3.915l3.967-2.267-.876-1.533-5.973 3.414h-2.413z"/><path d="M22.942 7.06h3.53a1.765 1.765 0 0 0 0-3.53h-3.53v3.53z"/></g></symbol><symbol id="choice" viewBox="0 0 35 35"><path d="M28.363 26.77c1.961-1.928 3.137-4.369 3.137-7.022 0-3.259-1.82-6.371-4.922-8.498 1.248-.766 1.541-1.57 1.541-2.155 0-1.672-2.356-3.042-6.312-3.692a2.147 2.147 0 0 0-.711-.764 2.227 2.227 0 0 0-2.042-.196c-.33.134-.622.346-.85.615-.31-.012-.623-.02-.937-.022h-.061c-.195 0-.389 0-.582.003a2.422 2.422 0 0 0-.838-1.629 2.538 2.538 0 0 0-1.76-.608 2.529 2.529 0 0 0-1.702.752 2.411 2.411 0 0 0-.675 1.974c-3.57.698-5.606 1.983-5.606 3.566 0 .598.307 1.421 1.613 2.198-3.1 2.14-4.856 5.171-4.856 8.456 0 2.653 1.177 5.094 3.137 7.021l-.834 3.337a1.65 1.65 0 0 0 .2 1.28c.119.19.274.356.458.487a1.75 1.75 0 0 0 1.289.307c.225-.034.44-.111.635-.227.194-.116.363-.268.497-.447.134-.18.23-.384.284-.6l.48-1.92a17.077 17.077 0 0 0 8.204 2.031c2.867.02 5.691-.68 8.202-2.03l.48 1.92c.108.435.39.81.782 1.043.392.233.863.304 1.31.198.445-.106.83-.38 1.068-.764.238-.383.311-.842.203-1.278l-.832-3.337zM12.168 6.755a2.49 2.49 0 0 0 1.002.745 2.551 2.551 0 0 0 2.422-.272 2.45 2.45 0 0 0 .803-.948c.437-.01.875-.01 1.317 0-.003.043-.007.086-.007.13a2.1 2.1 0 0 0 .576 1.44 2.217 2.217 0 0 0 2.94.241c.432-.326.722-.8.814-1.325 1.855.43 2.46.985 2.46 1.158 0 .48-2.599 1.657-7.415 1.657-4.815 0-7.414-1.176-7.414-1.657 0-.127.459-.704 2.502-1.17zm7.718-1.242c.182 0 .36.053.51.151a.901.901 0 0 1 .34.403.878.878 0 0 1-.2.978.94.94 0 0 1-1.002.195.915.915 0 0 1-.412-.33.883.883 0 0 1 .115-1.134.932.932 0 0 1 .65-.263zm-5.754-1.478c.245 0 .485.07.69.204.203.133.362.322.456.543a1.184 1.184 0 0 1-.27 1.32 1.268 1.268 0 0 1-1.352.262 1.234 1.234 0 0 1-.555-.446 1.19 1.19 0 0 1 .154-1.528c.233-.227.548-.355.877-.355zm-6.89 26.579a.459.459 0 0 1-.211.282.479.479 0 0 1-.645-.153.448.448 0 0 1-.055-.346l.672-2.69c.262.206.536.401.818.591l-.579 2.316zm-3.18-10.867c0-3.158 1.886-6.07 5.175-7.99a.622.622 0 0 0 .235-.244.604.604 0 0 0-.044-.642.63.63 0 0 0-.266-.21c-1.164-.487-1.859-1.073-1.859-1.567 0-.362.376-.788 1.104-1.2l-.003.03c0 1.985 4.497 2.889 8.676 2.889 4.178 0 8.676-.904 8.676-2.889 0-.013-.003-.025-.003-.038.73.411 1.104.84 1.104 1.209 0 .482-.667 1.056-1.783 1.536a.629.629 0 0 0-.264.212.606.606 0 0 0 .197.882c3.324 1.919 5.231 4.843 5.231 8.022 0 5.534-5.872 10.037-13.088 10.037-7.216 0-13.088-4.503-13.088-10.037zM27.624 30.95a.48.48 0 0 1-.49-.174.451.451 0 0 1-.077-.162l-.577-2.316c.281-.19.556-.385.817-.59l.672 2.689a.447.447 0 0 1-.179.477.474.474 0 0 1-.165.076h-.001z" fill="#000"/><path d="M8.863 14.144a7.173 7.173 0 0 0-1.892 2.492 7.366 7.366 0 0 0-.67 3.084c0 .154.058.302.164.41a.556.556 0 0 0 .798 0 .588.588 0 0 0 .165-.41 6.184 6.184 0 0 1 .563-2.59 6.022 6.022 0 0 1 1.589-2.09.575.575 0 0 0 .216-.395.595.595 0 0 0-.125-.434.567.567 0 0 0-.39-.21.55.55 0 0 0-.418.144v-.001z" fill="#000"/></symbol><symbol id="credit-card" viewBox="0 0 30 30"><g clip-path="url(#a)" fill="#000"><path d="M28.855 5.549 10.48 1.66A1.449 1.449 0 0 0 8.77 2.775l-.35 2.243 21.2 4.486.35-2.243a1.449 1.449 0 0 0-1.114-1.712zM21.128 9.98a1.463 1.463 0 0 0-1.795-1.015l-3.488.968-8.222-1.74-.905 4.273-5.65 1.568a1.462 1.462 0 0 0-1.015 1.794l3.184 11.475a1.463 1.463 0 0 0 1.795 1.015l18.265-5.069a1.463 1.463 0 0 0 1.015-1.795l-.546-1.97 2.048.434a1.448 1.448 0 0 0 1.712-1.114l1.297-6.125-7.38-1.561-.315-1.138zm2.11 5.832.451-2.135a.596.596 0 0 1 .705-.458l2.135.452c.32.068.526.384.458.704l-.452 2.135a.596.596 0 0 1-.704.458l-2.135-.451a.596.596 0 0 1-.459-.705zm-21.852-.633 5.054-1.402 11.927-3.31 1.283-.357a.276.276 0 0 1 .332.188l.15.543.473 1.7L1.82 17.755l-.623-2.243a.273.273 0 0 1 .188-.332zm21.78 6.593a.265.265 0 0 1-.026.204.263.263 0 0 1-.16.128L4.713 27.173a.276.276 0 0 1-.332-.188l-1.857-6.693L21.31 15.08l1.146 4.128.712 2.565z"/><path d="M7.666 22.23a.596.596 0 0 0-.732-.414l-2.133.592a.596.596 0 0 0-.414.732l.592 2.133a.596.596 0 0 0 .732.413l2.133-.592a.596.596 0 0 0 .414-.732l-.592-2.132z"/></g></symbol><symbol id="discount"><g clip-path="url(#a)"><path d="m76.323 40.003 3.51-9.155a2.503 2.503 0 0 0-.76-2.84l-7.61-6.169-1.54-9.684a2.499 2.499 0 0 0-2.08-2.075L58.16 8.54 51.994.925a2.504 2.504 0 0 0-2.834-.76L40 3.68 30.846.17a2.494 2.494 0 0 0-2.835.76l-6.17 7.615-9.684 1.54a2.505 2.505 0 0 0-2.075 2.075l-1.54 9.684-7.614 6.17a2.501 2.501 0 0 0-.76 2.834l3.51 9.155-3.51 9.154a2.494 2.494 0 0 0 .76 2.835l7.614 6.165 1.54 9.684a2.5 2.5 0 0 0 2.075 2.08l9.684 1.54 6.17 7.61c.685.85 1.83 1.15 2.84.76L40 76.324l9.154 3.51a2.492 2.492 0 0 0 2.84-.765l6.164-7.61 9.684-1.54a2.505 2.505 0 0 0 2.08-2.08l1.54-9.683 7.61-6.165a2.496 2.496 0 0 0 .76-2.835l-3.51-9.154z" fill="#F44336"/><path d="M32.501 35.004c-4.134 0-7.5-3.365-7.5-7.5s3.366-7.5 7.5-7.5c4.135 0 7.5 3.365 7.5 7.5s-3.365 7.5-7.5 7.5zm0-10a2.5 2.5 0 1 0 .002 5.002 2.5 2.5 0 0 0-.002-5.002zM47.5 60.001c-4.135 0-7.5-3.364-7.5-7.5 0-4.134 3.365-7.499 7.5-7.499s7.5 3.365 7.5 7.5-3.365 7.5-7.5 7.5zm0-9.999a2.507 2.507 0 0 0-2.5 2.5c0 1.375 1.125 2.5 2.5 2.5s2.5-1.125 2.5-2.5-1.125-2.5-2.5-2.5zM27.502 60.001a2.5 2.5 0 0 1-2.03-3.955L50.471 21.05a2.5 2.5 0 0 1 3.49-.58c1.125.8 1.38 2.365.58 3.485L29.542 58.952a2.51 2.51 0 0 1-2.04 1.05z" fill="#FAFAFA"/></g></symbol><symbol id="email" viewBox="0 0 18 18"><path d="M11.932 9.092 18 12.928V5.094l-6.068 3.998zM0 5.094v7.834l6.068-3.836L0 5.094zM16.875 2.813H1.125c-.561 0-1.007.418-1.091.957L9 9.677l8.966-5.907c-.084-.539-.53-.958-1.091-.958zM10.901 9.773 9.31 10.82a.562.562 0 0 1-.618 0l-1.592-1.05L.036 14.24c.087.534.53.95 1.089.95h15.75c.559 0 1.002-.416 1.089-.95L10.9 9.773z" fill="#F90"/></symbol><symbol id="facebook" viewBox="0 0 10 18"><path d="M7.998 2.989H9.64V.127A21.22 21.22 0 0 0 7.247 0c-2.37 0-3.992 1.49-3.992 4.23v2.52H.64v3.2h2.615V18H6.46V9.95h2.51l.397-3.2H6.46V4.547c0-.924.25-1.557 1.538-1.557z" fill="#F90"/></symbol><symbol id="factory" viewBox="0 0 30 30"><path d="M9.082 0H.879A.879.879 0 0 0 0 .879v2.05h9.96V.88A.879.879 0 0 0 9.083 0zM29.558 8.378a.879.879 0 0 0-.88.004l-8.698 5.086V9.14a.879.879 0 0 0-1.322-.76L9.96 13.469v-8.78H0V29.12c0 .486.394.879.879.879H29.12a.879.879 0 0 0 .879-.879V9.141a.879.879 0 0 0-.442-.763zm-16.081 15.44a.879.879 0 0 1-.88.88H9.083a.879.879 0 0 1-.879-.88v-3.515c0-.486.394-.88.879-.88h3.516c.485 0 .879.394.879.88v3.515zm10.02 0a.879.879 0 0 1-.88.88h-3.515a.879.879 0 0 1-.88-.88v-3.515c0-.486.394-.88.88-.88h3.515c.486 0 .88.394.88.88v3.515z" fill="#000"/></symbol><symbol id="family" viewBox="0 0 30 30"><g clip-path="url(#a)" fill="#000"><path d="M7.315 8.81V7.97a.44.44 0 0 0-.88 0v.839a.44.44 0 0 0 .88 0zM11.321 9.25a.44.44 0 0 0 .44-.44V7.97a.44.44 0 0 0-.88 0v.839c0 .243.197.44.44.44zM23.61 7.49h-.35a.44.44 0 0 0-.439.44v.812a.44.44 0 0 0 .88 0V8.36a.44.44 0 0 0-.091-.87zM18.954 9.181a.44.44 0 0 0 .44-.439V7.93a.44.44 0 0 0-.44-.44h-.349a.44.44 0 0 0-.09.87v.382c0 .243.197.44.44.44zM6.375 23.148c.746 0 1.352-.606 1.352-1.351a.44.44 0 0 0-.879 0 .473.473 0 0 1-.945 0 .44.44 0 0 0-.88 0c0 .745.607 1.351 1.352 1.351zM4.279 19.223a.44.44 0 0 0-.44.44v.791a.44.44 0 0 0 .88 0v-.791a.44.44 0 0 0-.44-.44zM8.472 20.893a.44.44 0 0 0 .44-.439v-.791a.44.44 0 0 0-.879 0v.791c0 .243.197.44.44.44zM24.336 21.343a.44.44 0 0 0-.44.439.511.511 0 0 1-1.021 0 .44.44 0 0 0-.88 0c0 .766.624 1.39 1.39 1.39.767 0 1.39-.624 1.39-1.39a.44.44 0 0 0-.44-.44zM25.924 19.12h-.355a.44.44 0 0 0-.44.44v.823a.44.44 0 0 0 .88 0v-.392a.44.44 0 0 0-.085-.871zM21.201 19.12h-.354a.44.44 0 0 0-.085.87v.393a.44.44 0 0 0 .879 0v-.824a.44.44 0 0 0-.44-.44zM14.999 26.02c.711 0 1.29-.58 1.29-1.29a.44.44 0 0 0-.88 0 .411.411 0 0 1-.821 0 .44.44 0 0 0-.88 0c0 .71.58 1.29 1.29 1.29zM13.044 23.917a.44.44 0 0 0 .44-.44v-.737a.44.44 0 0 0-.88 0v.738c0 .242.197.44.44.44zM16.954 23.917a.44.44 0 0 0 .44-.44v-.737a.44.44 0 1 0-.88 0v.738c0 .242.197.44.44.44z"/><path d="M29.435 20.809c.24-.325.383-.728.383-1.162 0-.695-.358-1.305-.903-1.653V16.3a4.151 4.151 0 0 0-2.614-3.851c.167-.211.31-.444.423-.692a3.476 3.476 0 0 0 .271-1.949l-.07-.461a1.939 1.939 0 0 0-.46-3.02l-.205-1.371v-.001l-.076-.503c-.146-.97-.745-1.813-1.58-2.24a3.06 3.06 0 0 0-1.121-1.16.44.44 0 1 0-.45.755c.37.22.665.542.852.93a.44.44 0 0 0 .22.211c.636.279 1.1.905 1.21 1.635l.052.349c-.258-.473-.523-.769-.57-.827l-.01-.012a.44.44 0 0 0-.76.178c-.075.3-.206.575-.377.814l-.003.004c-.44.609-1.156.992-1.944.992h-5.354V4.715A3.218 3.218 0 0 1 19.562 1.5h1.711a.44.44 0 0 0 0-.879h-1.71a4.098 4.098 0 0 0-4.093 4.093v1.8c-.105.084-.2.18-.284.285A2.008 2.008 0 0 0 15 6.604a.438.438 0 0 0 .008-.089v-3.32A3.198 3.198 0 0 0 11.816 0H8.286a3.483 3.483 0 0 0-3.433 2.926 1.673 1.673 0 0 0-1.666 1.67v2.016a1.98 1.98 0 0 0-.629 1.448c0 .993.733 1.818 1.686 1.963.174.722.507 1.39.97 1.963H4.94a2.6 2.6 0 0 0-2.32 1.451 2.232 2.232 0 0 0-1.465 2.283l.2 2.272a1.9 1.9 0 0 0-1.173 1.754c0 .944.691 1.729 1.594 1.874a4.71 4.71 0 0 0 2.387 3.06v.102c0 .122.01.242.03.359h-.851a2.13 2.13 0 0 0-2.127 2.127v2.288c0 .243.197.44.44.44h1.1a.44.44 0 0 0 0-.879h-.661v-1.85c0-.688.56-1.247 1.248-1.247H4.54c.32.48.81.81 1.368.93.874.19 1.8-.159 2.316-.93H9.41c.688 0 1.248.56 1.248 1.248v.32a1.554 1.554 0 0 0-.76.944v.003c-.067.235-.059.405-.059.582H4.806a.44.44 0 1 0 0 .879h5.415a.446.446 0 0 0 .057.004h9.442c.02 0 .038-.002.057-.004h8.33a.44.44 0 0 0 .439-.44v-2.288c0-.4-.111-.775-.305-1.096a3.01 3.01 0 0 0 .64-.569c.617-.729.904-1.722.79-2.725l-.236-2.069zm-1.626-.084a.44.44 0 0 0-.445.367 4.03 4.03 0 0 1-2.3 2.998h-.001c-.613.281-1.258.392-1.882.36-.02 0-.04-.002-.059-.003a4.007 4.007 0 0 1-2.427-1.021 1.805 1.805 0 0 0-.57-2.02c0-1.824.12-2.706-.541-3.884.03-.085.063-.167.087-.226h.5a3.314 3.314 0 0 0 2.614 1.272h5.127c.577.028 1.027.5 1.027 1.079 0 .601-.481 1.092-1.13 1.078zm-4.417 5.564a1.418 1.418 0 0 1-1.39-1.151c.453.131.925.197 1.383.197.446 0 .934-.064 1.398-.202a1.417 1.417 0 0 1-1.39 1.156zm-4.244-.775a2.009 2.009 0 0 1-.14-.086c.128-.266.23-.547.303-.842a1.8 1.8 0 0 0 .887-.426c.28.24.581.443.9.612 0 .114 0 .224.016.369h-.762c-.438 0-.86.136-1.204.373zM15.223 9.272l.081.089c-.07.462-.105.646-.105.963 0 .493.107.988.31 1.432a3.24 3.24 0 0 0 1.425 1.522 3.1 3.1 0 0 0-1.342 2.073h-.403c-.324 0-.645.04-.957.115a3.125 3.125 0 0 0-2.194-2.581 4.988 4.988 0 0 0 1.914-2.862 1.987 1.987 0 0 0 1.271-.75zm1.172.657a4.838 4.838 0 0 0 1.936 2.824c-1.273-.006-2.467-1.2-2.213-2.888.089.027.196.052.277.064zm1.41 9.782c-.505 0-.958.261-1.211.7a1.38 1.38 0 0 0-.178.868c-.305-.14-.612-.411-.843-.652-.29-.303-.805-.062-.754.357a2.232 2.232 0 0 0 .065.326c-.339-.133-.666-.42-.918-.683a.44.44 0 0 0-.753.358c.012.097.03.188.05.271-.542-.274-1.12-.949-1.385-1.348a.44.44 0 0 0-.382-.197c-.244.009-.398.145-.665.864-.022.06-.048.133-.068.195 0-1.153-.06-1.61.271-2.287a2.672 2.672 0 0 1 1.704-1.403l.015-.004c.336-.088.221.01.517-.21.211-.158.45-.296.714-.402l.016-.008a3.201 3.201 0 0 1 1.189-.226h.692l.094.003h.002a3.367 3.367 0 0 1 2.78 1.615c0 .003.003.006.005.01.581.96.485 1.73.485 2.952a1.481 1.481 0 0 0-1.442-1.1zm-5.844-5.133-.001-.006a3.336 3.336 0 0 0-.346-.89 2.243 2.243 0 0 1 1.764 2.09c-.222.11-.475.268-.664.411a3.556 3.556 0 0 0-.668.207c0-1.121.022-1.346-.085-1.812zm6.705-.946h1.257c-.062.102-.12.209-.17.32-.799.413-1.398 1.155-1.715 1.989a4.26 4.26 0 0 0-1.56-.547 2.225 2.225 0 0 1 2.188-1.762zm-8.572 9.372a.921.921 0 0 1 .938-1.11.438.438 0 0 0 .45-.367c.03-.18.074-.354.13-.525.552.636 1.507 1.487 2.492 1.197a.44.44 0 0 0 .238-.172c.432.224.898.31 1.37.171a.44.44 0 0 0 .237-.172c.443.229.87.289 1.264.172a.44.44 0 0 0 .255-.644c-.108-.183-.287-.403-.113-.704.242-.42.878-.304 1.029.148.114.362.121.5.14.569.099.377.519.326.442.326.58 0 .958.415.958.92 0 .479-.368.873-.835.916-.125.011-.173-.012-.286.027a.44.44 0 0 0-.288.343c-.072.43-.222.84-.445 1.218-.006.01-.01.02-.015.031a3.548 3.548 0 0 1-1.545 1.39l-.029.01c-.47.216-.976.323-1.482.323-.495 0-.997-.102-1.472-.317l-.024-.01a3.548 3.548 0 0 1-2.02-2.646.44.44 0 0 0-.452-.366h-.037a.922.922 0 0 1-.9-.728zm3.713 4.785a4.488 4.488 0 0 0 2.396-.004 1.22 1.22 0 0 1-2.396.004zm4.649-1.484c-.148.29-.231.617-.231.963v.137h-1.086a4.428 4.428 0 0 0 1.317-1.1zm9.58-10.006v1.39h-5.251c-.825 0-1.57-.41-2.013-1.06l-.01-.018a2.418 2.418 0 0 1-.342-.763.44.44 0 0 0-.76-.18 4.972 4.972 0 0 0-.68 1.028 5.054 5.054 0 0 0-.202-.201c.246-.833.792-1.503 1.494-1.819a.44.44 0 0 0 .229-.24c.18-.455.502-.842.97-1.116h.001c.016-.01.033-.018.055-.03.546-.273.853-.258 1.247-.258h2.016a3.27 3.27 0 0 1 3.246 3.267zm-3.445-4.146a4.83 4.83 0 0 0 1.22-2.185l.01-.039c.1-.015.198-.04.293-.07.152 1.008-.202 1.821-.777 2.334-.326-.045-.58-.04-.746-.04zm.884-3.08a.44.44 0 0 0-.45.367 3.985 3.985 0 0 1-1.306 2.33l-.008.008a4.005 4.005 0 0 1-.509.375c-.66 0-.783-.007-1.039.026l-.008.001h-.002c-.514.068-.992.26-1.4.554a3.988 3.988 0 0 1-3.562-3.295.44.44 0 0 0-.433-.367c-.251 0-.445-.038-.656-.181a1.058 1.058 0 0 1 .543-1.932h5.057a3.273 3.273 0 0 0 2.858-1.67 3.956 3.956 0 0 1 .464 1.303.448.448 0 0 0 .021.08.44.44 0 0 0 .43.286 1.059 1.059 0 1 1 0 2.114zM8.286.879h3.53a2.318 2.318 0 0 1 2.314 2.315v2.882c-6.213 0-5.922.007-6.135-.017l-.03-.004A2.601 2.601 0 0 1 5.69 3.388V3.379a2.601 2.601 0 0 1 2.596-2.5zm-4.22 3.718c0-.426.337-.774.758-.792.02.206.067.459.133.677a5.096 5.096 0 0 0-.713 1.614c-.06.01-.12.021-.178.036V4.597zm.975 4.935a.44.44 0 0 0-.451-.366h-.046a1.108 1.108 0 0 1-.628-2.016c.205-.142.442-.205.673-.196a.439.439 0 0 0 .452-.366c.063-.38.186-.772.374-1.15A3.485 3.485 0 0 0 7.884 6.93c.299.034-.058.024 5.705.024h.095a1.107 1.107 0 0 1-.032 2.212l-.045-.001a.44.44 0 0 0-.451.366 4.111 4.111 0 0 1-2.462 3.109 3.35 3.35 0 0 0-1.984-.655H6.437a4.101 4.101 0 0 1-1.396-2.454zm-1.996 4.694a.44.44 0 0 0 .306-.27 1.714 1.714 0 0 1 1.59-1.091H8.71a2.46 2.46 0 0 1 2.456 2.426v1.631a3.527 3.527 0 0 0-.79.928H5.73a2.503 2.503 0 0 1-2.339-1.628.44.44 0 0 0-.76-.117c-.19.247-.365.53-.49.781l-.11-1.244a1.345 1.345 0 0 1 1.014-1.416zm-.472 6.905a.44.44 0 0 0-.452-.366H2.08a1.02 1.02 0 0 1-1.02-1.019c0-.508.375-.93.862-1.005.22-.034.324.028.494-.11a.438.438 0 0 0 .157-.27c.064-.386.19-.761.368-1.11a3.388 3.388 0 0 0 2.789 1.478h4.276c-.157.584-.122.867-.122 2.667a1.803 1.803 0 0 0-.667 1.7 3.856 3.856 0 0 1-2.841 1.25 3.844 3.844 0 0 1-3.803-3.215zm3.803 4.094c.548 0 .959-.087 1.322-.187-.037.192-.116.37-.227.524l-.001.002a1.34 1.34 0 0 1-2.173.003l-.003-.003a1.335 1.335 0 0 1-.227-.522c.406.116.852.183 1.309.183zm3.033-.084h-.837c.02-.117.03-.237.03-.36v-.11a4.724 4.724 0 0 0 1.002-.718c.268.327.649.558 1.083.633a4.422 4.422 0 0 0 2.171 2.82h-1.322v-.138A2.13 2.13 0 0 0 9.41 25.14zm1.308 3.98v-.168c0-.299.203-.566.494-.644l.003-.001a.663.663 0 0 1 .172-.023h1.648c.118.326.314.61.563.836h-2.88zm6.26-.836h1.654l.012.002a.668.668 0 0 1 .637.666v.168h-2.867c.25-.225.445-.51.563-.836zm10.69.832h-7.508v-.164a1.55 1.55 0 0 0-1.055-1.467v-.218c0-.692.566-1.248 1.248-1.248h1.053a2.3 2.3 0 0 0 2.086 1.146c.017 0 .034-.002.05-.003h.01a2.295 2.295 0 0 0 1.828-1.143h1.04c.682 0 1.248.558 1.248 1.248v1.849zm.543-4.08a2.096 2.096 0 0 1-.582.481c-.645-.448-1.175-.377-1.958-.377l.002-.016c.016-.147.014-.241.014-.362a4.909 4.909 0 0 0 2.424-2.991l.002-.007c.018-.06.034-.122.049-.183a1.94 1.94 0 0 0 .462-.132l.174 1.527c.086.753-.133 1.522-.587 2.06z"/><path d="M22.683 9.79a.438.438 0 0 0-.086.614c.057.077.157.277.109.403a.44.44 0 0 0 .82.316c.236-.612-.178-1.184-.226-1.248a.441.441 0 0 0-.617-.085zM19.517 9.791a.44.44 0 0 0-.616.085c-.048.063-.462.635-.226 1.248a.44.44 0 1 0 .82-.316c-.049-.126.052-.326.108-.403a.44.44 0 0 0-.086-.614zM21.817 9.86a.44.44 0 0 0-.44.44.297.297 0 0 1-.594 0 .44.44 0 0 0-.879 0c0 .649.528 1.176 1.176 1.176.649 0 1.177-.527 1.177-1.176a.44.44 0 0 0-.44-.44zM10.704 10.789a.44.44 0 0 0 .82.316c.236-.613-.178-1.185-.226-1.248a.441.441 0 0 0-.617-.086.438.438 0 0 0-.086.614c.056.077.157.278.109.404zM7.515 9.773a.44.44 0 0 0-.616.084c-.048.063-.463.635-.226 1.248a.44.44 0 1 0 .82-.316c-.049-.126.051-.326.108-.403a.44.44 0 0 0-.086-.613zM10.254 10.281a.44.44 0 0 0-.879 0 .297.297 0 0 1-.594 0 .44.44 0 0 0-.88 0 1.177 1.177 0 0 0 2.352 0z"/></g></symbol><symbol id="gift"><g clip-path="url(#a)"><path d="M24.348 15.21 21.5 14.175a.822.822 0 0 0-.299-.053H2.955a.87.87 0 0 0-.879.879v12.363A2.633 2.633 0 0 0 4.713 30H22.29a2.633 2.633 0 0 0 2.637-2.637V16.037a.872.872 0 0 0-.58-.826z" fill="#FC1A40"/><path d="M24.928 16.037v11.326A2.633 2.633 0 0 1 22.29 30h-8.789V14.121h7.7c.105 0 .21.018.298.053l2.848 1.037c.351.123.58.457.58.826z" fill="#C60034"/><path d="M24.611 5.73c-.298-1.213-1.195-2.162-2.408-2.55-1.195-.368-2.478-.105-3.41.74l-2.04 1.792-.403-2.69A3.561 3.561 0 0 0 14.188.264a3.336 3.336 0 0 0-.686-.193 3.496 3.496 0 0 0-2.777.615A3.568 3.568 0 0 0 9.283 4.06c.194 1.3 1.073 2.408 2.32 2.847l1.899.686 2.338.861h.018l4.06 1.494c.404.141.826.211 1.23.211.862 0 1.706-.316 2.374-.914a3.57 3.57 0 0 0 1.09-3.515z" fill="#FE9923"/><path d="M23.521 9.245a3.554 3.554 0 0 1-2.373.915 3.77 3.77 0 0 1-1.23-.212l-4.06-1.494h-.018l-2.338-.86V.07c.228.035.457.105.685.193a3.56 3.56 0 0 1 2.163 2.76l.404 2.69 2.039-1.794c.931-.844 2.215-1.107 3.41-.738 1.213.387 2.11 1.336 2.408 2.549a3.57 3.57 0 0 1-1.09 3.515z" fill="#FE8821"/><path d="m27.934 13.717-1.196 3.304a.89.89 0 0 1-1.125.51l-9.087-3.304-.827-2.725-2.197.492-1.933.44L2.48 9.129a.895.895 0 0 1-.528-1.125l1.213-3.305A2.577 2.577 0 0 1 4.52 3.205a2.602 2.602 0 0 1 2.021-.088l6.961 2.531.475.176s1.898 3.445 1.951 3.445c.035 0 .791-.421 1.53-.826.737-.404 1.476-.826 1.476-.826l7.418 2.707a2.665 2.665 0 0 1 1.494 1.371c.299.633.334 1.354.088 2.022z" fill="#FF3E75"/><path d="m27.934 13.717-1.196 3.304a.89.89 0 0 1-1.125.51l-9.088-3.304-.826-2.725-2.197.492V5.648l.475.176s1.898 3.445 1.95 3.445c.036 0 .792-.421 1.53-.826.738-.404 1.477-.826 1.477-.826l7.418 2.707a2.664 2.664 0 0 1 1.494 1.371c.299.633.334 1.354.088 2.022z" fill="#FC1A40"/><path d="M10.865 14.121V30h5.274V14.121h-5.274zM13.977 5.824l-.475 1.3-1.934 5.31 1.934.703 2.197.79.826.3 2.409-6.61-4.957-1.793z" fill="#FCBF29"/><path d="M16.139 14.121h-2.637V30h2.637V14.121zM18.934 7.617l-2.409 6.61-.826-.3-2.197-.79V7.125l.475-1.3 4.957 1.792z" fill="#FE9923"/></g></symbol><symbol id="guarantee" viewBox="0 0 30 30"><g clip-path="url(#a)" fill="#000"><path d="M20.9 23.84a1.606 1.606 0 0 1-1.293-.633 1.575 1.575 0 0 1-.31.006v5.983l1.285-.964a.535.535 0 0 1 .643 0l1.286.964v-5.983a1.592 1.592 0 0 1-.322-.006 1.607 1.607 0 0 1-1.289.632zM0 24.91c0 .888.72 1.608 1.607 1.608h16.62v-2.143H0v.536zM23.202 19.564a.535.535 0 0 1-.304-.735.557.557 0 0 0-.74-.743.536.536 0 0 1-.736-.305.555.555 0 0 0-1.046 0 .536.536 0 0 1-.736.305.557.557 0 0 0-.739.744.536.536 0 0 1-.304.734.557.557 0 0 0 0 1.05.535.535 0 0 1 .304.735.556.556 0 0 0 .74.744.536.536 0 0 1 .735.304.555.555 0 0 0 1.046 0 .537.537 0 0 1 .736-.304.557.557 0 0 0 .74-.744.535.535 0 0 1 .304-.735.558.558 0 0 0 0-1.05z"/><path d="M4.286 2.41v20.894h13.941v-.595a1.61 1.61 0 0 1-.441-1.328 1.636 1.636 0 0 1 0-2.583 1.634 1.634 0 0 1 1.821-1.826 1.632 1.632 0 0 1 2.58 0 1.634 1.634 0 0 1 1.822 1.826 1.636 1.636 0 0 1 0 2.583c.062.48-.096.961-.429 1.312v3.726c.169.063.347.096.527.099.888 0 1.607-.72 1.607-1.607V2.41c.002-.167.018-.334.05-.498.01-.05.026-.098.038-.148.027-.11.06-.217.1-.322a2.611 2.611 0 0 1 .222-.439c.027-.045.053-.09.085-.133.015-.022.026-.046.042-.067H5.893c-.888 0-1.607.72-1.607 1.607zm18.75 11.25h-9.107v-1.07h9.107v1.07zm0-2.678H10.714V9.911h12.322v1.071zm-6.429-6.964h2.143v1.071h-2.143V4.018zm-5.357 0h4.286v1.071H11.25V4.018zM9.643 6.696h10.714v1.072H9.643V6.696zM6.964 9.911h2.679v1.071H6.964V9.911zm0 2.678h5.893v1.072H6.964v-1.072zm0 2.679H17.68v1.071H6.964v-1.071zm0 2.678h9.107v1.072H6.965v-1.072zM28.393.804c-.888 0-1.607.72-1.607 1.607v.535H30v-.535c0-.888-.72-1.607-1.607-1.607z"/></g></symbol><symbol id="instagram" viewBox="0 0 18 18"><path d="M13.127 0H4.872A4.878 4.878 0 0 0 0 4.872v8.256A4.878 4.878 0 0 0 4.872 18h8.256A4.878 4.878 0 0 0 18 13.128V4.872A4.878 4.878 0 0 0 13.127 0zM9 13.922A4.927 4.927 0 0 1 4.078 9 4.927 4.927 0 0 1 9 4.078 4.927 4.927 0 0 1 13.922 9 4.927 4.927 0 0 1 9 13.922zm5.04-8.683a1.456 1.456 0 0 1-1.455-1.454c0-.802.652-1.455 1.454-1.455.802 0 1.455.653 1.455 1.455s-.653 1.454-1.455 1.454z" fill="#F90"/><path d="M9 5.133a3.87 3.87 0 0 0-3.866 3.866A3.871 3.871 0 0 0 9 12.866a3.87 3.87 0 0 0 3.867-3.867A3.87 3.87 0 0 0 9 5.133zM14.04 3.385a.4.4 0 1 0 0 .799.4.4 0 0 0 0-.8z" fill="#F90"/></symbol><symbol id="installment" viewBox="0 0 35 35"><g clip-path="url(#a)" fill="#000"><path d="M32.673 17.953a1.026 1.026 0 0 1 0-.906l1.305-2.67a3.038 3.038 0 0 0-1.311-4.036l-2.626-1.393a1.026 1.026 0 0 1-.533-.733l-.513-2.928a3.039 3.039 0 0 0-3.432-2.494l-2.943.417a1.026 1.026 0 0 1-.863-.28L19.621.863a3.038 3.038 0 0 0-4.242 0L13.242 2.93c-.23.223-.544.325-.862.28l-2.943-.416a3.038 3.038 0 0 0-3.432 2.493L5.49 8.215c-.055.316-.25.583-.532.733l-2.626 1.394a3.038 3.038 0 0 0-1.311 4.034l1.305 2.67c.141.289.141.62 0 .907l-1.305 2.67a3.038 3.038 0 0 0 1.31 4.036l2.627 1.393c.283.15.477.417.532.733l.514 2.928a3.036 3.036 0 0 0 3.432 2.493l2.943-.416c.318-.045.632.058.862.28l2.137 2.067a3.041 3.041 0 0 0 4.242 0l2.136-2.067c.23-.223.545-.324.863-.28l2.943.416a3.038 3.038 0 0 0 3.432-2.493l.514-2.928c.055-.316.25-.583.532-.733l2.626-1.393a3.038 3.038 0 0 0 1.311-4.035l-1.305-2.67zm-.952 4.922-2.626 1.393a3.031 3.031 0 0 0-1.575 2.168l-.513 2.928a1.028 1.028 0 0 1-1.162.844l-2.943-.417a3.03 3.03 0 0 0-2.548.828l-2.136 2.067c-.403.39-1.033.39-1.436 0l-2.136-2.067a3.028 3.028 0 0 0-2.549-.828l-2.943.417a1.028 1.028 0 0 1-1.16-.844l-.514-2.928a3.031 3.031 0 0 0-1.575-2.168l-2.626-1.393a1.028 1.028 0 0 1-.444-1.365l1.306-2.67a3.031 3.031 0 0 0 0-2.68l-1.306-2.67a1.028 1.028 0 0 1 .444-1.365l2.626-1.393A3.031 3.031 0 0 0 7.48 8.564l.513-2.928a1.028 1.028 0 0 1 1.161-.844l2.943.417a3.031 3.031 0 0 0 2.549-.828l2.136-2.067a1.028 1.028 0 0 1 1.436 0l2.136 2.067c.681.659 1.61.96 2.548.828l2.943-.417a1.028 1.028 0 0 1 1.162.844l.513 2.928a3.031 3.031 0 0 0 1.575 2.168l2.626 1.393c.494.262.69.862.443 1.365l-1.305 2.67a3.031 3.031 0 0 0 0 2.68l1.305 2.67a1.028 1.028 0 0 1-.443 1.365z"/><path d="M24.875 10.125a1.01 1.01 0 0 0-1.428 0L10.125 23.448a1.01 1.01 0 1 0 1.427 1.427l13.323-13.322a1.01 1.01 0 0 0 0-1.428zM13.463 8.416c-2.041 0-3.701 1.66-3.701 3.701 0 2.04 1.66 3.7 3.7 3.7 2.041 0 3.701-1.66 3.701-3.7s-1.66-3.7-3.7-3.7zm0 5.383a1.684 1.684 0 0 1-1.683-1.682c0-.928.755-1.682 1.683-1.682.927 0 1.682.754 1.682 1.682 0 .927-.755 1.682-1.682 1.682zM21.537 19.182c-2.04 0-3.7 1.66-3.7 3.701 0 2.04 1.66 3.701 3.7 3.701 2.041 0 3.701-1.66 3.701-3.7 0-2.042-1.66-3.702-3.7-3.702zm0 5.383a1.684 1.684 0 0 1-1.682-1.682c0-.927.755-1.682 1.682-1.682.928 0 1.683.755 1.683 1.682 0 .928-.755 1.682-1.683 1.682z"/></g></symbol><symbol id="payment" viewBox="0 0 35 35"><g clip-path="url(#a)" fill="#000"><path d="M11.795 26.79a.715.715 0 0 0-.101-.246.665.665 0 0 0-.307-.251.676.676 0 0 0-.744.148.654.654 0 0 0-.149.22.662.662 0 0 0-.052.262.672.672 0 0 0 .053.262.631.631 0 0 0 .147.222.649.649 0 0 0 .222.148.66.66 0 0 0 .261.052.673.673 0 0 0 .38-.115.653.653 0 0 0 .251-.307.69.69 0 0 0 .04-.395z"/><path d="M31.445 27a.717.717 0 0 0-.008-.02c-.63-1.472-2.105-2.016-3.852-1.42l-4.762 1.318c-.275-.834-.962-1.544-1.933-1.904a.554.554 0 0 0-.018-.007l-5.235-1.776c-.436-.564-1.801-2.005-4.357-2.005-1.785 0-3.365 1.225-4.27 2.56H.685A.684.684 0 0 0 0 24.43v8.619c0 .377.306.683.684.683h4.064a.684.684 0 0 0 .684-.683v-.59h1.906a.684.684 0 0 0 .683-.684v-.197c1.111.097 1.477.308 2.497.896.785.453 1.971 1.137 4.107 2.097l.03.013c.41.161 1.212.414 2.2.414.687 0 1.465-.122 2.264-.484l10.527-3.77a.68.68 0 0 0 .055-.022c1.006-.463 2.505-1.768 1.744-3.721zm-27.38 5.365H1.366v-7.251h2.697v7.251zm2.59-1.274H5.431v-5.977h1.222v5.977zm22.5-1.623-10.522 3.767a.816.816 0 0 0-.058.024c-1.466.674-2.859.27-3.405.058-2.063-.928-3.164-1.563-3.969-2.027-1.118-.645-1.657-.956-3.18-1.082v-5.506c.648-1.062 1.905-2.149 3.26-2.149 2.323 0 3.307 1.511 3.346 1.572a.684.684 0 0 0 .363.29l5.432 1.844c.868.325 1.327 1.068 1.116 1.81a1.323 1.323 0 0 1-.633.798 1.324 1.324 0 0 1-1.004.12l-6.124-1.94a.683.683 0 1 0-.413 1.303l6.135 1.944a2.713 2.713 0 0 0 .762.11c.454 0 .902-.115 1.31-.342a2.68 2.68 0 0 0 1.324-1.786l5.132-1.422c.742-.253 1.715-.344 2.148.654.448 1.171-.717 1.816-1.02 1.96zM24.545 8.992a.67.67 0 0 0-.102-.246.651.651 0 0 0-.19-.189.694.694 0 0 0-.512-.101.642.642 0 0 0-.246.101.656.656 0 0 0-.251.307.661.661 0 0 0-.053.261.672.672 0 0 0 .115.38.662.662 0 0 0 .307.251.69.69 0 0 0 .523 0 .694.694 0 0 0 .307-.251.65.65 0 0 0 .103-.513z"/><path d="M34.317 2.317h-4.065A.684.684 0 0 0 29.57 3v.59h-1.906a.684.684 0 0 0-.684.684v.197c-1.111-.097-1.477-.308-2.497-.896-.785-.453-1.971-1.137-4.107-2.097a.579.579 0 0 0-.03-.013c-.695-.273-2.518-.811-4.464.07l-2.75.986L10.81.2a.684.684 0 0 0-.966 0L2.233 7.815a.678.678 0 0 0 0 .967L15.24 21.789c.208.208.695.271.966 0l6.95-6.95c.18.016.368.024.563.024 1.786 0 3.365-1.225 4.27-2.56h6.327a.684.684 0 0 0 .683-.684V3a.684.684 0 0 0-.683-.683zm-23.989-.665 1.558 1.558c-.463.287-.998.44-1.558.44a2.95 2.95 0 0 1-1.558-.44l1.558-1.558zM5.241 9.856 3.683 8.298 5.24 6.74c.286.463.44.998.44 1.558a2.95 2.95 0 0 1-.44 1.558zm10.483 10.483-1.558-1.558a2.976 2.976 0 0 1 3.116 0l-1.558 1.558zm2.543-2.543a4.344 4.344 0 0 0-5.086 0l-6.955-6.955a4.304 4.304 0 0 0 .822-2.543c0-.927-.288-1.81-.822-2.543l1.56-1.56a4.303 4.303 0 0 0 2.542.822c.927 0 1.809-.288 2.543-.822l1.479 1.479c-.32.047-.63.152-.92.313a2.68 2.68 0 0 0-1.114 1.177 3.895 3.895 0 0 0-2.045 6.587c.76.76 1.757 1.14 2.755 1.14s1.996-.38 2.755-1.14a3.88 3.88 0 0 0 1.014-1.764l2.308.784a4.365 4.365 0 0 0 .725 3.464l-1.561 1.561zm-4.157-6.72a.963.963 0 0 0 .019.006l1.366.464a2.533 2.533 0 0 1-4.258 1.238 2.532 2.532 0 0 1 .825-4.127c.126 1.05.882 1.986 2.048 2.419zm6.703 4.174a2.99 2.99 0 0 1-.437-1.422c.327.237.727.47 1.205.653l-.768.769zm6.166-3.903c-.648 1.062-1.905 2.149-3.26 2.149a4.965 4.965 0 0 1-.715-.05c-1.477-.215-2.27-1.054-2.532-1.386l-.083-.112a.68.68 0 0 0-.376-.313L14.578 9.79c-.868-.325-1.326-1.068-1.116-1.809v-.003c.098-.34.323-.624.633-.796a1.323 1.323 0 0 1 1.004-.12l6.124 1.94a.683.683 0 1 0 .413-1.303l-4.87-1.544-.043-.042-.002-.001L14.2 3.59l2.167-.776a.732.732 0 0 0 .024-.01l.007-.002a.66.66 0 0 0 .027-.012c1.466-.674 2.859-.27 3.405-.058 2.063.928 3.164 1.563 3.969 2.027 1.119.645 1.657.956 3.18 1.082v5.506zm2.59-.412h-1.223V4.958h1.223v5.977zm4.064 0h-2.697v-7.25h2.697v7.25z"/></g></symbol><symbol id="percentage" viewBox="0 0 30 30"><g clip-path="url(#a)"><path d="M28.005 15.389a.88.88 0 0 1 0-.778l1.119-2.289A2.604 2.604 0 0 0 28 8.864L25.75 7.67a.88.88 0 0 1-.457-.629l-.44-2.51a2.604 2.604 0 0 0-2.942-2.137l-2.523.357a.88.88 0 0 1-.739-.24L16.82.74a2.604 2.604 0 0 0-3.637 0L11.35 2.51a.88.88 0 0 1-.74.24L8.09 2.395a2.604 2.604 0 0 0-2.942 2.137l-.44 2.51a.88.88 0 0 1-.457.628L2 8.864a2.604 2.604 0 0 0-1.124 3.459l1.119 2.288a.88.88 0 0 1 0 .778l-1.12 2.289A2.604 2.604 0 0 0 2 21.136l2.25 1.194a.88.88 0 0 1 .457.629l.44 2.51a2.603 2.603 0 0 0 2.942 2.137l2.523-.357a.879.879 0 0 1 .739.24l1.83 1.771a2.607 2.607 0 0 0 3.637 0l1.831-1.771a.88.88 0 0 1 .74-.24l2.522.357a2.604 2.604 0 0 0 2.942-2.138l.44-2.51a.88.88 0 0 1 .457-.628L28 21.136a2.604 2.604 0 0 0 1.124-3.459l-1.119-2.288zM11.54 7.213a3.176 3.176 0 0 1 3.173 3.172 3.176 3.176 0 0 1-3.173 3.172 3.176 3.176 0 0 1-3.172-3.172 3.176 3.176 0 0 1 3.172-3.172zM9.902 21.32a.863.863 0 0 1-1.223 0 .865.865 0 0 1 0-1.223l11.419-11.42a.865.865 0 1 1 1.223 1.224L9.902 21.322zm8.559 1.465a3.176 3.176 0 0 1-3.173-3.172 3.176 3.176 0 0 1 3.172-3.172 3.176 3.176 0 0 1 3.173 3.172 3.176 3.176 0 0 1-3.172 3.172z"/><path d="M18.46 18.172c-.795 0-1.441.647-1.441 1.442 0 .795.646 1.442 1.442 1.442.795 0 1.441-.647 1.441-1.442 0-.795-.646-1.442-1.442-1.442zM11.54 8.944c-.795 0-1.442.647-1.442 1.442 0 .795.646 1.442 1.441 1.442.796 0 1.442-.647 1.442-1.442 0-.795-.646-1.442-1.441-1.442z"/></g></symbol><symbol id="person" viewBox="0 0 18 18"><path d="M9.001 0a4.686 4.686 0 0 0-4.673 4.673A4.686 4.686 0 0 0 9 9.347a4.686 4.686 0 0 0 4.674-4.674A4.686 4.686 0 0 0 9 0zM17.022 13.082a4.353 4.353 0 0 0-.47-.858c-.938-1.387-2.387-2.306-4.02-2.53a.86.86 0 0 0-.592.143 4.916 4.916 0 0 1-2.939.959 4.916 4.916 0 0 1-2.938-.96.766.766 0 0 0-.592-.142 5.767 5.767 0 0 0-4.02 2.53 5.023 5.023 0 0 0-.47.857c-.061.123-.04.266.02.388.164.286.368.572.551.817.286.387.592.734.94 1.06.285.287.611.552.938.817A9.246 9.246 0 0 0 8.98 18c2 0 3.94-.633 5.552-1.837.326-.245.653-.53.939-.816.326-.327.653-.674.939-1.061.204-.266.387-.531.55-.817.102-.122.123-.265.062-.387z" fill="#000"/></symbol><symbol id="phone" viewBox="0 0 26 26"><path d="M14.25 3A8.75 8.75 0 0 1 23 11.75a1.25 1.25 0 0 0 2.5 0A11.25 11.25 0 0 0 14.25.5a1.25 1.25 0 1 0 0 2.5zm10.938 14.887a1.25 1.25 0 0 0-.9-.812l-7.5-1.712a1.25 1.25 0 0 0-1.15.325c-.175.162-.188.175-1 1.725A12.387 12.387 0 0 1 8.55 11.3c1.587-.8 1.6-.8 1.762-.988a1.25 1.25 0 0 0 .325-1.15L8.925 1.75a1.25 1.25 0 0 0-.813-.9 4.738 4.738 0 0 0-.9-.225A4.925 4.925 0 0 0 6.25.5 5.75 5.75 0 0 0 .5 6.25 19.275 19.275 0 0 0 19.75 25.5a5.75 5.75 0 0 0 5.75-5.75c0-.318-.025-.636-.075-.95a5.421 5.421 0 0 0-.238-.913z" fill="#F90"/></symbol><symbol id="pin" viewBox="0 0 21 30"><path d="M10.746.923C5.356.923.969 5.308.969 10.699c0 6.775 9.786 18.349 9.786 18.349s9.767-11.907 9.767-18.349c0-5.39-4.386-9.776-9.776-9.776zm2.95 12.638a4.159 4.159 0 0 1-2.95 1.22 4.158 4.158 0 0 1-2.95-1.22 4.176 4.176 0 0 1 0-5.899 4.143 4.143 0 0 1 2.95-1.222c1.114 0 2.161.435 2.95 1.222a4.176 4.176 0 0 1 0 5.9z" fill="#F90"/></symbol><symbol id="review" viewBox="0 0 35 35"><path d="M31.24 5.469h-1.025V3.076A3.08 3.08 0 0 0 27.139 0a3.08 3.08 0 0 0-3.076 3.076v.84a2.403 2.403 0 0 1-1.736 2.3l-.999.286v-.008c0-.566-.459-1.025-1.025-1.025H16.2c-.566 0-1.025.459-1.025 1.025v4.58h-12.1A3.08 3.08 0 0 0 0 14.15v19.825a1.026 1.026 0 0 0 1.594.853l3.843-2.562h19.514a3.08 3.08 0 0 0 3.076-3.076V18.456h3.213a3.764 3.764 0 0 0 3.76-3.76V9.23a3.764 3.764 0 0 0-3.76-3.76zm-14.013 2.05h2.05v8.887h-2.05V7.52zm8.75 21.67c0 .566-.46 1.026-1.026 1.026H5.127c-.202 0-.4.06-.569.172L2.051 32.06V14.15c0-.565.46-1.025 1.025-1.025h12.1v4.307c0 .566.459 1.025 1.025 1.025h4.102c.526 0 .96-.397 1.018-.909a5.775 5.775 0 0 0 3.105.909h1.55v10.732zm6.972-14.492a1.71 1.71 0 0 1-1.709 1.71h-6.814a3.732 3.732 0 0 1-3.098-1.658V8.635l1.563-.447a4.462 4.462 0 0 0 3.222-4.272v-.84a1.027 1.027 0 0 1 2.051 0v3.418c0 .566.46 1.026 1.025 1.026h2.051a1.71 1.71 0 0 1 1.71 1.709v5.468z" fill="#000"/><path d="M5.127 19.277h6.836a1.025 1.025 0 1 0 0-2.05H5.127a1.025 1.025 0 0 0 0 2.05zM22.9 21.328H5.127a1.025 1.025 0 0 0 0 2.05H22.9a1.025 1.025 0 0 0 0-2.05zM22.9 25.43H5.127a1.025 1.025 0 0 0 0 2.05H22.9a1.025 1.025 0 0 0 0-2.05z" fill="#000"/></symbol><symbol id="telegram" viewBox="0 0 18 18"><g clip-path="url(#a)"><path d="m7.063 11.386-.298 4.188c.426 0 .61-.183.832-.403l1.997-1.908 4.139 3.03c.759.423 1.293.2 1.498-.698l2.717-12.729c.241-1.123-.405-1.561-1.145-1.286L.836 7.693C-.254 8.116-.238 8.723.65 9l4.083 1.27 9.482-5.934c.446-.295.852-.132.518.164l-7.67 6.887z" fill="#F90"/></g></symbol><symbol id="truck" viewBox="0 0 30 18"><path fill-rule="evenodd" clip-rule="evenodd" d="M21.387.27c2.6.604 3.596 2.125 4.843 4.218h-4.843V.27zm-15.2 4.394c.508 0 .878.246.878.82a.879.879 0 0 1-.876.88H.879a.879.879 0 0 0 0 1.757h7.91a.879.879 0 1 1 .004 1.758H.879a.879.879 0 1 0 0 1.758h1.933v2.636c0 .486.394.88.88.88h1.766a3.37 3.37 0 0 0 6.603 0h8.924a3.37 3.37 0 0 0 6.604 0h1.532a.879.879 0 0 0 .879-.88V9c0-2.579-2.72-2.75-2.723-2.754h-6.77a.879.879 0 0 1-.878-.879V.094H3.69a.879.879 0 0 0-.878.879v1.933H1.758a.879.879 0 1 0 0 1.758h4.428zm19.24 8.675c.629.63.629 1.65 0 2.28-1.013 1.011-2.751.291-2.751-1.14 0-1.432 1.738-2.152 2.75-1.14zm-15.528 0c.63.63.63 1.65 0 2.28-1.012 1.011-2.75.291-2.75-1.14 0-1.432 1.738-2.152 2.75-1.14z"/></symbol></svg>