<?xml version="1.0" encoding="UTF-8"?><!DOCTYPE svg PUBLIC "-//W3C//DTD SVG 1.1//EN" "http://www.w3.org/Graphics/SVG/1.1/DTD/svg11.dtd"><svg xmlns="http://www.w3.org/2000/svg" xmlns:xlink="http://www.w3.org/1999/xlink"><symbol id="footer--logo" viewBox="0 0 146.3 40.38"><path d="M71.87 18.66a1.29 1.29 0 011.26-1.29h7.18c5.09 0 8.44 2.71 8.44 7.15v.06c0 4.86-4.06 7.38-8.86 7.38h-5.47v6.82a1.28 1.28 0 11-2.55 0V18.66zm8.12 11c3.73 0 6.18-2 6.18-5v-.06c0-3.22-2.41-4.89-6-4.89h-5.7v9.91zM93.6 18.5a1.28 1.28 0 112.55 0v20.28a1.28 1.28 0 11-2.55 0zM102.74 18.53a1.28 1.28 0 011.26-1.25h.35a1.55 1.55 0 011.29.74l13.69 17.45v-17a1.24 1.24 0 112.48 0v20.35a1.14 1.14 0 01-1.16 1.18h-.13a1.71 1.71 0 01-1.32-.78l-14-17.86v17.46a1.26 1.26 0 01-1.2 1.25 1.24 1.24 0 01-1.22-1.25V18.53zM128.17 18.5a1.28 1.28 0 112.55 0v12.33l12.84-13.17a1.48 1.48 0 011-.45 1.28 1.28 0 011.23 1.26 1.29 1.29 0 01-.42.9l-8 7.92L146 37.85a1.44 1.44 0 01.35.94 1.31 1.31 0 01-1.35 1.28 1.24 1.24 0 01-1-.58L135.58 29l-4.86 4.86v4.9a1.27 1.27 0 11-2.54 0V18.5zM60.46 28L55.29 6.65C54.93 4.3 52.69 0 46.69 0a1.5 1.5 0 000 3c4.85 0 5.57 3.73 5.64 4.14l4.76 19.7H55a12 12 0 00-23.85 0h-1.8a12 12 0 00-23.86 0H3.42l4.77-19.7C8.25 6.73 9 3 13.83 3a1.5 1.5 0 000-3c-6 0-8.24 4.3-8.6 6.65L.05 28a1.42 1.42 0 001.43 1.82h4a12 12 0 0023.85 0h1.81a12 12 0 0023.86 0h4A1.41 1.41 0 0060.46 28zm-34.15 1.84a9 9 0 01-17.92-1.5 9.29 9.29 0 01.13-1.5 9 9 0 0117.79 0 8.29 8.29 0 01.14 1.5 8.12 8.12 0 01-.14 1.5zm25.68 0a9 9 0 01-17.93-1.5 9.3 9.3 0 01.14-1.5 9 9 0 0117.79 0 9.3 9.3 0 01.14 1.5 9.09 9.09 0 01-.13 1.5z"/></symbol><symbol id="footer__devLogo" viewBox="0 0 154.39 195.32"><path stroke="#231F20" stroke-miterlimit="10" d="M78 .58L77.19.5.5 8.54v140.57l76.7 45.63 76.69-45.63V8.54L78 .58h0zm65.86 142.82L77.2 183.07l-66.66-39.66V85.79l66.37 39.51.11 7.16-45.53-27.1-.07 6.95 45.71 27.47.11 7.35-45.7-27.19-.07 6.95 45.73 27.48 46.15-27.62v-6.98l-.06.03V97.09l20.57-12.28v58.59h0zm-.05-66.06l-18.24 10.74-8.42 4.96L77 69.16l-.07 6.95 34.32 20.41-.3.18-.74.44-4.88 2.87L77 83.16l-.07 6.95 22.36 13.3-5.28 3.53-.13.08-16.89-9.95-.07 6.95L88 110.55l-11.29 6.78-66.04-39.26 66.14-39.75v.01l67 39.01h0zm.05-6.99L76.84 30.84v-.01h-.02v.01L10.54 70.3V17.57l66.66-6.99 66.66 6.99v52.78h0z"/></symbol><symbol id="hero__os--android" viewBox="0 0 42.08 47.04"><path fill="#a4c639" d="M34.14 14.01H7.94c-.01.11-.02.22-.02.33V33.1c0 1.93 1.46 3.49 3.32 3.63v7.43a2.88 2.88 0 002.88 2.88 2.89 2.89 0 002.89-2.88v-7.42h8.06v7.42a2.88 2.88 0 002.88 2.88 2.89 2.89 0 002.89-2.88v-7.43c1.86-.14 3.32-1.7 3.32-3.63V14.34c0-.11-.01-.22-.02-.33z"/><path fill="#a4c639" id="c-4-9-2-9-2-9" d="M2.89 15.68a2.89 2.89 0 012.89 2.88v12.38c0 1.59-1.29 2.89-2.89 2.89S0 32.54 0 30.94V18.56c0-1.59 1.29-2.88 2.89-2.88z"/><path fill="#a4c639" id="c-4-1-7-3-8-4" d="M39.2 15.68a2.89 2.89 0 012.89 2.88v12.38c0 1.59-1.29 2.89-2.89 2.89-1.59 0-2.88-1.29-2.88-2.89V18.56a2.868 2.868 0 012.88-2.88z"/><path fill="#a4c639" d="M8.03 11.97h26.03c-.04-2.78-1.23-5.32-3.19-7.27L33.32.47c.08-.15.03-.33-.11-.41a.318.318 0 00-.42.11l-2.37 4.11c-2.05-1.85-6.25-3.4-9.37-3.4-3.02 0-7.32 1.55-9.37 3.4L9.3.15a.318.318 0 00-.42-.11c-.14.09-.19.27-.11.42l2.44 4.23c-1.94 1.96-3.14 4.49-3.18 7.28zM25.32 6.8c0-.81.66-1.46 1.49-1.46s1.49.65 1.5 1.45v.01c0 .8-.66 1.46-1.49 1.46-.82.01-1.49-.64-1.5-1.46 0 .01 0 .01 0 0zm-11.14 0c0-.81.66-1.46 1.49-1.46.82 0 1.49.65 1.5 1.45v.01c0 .8-.66 1.46-1.49 1.46-.83.01-1.5-.64-1.5-1.46 0 .01 0 .01 0 0z"/></symbol><symbol id="hero__os--apple" viewBox="0 0 46.21 56.75"><path d="M38.59 30.15c.08 8.59 7.54 11.45 7.62 11.48-.06.2-1.19 4.07-3.93 8.07-2.37 3.46-4.82 6.9-8.69 6.97-3.8.07-5.02-2.25-9.37-2.25-4.34 0-5.7 2.18-9.3 2.32-3.73.14-6.58-3.74-8.96-7.18-4.88-7.05-8.6-19.91-3.6-28.59 2.48-4.31 6.92-7.04 11.74-7.11 3.67-.07 7.13 2.47 9.37 2.47 2.24 0 6.44-3.05 10.87-2.6 1.85.08 7.04.75 10.38 5.63-.26.16-6.19 3.61-6.13 10.79M31.45 9.06c1.98-2.4 3.32-5.74 2.95-9.06-2.86.12-6.31 1.9-8.36 4.3-1.84 2.12-3.44 5.52-3.01 8.78 3.19.25 6.44-1.62 8.42-4.02" fill="#fff"/></symbol><symbol id="hero__os--win" viewBox="0 0 43.92 41.99"><path d="M20.87 19.95H0V0h20.87v19.95z" fill="#f05423"/><path d="M43.92 19.95H23.05V0h20.87v19.95z" fill="#84c441"/><path d="M20.87 41.99H0V22.04h20.87v19.95z" fill="#2dabe2"/><path d="M43.92 41.99H23.05V22.04h20.87v19.95z" fill="#f9bc15"/></symbol><symbol id="logo--desktop" viewBox="0 0 146.3 40.37"><path d="M71.87 18.66a1.29 1.29 0 011.26-1.29h7.18c5.09 0 8.44 2.71 8.44 7.15v.06c0 4.86-4.06 7.38-8.86 7.38h-5.47v6.82a1.28 1.28 0 11-2.55 0V18.66zm8.12 11c3.73 0 6.18-2 6.18-5v-.06c0-3.22-2.41-4.89-6-4.89h-5.7v9.91zM93.6 18.5a1.28 1.28 0 112.55 0v20.28a1.28 1.28 0 11-2.55 0zM102.74 18.53a1.28 1.28 0 011.26-1.25h.35a1.55 1.55 0 011.29.74l13.69 17.45v-17a1.24 1.24 0 112.48 0v20.35a1.14 1.14 0 01-1.16 1.18h-.13a1.71 1.71 0 01-1.32-.78l-14-17.86v17.46a1.26 1.26 0 01-1.2 1.25 1.24 1.24 0 01-1.22-1.25V18.53zM128.17 18.5a1.28 1.28 0 112.55 0v12.33l12.84-13.17a1.48 1.48 0 011-.45 1.28 1.28 0 011.23 1.26 1.29 1.29 0 01-.42.9l-8 7.92L146 37.85a1.44 1.44 0 01.35.94 1.31 1.31 0 01-1.35 1.28 1.24 1.24 0 01-1-.58L135.58 29l-4.86 4.86v4.9a1.27 1.27 0 11-2.54 0V18.5z" fill="#fff"/><path d="M98.5 9.87a3.63 3.63 0 01-3.63-3.62 3.62 3.62 0 01-3.62 3.62 3.63 3.63 0 013.62 3.63 3.64 3.64 0 013.63-3.63z" fill="#d22856"/><path d="M43.09 19.31h.73a2.48 2.48 0 00-2.13-1.23 2 2 0 01-1.89-1.35 12.09 12.09 0 00-2.09.82h.19a2 2 0 012 2 2.83 2.83 0 010 .29 8.8 8.8 0 013.19-.53z" fill="#fff"/><path d="M60.46 28L55.29 6.65C54.93 4.3 52.69 0 46.69 0a1.5 1.5 0 000 3c4.85 0 5.57 3.73 5.64 4.14l4.76 19.7H55a12 12 0 00-5.3-8.52 2.5 2.5 0 00-1.53 2.3 2.06 2.06 0 010 .26 9.21 9.21 0 014 7.47 9.3 9.3 0 01-.14 1.5 9 9 0 01-17.79 0 9.3 9.3 0 01-.14-1.5 9.34 9.34 0 01.95-4 2 2 0 01-1.86-2 .71.71 0 00-.19-.49 11.84 11.84 0 00-1.79 5h-1.86a12 12 0 00-23.86 0H3.42L8.19 7.14C8.25 6.73 9 3 13.83 3a1.5 1.5 0 000-3c-6 0-8.24 4.3-8.6 6.65L.05 28a1.42 1.42 0 001.43 1.82h4a12.65 12.65 0 00.38 1.83.75.75 0 00.1-.36 2 2 0 012-2 1.85 1.85 0 01.48.07 9.1 9.1 0 01-.07-1.05 9.29 9.29 0 01.13-1.5 9 9 0 0117.8 0 9.29 9.29 0 01.13 1.5 9.06 9.06 0 01-9 9A9 9 0 0112 35.58a2 2 0 01-1.3.49.75.75 0 00-.74.75 2 2 0 01-.18.81 11.91 11.91 0 007.61 2.74 12 12 0 0011.96-10.52h1.81a12 12 0 0023.86 0h4A1.41 1.41 0 0060.46 28z" fill="#fff"/><path d="M50.69 16.12a4.49 4.49 0 01-4.5-4.49 4.5 4.5 0 01-4.5 4.49 4.51 4.51 0 014.5 4.5 4.5 4.5 0 014.5-4.5zM37.9 19.63a2.75 2.75 0 01-2.75-2.75 2.75 2.75 0 01-2.74 2.75 2.74 2.74 0 012.74 2.74 2.75 2.75 0 012.75-2.74zM10.73 34.07A2.75 2.75 0 018 31.32a2.75 2.75 0 01-2.74 2.75A2.75 2.75 0 018 36.82a2.75 2.75 0 012.73-2.75z" fill="#d22856"/></symbol><symbol id="logo--mobile" viewBox="0 0 74.43 22.86"><path d="M0 1.45A1.29 1.29 0 011.26.16h7.18c5.08 0 8.43 2.71 8.43 7.15v.06c0 4.86-4.05 7.38-8.85 7.38H2.54v6.82a1.29 1.29 0 01-1.28 1.29A1.29 1.29 0 010 21.57zm8.11 11c3.74 0 6.19-2 6.19-5v-.04c0-3.22-2.42-4.9-6.06-4.9h-5.7v9.92zM21.73 1.29a1.27 1.27 0 112.54 0v20.28a1.27 1.27 0 11-2.54 0V1.29zM30.87 1.32A1.28 1.28 0 0132.13.06h.35a1.57 1.57 0 011.29.74l13.68 17.45v-17a1.24 1.24 0 112.48 0V21.6a1.14 1.14 0 01-1.16 1.19h-.13a1.76 1.76 0 01-1.32-.79l-14-17.87V21.6a1.24 1.24 0 11-2.48 0zM56.3 1.29a1.27 1.27 0 112.54 0v12.33L71.69.45a1.43 1.43 0 011-.45 1.27 1.27 0 011.22 1.26 1.25 1.25 0 01-.42.9l-8 7.92 8.56 10.56a1.39 1.39 0 01.36.93 1.31 1.31 0 01-1.29 1.29 1.22 1.22 0 01-1-.58l-8.4-10.46-4.86 4.86v4.89a1.28 1.28 0 11-2.55 0V1.29z" fill="#fff"/></symbol><symbol id="logo--tablet" viewBox="0 0 146.3 40.38"><path d="M71.87 18.66a1.29 1.29 0 011.26-1.29h7.18c5.09 0 8.44 2.71 8.44 7.15v.06c0 4.86-4.06 7.38-8.86 7.38h-5.47v6.82a1.28 1.28 0 11-2.55 0V18.66zm8.12 11c3.73 0 6.18-2 6.18-5v-.06c0-3.22-2.41-4.89-6-4.89h-5.7v9.91zM93.6 18.5a1.28 1.28 0 112.55 0v20.28a1.28 1.28 0 11-2.55 0zM102.74 18.53a1.28 1.28 0 011.26-1.25h.35a1.55 1.55 0 011.29.74l13.69 17.45v-17a1.24 1.24 0 112.48 0v20.35a1.14 1.14 0 01-1.16 1.18h-.13a1.71 1.71 0 01-1.32-.78l-14-17.86v17.46a1.26 1.26 0 01-1.2 1.25 1.24 1.24 0 01-1.22-1.25V18.53zM128.17 18.5a1.28 1.28 0 112.55 0v12.33l12.84-13.17a1.48 1.48 0 011-.45 1.28 1.28 0 011.23 1.26 1.29 1.29 0 01-.42.9l-8 7.92L146 37.85a1.44 1.44 0 01.35.94 1.31 1.31 0 01-1.35 1.28 1.24 1.24 0 01-1-.58L135.58 29l-4.86 4.86v4.9a1.27 1.27 0 11-2.54 0V18.5zM60.46 28L55.29 6.65C54.93 4.3 52.69 0 46.69 0a1.5 1.5 0 000 3c4.85 0 5.57 3.73 5.64 4.14l4.76 19.7H55a12 12 0 00-23.85 0h-1.8a12 12 0 00-23.86 0H3.42l4.77-19.7C8.25 6.73 9 3 13.83 3a1.5 1.5 0 000-3c-6 0-8.24 4.3-8.6 6.65L.05 28a1.42 1.42 0 001.43 1.82h4a12 12 0 0023.85 0h1.81a12 12 0 0023.86 0h4A1.41 1.41 0 0060.46 28zm-34.15 1.84a9 9 0 01-17.92-1.5 9.29 9.29 0 01.13-1.5 9 9 0 0117.79 0 8.29 8.29 0 01.14 1.5 8.12 8.12 0 01-.14 1.5zm25.68 0a9 9 0 01-17.93-1.5 9.3 9.3 0 01.14-1.5 9 9 0 0117.79 0 9.3 9.3 0 01.14 1.5 9.09 9.09 0 01-.13 1.5z" fill="#fff"/></symbol><symbol id="photos__heart" viewBox="521.94 473.06 12.55 11.99"><path d="M528.17 485.05a.73.73 0 01-.55-.25c-3.8-4.32-4.64-5.3-4.86-5.57a3.85 3.85 0 01-.82-2.37c0-2.09 1.7-3.8 3.8-3.8.93 0 1.8.32 2.48.9.7-.58 1.56-.9 2.46-.9 2.09 0 3.8 1.7 3.8 3.8 0 .91-.32 1.75-.9 2.38l-4.86 5.56a.7.7 0 01-.55.25zm-4.24-6.7c.21.25 2.47 2.84 4.24 4.86l4.32-4.94c.34-.37.52-.86.52-1.4 0-1.29-1.04-2.33-2.33-2.33-.73 0-1.42.34-1.9.94-.14.18-.35.27-.58.28-.23 0-.44-.11-.58-.29-.44-.59-1.13-.92-1.89-.92-1.29 0-2.33 1.05-2.33 2.33 0 .68.28 1.17.51 1.47.01-.01.02-.01.02 0z" fill="#d22856"/></symbol><symbol id="post__contrast" viewBox="-35.42 -7.96 31.92 31.92"><path d="M-19.46-3.96C-12.87-3.96-7.5 1.41-7.5 8c0 6.59-5.37 11.96-11.96 11.96S-31.42 14.59-31.42 8c0-6.59 5.36-11.96 11.96-11.96m0-4C-28.27-7.96-35.42-.82-35.42 8c0 8.81 7.15 15.96 15.96 15.96S-3.5 16.81-3.5 8c0-8.82-7.15-15.96-15.96-15.96z"/><path d="M-19.46 16.33c4.71 0 8.52-3.81 8.52-8.52 0-4.71-3.81-8.52-8.52-8.52"/></symbol><symbol id="post__crop" viewBox="0 0 48 48"><path fill="none" d="M0 0h48v48H0V0z"/><path d="M34 30h4V14c0-2.21-1.79-4-4-4H18v4h16v16zm-20 4V2h-4v8H2v4h8v20c0 2.21 1.79 4 4 4h20v8h4v-8h8v-4H14z"/></symbol><symbol id="post__fill" viewBox="0 0 48 48"><path fill="none" d="M0 0h48v48H0V0z"/><path d="M33.12 17.88L15.24 0l-2.83 2.83 4.76 4.76L6.88 17.88a3 3 0 000 4.24l11 11c.58.59 1.35.88 2.12.88s1.54-.29 2.12-.88l11-11a3 3 0 000-4.24zM10.41 20L20 10.42 29.59 20H10.41zM38 23s-4 4.33-4 7c0 2.21 1.79 4 4 4s4-1.79 4-4c0-2.67-4-7-4-7zM0 40h48v3H0z"/></symbol><symbol id="socials__facebook" viewBox="0 0 8.67 18.94"><path d="M6.27 3.36h2.4V0H5.8C2.66.18 1.54 2.39 1.95 6.12H0v3.52h1.96v9.31H5.8V9.64h2.86V6.12H5.79c-.02-1.05-.04-2.41.48-2.76z"/></symbol><symbol id="socials__twitter" viewBox="0 0 17.5 14.66"><path d="M11.28.15c1.74-.48 3.07.26 3.68 1.15.69-.23 1.37-.47 2.07-.69 0 .84-.54 1.48-.88 1.73.7.17 1.34-.48 1.34-.48-.17.98-1.04 1.75-1.61 1.98-.24 6.59-3.27 10.96-10.38 10.82h-.46c-.42 0-4.29-.45-5.05-1.84 2.34.19 4.01-.41 4.84-1.15-.99-.29-2.76-.46-3.07-2.88.36.1.58.22 1.23.12C1.76 8.07.38 7.37.46 5.22c.29.32 1.1.52 1.38.46C1.12 5.44-.19 2.4.92.84c1.87 1.81 3.85 3.52 7.37 3.69C8.51 2.29 9.46.79 11.28.15z"/></symbol><symbol id="socials__youtube" viewBox="0 0 14.64 13.96"><path d="M1.78 13.78C.8 14.26 0 13.76 0 12.67V1.29C0 .2.8-.29 1.78.18l12.13 5.93c.97.48.97 1.26 0 1.74L1.78 13.78z"/></symbol></svg>