<svg xmlns="http://www.w3.org/2000/svg" viewBox="0 0 154.39 195.32"><path stroke="#231F20" stroke-miterlimit="10" d="M78 .58L77.19.5.5 8.54v140.57l76.7 45.63 76.69-45.63V8.54L78 .58h0zm65.86 142.82L77.2 183.07l-66.66-39.66V85.79l66.37 39.51.11 7.16-45.53-27.1-.07 6.95 45.71 27.47.11 7.35-45.7-27.19-.07 6.95 45.73 27.48 46.15-27.62v-6.98l-.06.03V97.09l20.57-12.28v58.59h0zm-.05-66.06l-18.24 10.74-8.42 4.96L77 69.16l-.07 6.95 34.32 20.41-.3.18-.74.44-4.88 2.87L77 83.16l-.07 6.95 22.36 13.3-5.28 3.53-.13.08-16.89-9.95-.07 6.95L88 110.55l-11.29 6.78-66.04-39.26 66.14-39.75v.01l67 39.01h0zm.05-6.99L76.84 30.84v-.01h-.02v.01L10.54 70.3V17.57l66.66-6.99 66.66 6.99v52.78h0z"/></svg>