<?xml version="1.0" encoding="UTF-8"?><!DOCTYPE svg PUBLIC "-//W3C//DTD SVG 1.1//EN" "http://www.w3.org/Graphics/SVG/1.1/DTD/svg11.dtd"><svg xmlns="http://www.w3.org/2000/svg" xmlns:xlink="http://www.w3.org/1999/xlink"><symbol id="additional__promoIcon" viewBox="0 0 55.5 60">
<path d="M52.3,12.2h-7c0.5-0.7,0.8-1.4,1.1-2.2c0.6-2,0.4-4.1-0.6-5.9c-1-1.8-2.6-3.1-4.6-3.7c-2-0.6-4.1-0.4-5.9,0.6
	c-3.6,2-6.2,6.1-7.6,9c-1.4-2.9-4-7.1-7.6-9c-3.8-2-8.5-0.6-10.5,3.1c-1.4,2.7-1.2,5.8,0.5,8.1h-7c-1.7,0-3.1,1.4-3.1,3.1v9.4
	c0,1.7,1.4,3.1,3.1,3.1H4v26.1c0,3.3,2.7,6,6,6h35.5c3.3,0,6-2.7,6-6V27.8h0.8c1.7,0,3.1-1.4,3.1-3.1v-9.4
	C55.5,13.6,54.1,12.2,52.3,12.2z M36.5,3c1.3-0.7,2.7-0.8,4.1-0.4C41.9,3,43,3.9,43.7,5.2c0.7,1.3,0.8,2.7,0.4,4.1
	c-0.4,1.2-1.1,2.2-2.2,2.9H29.4C30.5,9.6,33,5,36.5,3z M11.7,5.2C13.2,2.6,16.4,1.6,19,3c3.5,1.9,6,6.6,7.1,9.1H13.5
	C11.2,10.7,10.4,7.6,11.7,5.2z M26.5,27.8v13.7H6.4V27.8H26.5z M6.4,53.9v-10h20.2v13.7H10C8,57.6,6.4,55.9,6.4,53.9z M45.5,57.6
	H28.9V43.9h20.2v10C49.1,55.9,47.5,57.6,45.5,57.6z M49.1,41.5H28.9V27.8h20.2V41.5z M53.1,24.7c0,0.4-0.3,0.7-0.7,0.7h-2
	c0,0,0,0,0,0s0,0,0,0H27.7c0,0,0,0,0,0s0,0,0,0H5.2c0,0,0,0,0,0s0,0,0,0h-2c-0.4,0-0.7-0.3-0.7-0.7v-9.4c0-0.4,0.3-0.7,0.7-0.7h49.2
	c0.4,0,0.7,0.3,0.7,0.7V24.7z"/>
</symbol><symbol id="catalog__addNew" viewBox="0 0 30 30"><path d="M30 14H16V0h-2v14H0v2h14v14h2V16h14z"/></symbol><symbol id="categories__diet" viewBox="0 0 367.6 512"><path d="M288 0h-2c-3.6 1.9-5.7 5-7.5 8.4-3.1 5.8-5.3 11.9-6.9 18.2-1.1 4.3-3.4 6.3-7.8 7.1-12.3 2.1-21.2 9.1-27.5 19.8-3.9 6.6-6.9 13.7-9.7 20.8-7.5 19.4-13.2 39.5-20.2 59.1-3.3 9.4-3.5 9.2-13.5 9.3-11.9.1-11.1-1.9-11.2 11.3-.1 4.2 1.3 6.3 5.7 6.1 1.4-.1 3.4-.7 3.9 1.1.4 1.5-1.3 2.6-2.3 3.6-6.3 6.6-14.1 10.5-22.8 12.8-10 2.7-20.1 4.8-29.9 8.1-24.9 8.4-48 20.1-65.9 40-11 12.1-18.5 26.5-24.9 41.4-19.5 45.4-28.6 93.5-35.9 142-3.4 22.7-5.8 45.6-7.7 68.5C1 489-.2 500.5 0 512h175c.6-2.4-.4-4.6-1.2-6.8-3.6-9.3-10.9-14.1-20.1-16.2-3.6-.8-4.1-1.9-1.8-4.8 3.8-4.9 6.4-10.5 8.4-16.4 8.6-25.4 11.9-51.8 16-78.1 3.2-20.1 7.9-39.5 18.3-57.2 7.7-13.1 17.3-24.4 29.4-33.6 4.4-3.3 4.5-3.3 5.2 2.3.5 3.8.6 7.6.9 11.4 1.5 25 1.4 49.9-.9 74.8-1.8 19.4-2.5 38.8-.8 58.3 1.9 22.4 6.1 44.5 11.7 66.2h70c-1.7-11.6-11.1-21.2-22.3-23.4-6.7-1.3-13.3-.4-19.8 1.1-3.1.7-4.5.2-4.7-3.4-2.1-28.1-.7-56 5-83.5 6.6-31.8 12.8-63.7 16.1-96 1.4-13.4 5.4-25.5 11.9-37.1 6.3-11.2 11.7-22.8 17.9-34.1 4.9-8.9 5.8-17.9 2.2-27.4-1.4-3.7-2.8-7.5-4.5-11.1-5-10.3-10.4-20.5-15.3-30.9-2.6-5.4-2-5.9 3.7-6.1 8.6-.2 8.6-.2 8.7-8.7v-3.5c.1-3.6-1.3-5.6-5.3-5.3-2.7.2-5.3 0-8 .1-3.6.1-4.7-1.5-3.8-5 3-12 14.6-21.9 27-23.4 11.8-1.4 23.3.2 34.7 2.3 3.4.6 5.3-.1 6.6-3.4 2.1-5.3 4.4-10.4 6.8-15.6 1-2.2 1-4-.5-6-16.7-21.7-34.9-41.7-59.7-54.4-2.6-1.3-4.1-3-4.7-5.9-1.6-7.5-3.4-14.9-6.7-21.9-1.7-3.8-3.7-7.2-7.4-9.3z"/></symbol><symbol id="categories__mass" viewBox="0 0 454.1 188.4"><path d="M417 19.6c4.1-6.3 9.2-11.4 15.4-15.6 3.4-2.2 5.5-2.2 7.3 1.9 2.9 6.5 5.1 13.1 3.1 20.3-.7 2.6-.2 4.9 1.4 7 1.9 2.5 3.6 5.2 5.3 7.9 4.3 6.5 6 13.2 3.1 20.8-1.3 3.3-1.4 6.8-.7 10.3.7 3.3.5 6.6 0 10-.9 5.4-3.7 9.2-9.2 10.7-4.3 1.1-8.1 3.1-10.9 6.7-.7.9-1.7 1.6-2.9 1.8-4 .5-14.2-8.5-14.1-12.6 0-.7 0-1.3.1-2 .2-12-.5-13.2-11.6-18-2.3-1-4.5-2.2-6.1-4.2-2.2-2.8-4.9-2.5-7.7-1.3s-4.7 3-4.3 6.5c.9 8.1 1.2 16.3 1.2 24.4 0 1 .3 2.1.8 2.8 10.5 15.1 14.4 32.9 19.7 50 4 13.1 11.5 20.2 25 21.1 2.1.2 4.3.7 6.4 1 6 1.1 9.7 4.9 11.4 10.6 2.2 7.1 1.1 8.6-6.3 8.6-7.3 0-14.7 0-22 .1-3 0-5.5-.5-7.7-2.7-3.3-3.2-7.5-4.9-11.6-6.7-4.5-2-8.7-4.5-11.4-8.7-3.8-5.8-8.9-10.4-13.6-15.2-9.6-9.7-19.5-19.1-28.5-29.4-6.5-7.4-10.8-15.6-10.7-25.6 0-3.2-.8-4.5-4-2.9-1 .5-2.2 1-3.3 1-9.5.2-14.2 5.8-17.6 14.1-3 7.2-7.2 13.9-10.8 20.9-2.4 4.6-3.9 9.5-3.9 14.8 0 7.9 1.9 10.8 9.3 13.4 4.6 1.7 9.1 3.4 11.6 8 2.9 5.2 2 6.9-3.8 6.9-7.7.1-15.3 0-23 .1-3 0-5-1-6.4-3.7-1.9-3.5-4.2-6.8-6.3-10.2-3.5-5.6-4.9-11.4-2.5-18.1 2-5.8 1.1-12 .3-17.8-1.3-8.8.1-16.6 5.8-23.4 1.9-2.2 2.1-3.5-1.3-4.1-14-2.6-27.2-7.6-40.1-13.7-.2-.1-.3-.1-.5-.2-10.8-4.2-12.9-3.2-15.9 7.7-2.6 9.5-5.4 18.9-7.4 28.5-2.3 10.6.4 20.8 3.8 30.9 1.3 3.9 5.3 3.7 8.3 4.6 6.6 2 12.4 4.8 15.3 11.6 2.3 5.3 2 6.1-3.7 6.1-5.8 0-11.7-.3-17.5.1-5.5.4-9.6-1.7-14.1-4.8-16.3-10.9-20.9-27.1-22.2-45.2-.8-11.2-6.7-20-13.9-28.1-1.4-1.6-2.7-2.2-4.7-.9-7.1 4.5-15.1 7-22.9 9.9-16.4 6.2-30.6 15.5-41.3 29.5-3.9 5.1-6.6 10.8-7.6 17.2-.9 6 .8 8.6 6.6 10.3 6.5 1.9 9 5 9.8 11.6.3 2.8-.7 4.2-3.5 4.2-9.2 0-18.3 0-27.5-.1-2 0-3.3-1.2-4.5-2.7-4.4-5.4-6.4-11.6-6.6-18.5-.3-11.7 1.1-23.3 3.1-34.8 1.3-7.1 4.6-12.9 11.4-16.1 20-9.4 30.5-27.1 39.9-45.8 1.9-3.8.2-4.3-3-4-9.8.9-18.2 5.2-26 10.7C87.1 74.2 78 82.5 68.9 90.9c-9.9 9.2-21.1 15.6-34.9 16.6-23.4 1.6-35.1-11.9-34-34.3.4-7.6 3-14.7 8.2-20.5 4-4.5 9-6.9 15.2-5.1 5.2 1.5 6.5 4.1 4.4 8.9-.9 2-2.2 3.7-3.2 5.6-1.2 2.2-2.5 4.3-3.4 6.7-3.6 10 1.2 17.2 11.8 18.1 11.2 1 20.4-3.7 28.9-10.4 10.4-8 19.3-17.5 27.3-27.7 12.6-16.1 28.9-24.6 48.8-27.2 7.7-1 14.6-4.4 22-6.5 14-3.9 28.3-6.3 42.9-5.9 6.9.2 13.2-.9 19.8-3.6 16.5-6.7 33.8-6.7 51.1-3.2 13.5 2.7 26.9 6.1 40.4 9.3 7.6 1.8 15.9 1.2 23.7-.5 15-3.3 30-6.3 45.4-6.6 10.1-.2 19.9 1.5 29.2 5.7 6.4 2.9 6.5 2.9 4.5 9.3z"/></symbol><symbol id="developer__logo" viewBox="0 0 26.9 34.1"><path d="M13.6 0h-.1L0 1.4v24.7l13.5 8 13.4-8V1.4L13.6 0zM25 12.1L13.5 5.3v-.1h-.1l-.1-.1v.1L1.9 12.1v-9l11.5-1.2L25 3.1v9zM13.4 6.8l11.5 6.7-4.5 2.6-7.1-4.2v1.4l5.9 3.5-.9.5-5-3v1.4l3.8 2.3-.8.5-3-1.8v1.4l1.9 1.1-1.8 1.1L2 13.6l11.4-6.8zM1.9 15.1l11.4 6.8v1l-7.9-4.7v1.4l8 4.8v1.1l-8-4.7v1.4l8 4.8 8.1-4.9v-5.2l3.4-2v10l-11.5 6.9L1.9 25v-9.9z"/></symbol><symbol id="logo__text" viewBox="0 0 100.5 18.1"><path d="M1.2 16.6c-.8-1-1.2-2.5-1.2-4.4V5.9C0 4 .4 2.5 1.2 1.5 2 .5 3.4 0 5.4 0c1.9 0 3.2.4 4 1.3.8.9 1.2 2.1 1.2 3.8v1.5h-4V4.8c0-.7-.1-1.2-.2-1.6-.1-.3-.5-.5-1-.5s-1 .2-1.1.6c-.2.4-.3.9-.3 1.6v8.3c0 .7.1 1.2.3 1.6.2.4.5.6 1.1.6.5 0 .9-.2 1-.6.2-.4.2-.9.2-1.6v-1.8h3.9v1.5c0 1.6-.4 2.9-1.2 3.9-.8.9-2.1 1.4-4 1.4-1.9-.1-3.3-.6-4.1-1.6zM15.2.2h4.5L23 17.8h-3.6l-.6-3.7h-2.6l-.6 3.7h-3.7L15.2.2zm3.2 11.6l-.9-6.9-.9 6.9h1.8zm7.4-8.7h-2.7V.2h9.3v2.9h-2.7v14.7h-4V3.1zM39.5.2h6.9V2H42v5.8h3.6v1.7H42v6.4h4.5v1.8h-7V.2zm9 0h1.7l5.1 11.7V.2h2.1v17.6h-1.6l-5.1-12v12h-2.1V.2zm11.3 0h6.9V2h-4.4v5.8h3.6v1.7h-3.6v6.4h4.5v1.8h-7V.2zm9 0h3.6c1.8 0 3.1.4 4 1.1s1.3 1.9 1.3 3.6c0 2.3-.7 3.6-2.2 4.1l2.5 8.8h-2.4l-2.3-8.3h-1.9v8.3h-2.5V.2zm3.4 7.6c1.1 0 1.8-.2 2.3-.6.5-.4.7-1.2.7-2.3 0-.7-.1-1.3-.2-1.7s-.4-.7-.9-.9c-.4-.2-1-.3-1.7-.3h-1.1v5.8h.9zm8.6 8.7c-.7-1-1.1-2.5-1.1-4.5V6.2c0-1.4.1-2.5.4-3.4.3-.9.8-1.5 1.5-2s1.7-.7 2.9-.7c1.6 0 2.8.4 3.6 1.2.7.8 1.1 2.1 1.1 3.9v.7h-2.3v-.6c0-.8-.1-1.5-.2-1.9-.1-.5-.3-.8-.7-1-.3-.3-.8-.4-1.4-.4-.7 0-1.2.2-1.5.5-.3.3-.6.7-.7 1.2-.1.5-.1 1.2-.1 2.1v6.5c0 1.3.2 2.3.5 2.9.3.6 1 .9 1.9.9.9 0 1.6-.3 1.9-1 .3-.6.5-1.7.5-3.1v-1.2h-2.3V9.1h4.5v8.7h-1.6l-.2-2c-.6 1.5-1.6 2.2-3.2 2.2s-2.8-.5-3.5-1.5zm13.5-4.9L90.4.2h2.3l2.7 8.5L98.1.2h2.3l-3.8 11.4v6.2h-2.4v-6.2z" fill="#111"/></symbol><symbol id="social__fb" viewBox="0 0 10 19"><path d="M7.1 19H2v-8.8H0V5.8h1.9c-.1-2 .2-3.4 1.1-4.4C3.8.5 5 .1 6.5 0H10v4.2H7.2c-.1.2-.2.8-.2 1.6h3v4.4H7.1V19zm-4-1h2.8V9.1h2.9V6.8H5.9v-.5c0-1.4 0-2.6.7-3.1l.1-.1h2.1V1H6.5c-1.2.1-2 .4-2.6 1-.8.8-1 2.3-.8 4.2l.1.6H1.1v2.3h2V18z"/></symbol><symbol id="social__insta" viewBox="0 0 16 16"><path fill="#231F20" d="M11.8 1C13.6 1 15 2.4 15 4.2v7.7c0 1.7-1.4 3.1-3.1 3.1H4.2C2.4 15 1 13.6 1 11.8V4.2C1 2.4 2.4 1 4.2 1h7.6m0-1H4.2C1.9 0 0 1.9 0 4.2v7.7C0 14.1 1.9 16 4.2 16h7.7c2.3 0 4.2-1.9 4.2-4.2V4.2C16 1.9 14.1 0 11.8 0z"/><path fill="#231F20" d="M8 4.9c1.7 0 3.1 1.4 3.1 3.1 0 1.7-1.4 3.1-3.1 3.1-1.7 0-3.1-1.4-3.1-3.1 0-1.7 1.4-3.1 3.1-3.1m0-1C5.7 3.9 3.9 5.7 3.9 8s1.8 4.1 4.1 4.1 4.1-1.8 4.1-4.1S10.3 3.9 8 3.9z"/><circle fill="#231F20" cx="12.3" cy="3.7" r=".9"/></symbol><symbol id="social__vk" viewBox="0 0 22 12"><path d="M17.6 12c-.3 0-.9-.1-1.5-.5-.5-.3-.9-.7-1.3-1.2-.3-.3-.9-.9-1.1-.9-.2.1-.4.7-.3 1.2 0 .1 0 .6-.3.9-.3.3-.8.4-.9.4h-1.4c-.7 0-3.2-.2-5.4-2.3C2.5 7.1.2 2.2.1 2 0 1.6-.1 1.2.2.9c.3-.3.8-.4 1-.4h3.1c.1 0 .4.1.7.3.3.2.4.5.5.6 0 0 .5 1.1 1.1 2 1 1.5 1.4 1.9 1.5 2 .1-.4.2-1.4.1-2.3 0-.4-.1-.8-.2-1-.1-.1-.3-.2-.5-.2l-.6-.5c0-.5.5-.9.9-1.1.5-.2 1.3-.3 2.3-.3h.5c.9 0 1.2.1 1.6.1 1.2.3 1.2 1.3 1.1 2.5v1.6c0 .3 0 .8.1 1 .2-.1.6-.5 1.5-1.9.6-.9 1-1.9 1.1-2.1.1-.3.4-.7 1.2-.7h3.4c.7 0 1.2.2 1.3.7.2.5.1 1.3-1.7 3.5-.3.3-.5.6-.7.9-.5.4-.9 1-.9 1.1 0 .1.5.5.9.9 1.1.9 1.9 1.7 2.2 2.3.4.6.3 1 .2 1.3-.3.7-1.2.7-1.4.8h-2.9zm-3.9-3.7c.7 0 1.2.6 1.8 1.2.4.4.7.8 1.1 1 .5.3 1 .3 1 .3h2.9c.1 0 .3-.1.4-.1 0 0 0-.1-.1-.1-.3-.5-1-1.3-2-2.1-.9-.7-1.3-1.1-1.4-1.7 0-.6.4-1.1 1.2-2.1.2-.2.4-.5.7-.8 1.1-1.4 1.4-2 1.5-2.3h-3.9c0 .4-.5 1.5-1.1 2.4-1.4 2.1-2 2.4-2.5 2.4-.1 0-.3 0-.4-.1-.7-.4-.7-1.4-.7-2.1V2.6c.1-1.3 0-1.3-.3-1.4-.3-.1-.5-.1-1.4-.1H10c-.5 0-1 0-1.4.1l.2.2c.4.5.4 1.5.4 1.7.1 1.3 0 2.9-.7 3.3-.1 0-.2.1-.4.1-.6 0-1.3-.7-2.5-2.5C5 2.9 4.5 1.8 4.5 1.8s0-.1-.1-.1-.2-.1-.2-.1h-3c.4.9 2.5 5 4.8 7.2 2 1.9 4.3 2 4.7 2h1.4s.2 0 .2-.1v-.1c0-.2 0-2 1.2-2.3h.2z"/></symbol></svg>